solid 8mm프로파일6mm높이추가
   facet normal 0.000000e+000 0.000000e+000 1.000000e+000
      outer loop
         vertex 1.900000e+001 3.000000e+001 1.300000e+001
         vertex 1.900000e+001 0.000000e+000 1.300000e+001
         vertex 2.800000e+001 3.000000e+001 1.300000e+001
      endloop
   endfacet
   facet normal 0.000000e+000 0.000000e+000 1.000000e+000
      outer loop
         vertex 2.800000e+001 3.000000e+001 1.300000e+001
         vertex 1.900000e+001 0.000000e+000 1.300000e+001
         vertex 2.800000e+001 0.000000e+000 1.300000e+001
      endloop
   endfacet
   facet normal 0.000000e+000 0.000000e+000 1.000000e+000
      outer loop
         vertex 2.868404e+001 2.987938e+001 1.300000e+001
         vertex 2.834729e+001 2.996961e+001 1.300000e+001
         vertex 3.000000e+001 2.800000e+001 1.300000e+001
      endloop
   endfacet
   facet normal 0.000000e+000 0.000000e+000 1.000000e+000
      outer loop
         vertex 3.000000e+001 2.800000e+001 1.300000e+001
         vertex 2.834729e+001 2.996961e+001 1.300000e+001
         vertex 2.800000e+001 3.000000e+001 1.300000e+001
      endloop
   endfacet
   facet normal 0.000000e+000 0.000000e+000 1.000000e+000
      outer loop
         vertex 3.000000e+001 2.800000e+001 1.300000e+001
         vertex 2.800000e+001 3.000000e+001 1.300000e+001
         vertex 3.000000e+001 1.999999e+000 1.300000e+001
      endloop
   endfacet
   facet normal 0.000000e+000 0.000000e+000 1.000000e+000
      outer loop
         vertex 3.000000e+001 1.999999e+000 1.300000e+001
         vertex 2.800000e+001 3.000000e+001 1.300000e+001
         vertex 2.800000e+001 0.000000e+000 1.300000e+001
      endloop
   endfacet
   facet normal 0.000000e+000 0.000000e+000 1.000000e+000
      outer loop
         vertex 3.000000e+001 1.999999e+000 1.300000e+001
         vertex 2.800000e+001 0.000000e+000 1.300000e+001
         vertex 2.831287e+001 2.462324e-002 1.300000e+001
      endloop
   endfacet
   facet normal 0.000000e+000 0.000000e+000 1.000000e+000
      outer loop
         vertex 2.831287e+001 2.462324e-002 1.300000e+001
         vertex 2.861803e+001 9.788666e-002 1.300000e+001
         vertex 3.000000e+001 1.999999e+000 1.300000e+001
      endloop
   endfacet
   facet normal 0.000000e+000 0.000000e+000 1.000000e+000
      outer loop
         vertex 3.000000e+001 1.999999e+000 1.300000e+001
         vertex 2.861803e+001 9.788666e-002 1.300000e+001
         vertex 2.890798e+001 2.179863e-001 1.300000e+001
      endloop
   endfacet
   facet normal 0.000000e+000 0.000000e+000 1.000000e+000
      outer loop
         vertex 3.000000e+001 1.999999e+000 1.300000e+001
         vertex 2.890798e+001 2.179863e-001 1.300000e+001
         vertex 2.917557e+001 3.819661e-001 1.300000e+001
      endloop
   endfacet
   facet normal 0.000000e+000 0.000000e+000 1.000000e+000
      outer loop
         vertex 2.917557e+001 3.819661e-001 1.300000e+001
         vertex 2.941422e+001 5.857860e-001 1.300000e+001
         vertex 3.000000e+001 1.999999e+000 1.300000e+001
      endloop
   endfacet
   facet normal 0.000000e+000 0.000000e+000 1.000000e+000
      outer loop
         vertex 3.000000e+001 1.999999e+000 1.300000e+001
         vertex 2.941422e+001 5.857860e-001 1.300000e+001
         vertex 2.961803e+001 8.244291e-001 1.300000e+001
      endloop
   endfacet
   facet normal 0.000000e+000 0.000000e+000 1.000000e+000
      outer loop
         vertex 3.000000e+001 1.999999e+000 1.300000e+001
         vertex 2.961803e+001 8.244291e-001 1.300000e+001
         vertex 2.997538e+001 1.687131e+000 1.300000e+001
      endloop
   endfacet
   facet normal 0.000000e+000 0.000000e+000 1.000000e+000
      outer loop
         vertex 2.997538e+001 1.687131e+000 1.300000e+001
         vertex 2.961803e+001 8.244291e-001 1.300000e+001
         vertex 2.978201e+001 1.092019e+000 1.300000e+001
      endloop
   endfacet
   facet normal 0.000000e+000 0.000000e+000 1.000000e+000
      outer loop
         vertex 2.997538e+001 1.687131e+000 1.300000e+001
         vertex 2.978201e+001 1.092019e+000 1.300000e+001
         vertex 2.990211e+001 1.381965e+000 1.300000e+001
      endloop
   endfacet
   facet normal 0.000000e+000 0.000000e+000 1.000000e+000
      outer loop
         vertex 2.868404e+001 2.987938e+001 1.300000e+001
         vertex 3.000000e+001 2.800000e+001 1.300000e+001
         vertex 2.900000e+001 2.973205e+001 1.300000e+001
      endloop
   endfacet
   facet normal 0.000000e+000 0.000000e+000 1.000000e+000
      outer loop
         vertex 2.900000e+001 2.973205e+001 1.300000e+001
         vertex 3.000000e+001 2.800000e+001 1.300000e+001
         vertex 2.996961e+001 2.834729e+001 1.300000e+001
      endloop
   endfacet
   facet normal 0.000000e+000 0.000000e+000 1.000000e+000
      outer loop
         vertex 2.900000e+001 2.973205e+001 1.300000e+001
         vertex 2.996961e+001 2.834729e+001 1.300000e+001
         vertex 2.987938e+001 2.868404e+001 1.300000e+001
      endloop
   endfacet
   facet normal 0.000000e+000 0.000000e+000 1.000000e+000
      outer loop
         vertex 2.987938e+001 2.868404e+001 1.300000e+001
         vertex 2.973205e+001 2.900000e+001 1.300000e+001
         vertex 2.900000e+001 2.973205e+001 1.300000e+001
      endloop
   endfacet
   facet normal 0.000000e+000 0.000000e+000 1.000000e+000
      outer loop
         vertex 2.900000e+001 2.973205e+001 1.300000e+001
         vertex 2.973205e+001 2.900000e+001 1.300000e+001
         vertex 2.953209e+001 2.928558e+001 1.300000e+001
      endloop
   endfacet
   facet normal 0.000000e+000 0.000000e+000 1.000000e+000
      outer loop
         vertex 2.900000e+001 2.973205e+001 1.300000e+001
         vertex 2.953209e+001 2.928558e+001 1.300000e+001
         vertex 2.928558e+001 2.953209e+001 1.300000e+001
      endloop
   endfacet
   facet normal 0.000000e+000 0.000000e+000 1.000000e+000
      outer loop
         vertex 1.652704e+000 3.038440e-002 1.300000e+001
         vertex 1.999999e+000 0.000000e+000 1.300000e+001
         vertex 4.679104e-001 7.144241e-001 1.300000e+001
      endloop
   endfacet
   facet normal 0.000000e+000 0.000000e+000 1.000000e+000
      outer loop
         vertex 9.999992e-001 2.973205e+001 1.300000e+001
         vertex 7.144241e-001 2.953209e+001 1.300000e+001
         vertex 0.000000e+000 2.800000e+001 1.300000e+001
      endloop
   endfacet
   facet normal 0.000000e+000 0.000000e+000 1.000000e+000
      outer loop
         vertex 0.000000e+000 2.800000e+001 1.300000e+001
         vertex 0.000000e+000 1.999999e+000 1.300000e+001
         vertex 1.999999e+000 0.000000e+000 1.300000e+001
      endloop
   endfacet
   facet normal 0.000000e+000 0.000000e+000 1.000000e+000
      outer loop
         vertex 1.999999e+000 0.000000e+000 1.300000e+001
         vertex 0.000000e+000 1.999999e+000 1.300000e+001
         vertex 3.038440e-002 1.652704e+000 1.300000e+001
      endloop
   endfacet
   facet normal 0.000000e+000 0.000000e+000 1.000000e+000
      outer loop
         vertex 9.999992e-001 2.973205e+001 1.300000e+001
         vertex 0.000000e+000 2.800000e+001 1.300000e+001
         vertex 1.315960e+000 2.987938e+001 1.300000e+001
      endloop
   endfacet
   facet normal 0.000000e+000 0.000000e+000 1.000000e+000
      outer loop
         vertex 7.144241e-001 2.953209e+001 1.300000e+001
         vertex 4.679104e-001 2.928558e+001 1.300000e+001
         vertex 0.000000e+000 2.800000e+001 1.300000e+001
      endloop
   endfacet
   facet normal 0.000000e+000 0.000000e+000 1.000000e+000
      outer loop
         vertex 0.000000e+000 2.800000e+001 1.300000e+001
         vertex 4.679104e-001 2.928558e+001 1.300000e+001
         vertex 2.679490e-001 2.900000e+001 1.300000e+001
      endloop
   endfacet
   facet normal 0.000000e+000 0.000000e+000 1.000000e+000
      outer loop
         vertex 0.000000e+000 2.800000e+001 1.300000e+001
         vertex 2.679490e-001 2.900000e+001 1.300000e+001
         vertex 3.038440e-002 2.834729e+001 1.300000e+001
      endloop
   endfacet
   facet normal 0.000000e+000 0.000000e+000 1.000000e+000
      outer loop
         vertex 3.038440e-002 2.834729e+001 1.300000e+001
         vertex 2.679490e-001 2.900000e+001 1.300000e+001
         vertex 1.206147e-001 2.868404e+001 1.300000e+001
      endloop
   endfacet
   facet normal 0.000000e+000 0.000000e+000 1.000000e+000
      outer loop
         vertex 3.038440e-002 1.652704e+000 1.300000e+001
         vertex 1.206147e-001 1.315960e+000 1.300000e+001
         vertex 1.999999e+000 0.000000e+000 1.300000e+001
      endloop
   endfacet
   facet normal 0.000000e+000 0.000000e+000 1.000000e+000
      outer loop
         vertex 1.999999e+000 0.000000e+000 1.300000e+001
         vertex 1.206147e-001 1.315960e+000 1.300000e+001
         vertex 2.679490e-001 9.999992e-001 1.300000e+001
      endloop
   endfacet
   facet normal 0.000000e+000 0.000000e+000 1.000000e+000
      outer loop
         vertex 1.999999e+000 0.000000e+000 1.300000e+001
         vertex 2.679490e-001 9.999992e-001 1.300000e+001
         vertex 4.679104e-001 7.144241e-001 1.300000e+001
      endloop
   endfacet
   facet normal 0.000000e+000 0.000000e+000 1.000000e+000
      outer loop
         vertex 1.652704e+000 3.038440e-002 1.300000e+001
         vertex 4.679104e-001 7.144241e-001 1.300000e+001
         vertex 1.315960e+000 1.206147e-001 1.300000e+001
      endloop
   endfacet
   facet normal 0.000000e+000 0.000000e+000 1.000000e+000
      outer loop
         vertex 1.315960e+000 1.206147e-001 1.300000e+001
         vertex 4.679104e-001 7.144241e-001 1.300000e+001
         vertex 7.144241e-001 4.679104e-001 1.300000e+001
      endloop
   endfacet
   facet normal 0.000000e+000 0.000000e+000 1.000000e+000
      outer loop
         vertex 1.315960e+000 1.206147e-001 1.300000e+001
         vertex 7.144241e-001 4.679104e-001 1.300000e+001
         vertex 9.999992e-001 2.679490e-001 1.300000e+001
      endloop
   endfacet
   facet normal 0.000000e+000 0.000000e+000 1.000000e+000
      outer loop
         vertex 1.100000e+001 0.000000e+000 1.300000e+001
         vertex 1.100000e+001 3.000000e+001 1.300000e+001
         vertex 1.999999e+000 0.000000e+000 1.300000e+001
      endloop
   endfacet
   facet normal 0.000000e+000 0.000000e+000 1.000000e+000
      outer loop
         vertex 1.999999e+000 0.000000e+000 1.300000e+001
         vertex 1.100000e+001 3.000000e+001 1.300000e+001
         vertex 1.999999e+000 3.000000e+001 1.300000e+001
      endloop
   endfacet
   facet normal 0.000000e+000 0.000000e+000 1.000000e+000
      outer loop
         vertex 1.999999e+000 0.000000e+000 1.300000e+001
         vertex 1.999999e+000 3.000000e+001 1.300000e+001
         vertex 0.000000e+000 2.800000e+001 1.300000e+001
      endloop
   endfacet
   facet normal 0.000000e+000 0.000000e+000 1.000000e+000
      outer loop
         vertex 0.000000e+000 2.800000e+001 1.300000e+001
         vertex 1.999999e+000 3.000000e+001 1.300000e+001
         vertex 1.652704e+000 2.996961e+001 1.300000e+001
      endloop
   endfacet
   facet normal 0.000000e+000 0.000000e+000 1.000000e+000
      outer loop
         vertex 0.000000e+000 2.800000e+001 1.300000e+001
         vertex 1.652704e+000 2.996961e+001 1.300000e+001
         vertex 1.315960e+000 2.987938e+001 1.300000e+001
      endloop
   endfacet
   facet normal 0.000000e+000 0.000000e+000 -1.000000e+000
      outer loop
         vertex 2.800000e+001 3.000000e+001 7.000000e+000
         vertex 3.000000e+001 1.900000e+001 7.000000e+000
         vertex 1.999999e+000 3.000000e+001 7.000000e+000
      endloop
   endfacet
   facet normal 0.000000e+000 0.000000e+000 -1.000000e+000
      outer loop
         vertex 1.999999e+000 3.000000e+001 7.000000e+000
         vertex 3.000000e+001 1.900000e+001 7.000000e+000
         vertex 0.000000e+000 1.900000e+001 7.000000e+000
      endloop
   endfacet
   facet normal 0.000000e+000 0.000000e+000 -1.000000e+000
      outer loop
         vertex 1.999999e+000 3.000000e+001 7.000000e+000
         vertex 0.000000e+000 1.900000e+001 7.000000e+000
         vertex 0.000000e+000 2.800000e+001 7.000000e+000
      endloop
   endfacet
   facet normal 0.000000e+000 0.000000e+000 -1.000000e+000
      outer loop
         vertex 3.038440e-002 2.834729e+001 7.000000e+000
         vertex 1.206147e-001 2.868404e+001 7.000000e+000
         vertex 2.679490e-001 2.900000e+001 7.000000e+000
      endloop
   endfacet
   facet normal 0.000000e+000 0.000000e+000 -1.000000e+000
      outer loop
         vertex 0.000000e+000 2.800000e+001 7.000000e+000
         vertex 7.144241e-001 2.953209e+001 7.000000e+000
         vertex 9.999992e-001 2.973205e+001 7.000000e+000
      endloop
   endfacet
   facet normal 0.000000e+000 0.000000e+000 -1.000000e+000
      outer loop
         vertex 3.038440e-002 2.834729e+001 7.000000e+000
         vertex 2.679490e-001 2.900000e+001 7.000000e+000
         vertex 0.000000e+000 2.800000e+001 7.000000e+000
      endloop
   endfacet
   facet normal 0.000000e+000 0.000000e+000 -1.000000e+000
      outer loop
         vertex 0.000000e+000 2.800000e+001 7.000000e+000
         vertex 2.679490e-001 2.900000e+001 7.000000e+000
         vertex 4.679104e-001 2.928558e+001 7.000000e+000
      endloop
   endfacet
   facet normal 0.000000e+000 0.000000e+000 -1.000000e+000
      outer loop
         vertex 0.000000e+000 2.800000e+001 7.000000e+000
         vertex 4.679104e-001 2.928558e+001 7.000000e+000
         vertex 7.144241e-001 2.953209e+001 7.000000e+000
      endloop
   endfacet
   facet normal 0.000000e+000 0.000000e+000 -1.000000e+000
      outer loop
         vertex 9.999992e-001 2.973205e+001 7.000000e+000
         vertex 1.315960e+000 2.987938e+001 7.000000e+000
         vertex 0.000000e+000 2.800000e+001 7.000000e+000
      endloop
   endfacet
   facet normal 0.000000e+000 0.000000e+000 -1.000000e+000
      outer loop
         vertex 0.000000e+000 2.800000e+001 7.000000e+000
         vertex 1.315960e+000 2.987938e+001 7.000000e+000
         vertex 1.652704e+000 2.996961e+001 7.000000e+000
      endloop
   endfacet
   facet normal 0.000000e+000 0.000000e+000 -1.000000e+000
      outer loop
         vertex 0.000000e+000 2.800000e+001 7.000000e+000
         vertex 1.652704e+000 2.996961e+001 7.000000e+000
         vertex 1.999999e+000 3.000000e+001 7.000000e+000
      endloop
   endfacet
   facet normal 0.000000e+000 0.000000e+000 -1.000000e+000
      outer loop
         vertex 2.834729e+001 2.996961e+001 7.000000e+000
         vertex 2.996961e+001 2.834729e+001 7.000000e+000
         vertex 2.800000e+001 3.000000e+001 7.000000e+000
      endloop
   endfacet
   facet normal 0.000000e+000 0.000000e+000 -1.000000e+000
      outer loop
         vertex 2.800000e+001 3.000000e+001 7.000000e+000
         vertex 2.996961e+001 2.834729e+001 7.000000e+000
         vertex 3.000000e+001 2.800000e+001 7.000000e+000
      endloop
   endfacet
   facet normal 0.000000e+000 0.000000e+000 -1.000000e+000
      outer loop
         vertex 2.800000e+001 3.000000e+001 7.000000e+000
         vertex 3.000000e+001 2.800000e+001 7.000000e+000
         vertex 3.000000e+001 1.900000e+001 7.000000e+000
      endloop
   endfacet
   facet normal 0.000000e+000 0.000000e+000 -1.000000e+000
      outer loop
         vertex 2.834729e+001 2.996961e+001 7.000000e+000
         vertex 2.868404e+001 2.987938e+001 7.000000e+000
         vertex 2.996961e+001 2.834729e+001 7.000000e+000
      endloop
   endfacet
   facet normal 0.000000e+000 0.000000e+000 -1.000000e+000
      outer loop
         vertex 2.996961e+001 2.834729e+001 7.000000e+000
         vertex 2.868404e+001 2.987938e+001 7.000000e+000
         vertex 2.900000e+001 2.973205e+001 7.000000e+000
      endloop
   endfacet
   facet normal 0.000000e+000 0.000000e+000 -1.000000e+000
      outer loop
         vertex 2.996961e+001 2.834729e+001 7.000000e+000
         vertex 2.900000e+001 2.973205e+001 7.000000e+000
         vertex 2.928558e+001 2.953209e+001 7.000000e+000
      endloop
   endfacet
   facet normal 0.000000e+000 0.000000e+000 -1.000000e+000
      outer loop
         vertex 2.928558e+001 2.953209e+001 7.000000e+000
         vertex 2.953209e+001 2.928558e+001 7.000000e+000
         vertex 2.996961e+001 2.834729e+001 7.000000e+000
      endloop
   endfacet
   facet normal 0.000000e+000 0.000000e+000 -1.000000e+000
      outer loop
         vertex 2.996961e+001 2.834729e+001 7.000000e+000
         vertex 2.953209e+001 2.928558e+001 7.000000e+000
         vertex 2.973205e+001 2.900000e+001 7.000000e+000
      endloop
   endfacet
   facet normal 0.000000e+000 0.000000e+000 -1.000000e+000
      outer loop
         vertex 2.996961e+001 2.834729e+001 7.000000e+000
         vertex 2.973205e+001 2.900000e+001 7.000000e+000
         vertex 2.987938e+001 2.868404e+001 7.000000e+000
      endloop
   endfacet
   facet normal 1.000000e+000 0.000000e+000 0.000000e+000
      outer loop
         vertex 3.000000e+001 1.900000e+001 7.000000e+000
         vertex 3.000000e+001 2.800000e+001 7.000000e+000
         vertex 3.000000e+001 2.800000e+001 1.300000e+001
      endloop
   endfacet
   facet normal 1.000000e+000 0.000000e+000 0.000000e+000
      outer loop
         vertex 3.000000e+001 1.900000e+001 2.000000e+000
         vertex 3.000000e+001 1.900000e+001 7.000000e+000
         vertex 3.000000e+001 1.100000e+001 7.000000e+000
      endloop
   endfacet
   facet normal 1.000000e+000 0.000000e+000 0.000000e+000
      outer loop
         vertex 3.000000e+001 1.100000e+001 7.000000e+000
         vertex 3.000000e+001 1.900000e+001 7.000000e+000
         vertex 3.000000e+001 2.800000e+001 1.300000e+001
      endloop
   endfacet
   facet normal 1.000000e+000 0.000000e+000 0.000000e+000
      outer loop
         vertex 3.000000e+001 1.100000e+001 7.000000e+000
         vertex 3.000000e+001 2.800000e+001 1.300000e+001
         vertex 3.000000e+001 1.999999e+000 7.000000e+000
      endloop
   endfacet
   facet normal 1.000000e+000 0.000000e+000 0.000000e+000
      outer loop
         vertex 3.000000e+001 1.999999e+000 7.000000e+000
         vertex 3.000000e+001 2.800000e+001 1.300000e+001
         vertex 3.000000e+001 1.999999e+000 1.300000e+001
      endloop
   endfacet
   facet normal 1.000000e+000 0.000000e+000 0.000000e+000
      outer loop
         vertex 3.000000e+001 1.300000e+001 0.000000e+000
         vertex 3.000000e+001 1.100000e+001 7.000000e+000
         vertex 3.000000e+001 1.100000e+001 2.000000e+000
      endloop
   endfacet
   facet normal 1.000000e+000 0.000000e+000 0.000000e+000
      outer loop
         vertex 3.000000e+001 1.896961e+001 1.652704e+000
         vertex 3.000000e+001 1.900000e+001 2.000000e+000
         vertex 3.000000e+001 1.768404e+001 1.206151e-001
      endloop
   endfacet
   facet normal 1.000000e+000 0.000000e+000 0.000000e+000
      outer loop
         vertex 3.000000e+001 1.768404e+001 1.206151e-001
         vertex 3.000000e+001 1.900000e+001 2.000000e+000
         vertex 3.000000e+001 1.734730e+001 3.038486e-002
      endloop
   endfacet
   facet normal 1.000000e+000 0.000000e+000 0.000000e+000
      outer loop
         vertex 3.000000e+001 1.100000e+001 2.000000e+000
         vertex 3.000000e+001 1.103038e+001 1.652704e+000
         vertex 3.000000e+001 1.300000e+001 0.000000e+000
      endloop
   endfacet
   facet normal 1.000000e+000 0.000000e+000 0.000000e+000
      outer loop
         vertex 3.000000e+001 1.300000e+001 0.000000e+000
         vertex 3.000000e+001 1.103038e+001 1.652704e+000
         vertex 3.000000e+001 1.112062e+001 1.315960e+000
      endloop
   endfacet
   facet normal 1.000000e+000 0.000000e+000 0.000000e+000
      outer loop
         vertex 3.000000e+001 1.300000e+001 0.000000e+000
         vertex 3.000000e+001 1.112062e+001 1.315960e+000
         vertex 3.000000e+001 1.126795e+001 1.000000e+000
      endloop
   endfacet
   facet normal 1.000000e+000 0.000000e+000 0.000000e+000
      outer loop
         vertex 3.000000e+001 1.171443e+001 4.679114e-001
         vertex 3.000000e+001 1.200000e+001 2.679494e-001
         vertex 3.000000e+001 1.231596e+001 1.206151e-001
      endloop
   endfacet
   facet normal 1.000000e+000 0.000000e+000 0.000000e+000
      outer loop
         vertex 3.000000e+001 1.100000e+001 7.000000e+000
         vertex 3.000000e+001 1.300000e+001 0.000000e+000
         vertex 3.000000e+001 1.900000e+001 2.000000e+000
      endloop
   endfacet
   facet normal 1.000000e+000 0.000000e+000 0.000000e+000
      outer loop
         vertex 3.000000e+001 1.900000e+001 2.000000e+000
         vertex 3.000000e+001 1.300000e+001 0.000000e+000
         vertex 3.000000e+001 1.700000e+001 0.000000e+000
      endloop
   endfacet
   facet normal 1.000000e+000 0.000000e+000 0.000000e+000
      outer loop
         vertex 3.000000e+001 1.900000e+001 2.000000e+000
         vertex 3.000000e+001 1.700000e+001 0.000000e+000
         vertex 3.000000e+001 1.734730e+001 3.038486e-002
      endloop
   endfacet
   facet normal 1.000000e+000 0.000000e+000 0.000000e+000
      outer loop
         vertex 3.000000e+001 1.828557e+001 4.679114e-001
         vertex 3.000000e+001 1.853209e+001 7.144250e-001
         vertex 3.000000e+001 1.873205e+001 1.000000e+000
      endloop
   endfacet
   facet normal 1.000000e+000 0.000000e+000 0.000000e+000
      outer loop
         vertex 3.000000e+001 1.126795e+001 1.000000e+000
         vertex 3.000000e+001 1.146791e+001 7.144250e-001
         vertex 3.000000e+001 1.300000e+001 0.000000e+000
      endloop
   endfacet
   facet normal 1.000000e+000 0.000000e+000 0.000000e+000
      outer loop
         vertex 3.000000e+001 1.300000e+001 0.000000e+000
         vertex 3.000000e+001 1.146791e+001 7.144250e-001
         vertex 3.000000e+001 1.171443e+001 4.679114e-001
      endloop
   endfacet
   facet normal 1.000000e+000 0.000000e+000 0.000000e+000
      outer loop
         vertex 3.000000e+001 1.300000e+001 0.000000e+000
         vertex 3.000000e+001 1.171443e+001 4.679114e-001
         vertex 3.000000e+001 1.265270e+001 3.038486e-002
      endloop
   endfacet
   facet normal 1.000000e+000 0.000000e+000 0.000000e+000
      outer loop
         vertex 3.000000e+001 1.265270e+001 3.038486e-002
         vertex 3.000000e+001 1.171443e+001 4.679114e-001
         vertex 3.000000e+001 1.231596e+001 1.206151e-001
      endloop
   endfacet
   facet normal 1.000000e+000 0.000000e+000 0.000000e+000
      outer loop
         vertex 3.000000e+001 1.828557e+001 4.679114e-001
         vertex 3.000000e+001 1.873205e+001 1.000000e+000
         vertex 3.000000e+001 1.800000e+001 2.679494e-001
      endloop
   endfacet
   facet normal 1.000000e+000 0.000000e+000 0.000000e+000
      outer loop
         vertex 3.000000e+001 1.800000e+001 2.679494e-001
         vertex 3.000000e+001 1.873205e+001 1.000000e+000
         vertex 3.000000e+001 1.768404e+001 1.206151e-001
      endloop
   endfacet
   facet normal 1.000000e+000 0.000000e+000 0.000000e+000
      outer loop
         vertex 3.000000e+001 1.768404e+001 1.206151e-001
         vertex 3.000000e+001 1.873205e+001 1.000000e+000
         vertex 3.000000e+001 1.887938e+001 1.315960e+000
      endloop
   endfacet
   facet normal 1.000000e+000 0.000000e+000 0.000000e+000
      outer loop
         vertex 3.000000e+001 1.768404e+001 1.206151e-001
         vertex 3.000000e+001 1.887938e+001 1.315960e+000
         vertex 3.000000e+001 1.896961e+001 1.652704e+000
      endloop
   endfacet
   facet normal 0.000000e+000 1.000000e+000 0.000000e+000
      outer loop
         vertex 1.900000e+001 3.000000e+001 1.300000e+001
         vertex 2.800000e+001 3.000000e+001 1.300000e+001
         vertex 2.800000e+001 3.000000e+001 7.000000e+000
      endloop
   endfacet
   facet normal 0.000000e+000 1.000000e+000 0.000000e+000
      outer loop
         vertex 1.999999e+000 3.000000e+001 7.000000e+000
         vertex 1.999999e+000 3.000000e+001 1.300000e+001
         vertex 1.100000e+001 3.000000e+001 1.300000e+001
      endloop
   endfacet
   facet normal 0.000000e+000 1.000000e+000 0.000000e+000
      outer loop
         vertex 2.800000e+001 3.000000e+001 7.000000e+000
         vertex 1.999999e+000 3.000000e+001 7.000000e+000
         vertex 1.900000e+001 3.000000e+001 1.300000e+001
      endloop
   endfacet
   facet normal 0.000000e+000 1.000000e+000 0.000000e+000
      outer loop
         vertex 1.900000e+001 3.000000e+001 1.300000e+001
         vertex 1.999999e+000 3.000000e+001 7.000000e+000
         vertex 1.100000e+001 3.000000e+001 1.300000e+001
      endloop
   endfacet
   facet normal 0.000000e+000 1.000000e+000 0.000000e+000
      outer loop
         vertex 1.900000e+001 3.000000e+001 1.300000e+001
         vertex 1.100000e+001 3.000000e+001 1.300000e+001
         vertex 1.900000e+001 3.000000e+001 1.800000e+001
      endloop
   endfacet
   facet normal 0.000000e+000 1.000000e+000 0.000000e+000
      outer loop
         vertex 1.900000e+001 3.000000e+001 1.800000e+001
         vertex 1.100000e+001 3.000000e+001 1.300000e+001
         vertex 1.100000e+001 3.000000e+001 1.800000e+001
      endloop
   endfacet
   facet normal 0.000000e+000 1.000000e+000 0.000000e+000
      outer loop
         vertex 1.103038e+001 3.000000e+001 1.834730e+001
         vertex 1.112062e+001 3.000000e+001 1.868404e+001
         vertex 1.300000e+001 3.000000e+001 2.000000e+001
      endloop
   endfacet
   facet normal 0.000000e+000 1.000000e+000 0.000000e+000
      outer loop
         vertex 1.700000e+001 3.000000e+001 2.000000e+001
         vertex 1.900000e+001 3.000000e+001 1.800000e+001
         vertex 1.300000e+001 3.000000e+001 2.000000e+001
      endloop
   endfacet
   facet normal 0.000000e+000 1.000000e+000 0.000000e+000
      outer loop
         vertex 1.300000e+001 3.000000e+001 2.000000e+001
         vertex 1.900000e+001 3.000000e+001 1.800000e+001
         vertex 1.100000e+001 3.000000e+001 1.800000e+001
      endloop
   endfacet
   facet normal 0.000000e+000 1.000000e+000 0.000000e+000
      outer loop
         vertex 1.300000e+001 3.000000e+001 2.000000e+001
         vertex 1.100000e+001 3.000000e+001 1.800000e+001
         vertex 1.103038e+001 3.000000e+001 1.834730e+001
      endloop
   endfacet
   facet normal 0.000000e+000 1.000000e+000 0.000000e+000
      outer loop
         vertex 1.200000e+001 3.000000e+001 1.973205e+001
         vertex 1.231596e+001 3.000000e+001 1.987938e+001
         vertex 1.265270e+001 3.000000e+001 1.996962e+001
      endloop
   endfacet
   facet normal 0.000000e+000 1.000000e+000 0.000000e+000
      outer loop
         vertex 1.873205e+001 3.000000e+001 1.900000e+001
         vertex 1.887938e+001 3.000000e+001 1.868404e+001
         vertex 1.700000e+001 3.000000e+001 2.000000e+001
      endloop
   endfacet
   facet normal 0.000000e+000 1.000000e+000 0.000000e+000
      outer loop
         vertex 1.700000e+001 3.000000e+001 2.000000e+001
         vertex 1.887938e+001 3.000000e+001 1.868404e+001
         vertex 1.896961e+001 3.000000e+001 1.834730e+001
      endloop
   endfacet
   facet normal 0.000000e+000 1.000000e+000 0.000000e+000
      outer loop
         vertex 1.700000e+001 3.000000e+001 2.000000e+001
         vertex 1.896961e+001 3.000000e+001 1.834730e+001
         vertex 1.900000e+001 3.000000e+001 1.800000e+001
      endloop
   endfacet
   facet normal 0.000000e+000 1.000000e+000 0.000000e+000
      outer loop
         vertex 1.112062e+001 3.000000e+001 1.868404e+001
         vertex 1.126795e+001 3.000000e+001 1.900000e+001
         vertex 1.300000e+001 3.000000e+001 2.000000e+001
      endloop
   endfacet
   facet normal 0.000000e+000 1.000000e+000 0.000000e+000
      outer loop
         vertex 1.300000e+001 3.000000e+001 2.000000e+001
         vertex 1.126795e+001 3.000000e+001 1.900000e+001
         vertex 1.146791e+001 3.000000e+001 1.928557e+001
      endloop
   endfacet
   facet normal 0.000000e+000 1.000000e+000 0.000000e+000
      outer loop
         vertex 1.300000e+001 3.000000e+001 2.000000e+001
         vertex 1.146791e+001 3.000000e+001 1.928557e+001
         vertex 1.265270e+001 3.000000e+001 1.996962e+001
      endloop
   endfacet
   facet normal 0.000000e+000 1.000000e+000 0.000000e+000
      outer loop
         vertex 1.265270e+001 3.000000e+001 1.996962e+001
         vertex 1.146791e+001 3.000000e+001 1.928557e+001
         vertex 1.171443e+001 3.000000e+001 1.953209e+001
      endloop
   endfacet
   facet normal 0.000000e+000 1.000000e+000 0.000000e+000
      outer loop
         vertex 1.265270e+001 3.000000e+001 1.996962e+001
         vertex 1.171443e+001 3.000000e+001 1.953209e+001
         vertex 1.200000e+001 3.000000e+001 1.973205e+001
      endloop
   endfacet
   facet normal 0.000000e+000 1.000000e+000 0.000000e+000
      outer loop
         vertex 1.768404e+001 3.000000e+001 1.987938e+001
         vertex 1.800000e+001 3.000000e+001 1.973205e+001
         vertex 1.734730e+001 3.000000e+001 1.996962e+001
      endloop
   endfacet
   facet normal 0.000000e+000 1.000000e+000 0.000000e+000
      outer loop
         vertex 1.734730e+001 3.000000e+001 1.996962e+001
         vertex 1.800000e+001 3.000000e+001 1.973205e+001
         vertex 1.828557e+001 3.000000e+001 1.953209e+001
      endloop
   endfacet
   facet normal 0.000000e+000 1.000000e+000 0.000000e+000
      outer loop
         vertex 1.734730e+001 3.000000e+001 1.996962e+001
         vertex 1.828557e+001 3.000000e+001 1.953209e+001
         vertex 1.700000e+001 3.000000e+001 2.000000e+001
      endloop
   endfacet
   facet normal 0.000000e+000 1.000000e+000 0.000000e+000
      outer loop
         vertex 1.700000e+001 3.000000e+001 2.000000e+001
         vertex 1.828557e+001 3.000000e+001 1.953209e+001
         vertex 1.853209e+001 3.000000e+001 1.928557e+001
      endloop
   endfacet
   facet normal 0.000000e+000 1.000000e+000 0.000000e+000
      outer loop
         vertex 1.700000e+001 3.000000e+001 2.000000e+001
         vertex 1.853209e+001 3.000000e+001 1.928557e+001
         vertex 1.873205e+001 3.000000e+001 1.900000e+001
      endloop
   endfacet
   facet normal -1.000000e+000 0.000000e+000 0.000000e+000
      outer loop
         vertex 0.000000e+000 2.800000e+001 1.300000e+001
         vertex 0.000000e+000 2.800000e+001 7.000000e+000
         vertex 0.000000e+000 1.999999e+000 1.300000e+001
      endloop
   endfacet
   facet normal -1.000000e+000 0.000000e+000 0.000000e+000
      outer loop
         vertex 0.000000e+000 1.999999e+000 1.300000e+001
         vertex 0.000000e+000 2.800000e+001 7.000000e+000
         vertex 0.000000e+000 1.900000e+001 7.000000e+000
      endloop
   endfacet
   facet normal -1.000000e+000 0.000000e+000 0.000000e+000
      outer loop
         vertex 0.000000e+000 1.700000e+001 0.000000e+000
         vertex 0.000000e+000 1.300000e+001 0.000000e+000
         vertex 0.000000e+000 1.100000e+001 2.000000e+000
      endloop
   endfacet
   facet normal -1.000000e+000 0.000000e+000 0.000000e+000
      outer loop
         vertex 0.000000e+000 1.146791e+001 7.144250e-001
         vertex 0.000000e+000 1.126795e+001 1.000000e+000
         vertex 0.000000e+000 1.300000e+001 0.000000e+000
      endloop
   endfacet
   facet normal -1.000000e+000 0.000000e+000 0.000000e+000
      outer loop
         vertex 0.000000e+000 1.999999e+000 7.000000e+000
         vertex 0.000000e+000 1.999999e+000 1.300000e+001
         vertex 0.000000e+000 1.100000e+001 7.000000e+000
      endloop
   endfacet
   facet normal -1.000000e+000 0.000000e+000 0.000000e+000
      outer loop
         vertex 0.000000e+000 1.100000e+001 7.000000e+000
         vertex 0.000000e+000 1.999999e+000 1.300000e+001
         vertex 0.000000e+000 1.900000e+001 7.000000e+000
      endloop
   endfacet
   facet normal -1.000000e+000 0.000000e+000 0.000000e+000
      outer loop
         vertex 0.000000e+000 1.100000e+001 7.000000e+000
         vertex 0.000000e+000 1.900000e+001 7.000000e+000
         vertex 0.000000e+000 1.100000e+001 2.000000e+000
      endloop
   endfacet
   facet normal -1.000000e+000 0.000000e+000 0.000000e+000
      outer loop
         vertex 0.000000e+000 1.100000e+001 2.000000e+000
         vertex 0.000000e+000 1.900000e+001 7.000000e+000
         vertex 0.000000e+000 1.900000e+001 2.000000e+000
      endloop
   endfacet
   facet normal -1.000000e+000 0.000000e+000 0.000000e+000
      outer loop
         vertex 0.000000e+000 1.100000e+001 2.000000e+000
         vertex 0.000000e+000 1.900000e+001 2.000000e+000
         vertex 0.000000e+000 1.700000e+001 0.000000e+000
      endloop
   endfacet
   facet normal -1.000000e+000 0.000000e+000 0.000000e+000
      outer loop
         vertex 0.000000e+000 1.231596e+001 1.206151e-001
         vertex 0.000000e+000 1.200000e+001 2.679494e-001
         vertex 0.000000e+000 1.171443e+001 4.679114e-001
      endloop
   endfacet
   facet normal -1.000000e+000 0.000000e+000 0.000000e+000
      outer loop
         vertex 0.000000e+000 1.126795e+001 1.000000e+000
         vertex 0.000000e+000 1.112062e+001 1.315960e+000
         vertex 0.000000e+000 1.300000e+001 0.000000e+000
      endloop
   endfacet
   facet normal -1.000000e+000 0.000000e+000 0.000000e+000
      outer loop
         vertex 0.000000e+000 1.300000e+001 0.000000e+000
         vertex 0.000000e+000 1.112062e+001 1.315960e+000
         vertex 0.000000e+000 1.103038e+001 1.652704e+000
      endloop
   endfacet
   facet normal -1.000000e+000 0.000000e+000 0.000000e+000
      outer loop
         vertex 0.000000e+000 1.300000e+001 0.000000e+000
         vertex 0.000000e+000 1.103038e+001 1.652704e+000
         vertex 0.000000e+000 1.100000e+001 2.000000e+000
      endloop
   endfacet
   facet normal -1.000000e+000 0.000000e+000 0.000000e+000
      outer loop
         vertex 0.000000e+000 1.896961e+001 1.652704e+000
         vertex 0.000000e+000 1.768404e+001 1.206151e-001
         vertex 0.000000e+000 1.900000e+001 2.000000e+000
      endloop
   endfacet
   facet normal -1.000000e+000 0.000000e+000 0.000000e+000
      outer loop
         vertex 0.000000e+000 1.900000e+001 2.000000e+000
         vertex 0.000000e+000 1.768404e+001 1.206151e-001
         vertex 0.000000e+000 1.734730e+001 3.038486e-002
      endloop
   endfacet
   facet normal -1.000000e+000 0.000000e+000 0.000000e+000
      outer loop
         vertex 0.000000e+000 1.900000e+001 2.000000e+000
         vertex 0.000000e+000 1.734730e+001 3.038486e-002
         vertex 0.000000e+000 1.700000e+001 0.000000e+000
      endloop
   endfacet
   facet normal -1.000000e+000 0.000000e+000 0.000000e+000
      outer loop
         vertex 0.000000e+000 1.873205e+001 1.000000e+000
         vertex 0.000000e+000 1.853209e+001 7.144250e-001
         vertex 0.000000e+000 1.828557e+001 4.679114e-001
      endloop
   endfacet
   facet normal -1.000000e+000 0.000000e+000 0.000000e+000
      outer loop
         vertex 0.000000e+000 1.146791e+001 7.144250e-001
         vertex 0.000000e+000 1.300000e+001 0.000000e+000
         vertex 0.000000e+000 1.171443e+001 4.679114e-001
      endloop
   endfacet
   facet normal -1.000000e+000 0.000000e+000 0.000000e+000
      outer loop
         vertex 0.000000e+000 1.171443e+001 4.679114e-001
         vertex 0.000000e+000 1.300000e+001 0.000000e+000
         vertex 0.000000e+000 1.265270e+001 3.038486e-002
      endloop
   endfacet
   facet normal -1.000000e+000 0.000000e+000 0.000000e+000
      outer loop
         vertex 0.000000e+000 1.171443e+001 4.679114e-001
         vertex 0.000000e+000 1.265270e+001 3.038486e-002
         vertex 0.000000e+000 1.231596e+001 1.206151e-001
      endloop
   endfacet
   facet normal -1.000000e+000 0.000000e+000 0.000000e+000
      outer loop
         vertex 0.000000e+000 1.896961e+001 1.652704e+000
         vertex 0.000000e+000 1.887938e+001 1.315960e+000
         vertex 0.000000e+000 1.768404e+001 1.206151e-001
      endloop
   endfacet
   facet normal -1.000000e+000 0.000000e+000 0.000000e+000
      outer loop
         vertex 0.000000e+000 1.768404e+001 1.206151e-001
         vertex 0.000000e+000 1.887938e+001 1.315960e+000
         vertex 0.000000e+000 1.873205e+001 1.000000e+000
      endloop
   endfacet
   facet normal -1.000000e+000 0.000000e+000 0.000000e+000
      outer loop
         vertex 0.000000e+000 1.768404e+001 1.206151e-001
         vertex 0.000000e+000 1.873205e+001 1.000000e+000
         vertex 0.000000e+000 1.800000e+001 2.679494e-001
      endloop
   endfacet
   facet normal -1.000000e+000 0.000000e+000 0.000000e+000
      outer loop
         vertex 0.000000e+000 1.800000e+001 2.679494e-001
         vertex 0.000000e+000 1.873205e+001 1.000000e+000
         vertex 0.000000e+000 1.828557e+001 4.679114e-001
      endloop
   endfacet
   facet normal 0.000000e+000 -1.000000e+000 0.000000e+000
      outer loop
         vertex 1.100000e+001 0.000000e+000 1.300000e+001
         vertex 1.999999e+000 0.000000e+000 1.300000e+001
         vertex 1.999999e+000 0.000000e+000 7.000000e+000
      endloop
   endfacet
   facet normal 0.000000e+000 -1.000000e+000 0.000000e+000
      outer loop
         vertex 2.800000e+001 0.000000e+000 7.000000e+000
         vertex 2.800000e+001 0.000000e+000 1.300000e+001
         vertex 1.900000e+001 0.000000e+000 1.300000e+001
      endloop
   endfacet
   facet normal 0.000000e+000 -1.000000e+000 0.000000e+000
      outer loop
         vertex 1.887938e+001 0.000000e+000 1.868404e+001
         vertex 1.873205e+001 0.000000e+000 1.900000e+001
         vertex 1.700000e+001 0.000000e+000 2.000000e+001
      endloop
   endfacet
   facet normal 0.000000e+000 -1.000000e+000 0.000000e+000
      outer loop
         vertex 1.112062e+001 0.000000e+000 1.868404e+001
         vertex 1.103038e+001 0.000000e+000 1.834730e+001
         vertex 1.300000e+001 0.000000e+000 2.000000e+001
      endloop
   endfacet
   facet normal 0.000000e+000 -1.000000e+000 0.000000e+000
      outer loop
         vertex 1.300000e+001 0.000000e+000 2.000000e+001
         vertex 1.103038e+001 0.000000e+000 1.834730e+001
         vertex 1.100000e+001 0.000000e+000 1.800000e+001
      endloop
   endfacet
   facet normal 0.000000e+000 -1.000000e+000 0.000000e+000
      outer loop
         vertex 1.300000e+001 0.000000e+000 2.000000e+001
         vertex 1.100000e+001 0.000000e+000 1.800000e+001
         vertex 1.700000e+001 0.000000e+000 2.000000e+001
      endloop
   endfacet
   facet normal 0.000000e+000 -1.000000e+000 0.000000e+000
      outer loop
         vertex 1.999999e+000 0.000000e+000 7.000000e+000
         vertex 2.800000e+001 0.000000e+000 7.000000e+000
         vertex 1.100000e+001 0.000000e+000 1.300000e+001
      endloop
   endfacet
   facet normal 0.000000e+000 -1.000000e+000 0.000000e+000
      outer loop
         vertex 1.100000e+001 0.000000e+000 1.300000e+001
         vertex 2.800000e+001 0.000000e+000 7.000000e+000
         vertex 1.900000e+001 0.000000e+000 1.300000e+001
      endloop
   endfacet
   facet normal 0.000000e+000 -1.000000e+000 0.000000e+000
      outer loop
         vertex 1.100000e+001 0.000000e+000 1.300000e+001
         vertex 1.900000e+001 0.000000e+000 1.300000e+001
         vertex 1.100000e+001 0.000000e+000 1.800000e+001
      endloop
   endfacet
   facet normal 0.000000e+000 -1.000000e+000 0.000000e+000
      outer loop
         vertex 1.100000e+001 0.000000e+000 1.800000e+001
         vertex 1.900000e+001 0.000000e+000 1.300000e+001
         vertex 1.900000e+001 0.000000e+000 1.800000e+001
      endloop
   endfacet
   facet normal 0.000000e+000 -1.000000e+000 0.000000e+000
      outer loop
         vertex 1.100000e+001 0.000000e+000 1.800000e+001
         vertex 1.900000e+001 0.000000e+000 1.800000e+001
         vertex 1.700000e+001 0.000000e+000 2.000000e+001
      endloop
   endfacet
   facet normal 0.000000e+000 -1.000000e+000 0.000000e+000
      outer loop
         vertex 1.700000e+001 0.000000e+000 2.000000e+001
         vertex 1.900000e+001 0.000000e+000 1.800000e+001
         vertex 1.896961e+001 0.000000e+000 1.834730e+001
      endloop
   endfacet
   facet normal 0.000000e+000 -1.000000e+000 0.000000e+000
      outer loop
         vertex 1.700000e+001 0.000000e+000 2.000000e+001
         vertex 1.896961e+001 0.000000e+000 1.834730e+001
         vertex 1.887938e+001 0.000000e+000 1.868404e+001
      endloop
   endfacet
   facet normal 0.000000e+000 -1.000000e+000 0.000000e+000
      outer loop
         vertex 1.265270e+001 0.000000e+000 1.996962e+001
         vertex 1.231596e+001 0.000000e+000 1.987938e+001
         vertex 1.200000e+001 0.000000e+000 1.973205e+001
      endloop
   endfacet
   facet normal 0.000000e+000 -1.000000e+000 0.000000e+000
      outer loop
         vertex 1.873205e+001 0.000000e+000 1.900000e+001
         vertex 1.853209e+001 0.000000e+000 1.928557e+001
         vertex 1.700000e+001 0.000000e+000 2.000000e+001
      endloop
   endfacet
   facet normal 0.000000e+000 -1.000000e+000 0.000000e+000
      outer loop
         vertex 1.700000e+001 0.000000e+000 2.000000e+001
         vertex 1.853209e+001 0.000000e+000 1.928557e+001
         vertex 1.828557e+001 0.000000e+000 1.953209e+001
      endloop
   endfacet
   facet normal 0.000000e+000 -1.000000e+000 0.000000e+000
      outer loop
         vertex 1.700000e+001 0.000000e+000 2.000000e+001
         vertex 1.828557e+001 0.000000e+000 1.953209e+001
         vertex 1.734730e+001 0.000000e+000 1.996962e+001
      endloop
   endfacet
   facet normal 0.000000e+000 -1.000000e+000 0.000000e+000
      outer loop
         vertex 1.734730e+001 0.000000e+000 1.996962e+001
         vertex 1.828557e+001 0.000000e+000 1.953209e+001
         vertex 1.800000e+001 0.000000e+000 1.973205e+001
      endloop
   endfacet
   facet normal 0.000000e+000 -1.000000e+000 0.000000e+000
      outer loop
         vertex 1.734730e+001 0.000000e+000 1.996962e+001
         vertex 1.800000e+001 0.000000e+000 1.973205e+001
         vertex 1.768404e+001 0.000000e+000 1.987938e+001
      endloop
   endfacet
   facet normal 0.000000e+000 -1.000000e+000 0.000000e+000
      outer loop
         vertex 1.200000e+001 0.000000e+000 1.973205e+001
         vertex 1.171443e+001 0.000000e+000 1.953209e+001
         vertex 1.265270e+001 0.000000e+000 1.996962e+001
      endloop
   endfacet
   facet normal 0.000000e+000 -1.000000e+000 0.000000e+000
      outer loop
         vertex 1.265270e+001 0.000000e+000 1.996962e+001
         vertex 1.171443e+001 0.000000e+000 1.953209e+001
         vertex 1.146791e+001 0.000000e+000 1.928557e+001
      endloop
   endfacet
   facet normal 0.000000e+000 -1.000000e+000 0.000000e+000
      outer loop
         vertex 1.265270e+001 0.000000e+000 1.996962e+001
         vertex 1.146791e+001 0.000000e+000 1.928557e+001
         vertex 1.300000e+001 0.000000e+000 2.000000e+001
      endloop
   endfacet
   facet normal 0.000000e+000 -1.000000e+000 0.000000e+000
      outer loop
         vertex 1.300000e+001 0.000000e+000 2.000000e+001
         vertex 1.146791e+001 0.000000e+000 1.928557e+001
         vertex 1.126795e+001 0.000000e+000 1.900000e+001
      endloop
   endfacet
   facet normal 0.000000e+000 -1.000000e+000 0.000000e+000
      outer loop
         vertex 1.300000e+001 0.000000e+000 2.000000e+001
         vertex 1.126795e+001 0.000000e+000 1.900000e+001
         vertex 1.112062e+001 0.000000e+000 1.868404e+001
      endloop
   endfacet
   facet normal 0.000000e+000 0.000000e+000 -1.000000e+000
      outer loop
         vertex 0.000000e+000 1.100000e+001 7.000000e+000
         vertex 3.000000e+001 1.100000e+001 7.000000e+000
         vertex 0.000000e+000 1.999999e+000 7.000000e+000
      endloop
   endfacet
   facet normal 0.000000e+000 0.000000e+000 -1.000000e+000
      outer loop
         vertex 0.000000e+000 1.999999e+000 7.000000e+000
         vertex 3.000000e+001 1.100000e+001 7.000000e+000
         vertex 3.000000e+001 1.999999e+000 7.000000e+000
      endloop
   endfacet
   facet normal 0.000000e+000 0.000000e+000 -1.000000e+000
      outer loop
         vertex 1.206147e-001 1.315960e+000 7.000000e+000
         vertex 3.038440e-002 1.652704e+000 7.000000e+000
         vertex 1.999999e+000 0.000000e+000 7.000000e+000
      endloop
   endfacet
   facet normal 0.000000e+000 0.000000e+000 -1.000000e+000
      outer loop
         vertex 1.999999e+000 0.000000e+000 7.000000e+000
         vertex 3.038440e-002 1.652704e+000 7.000000e+000
         vertex 0.000000e+000 1.999999e+000 7.000000e+000
      endloop
   endfacet
   facet normal 0.000000e+000 0.000000e+000 -1.000000e+000
      outer loop
         vertex 1.999999e+000 0.000000e+000 7.000000e+000
         vertex 0.000000e+000 1.999999e+000 7.000000e+000
         vertex 2.800000e+001 0.000000e+000 7.000000e+000
      endloop
   endfacet
   facet normal 0.000000e+000 0.000000e+000 -1.000000e+000
      outer loop
         vertex 2.800000e+001 0.000000e+000 7.000000e+000
         vertex 0.000000e+000 1.999999e+000 7.000000e+000
         vertex 3.000000e+001 1.999999e+000 7.000000e+000
      endloop
   endfacet
   facet normal 0.000000e+000 0.000000e+000 -1.000000e+000
      outer loop
         vertex 2.800000e+001 0.000000e+000 7.000000e+000
         vertex 3.000000e+001 1.999999e+000 7.000000e+000
         vertex 2.831287e+001 2.462324e-002 7.000000e+000
      endloop
   endfacet
   facet normal 0.000000e+000 0.000000e+000 -1.000000e+000
      outer loop
         vertex 2.990211e+001 1.381965e+000 7.000000e+000
         vertex 2.978201e+001 1.092019e+000 7.000000e+000
         vertex 2.997538e+001 1.687131e+000 7.000000e+000
      endloop
   endfacet
   facet normal 0.000000e+000 0.000000e+000 -1.000000e+000
      outer loop
         vertex 2.997538e+001 1.687131e+000 7.000000e+000
         vertex 2.978201e+001 1.092019e+000 7.000000e+000
         vertex 2.961803e+001 8.244291e-001 7.000000e+000
      endloop
   endfacet
   facet normal 0.000000e+000 0.000000e+000 -1.000000e+000
      outer loop
         vertex 2.997538e+001 1.687131e+000 7.000000e+000
         vertex 2.961803e+001 8.244291e-001 7.000000e+000
         vertex 3.000000e+001 1.999999e+000 7.000000e+000
      endloop
   endfacet
   facet normal 0.000000e+000 0.000000e+000 -1.000000e+000
      outer loop
         vertex 3.000000e+001 1.999999e+000 7.000000e+000
         vertex 2.961803e+001 8.244291e-001 7.000000e+000
         vertex 2.941422e+001 5.857860e-001 7.000000e+000
      endloop
   endfacet
   facet normal 0.000000e+000 0.000000e+000 -1.000000e+000
      outer loop
         vertex 3.000000e+001 1.999999e+000 7.000000e+000
         vertex 2.941422e+001 5.857860e-001 7.000000e+000
         vertex 2.917557e+001 3.819661e-001 7.000000e+000
      endloop
   endfacet
   facet normal 0.000000e+000 0.000000e+000 -1.000000e+000
      outer loop
         vertex 2.917557e+001 3.819661e-001 7.000000e+000
         vertex 2.890798e+001 2.179863e-001 7.000000e+000
         vertex 3.000000e+001 1.999999e+000 7.000000e+000
      endloop
   endfacet
   facet normal 0.000000e+000 0.000000e+000 -1.000000e+000
      outer loop
         vertex 3.000000e+001 1.999999e+000 7.000000e+000
         vertex 2.890798e+001 2.179863e-001 7.000000e+000
         vertex 2.861803e+001 9.788666e-002 7.000000e+000
      endloop
   endfacet
   facet normal 0.000000e+000 0.000000e+000 -1.000000e+000
      outer loop
         vertex 3.000000e+001 1.999999e+000 7.000000e+000
         vertex 2.861803e+001 9.788666e-002 7.000000e+000
         vertex 2.831287e+001 2.462324e-002 7.000000e+000
      endloop
   endfacet
   facet normal 0.000000e+000 0.000000e+000 -1.000000e+000
      outer loop
         vertex 9.999992e-001 2.679490e-001 7.000000e+000
         vertex 7.144241e-001 4.679104e-001 7.000000e+000
         vertex 1.315960e+000 1.206147e-001 7.000000e+000
      endloop
   endfacet
   facet normal 0.000000e+000 0.000000e+000 -1.000000e+000
      outer loop
         vertex 1.315960e+000 1.206147e-001 7.000000e+000
         vertex 7.144241e-001 4.679104e-001 7.000000e+000
         vertex 4.679104e-001 7.144241e-001 7.000000e+000
      endloop
   endfacet
   facet normal 0.000000e+000 0.000000e+000 -1.000000e+000
      outer loop
         vertex 1.315960e+000 1.206147e-001 7.000000e+000
         vertex 4.679104e-001 7.144241e-001 7.000000e+000
         vertex 1.652704e+000 3.038440e-002 7.000000e+000
      endloop
   endfacet
   facet normal 0.000000e+000 0.000000e+000 -1.000000e+000
      outer loop
         vertex 1.652704e+000 3.038440e-002 7.000000e+000
         vertex 4.679104e-001 7.144241e-001 7.000000e+000
         vertex 1.999999e+000 0.000000e+000 7.000000e+000
      endloop
   endfacet
   facet normal 0.000000e+000 0.000000e+000 -1.000000e+000
      outer loop
         vertex 1.999999e+000 0.000000e+000 7.000000e+000
         vertex 4.679104e-001 7.144241e-001 7.000000e+000
         vertex 2.679490e-001 9.999992e-001 7.000000e+000
      endloop
   endfacet
   facet normal 0.000000e+000 0.000000e+000 -1.000000e+000
      outer loop
         vertex 1.999999e+000 0.000000e+000 7.000000e+000
         vertex 2.679490e-001 9.999992e-001 7.000000e+000
         vertex 1.206147e-001 1.315960e+000 7.000000e+000
      endloop
   endfacet
   facet normal 0.000000e+000 1.000000e+000 0.000000e+000
      outer loop
         vertex 0.000000e+000 1.900000e+001 2.000000e+000
         vertex 0.000000e+000 1.900000e+001 7.000000e+000
         vertex 3.000000e+001 1.900000e+001 2.000000e+000
      endloop
   endfacet
   facet normal 0.000000e+000 1.000000e+000 0.000000e+000
      outer loop
         vertex 3.000000e+001 1.900000e+001 2.000000e+000
         vertex 0.000000e+000 1.900000e+001 7.000000e+000
         vertex 3.000000e+001 1.900000e+001 7.000000e+000
      endloop
   endfacet
   facet normal 0.000000e+000 -1.000000e+000 0.000000e+000
      outer loop
         vertex 3.000000e+001 1.100000e+001 2.000000e+000
         vertex 3.000000e+001 1.100000e+001 7.000000e+000
         vertex 0.000000e+000 1.100000e+001 2.000000e+000
      endloop
   endfacet
   facet normal 0.000000e+000 -1.000000e+000 0.000000e+000
      outer loop
         vertex 0.000000e+000 1.100000e+001 2.000000e+000
         vertex 3.000000e+001 1.100000e+001 7.000000e+000
         vertex 0.000000e+000 1.100000e+001 7.000000e+000
      endloop
   endfacet
   facet normal 0.000000e+000 0.000000e+000 -1.000000e+000
      outer loop
         vertex 3.000000e+001 1.700000e+001 0.000000e+000
         vertex 3.000000e+001 1.300000e+001 0.000000e+000
         vertex 0.000000e+000 1.700000e+001 0.000000e+000
      endloop
   endfacet
   facet normal 0.000000e+000 0.000000e+000 -1.000000e+000
      outer loop
         vertex 0.000000e+000 1.700000e+001 0.000000e+000
         vertex 3.000000e+001 1.300000e+001 0.000000e+000
         vertex 0.000000e+000 1.300000e+001 0.000000e+000
      endloop
   endfacet
   facet normal 0.000000e+000 5.807913e-002 -9.983119e-001
      outer loop
         vertex 3.000000e+001 1.700000e+001 0.000000e+000
         vertex 0.000000e+000 1.700000e+001 0.000000e+000
         vertex 0.000000e+000 1.734730e+001 3.038486e-002
      endloop
   endfacet
   facet normal 0.000000e+000 1.161583e-001 -9.932307e-001
      outer loop
         vertex 3.000000e+001 1.700000e+001 0.000000e+000
         vertex 0.000000e+000 1.734730e+001 3.038486e-002
         vertex 3.000000e+001 1.734730e+001 3.038486e-002
      endloop
   endfacet
   facet normal 0.000000e+000 2.305519e-001 -9.730600e-001
      outer loop
         vertex 3.000000e+001 1.734730e+001 3.038486e-002
         vertex 0.000000e+000 1.734730e+001 3.038486e-002
         vertex 0.000000e+000 1.768404e+001 1.206151e-001
      endloop
   endfacet
   facet normal 0.000000e+000 2.868663e-001 -9.579706e-001
      outer loop
         vertex 3.000000e+001 1.734730e+001 3.038486e-002
         vertex 0.000000e+000 1.768404e+001 1.206151e-001
         vertex 3.000000e+001 1.768404e+001 1.206151e-001
      endloop
   endfacet
   facet normal 0.000000e+000 3.960194e-001 -9.182422e-001
      outer loop
         vertex 3.000000e+001 1.768404e+001 1.206151e-001
         vertex 0.000000e+000 1.768404e+001 1.206151e-001
         vertex 0.000000e+000 1.800000e+001 2.679494e-001
      endloop
   endfacet
   facet normal 0.000000e+000 4.488580e-001 -8.936031e-001
      outer loop
         vertex 3.000000e+001 1.768404e+001 1.206151e-001
         vertex 0.000000e+000 1.800000e+001 2.679494e-001
         vertex 3.000000e+001 1.800000e+001 2.679494e-001
      endloop
   endfacet
   facet normal 0.000000e+000 5.494540e-001 -8.355240e-001
      outer loop
         vertex 3.000000e+001 1.800000e+001 2.679494e-001
         vertex 0.000000e+000 1.800000e+001 2.679494e-001
         vertex 0.000000e+000 1.828557e+001 4.679114e-001
      endloop
   endfacet
   facet normal 0.000000e+000 5.972114e-001 -8.020838e-001
      outer loop
         vertex 3.000000e+001 1.800000e+001 2.679494e-001
         vertex 0.000000e+000 1.828557e+001 4.679114e-001
         vertex 3.000000e+001 1.828557e+001 4.679114e-001
      endloop
   endfacet
   facet normal 0.000000e+000 6.861938e-001 -7.274188e-001
      outer loop
         vertex 3.000000e+001 1.828557e+001 4.679114e-001
         vertex 0.000000e+000 1.828557e+001 4.679114e-001
         vertex 0.000000e+000 1.853209e+001 7.144250e-001
      endloop
   endfacet
   facet normal 0.000000e+000 7.274188e-001 -6.861938e-001
      outer loop
         vertex 3.000000e+001 1.828557e+001 4.679114e-001
         vertex 0.000000e+000 1.853209e+001 7.144250e-001
         vertex 3.000000e+001 1.853209e+001 7.144250e-001
      endloop
   endfacet
   facet normal 0.000000e+000 8.020838e-001 -5.972114e-001
      outer loop
         vertex 3.000000e+001 1.853209e+001 7.144250e-001
         vertex 0.000000e+000 1.853209e+001 7.144250e-001
         vertex 0.000000e+000 1.873205e+001 1.000000e+000
      endloop
   endfacet
   facet normal 0.000000e+000 8.355240e-001 -5.494540e-001
      outer loop
         vertex 3.000000e+001 1.853209e+001 7.144250e-001
         vertex 0.000000e+000 1.873205e+001 1.000000e+000
         vertex 3.000000e+001 1.873205e+001 1.000000e+000
      endloop
   endfacet
   facet normal 0.000000e+000 8.936031e-001 -4.488580e-001
      outer loop
         vertex 3.000000e+001 1.873205e+001 1.000000e+000
         vertex 0.000000e+000 1.873205e+001 1.000000e+000
         vertex 0.000000e+000 1.887938e+001 1.315960e+000
      endloop
   endfacet
   facet normal 0.000000e+000 9.182422e-001 -3.960194e-001
      outer loop
         vertex 3.000000e+001 1.873205e+001 1.000000e+000
         vertex 0.000000e+000 1.887938e+001 1.315960e+000
         vertex 3.000000e+001 1.887938e+001 1.315960e+000
      endloop
   endfacet
   facet normal 0.000000e+000 9.579706e-001 -2.868663e-001
      outer loop
         vertex 3.000000e+001 1.887938e+001 1.315960e+000
         vertex 0.000000e+000 1.887938e+001 1.315960e+000
         vertex 0.000000e+000 1.896961e+001 1.652704e+000
      endloop
   endfacet
   facet normal 0.000000e+000 9.730600e-001 -2.305519e-001
      outer loop
         vertex 3.000000e+001 1.887938e+001 1.315960e+000
         vertex 0.000000e+000 1.896961e+001 1.652704e+000
         vertex 3.000000e+001 1.896961e+001 1.652704e+000
      endloop
   endfacet
   facet normal 0.000000e+000 9.932307e-001 -1.161583e-001
      outer loop
         vertex 3.000000e+001 1.896961e+001 1.652704e+000
         vertex 0.000000e+000 1.896961e+001 1.652704e+000
         vertex 0.000000e+000 1.900000e+001 2.000000e+000
      endloop
   endfacet
   facet normal 0.000000e+000 9.983119e-001 -5.807913e-002
      outer loop
         vertex 3.000000e+001 1.896961e+001 1.652704e+000
         vertex 0.000000e+000 1.900000e+001 2.000000e+000
         vertex 3.000000e+001 1.900000e+001 2.000000e+000
      endloop
   endfacet
   facet normal 0.000000e+000 -5.807913e-002 -9.983119e-001
      outer loop
         vertex 0.000000e+000 1.300000e+001 0.000000e+000
         vertex 3.000000e+001 1.300000e+001 0.000000e+000
         vertex 3.000000e+001 1.265270e+001 3.038486e-002
      endloop
   endfacet
   facet normal 0.000000e+000 -1.161583e-001 -9.932307e-001
      outer loop
         vertex 0.000000e+000 1.300000e+001 0.000000e+000
         vertex 3.000000e+001 1.265270e+001 3.038486e-002
         vertex 0.000000e+000 1.265270e+001 3.038486e-002
      endloop
   endfacet
   facet normal 0.000000e+000 -2.305519e-001 -9.730600e-001
      outer loop
         vertex 0.000000e+000 1.265270e+001 3.038486e-002
         vertex 3.000000e+001 1.265270e+001 3.038486e-002
         vertex 3.000000e+001 1.231596e+001 1.206151e-001
      endloop
   endfacet
   facet normal 0.000000e+000 -2.868663e-001 -9.579706e-001
      outer loop
         vertex 0.000000e+000 1.265270e+001 3.038486e-002
         vertex 3.000000e+001 1.231596e+001 1.206151e-001
         vertex 0.000000e+000 1.231596e+001 1.206151e-001
      endloop
   endfacet
   facet normal 0.000000e+000 -3.960194e-001 -9.182422e-001
      outer loop
         vertex 0.000000e+000 1.231596e+001 1.206151e-001
         vertex 3.000000e+001 1.231596e+001 1.206151e-001
         vertex 3.000000e+001 1.200000e+001 2.679494e-001
      endloop
   endfacet
   facet normal 0.000000e+000 -4.488580e-001 -8.936031e-001
      outer loop
         vertex 0.000000e+000 1.231596e+001 1.206151e-001
         vertex 3.000000e+001 1.200000e+001 2.679494e-001
         vertex 0.000000e+000 1.200000e+001 2.679494e-001
      endloop
   endfacet
   facet normal 0.000000e+000 -5.494540e-001 -8.355240e-001
      outer loop
         vertex 0.000000e+000 1.200000e+001 2.679494e-001
         vertex 3.000000e+001 1.200000e+001 2.679494e-001
         vertex 3.000000e+001 1.171443e+001 4.679114e-001
      endloop
   endfacet
   facet normal 0.000000e+000 -5.972114e-001 -8.020838e-001
      outer loop
         vertex 0.000000e+000 1.200000e+001 2.679494e-001
         vertex 3.000000e+001 1.171443e+001 4.679114e-001
         vertex 0.000000e+000 1.171443e+001 4.679114e-001
      endloop
   endfacet
   facet normal 0.000000e+000 -6.861938e-001 -7.274188e-001
      outer loop
         vertex 0.000000e+000 1.171443e+001 4.679114e-001
         vertex 3.000000e+001 1.171443e+001 4.679114e-001
         vertex 3.000000e+001 1.146791e+001 7.144250e-001
      endloop
   endfacet
   facet normal 0.000000e+000 -7.274188e-001 -6.861938e-001
      outer loop
         vertex 0.000000e+000 1.171443e+001 4.679114e-001
         vertex 3.000000e+001 1.146791e+001 7.144250e-001
         vertex 0.000000e+000 1.146791e+001 7.144250e-001
      endloop
   endfacet
   facet normal 0.000000e+000 -8.020838e-001 -5.972114e-001
      outer loop
         vertex 0.000000e+000 1.146791e+001 7.144250e-001
         vertex 3.000000e+001 1.146791e+001 7.144250e-001
         vertex 3.000000e+001 1.126795e+001 1.000000e+000
      endloop
   endfacet
   facet normal 0.000000e+000 -8.355240e-001 -5.494540e-001
      outer loop
         vertex 0.000000e+000 1.146791e+001 7.144250e-001
         vertex 3.000000e+001 1.126795e+001 1.000000e+000
         vertex 0.000000e+000 1.126795e+001 1.000000e+000
      endloop
   endfacet
   facet normal 0.000000e+000 -8.936031e-001 -4.488580e-001
      outer loop
         vertex 0.000000e+000 1.126795e+001 1.000000e+000
         vertex 3.000000e+001 1.126795e+001 1.000000e+000
         vertex 3.000000e+001 1.112062e+001 1.315960e+000
      endloop
   endfacet
   facet normal 0.000000e+000 -9.182422e-001 -3.960194e-001
      outer loop
         vertex 0.000000e+000 1.126795e+001 1.000000e+000
         vertex 3.000000e+001 1.112062e+001 1.315960e+000
         vertex 0.000000e+000 1.112062e+001 1.315960e+000
      endloop
   endfacet
   facet normal 0.000000e+000 -9.579706e-001 -2.868663e-001
      outer loop
         vertex 0.000000e+000 1.112062e+001 1.315960e+000
         vertex 3.000000e+001 1.112062e+001 1.315960e+000
         vertex 3.000000e+001 1.103038e+001 1.652704e+000
      endloop
   endfacet
   facet normal 0.000000e+000 -9.730600e-001 -2.305519e-001
      outer loop
         vertex 0.000000e+000 1.112062e+001 1.315960e+000
         vertex 3.000000e+001 1.103038e+001 1.652704e+000
         vertex 0.000000e+000 1.103038e+001 1.652704e+000
      endloop
   endfacet
   facet normal 0.000000e+000 -9.932307e-001 -1.161583e-001
      outer loop
         vertex 0.000000e+000 1.103038e+001 1.652704e+000
         vertex 3.000000e+001 1.103038e+001 1.652704e+000
         vertex 3.000000e+001 1.100000e+001 2.000000e+000
      endloop
   endfacet
   facet normal 0.000000e+000 -9.983119e-001 -5.807913e-002
      outer loop
         vertex 0.000000e+000 1.103038e+001 1.652704e+000
         vertex 3.000000e+001 1.100000e+001 2.000000e+000
         vertex 0.000000e+000 1.100000e+001 2.000000e+000
      endloop
   endfacet
   facet normal 9.983119e-001 5.807913e-002 0.000000e+000
      outer loop
         vertex 3.000000e+001 2.800000e+001 1.300000e+001
         vertex 3.000000e+001 2.800000e+001 7.000000e+000
         vertex 2.996961e+001 2.834729e+001 7.000000e+000
      endloop
   endfacet
   facet normal 9.932307e-001 1.161583e-001 0.000000e+000
      outer loop
         vertex 3.000000e+001 2.800000e+001 1.300000e+001
         vertex 2.996961e+001 2.834729e+001 7.000000e+000
         vertex 2.996961e+001 2.834729e+001 1.300000e+001
      endloop
   endfacet
   facet normal 9.730600e-001 2.305519e-001 0.000000e+000
      outer loop
         vertex 2.996961e+001 2.834729e+001 1.300000e+001
         vertex 2.996961e+001 2.834729e+001 7.000000e+000
         vertex 2.987938e+001 2.868404e+001 7.000000e+000
      endloop
   endfacet
   facet normal 9.579706e-001 2.868663e-001 0.000000e+000
      outer loop
         vertex 2.996961e+001 2.834729e+001 1.300000e+001
         vertex 2.987938e+001 2.868404e+001 7.000000e+000
         vertex 2.987938e+001 2.868404e+001 1.300000e+001
      endloop
   endfacet
   facet normal 9.182422e-001 3.960194e-001 0.000000e+000
      outer loop
         vertex 2.987938e+001 2.868404e+001 1.300000e+001
         vertex 2.987938e+001 2.868404e+001 7.000000e+000
         vertex 2.973205e+001 2.900000e+001 7.000000e+000
      endloop
   endfacet
   facet normal 8.936031e-001 4.488580e-001 0.000000e+000
      outer loop
         vertex 2.987938e+001 2.868404e+001 1.300000e+001
         vertex 2.973205e+001 2.900000e+001 7.000000e+000
         vertex 2.973205e+001 2.900000e+001 1.300000e+001
      endloop
   endfacet
   facet normal 8.355240e-001 5.494540e-001 0.000000e+000
      outer loop
         vertex 2.973205e+001 2.900000e+001 1.300000e+001
         vertex 2.973205e+001 2.900000e+001 7.000000e+000
         vertex 2.953209e+001 2.928558e+001 7.000000e+000
      endloop
   endfacet
   facet normal 8.020838e-001 5.972114e-001 0.000000e+000
      outer loop
         vertex 2.973205e+001 2.900000e+001 1.300000e+001
         vertex 2.953209e+001 2.928558e+001 7.000000e+000
         vertex 2.953209e+001 2.928558e+001 1.300000e+001
      endloop
   endfacet
   facet normal 7.274188e-001 6.861938e-001 0.000000e+000
      outer loop
         vertex 2.953209e+001 2.928558e+001 1.300000e+001
         vertex 2.953209e+001 2.928558e+001 7.000000e+000
         vertex 2.928558e+001 2.953209e+001 7.000000e+000
      endloop
   endfacet
   facet normal 6.861938e-001 7.274188e-001 0.000000e+000
      outer loop
         vertex 2.953209e+001 2.928558e+001 1.300000e+001
         vertex 2.928558e+001 2.953209e+001 7.000000e+000
         vertex 2.928558e+001 2.953209e+001 1.300000e+001
      endloop
   endfacet
   facet normal 5.972114e-001 8.020838e-001 0.000000e+000
      outer loop
         vertex 2.928558e+001 2.953209e+001 1.300000e+001
         vertex 2.928558e+001 2.953209e+001 7.000000e+000
         vertex 2.900000e+001 2.973205e+001 7.000000e+000
      endloop
   endfacet
   facet normal 5.494540e-001 8.355240e-001 0.000000e+000
      outer loop
         vertex 2.928558e+001 2.953209e+001 1.300000e+001
         vertex 2.900000e+001 2.973205e+001 7.000000e+000
         vertex 2.900000e+001 2.973205e+001 1.300000e+001
      endloop
   endfacet
   facet normal 4.488580e-001 8.936031e-001 0.000000e+000
      outer loop
         vertex 2.900000e+001 2.973205e+001 1.300000e+001
         vertex 2.900000e+001 2.973205e+001 7.000000e+000
         vertex 2.868404e+001 2.987938e+001 7.000000e+000
      endloop
   endfacet
   facet normal 3.960194e-001 9.182422e-001 0.000000e+000
      outer loop
         vertex 2.900000e+001 2.973205e+001 1.300000e+001
         vertex 2.868404e+001 2.987938e+001 7.000000e+000
         vertex 2.868404e+001 2.987938e+001 1.300000e+001
      endloop
   endfacet
   facet normal 2.868663e-001 9.579706e-001 0.000000e+000
      outer loop
         vertex 2.868404e+001 2.987938e+001 1.300000e+001
         vertex 2.868404e+001 2.987938e+001 7.000000e+000
         vertex 2.834729e+001 2.996961e+001 7.000000e+000
      endloop
   endfacet
   facet normal 2.305519e-001 9.730600e-001 0.000000e+000
      outer loop
         vertex 2.868404e+001 2.987938e+001 1.300000e+001
         vertex 2.834729e+001 2.996961e+001 7.000000e+000
         vertex 2.834729e+001 2.996961e+001 1.300000e+001
      endloop
   endfacet
   facet normal 1.161583e-001 9.932307e-001 0.000000e+000
      outer loop
         vertex 2.834729e+001 2.996961e+001 1.300000e+001
         vertex 2.834729e+001 2.996961e+001 7.000000e+000
         vertex 2.800000e+001 3.000000e+001 7.000000e+000
      endloop
   endfacet
   facet normal 5.807913e-002 9.983119e-001 0.000000e+000
      outer loop
         vertex 2.834729e+001 2.996961e+001 1.300000e+001
         vertex 2.800000e+001 3.000000e+001 7.000000e+000
         vertex 2.800000e+001 3.000000e+001 1.300000e+001
      endloop
   endfacet
   facet normal -5.807913e-002 9.983119e-001 0.000000e+000
      outer loop
         vertex 1.999999e+000 3.000000e+001 1.300000e+001
         vertex 1.999999e+000 3.000000e+001 7.000000e+000
         vertex 1.652704e+000 2.996961e+001 7.000000e+000
      endloop
   endfacet
   facet normal -1.161583e-001 9.932307e-001 0.000000e+000
      outer loop
         vertex 1.999999e+000 3.000000e+001 1.300000e+001
         vertex 1.652704e+000 2.996961e+001 7.000000e+000
         vertex 1.652704e+000 2.996961e+001 1.300000e+001
      endloop
   endfacet
   facet normal -2.305519e-001 9.730600e-001 0.000000e+000
      outer loop
         vertex 1.652704e+000 2.996961e+001 1.300000e+001
         vertex 1.652704e+000 2.996961e+001 7.000000e+000
         vertex 1.315960e+000 2.987938e+001 7.000000e+000
      endloop
   endfacet
   facet normal -2.868663e-001 9.579706e-001 0.000000e+000
      outer loop
         vertex 1.652704e+000 2.996961e+001 1.300000e+001
         vertex 1.315960e+000 2.987938e+001 7.000000e+000
         vertex 1.315960e+000 2.987938e+001 1.300000e+001
      endloop
   endfacet
   facet normal -3.960194e-001 9.182422e-001 0.000000e+000
      outer loop
         vertex 1.315960e+000 2.987938e+001 1.300000e+001
         vertex 1.315960e+000 2.987938e+001 7.000000e+000
         vertex 9.999992e-001 2.973205e+001 7.000000e+000
      endloop
   endfacet
   facet normal -4.488580e-001 8.936031e-001 0.000000e+000
      outer loop
         vertex 1.315960e+000 2.987938e+001 1.300000e+001
         vertex 9.999992e-001 2.973205e+001 7.000000e+000
         vertex 9.999992e-001 2.973205e+001 1.300000e+001
      endloop
   endfacet
   facet normal -5.494540e-001 8.355240e-001 0.000000e+000
      outer loop
         vertex 9.999992e-001 2.973205e+001 1.300000e+001
         vertex 9.999992e-001 2.973205e+001 7.000000e+000
         vertex 7.144241e-001 2.953209e+001 7.000000e+000
      endloop
   endfacet
   facet normal -5.972114e-001 8.020838e-001 0.000000e+000
      outer loop
         vertex 9.999992e-001 2.973205e+001 1.300000e+001
         vertex 7.144241e-001 2.953209e+001 7.000000e+000
         vertex 7.144241e-001 2.953209e+001 1.300000e+001
      endloop
   endfacet
   facet normal -6.861938e-001 7.274188e-001 0.000000e+000
      outer loop
         vertex 7.144241e-001 2.953209e+001 1.300000e+001
         vertex 7.144241e-001 2.953209e+001 7.000000e+000
         vertex 4.679104e-001 2.928558e+001 7.000000e+000
      endloop
   endfacet
   facet normal -7.274188e-001 6.861938e-001 0.000000e+000
      outer loop
         vertex 7.144241e-001 2.953209e+001 1.300000e+001
         vertex 4.679104e-001 2.928558e+001 7.000000e+000
         vertex 4.679104e-001 2.928558e+001 1.300000e+001
      endloop
   endfacet
   facet normal -8.020838e-001 5.972114e-001 0.000000e+000
      outer loop
         vertex 4.679104e-001 2.928558e+001 1.300000e+001
         vertex 4.679104e-001 2.928558e+001 7.000000e+000
         vertex 2.679490e-001 2.900000e+001 7.000000e+000
      endloop
   endfacet
   facet normal -8.355240e-001 5.494540e-001 0.000000e+000
      outer loop
         vertex 4.679104e-001 2.928558e+001 1.300000e+001
         vertex 2.679490e-001 2.900000e+001 7.000000e+000
         vertex 2.679490e-001 2.900000e+001 1.300000e+001
      endloop
   endfacet
   facet normal -8.936031e-001 4.488580e-001 0.000000e+000
      outer loop
         vertex 2.679490e-001 2.900000e+001 1.300000e+001
         vertex 2.679490e-001 2.900000e+001 7.000000e+000
         vertex 1.206147e-001 2.868404e+001 7.000000e+000
      endloop
   endfacet
   facet normal -9.182422e-001 3.960194e-001 0.000000e+000
      outer loop
         vertex 2.679490e-001 2.900000e+001 1.300000e+001
         vertex 1.206147e-001 2.868404e+001 7.000000e+000
         vertex 1.206147e-001 2.868404e+001 1.300000e+001
      endloop
   endfacet
   facet normal -9.579706e-001 2.868663e-001 0.000000e+000
      outer loop
         vertex 1.206147e-001 2.868404e+001 1.300000e+001
         vertex 1.206147e-001 2.868404e+001 7.000000e+000
         vertex 3.038440e-002 2.834729e+001 7.000000e+000
      endloop
   endfacet
   facet normal -9.730600e-001 2.305519e-001 0.000000e+000
      outer loop
         vertex 1.206147e-001 2.868404e+001 1.300000e+001
         vertex 3.038440e-002 2.834729e+001 7.000000e+000
         vertex 3.038440e-002 2.834729e+001 1.300000e+001
      endloop
   endfacet
   facet normal -9.932307e-001 1.161583e-001 0.000000e+000
      outer loop
         vertex 3.038440e-002 2.834729e+001 1.300000e+001
         vertex 3.038440e-002 2.834729e+001 7.000000e+000
         vertex 0.000000e+000 2.800000e+001 7.000000e+000
      endloop
   endfacet
   facet normal -9.983119e-001 5.807913e-002 0.000000e+000
      outer loop
         vertex 3.038440e-002 2.834729e+001 1.300000e+001
         vertex 0.000000e+000 2.800000e+001 7.000000e+000
         vertex 0.000000e+000 2.800000e+001 1.300000e+001
      endloop
   endfacet
   facet normal -9.983119e-001 -5.807913e-002 0.000000e+000
      outer loop
         vertex 0.000000e+000 1.999999e+000 1.300000e+001
         vertex 0.000000e+000 1.999999e+000 7.000000e+000
         vertex 3.038440e-002 1.652704e+000 7.000000e+000
      endloop
   endfacet
   facet normal -9.932307e-001 -1.161583e-001 0.000000e+000
      outer loop
         vertex 0.000000e+000 1.999999e+000 1.300000e+001
         vertex 3.038440e-002 1.652704e+000 7.000000e+000
         vertex 3.038440e-002 1.652704e+000 1.300000e+001
      endloop
   endfacet
   facet normal -9.730600e-001 -2.305519e-001 0.000000e+000
      outer loop
         vertex 3.038440e-002 1.652704e+000 1.300000e+001
         vertex 3.038440e-002 1.652704e+000 7.000000e+000
         vertex 1.206147e-001 1.315960e+000 7.000000e+000
      endloop
   endfacet
   facet normal -9.579706e-001 -2.868663e-001 0.000000e+000
      outer loop
         vertex 3.038440e-002 1.652704e+000 1.300000e+001
         vertex 1.206147e-001 1.315960e+000 7.000000e+000
         vertex 1.206147e-001 1.315960e+000 1.300000e+001
      endloop
   endfacet
   facet normal -9.182422e-001 -3.960194e-001 0.000000e+000
      outer loop
         vertex 1.206147e-001 1.315960e+000 1.300000e+001
         vertex 1.206147e-001 1.315960e+000 7.000000e+000
         vertex 2.679490e-001 9.999992e-001 7.000000e+000
      endloop
   endfacet
   facet normal -8.936031e-001 -4.488580e-001 0.000000e+000
      outer loop
         vertex 1.206147e-001 1.315960e+000 1.300000e+001
         vertex 2.679490e-001 9.999992e-001 7.000000e+000
         vertex 2.679490e-001 9.999992e-001 1.300000e+001
      endloop
   endfacet
   facet normal -8.355240e-001 -5.494540e-001 0.000000e+000
      outer loop
         vertex 2.679490e-001 9.999992e-001 1.300000e+001
         vertex 2.679490e-001 9.999992e-001 7.000000e+000
         vertex 4.679104e-001 7.144241e-001 7.000000e+000
      endloop
   endfacet
   facet normal -8.020838e-001 -5.972114e-001 0.000000e+000
      outer loop
         vertex 2.679490e-001 9.999992e-001 1.300000e+001
         vertex 4.679104e-001 7.144241e-001 7.000000e+000
         vertex 4.679104e-001 7.144241e-001 1.300000e+001
      endloop
   endfacet
   facet normal -7.274188e-001 -6.861938e-001 0.000000e+000
      outer loop
         vertex 4.679104e-001 7.144241e-001 1.300000e+001
         vertex 4.679104e-001 7.144241e-001 7.000000e+000
         vertex 7.144241e-001 4.679104e-001 7.000000e+000
      endloop
   endfacet
   facet normal -6.861938e-001 -7.274188e-001 0.000000e+000
      outer loop
         vertex 4.679104e-001 7.144241e-001 1.300000e+001
         vertex 7.144241e-001 4.679104e-001 7.000000e+000
         vertex 7.144241e-001 4.679104e-001 1.300000e+001
      endloop
   endfacet
   facet normal -5.972114e-001 -8.020838e-001 0.000000e+000
      outer loop
         vertex 7.144241e-001 4.679104e-001 1.300000e+001
         vertex 7.144241e-001 4.679104e-001 7.000000e+000
         vertex 9.999992e-001 2.679490e-001 7.000000e+000
      endloop
   endfacet
   facet normal -5.494540e-001 -8.355240e-001 0.000000e+000
      outer loop
         vertex 7.144241e-001 4.679104e-001 1.300000e+001
         vertex 9.999992e-001 2.679490e-001 7.000000e+000
         vertex 9.999992e-001 2.679490e-001 1.300000e+001
      endloop
   endfacet
   facet normal -4.488580e-001 -8.936031e-001 0.000000e+000
      outer loop
         vertex 9.999992e-001 2.679490e-001 1.300000e+001
         vertex 9.999992e-001 2.679490e-001 7.000000e+000
         vertex 1.315960e+000 1.206147e-001 7.000000e+000
      endloop
   endfacet
   facet normal -3.960194e-001 -9.182422e-001 0.000000e+000
      outer loop
         vertex 9.999992e-001 2.679490e-001 1.300000e+001
         vertex 1.315960e+000 1.206147e-001 7.000000e+000
         vertex 1.315960e+000 1.206147e-001 1.300000e+001
      endloop
   endfacet
   facet normal -2.868663e-001 -9.579706e-001 0.000000e+000
      outer loop
         vertex 1.315960e+000 1.206147e-001 1.300000e+001
         vertex 1.315960e+000 1.206147e-001 7.000000e+000
         vertex 1.652704e+000 3.038440e-002 7.000000e+000
      endloop
   endfacet
   facet normal -2.305519e-001 -9.730600e-001 0.000000e+000
      outer loop
         vertex 1.315960e+000 1.206147e-001 1.300000e+001
         vertex 1.652704e+000 3.038440e-002 7.000000e+000
         vertex 1.652704e+000 3.038440e-002 1.300000e+001
      endloop
   endfacet
   facet normal -1.161583e-001 -9.932307e-001 0.000000e+000
      outer loop
         vertex 1.652704e+000 3.038440e-002 1.300000e+001
         vertex 1.652704e+000 3.038440e-002 7.000000e+000
         vertex 1.999999e+000 0.000000e+000 7.000000e+000
      endloop
   endfacet
   facet normal -5.807913e-002 -9.983119e-001 0.000000e+000
      outer loop
         vertex 1.652704e+000 3.038440e-002 1.300000e+001
         vertex 1.999999e+000 0.000000e+000 7.000000e+000
         vertex 1.999999e+000 0.000000e+000 1.300000e+001
      endloop
   endfacet
   facet normal 5.228807e-002 -9.986320e-001 0.000000e+000
      outer loop
         vertex 2.800000e+001 0.000000e+000 1.300000e+001
         vertex 2.800000e+001 0.000000e+000 7.000000e+000
         vertex 2.831287e+001 2.462324e-002 7.000000e+000
      endloop
   endfacet
   facet normal 1.045761e-001 -9.945168e-001 0.000000e+000
      outer loop
         vertex 2.800000e+001 0.000000e+000 1.300000e+001
         vertex 2.831287e+001 2.462324e-002 7.000000e+000
         vertex 2.831287e+001 2.462324e-002 1.300000e+001
      endloop
   endfacet
   facet normal 2.078648e-001 -9.781576e-001 0.000000e+000
      outer loop
         vertex 2.831287e+001 2.462324e-002 1.300000e+001
         vertex 2.831287e+001 2.462324e-002 7.000000e+000
         vertex 2.861803e+001 9.788666e-002 7.000000e+000
      endloop
   endfacet
   facet normal 2.588653e-001 -9.659134e-001 0.000000e+000
      outer loop
         vertex 2.831287e+001 2.462324e-002 1.300000e+001
         vertex 2.861803e+001 9.788666e-002 7.000000e+000
         vertex 2.861803e+001 9.788666e-002 1.300000e+001
      endloop
   endfacet
   facet normal 3.583232e-001 -9.335976e-001 0.000000e+000
      outer loop
         vertex 2.861803e+001 9.788666e-002 1.300000e+001
         vertex 2.861803e+001 9.788666e-002 7.000000e+000
         vertex 2.890798e+001 2.179863e-001 7.000000e+000
      endloop
   endfacet
   facet normal 4.067805e-001 -9.135259e-001 0.000000e+000
      outer loop
         vertex 2.861803e+001 9.788666e-002 1.300000e+001
         vertex 2.890798e+001 2.179863e-001 7.000000e+000
         vertex 2.890798e+001 2.179863e-001 1.300000e+001
      endloop
   endfacet
   facet normal 4.999584e-001 -8.660494e-001 0.000000e+000
      outer loop
         vertex 2.890798e+001 2.179863e-001 1.300000e+001
         vertex 2.890798e+001 2.179863e-001 7.000000e+000
         vertex 2.917557e+001 3.819661e-001 7.000000e+000
      endloop
   endfacet
   facet normal 5.446792e-001 -8.386444e-001 0.000000e+000
      outer loop
         vertex 2.890798e+001 2.179863e-001 1.300000e+001
         vertex 2.917557e+001 3.819661e-001 7.000000e+000
         vertex 2.917557e+001 3.819661e-001 1.300000e+001
      endloop
   endfacet
   facet normal 6.292831e-001 -7.771761e-001 0.000000e+000
      outer loop
         vertex 2.917557e+001 3.819661e-001 1.300000e+001
         vertex 2.917557e+001 3.819661e-001 7.000000e+000
         vertex 2.941422e+001 5.857860e-001 7.000000e+000
      endloop
   endfacet
   facet normal 6.691663e-001 -7.431127e-001 0.000000e+000
      outer loop
         vertex 2.917557e+001 3.819661e-001 1.300000e+001
         vertex 2.941422e+001 5.857860e-001 7.000000e+000
         vertex 2.941422e+001 5.857860e-001 1.300000e+001
      endloop
   endfacet
   facet normal 7.431127e-001 -6.691663e-001 0.000000e+000
      outer loop
         vertex 2.941422e+001 5.857860e-001 1.300000e+001
         vertex 2.941422e+001 5.857860e-001 7.000000e+000
         vertex 2.961803e+001 8.244291e-001 7.000000e+000
      endloop
   endfacet
   facet normal 7.771761e-001 -6.292831e-001 0.000000e+000
      outer loop
         vertex 2.941422e+001 5.857860e-001 1.300000e+001
         vertex 2.961803e+001 8.244291e-001 7.000000e+000
         vertex 2.961803e+001 8.244291e-001 1.300000e+001
      endloop
   endfacet
   facet normal 8.386444e-001 -5.446792e-001 0.000000e+000
      outer loop
         vertex 2.961803e+001 8.244291e-001 1.300000e+001
         vertex 2.961803e+001 8.244291e-001 7.000000e+000
         vertex 2.978201e+001 1.092019e+000 7.000000e+000
      endloop
   endfacet
   facet normal 8.660494e-001 -4.999584e-001 0.000000e+000
      outer loop
         vertex 2.961803e+001 8.244291e-001 1.300000e+001
         vertex 2.978201e+001 1.092019e+000 7.000000e+000
         vertex 2.978201e+001 1.092019e+000 1.300000e+001
      endloop
   endfacet
   facet normal 9.135259e-001 -4.067805e-001 0.000000e+000
      outer loop
         vertex 2.978201e+001 1.092019e+000 1.300000e+001
         vertex 2.978201e+001 1.092019e+000 7.000000e+000
         vertex 2.990211e+001 1.381965e+000 7.000000e+000
      endloop
   endfacet
   facet normal 9.335976e-001 -3.583232e-001 0.000000e+000
      outer loop
         vertex 2.978201e+001 1.092019e+000 1.300000e+001
         vertex 2.990211e+001 1.381965e+000 7.000000e+000
         vertex 2.990211e+001 1.381965e+000 1.300000e+001
      endloop
   endfacet
   facet normal 9.659134e-001 -2.588653e-001 0.000000e+000
      outer loop
         vertex 2.990211e+001 1.381965e+000 1.300000e+001
         vertex 2.990211e+001 1.381965e+000 7.000000e+000
         vertex 2.997538e+001 1.687131e+000 7.000000e+000
      endloop
   endfacet
   facet normal 9.781575e-001 -2.078648e-001 0.000000e+000
      outer loop
         vertex 2.990211e+001 1.381965e+000 1.300000e+001
         vertex 2.997538e+001 1.687131e+000 7.000000e+000
         vertex 2.997538e+001 1.687131e+000 1.300000e+001
      endloop
   endfacet
   facet normal 9.945168e-001 -1.045761e-001 0.000000e+000
      outer loop
         vertex 2.997538e+001 1.687131e+000 1.300000e+001
         vertex 2.997538e+001 1.687131e+000 7.000000e+000
         vertex 3.000000e+001 1.999999e+000 7.000000e+000
      endloop
   endfacet
   facet normal 9.986320e-001 -5.228807e-002 0.000000e+000
      outer loop
         vertex 2.997538e+001 1.687131e+000 1.300000e+001
         vertex 3.000000e+001 1.999999e+000 7.000000e+000
         vertex 3.000000e+001 1.999999e+000 1.300000e+001
      endloop
   endfacet
   facet normal 1.000000e+000 0.000000e+000 0.000000e+000
      outer loop
         vertex 1.900000e+001 0.000000e+000 1.800000e+001
         vertex 1.900000e+001 0.000000e+000 1.300000e+001
         vertex 1.900000e+001 3.000000e+001 1.800000e+001
      endloop
   endfacet
   facet normal 1.000000e+000 0.000000e+000 0.000000e+000
      outer loop
         vertex 1.900000e+001 3.000000e+001 1.800000e+001
         vertex 1.900000e+001 0.000000e+000 1.300000e+001
         vertex 1.900000e+001 3.000000e+001 1.300000e+001
      endloop
   endfacet
   facet normal -1.000000e+000 0.000000e+000 0.000000e+000
      outer loop
         vertex 1.100000e+001 3.000000e+001 1.800000e+001
         vertex 1.100000e+001 3.000000e+001 1.300000e+001
         vertex 1.100000e+001 0.000000e+000 1.800000e+001
      endloop
   endfacet
   facet normal -1.000000e+000 0.000000e+000 0.000000e+000
      outer loop
         vertex 1.100000e+001 0.000000e+000 1.800000e+001
         vertex 1.100000e+001 3.000000e+001 1.300000e+001
         vertex 1.100000e+001 0.000000e+000 1.300000e+001
      endloop
   endfacet
   facet normal 0.000000e+000 0.000000e+000 1.000000e+000
      outer loop
         vertex 1.300000e+001 0.000000e+000 2.000000e+001
         vertex 1.700000e+001 0.000000e+000 2.000000e+001
         vertex 1.300000e+001 3.000000e+001 2.000000e+001
      endloop
   endfacet
   facet normal 0.000000e+000 0.000000e+000 1.000000e+000
      outer loop
         vertex 1.300000e+001 3.000000e+001 2.000000e+001
         vertex 1.700000e+001 0.000000e+000 2.000000e+001
         vertex 1.700000e+001 3.000000e+001 2.000000e+001
      endloop
   endfacet
   facet normal -5.807913e-002 0.000000e+000 9.983119e-001
      outer loop
         vertex 1.300000e+001 0.000000e+000 2.000000e+001
         vertex 1.300000e+001 3.000000e+001 2.000000e+001
         vertex 1.265270e+001 3.000000e+001 1.996962e+001
      endloop
   endfacet
   facet normal -1.161583e-001 0.000000e+000 9.932307e-001
      outer loop
         vertex 1.300000e+001 0.000000e+000 2.000000e+001
         vertex 1.265270e+001 3.000000e+001 1.996962e+001
         vertex 1.265270e+001 0.000000e+000 1.996962e+001
      endloop
   endfacet
   facet normal -2.305519e-001 0.000000e+000 9.730600e-001
      outer loop
         vertex 1.265270e+001 0.000000e+000 1.996962e+001
         vertex 1.265270e+001 3.000000e+001 1.996962e+001
         vertex 1.231596e+001 3.000000e+001 1.987938e+001
      endloop
   endfacet
   facet normal -2.868663e-001 0.000000e+000 9.579706e-001
      outer loop
         vertex 1.265270e+001 0.000000e+000 1.996962e+001
         vertex 1.231596e+001 3.000000e+001 1.987938e+001
         vertex 1.231596e+001 0.000000e+000 1.987938e+001
      endloop
   endfacet
   facet normal -3.960194e-001 0.000000e+000 9.182422e-001
      outer loop
         vertex 1.231596e+001 0.000000e+000 1.987938e+001
         vertex 1.231596e+001 3.000000e+001 1.987938e+001
         vertex 1.200000e+001 3.000000e+001 1.973205e+001
      endloop
   endfacet
   facet normal -4.488580e-001 0.000000e+000 8.936031e-001
      outer loop
         vertex 1.231596e+001 0.000000e+000 1.987938e+001
         vertex 1.200000e+001 3.000000e+001 1.973205e+001
         vertex 1.200000e+001 0.000000e+000 1.973205e+001
      endloop
   endfacet
   facet normal -5.494540e-001 0.000000e+000 8.355240e-001
      outer loop
         vertex 1.200000e+001 0.000000e+000 1.973205e+001
         vertex 1.200000e+001 3.000000e+001 1.973205e+001
         vertex 1.171443e+001 3.000000e+001 1.953209e+001
      endloop
   endfacet
   facet normal -5.972114e-001 0.000000e+000 8.020838e-001
      outer loop
         vertex 1.200000e+001 0.000000e+000 1.973205e+001
         vertex 1.171443e+001 3.000000e+001 1.953209e+001
         vertex 1.171443e+001 0.000000e+000 1.953209e+001
      endloop
   endfacet
   facet normal -6.861938e-001 0.000000e+000 7.274188e-001
      outer loop
         vertex 1.171443e+001 0.000000e+000 1.953209e+001
         vertex 1.171443e+001 3.000000e+001 1.953209e+001
         vertex 1.146791e+001 3.000000e+001 1.928557e+001
      endloop
   endfacet
   facet normal -7.274188e-001 0.000000e+000 6.861938e-001
      outer loop
         vertex 1.171443e+001 0.000000e+000 1.953209e+001
         vertex 1.146791e+001 3.000000e+001 1.928557e+001
         vertex 1.146791e+001 0.000000e+000 1.928557e+001
      endloop
   endfacet
   facet normal -8.020838e-001 0.000000e+000 5.972114e-001
      outer loop
         vertex 1.146791e+001 0.000000e+000 1.928557e+001
         vertex 1.146791e+001 3.000000e+001 1.928557e+001
         vertex 1.126795e+001 3.000000e+001 1.900000e+001
      endloop
   endfacet
   facet normal -8.355240e-001 0.000000e+000 5.494540e-001
      outer loop
         vertex 1.146791e+001 0.000000e+000 1.928557e+001
         vertex 1.126795e+001 3.000000e+001 1.900000e+001
         vertex 1.126795e+001 0.000000e+000 1.900000e+001
      endloop
   endfacet
   facet normal -8.936031e-001 0.000000e+000 4.488580e-001
      outer loop
         vertex 1.126795e+001 0.000000e+000 1.900000e+001
         vertex 1.126795e+001 3.000000e+001 1.900000e+001
         vertex 1.112062e+001 3.000000e+001 1.868404e+001
      endloop
   endfacet
   facet normal -9.182422e-001 0.000000e+000 3.960194e-001
      outer loop
         vertex 1.126795e+001 0.000000e+000 1.900000e+001
         vertex 1.112062e+001 3.000000e+001 1.868404e+001
         vertex 1.112062e+001 0.000000e+000 1.868404e+001
      endloop
   endfacet
   facet normal -9.579706e-001 0.000000e+000 2.868663e-001
      outer loop
         vertex 1.112062e+001 0.000000e+000 1.868404e+001
         vertex 1.112062e+001 3.000000e+001 1.868404e+001
         vertex 1.103038e+001 3.000000e+001 1.834730e+001
      endloop
   endfacet
   facet normal -9.730600e-001 0.000000e+000 2.305519e-001
      outer loop
         vertex 1.112062e+001 0.000000e+000 1.868404e+001
         vertex 1.103038e+001 3.000000e+001 1.834730e+001
         vertex 1.103038e+001 0.000000e+000 1.834730e+001
      endloop
   endfacet
   facet normal -9.932307e-001 0.000000e+000 1.161583e-001
      outer loop
         vertex 1.103038e+001 0.000000e+000 1.834730e+001
         vertex 1.103038e+001 3.000000e+001 1.834730e+001
         vertex 1.100000e+001 3.000000e+001 1.800000e+001
      endloop
   endfacet
   facet normal -9.983119e-001 0.000000e+000 5.807913e-002
      outer loop
         vertex 1.103038e+001 0.000000e+000 1.834730e+001
         vertex 1.100000e+001 3.000000e+001 1.800000e+001
         vertex 1.100000e+001 0.000000e+000 1.800000e+001
      endloop
   endfacet
   facet normal 5.807913e-002 0.000000e+000 9.983119e-001
      outer loop
         vertex 1.700000e+001 3.000000e+001 2.000000e+001
         vertex 1.700000e+001 0.000000e+000 2.000000e+001
         vertex 1.734730e+001 0.000000e+000 1.996962e+001
      endloop
   endfacet
   facet normal 1.161583e-001 0.000000e+000 9.932307e-001
      outer loop
         vertex 1.700000e+001 3.000000e+001 2.000000e+001
         vertex 1.734730e+001 0.000000e+000 1.996962e+001
         vertex 1.734730e+001 3.000000e+001 1.996962e+001
      endloop
   endfacet
   facet normal 2.305519e-001 0.000000e+000 9.730600e-001
      outer loop
         vertex 1.734730e+001 3.000000e+001 1.996962e+001
         vertex 1.734730e+001 0.000000e+000 1.996962e+001
         vertex 1.768404e+001 0.000000e+000 1.987938e+001
      endloop
   endfacet
   facet normal 2.868663e-001 0.000000e+000 9.579706e-001
      outer loop
         vertex 1.734730e+001 3.000000e+001 1.996962e+001
         vertex 1.768404e+001 0.000000e+000 1.987938e+001
         vertex 1.768404e+001 3.000000e+001 1.987938e+001
      endloop
   endfacet
   facet normal 3.960194e-001 0.000000e+000 9.182422e-001
      outer loop
         vertex 1.768404e+001 3.000000e+001 1.987938e+001
         vertex 1.768404e+001 0.000000e+000 1.987938e+001
         vertex 1.800000e+001 0.000000e+000 1.973205e+001
      endloop
   endfacet
   facet normal 4.488580e-001 0.000000e+000 8.936031e-001
      outer loop
         vertex 1.768404e+001 3.000000e+001 1.987938e+001
         vertex 1.800000e+001 0.000000e+000 1.973205e+001
         vertex 1.800000e+001 3.000000e+001 1.973205e+001
      endloop
   endfacet
   facet normal 5.494540e-001 0.000000e+000 8.355240e-001
      outer loop
         vertex 1.800000e+001 3.000000e+001 1.973205e+001
         vertex 1.800000e+001 0.000000e+000 1.973205e+001
         vertex 1.828557e+001 0.000000e+000 1.953209e+001
      endloop
   endfacet
   facet normal 5.972114e-001 0.000000e+000 8.020838e-001
      outer loop
         vertex 1.800000e+001 3.000000e+001 1.973205e+001
         vertex 1.828557e+001 0.000000e+000 1.953209e+001
         vertex 1.828557e+001 3.000000e+001 1.953209e+001
      endloop
   endfacet
   facet normal 6.861938e-001 0.000000e+000 7.274188e-001
      outer loop
         vertex 1.828557e+001 3.000000e+001 1.953209e+001
         vertex 1.828557e+001 0.000000e+000 1.953209e+001
         vertex 1.853209e+001 0.000000e+000 1.928557e+001
      endloop
   endfacet
   facet normal 7.274188e-001 0.000000e+000 6.861938e-001
      outer loop
         vertex 1.828557e+001 3.000000e+001 1.953209e+001
         vertex 1.853209e+001 0.000000e+000 1.928557e+001
         vertex 1.853209e+001 3.000000e+001 1.928557e+001
      endloop
   endfacet
   facet normal 8.020838e-001 0.000000e+000 5.972114e-001
      outer loop
         vertex 1.853209e+001 3.000000e+001 1.928557e+001
         vertex 1.853209e+001 0.000000e+000 1.928557e+001
         vertex 1.873205e+001 0.000000e+000 1.900000e+001
      endloop
   endfacet
   facet normal 8.355240e-001 0.000000e+000 5.494540e-001
      outer loop
         vertex 1.853209e+001 3.000000e+001 1.928557e+001
         vertex 1.873205e+001 0.000000e+000 1.900000e+001
         vertex 1.873205e+001 3.000000e+001 1.900000e+001
      endloop
   endfacet
   facet normal 8.936031e-001 0.000000e+000 4.488580e-001
      outer loop
         vertex 1.873205e+001 3.000000e+001 1.900000e+001
         vertex 1.873205e+001 0.000000e+000 1.900000e+001
         vertex 1.887938e+001 0.000000e+000 1.868404e+001
      endloop
   endfacet
   facet normal 9.182422e-001 0.000000e+000 3.960194e-001
      outer loop
         vertex 1.873205e+001 3.000000e+001 1.900000e+001
         vertex 1.887938e+001 0.000000e+000 1.868404e+001
         vertex 1.887938e+001 3.000000e+001 1.868404e+001
      endloop
   endfacet
   facet normal 9.579706e-001 0.000000e+000 2.868663e-001
      outer loop
         vertex 1.887938e+001 3.000000e+001 1.868404e+001
         vertex 1.887938e+001 0.000000e+000 1.868404e+001
         vertex 1.896961e+001 0.000000e+000 1.834730e+001
      endloop
   endfacet
   facet normal 9.730600e-001 0.000000e+000 2.305519e-001
      outer loop
         vertex 1.887938e+001 3.000000e+001 1.868404e+001
         vertex 1.896961e+001 0.000000e+000 1.834730e+001
         vertex 1.896961e+001 3.000000e+001 1.834730e+001
      endloop
   endfacet
   facet normal 9.932307e-001 0.000000e+000 1.161583e-001
      outer loop
         vertex 1.896961e+001 3.000000e+001 1.834730e+001
         vertex 1.896961e+001 0.000000e+000 1.834730e+001
         vertex 1.900000e+001 0.000000e+000 1.800000e+001
      endloop
   endfacet
   facet normal 9.983119e-001 0.000000e+000 5.807913e-002
      outer loop
         vertex 1.896961e+001 3.000000e+001 1.834730e+001
         vertex 1.900000e+001 0.000000e+000 1.800000e+001
         vertex 1.900000e+001 3.000000e+001 1.800000e+001
      endloop
   endfacet
endsolid