solid ½ÄÆÇ±¸µ¿ºÎ_Áß¾Ó_ÁÂÃø0
   facet normal 1.239088e-016 -1.000000e+000 0.000000e+000
      outer loop
         vertex 1.400000e+001 3.200000e+002 2.500000e+001
         vertex 7.000000e+000 3.200000e+002 3.184699e+001
         vertex 7.000000e+000 3.200000e+002 2.600000e+001
      endloop
   endfacet
   facet normal 1.239088e-016 -1.000000e+000 0.000000e+000
      outer loop
         vertex 1.690000e+002 3.200000e+002 4.500000e+001
         vertex 7.000000e+000 3.200000e+002 4.500000e+001
         vertex 1.690000e+002 3.200000e+002 2.500000e+001
      endloop
   endfacet
   facet normal 1.239088e-016 -1.000000e+000 0.000000e+000
      outer loop
         vertex 1.690000e+002 3.200000e+002 2.500000e+001
         vertex 7.000000e+000 3.200000e+002 4.500000e+001
         vertex 7.000000e+000 3.200000e+002 4.015301e+001
      endloop
   endfacet
   facet normal 1.239088e-016 -1.000000e+000 0.000000e+000
      outer loop
         vertex 1.690000e+002 3.200000e+002 2.500000e+001
         vertex 7.000000e+000 3.200000e+002 4.015301e+001
         vertex 6.985370e+000 3.200000e+002 3.998257e+001
      endloop
   endfacet
   facet normal 1.239088e-016 -1.000000e+000 0.000000e+000
      outer loop
         vertex 6.809017e+000 3.200000e+002 2.541221e+001
         vertex 6.707107e+000 3.200000e+002 2.529289e+001
         vertex 1.400000e+001 3.200000e+002 1.900000e+001
      endloop
   endfacet
   facet normal 1.239088e-016 -1.000000e+000 0.000000e+000
      outer loop
         vertex 1.400000e+001 3.200000e+002 1.900000e+001
         vertex 6.707107e+000 3.200000e+002 2.529289e+001
         vertex 6.587786e+000 3.200000e+002 2.519098e+001
      endloop
   endfacet
   facet normal 1.239088e-016 -1.000000e+000 0.000000e+000
      outer loop
         vertex 1.400000e+001 3.200000e+002 1.900000e+001
         vertex 6.587786e+000 3.200000e+002 2.519098e+001
         vertex 6.453991e+000 3.200000e+002 2.510899e+001
      endloop
   endfacet
   facet normal 1.239088e-016 -1.000000e+000 0.000000e+000
      outer loop
         vertex 6.363397e+000 3.200000e+002 3.277863e+001
         vertex 6.516861e+000 3.200000e+002 3.270306e+001
         vertex 6.516861e+000 3.200000e+002 3.929694e+001
      endloop
   endfacet
   facet normal 1.239088e-016 -1.000000e+000 0.000000e+000
      outer loop
         vertex 6.453991e+000 3.200000e+002 2.510899e+001
         vertex 6.309017e+000 3.200000e+002 2.504894e+001
         vertex 1.400000e+001 3.200000e+002 1.900000e+001
      endloop
   endfacet
   facet normal 1.239088e-016 -1.000000e+000 0.000000e+000
      outer loop
         vertex 1.400000e+001 3.200000e+002 1.900000e+001
         vertex 6.309017e+000 3.200000e+002 2.504894e+001
         vertex 6.156435e+000 3.200000e+002 2.501231e+001
      endloop
   endfacet
   facet normal 1.239088e-016 -1.000000e+000 0.000000e+000
      outer loop
         vertex 1.400000e+001 3.200000e+002 1.900000e+001
         vertex 6.156435e+000 3.200000e+002 2.501231e+001
         vertex 0.000000e+000 3.200000e+002 1.900000e+001
      endloop
   endfacet
   facet normal 1.239088e-016 -1.000000e+000 0.000000e+000
      outer loop
         vertex 0.000000e+000 3.200000e+002 1.900000e+001
         vertex 6.156435e+000 3.200000e+002 2.501231e+001
         vertex 6.000000e+000 3.200000e+002 2.500000e+001
      endloop
   endfacet
   facet normal 1.239088e-016 -1.000000e+000 0.000000e+000
      outer loop
         vertex 0.000000e+000 3.200000e+002 1.900000e+001
         vertex 6.000000e+000 3.200000e+002 2.500000e+001
         vertex 0.000000e+000 3.200000e+002 2.500000e+001
      endloop
   endfacet
   facet normal 1.239088e-016 -1.000000e+000 0.000000e+000
      outer loop
         vertex 6.941905e+000 3.200000e+002 3.981713e+001
         vertex 6.870879e+000 3.200000e+002 3.966151e+001
         vertex 6.941905e+000 3.200000e+002 3.218287e+001
      endloop
   endfacet
   facet normal 1.239088e-016 -1.000000e+000 0.000000e+000
      outer loop
         vertex 6.941905e+000 3.200000e+002 3.218287e+001
         vertex 6.870879e+000 3.200000e+002 3.966151e+001
         vertex 6.774371e+000 3.200000e+002 3.952028e+001
      endloop
   endfacet
   facet normal 1.239088e-016 -1.000000e+000 0.000000e+000
      outer loop
         vertex 6.985370e+000 3.200000e+002 3.998257e+001
         vertex 6.941905e+000 3.200000e+002 3.981713e+001
         vertex 1.690000e+002 3.200000e+002 2.500000e+001
      endloop
   endfacet
   facet normal 1.239088e-016 -1.000000e+000 0.000000e+000
      outer loop
         vertex 1.690000e+002 3.200000e+002 2.500000e+001
         vertex 6.941905e+000 3.200000e+002 3.981713e+001
         vertex 6.941905e+000 3.200000e+002 3.218287e+001
      endloop
   endfacet
   facet normal 1.239088e-016 -1.000000e+000 0.000000e+000
      outer loop
         vertex 1.690000e+002 3.200000e+002 2.500000e+001
         vertex 6.941905e+000 3.200000e+002 3.218287e+001
         vertex 1.400000e+001 3.200000e+002 2.500000e+001
      endloop
   endfacet
   facet normal 1.239088e-016 -1.000000e+000 0.000000e+000
      outer loop
         vertex 1.400000e+001 3.200000e+002 2.500000e+001
         vertex 6.941905e+000 3.200000e+002 3.218287e+001
         vertex 6.985370e+000 3.200000e+002 3.201743e+001
      endloop
   endfacet
   facet normal 1.239088e-016 -1.000000e+000 0.000000e+000
      outer loop
         vertex 1.400000e+001 3.200000e+002 2.500000e+001
         vertex 6.985370e+000 3.200000e+002 3.201743e+001
         vertex 7.000000e+000 3.200000e+002 3.184699e+001
      endloop
   endfacet
   facet normal 1.239088e-016 -1.000000e+000 0.000000e+000
      outer loop
         vertex 6.774371e+000 3.200000e+002 3.952028e+001
         vertex 6.655202e+000 3.200000e+002 3.939755e+001
         vertex 6.941905e+000 3.200000e+002 3.218287e+001
      endloop
   endfacet
   facet normal 1.239088e-016 -1.000000e+000 0.000000e+000
      outer loop
         vertex 6.941905e+000 3.200000e+002 3.218287e+001
         vertex 6.655202e+000 3.200000e+002 3.939755e+001
         vertex 6.516861e+000 3.200000e+002 3.929694e+001
      endloop
   endfacet
   facet normal 1.239088e-016 -1.000000e+000 0.000000e+000
      outer loop
         vertex 6.941905e+000 3.200000e+002 3.218287e+001
         vertex 6.516861e+000 3.200000e+002 3.929694e+001
         vertex 6.870879e+000 3.200000e+002 3.233849e+001
      endloop
   endfacet
   facet normal 1.239088e-016 -1.000000e+000 0.000000e+000
      outer loop
         vertex 7.000000e+000 3.200000e+002 2.600000e+001
         vertex 6.987689e+000 3.200000e+002 2.584356e+001
         vertex 1.400000e+001 3.200000e+002 2.500000e+001
      endloop
   endfacet
   facet normal 1.239088e-016 -1.000000e+000 0.000000e+000
      outer loop
         vertex 1.400000e+001 3.200000e+002 2.500000e+001
         vertex 6.987689e+000 3.200000e+002 2.584356e+001
         vertex 6.951057e+000 3.200000e+002 2.569098e+001
      endloop
   endfacet
   facet normal 1.239088e-016 -1.000000e+000 0.000000e+000
      outer loop
         vertex 1.400000e+001 3.200000e+002 2.500000e+001
         vertex 6.951057e+000 3.200000e+002 2.569098e+001
         vertex 1.400000e+001 3.200000e+002 1.900000e+001
      endloop
   endfacet
   facet normal 1.239088e-016 -1.000000e+000 0.000000e+000
      outer loop
         vertex 1.400000e+001 3.200000e+002 1.900000e+001
         vertex 6.951057e+000 3.200000e+002 2.569098e+001
         vertex 6.891006e+000 3.200000e+002 2.554601e+001
      endloop
   endfacet
   facet normal 1.239088e-016 -1.000000e+000 0.000000e+000
      outer loop
         vertex 1.400000e+001 3.200000e+002 1.900000e+001
         vertex 6.891006e+000 3.200000e+002 2.554601e+001
         vertex 6.809017e+000 3.200000e+002 2.541221e+001
      endloop
   endfacet
   facet normal 1.239088e-016 -1.000000e+000 0.000000e+000
      outer loop
         vertex 6.516861e+000 3.200000e+002 3.270306e+001
         vertex 6.655202e+000 3.200000e+002 3.260244e+001
         vertex 6.516861e+000 3.200000e+002 3.929694e+001
      endloop
   endfacet
   facet normal 1.239088e-016 -1.000000e+000 0.000000e+000
      outer loop
         vertex 6.516861e+000 3.200000e+002 3.929694e+001
         vertex 6.655202e+000 3.200000e+002 3.260244e+001
         vertex 6.774371e+000 3.200000e+002 3.247972e+001
      endloop
   endfacet
   facet normal 1.239088e-016 -1.000000e+000 0.000000e+000
      outer loop
         vertex 6.516861e+000 3.200000e+002 3.929694e+001
         vertex 6.774371e+000 3.200000e+002 3.247972e+001
         vertex 6.870879e+000 3.200000e+002 3.233849e+001
      endloop
   endfacet
   facet normal 1.239088e-016 -1.000000e+000 0.000000e+000
      outer loop
         vertex 6.516861e+000 3.200000e+002 3.929694e+001
         vertex 6.363397e+000 3.200000e+002 3.922137e+001
         vertex 6.363397e+000 3.200000e+002 3.277863e+001
      endloop
   endfacet
   facet normal 1.239088e-016 -1.000000e+000 0.000000e+000
      outer loop
         vertex 6.363397e+000 3.200000e+002 3.277863e+001
         vertex 6.363397e+000 3.200000e+002 3.922137e+001
         vertex 6.199298e+000 3.200000e+002 3.917307e+001
      endloop
   endfacet
   facet normal 1.239088e-016 -1.000000e+000 0.000000e+000
      outer loop
         vertex 6.363397e+000 3.200000e+002 3.277863e+001
         vertex 6.199298e+000 3.200000e+002 3.917307e+001
         vertex 6.199298e+000 3.200000e+002 3.282693e+001
      endloop
   endfacet
   facet normal 1.239088e-016 -1.000000e+000 0.000000e+000
      outer loop
         vertex 6.199298e+000 3.200000e+002 3.282693e+001
         vertex 6.199298e+000 3.200000e+002 3.917307e+001
         vertex 6.029368e+000 3.200000e+002 3.915344e+001
      endloop
   endfacet
   facet normal 1.239088e-016 -1.000000e+000 0.000000e+000
      outer loop
         vertex 6.199298e+000 3.200000e+002 3.282693e+001
         vertex 6.029368e+000 3.200000e+002 3.915344e+001
         vertex 6.029368e+000 3.200000e+002 3.284656e+001
      endloop
   endfacet
   facet normal 1.239088e-016 -1.000000e+000 0.000000e+000
      outer loop
         vertex 9.706323e-001 3.200000e+002 3.984656e+001
         vertex 8.007023e-001 3.200000e+002 3.982693e+001
         vertex 1.141422e+000 3.200000e+002 3.216306e+001
      endloop
   endfacet
   facet normal 1.239088e-016 -1.000000e+000 0.000000e+000
      outer loop
         vertex 5.809497e-002 3.200000e+002 3.918287e+001
         vertex 1.463108e-002 3.200000e+002 3.901743e+001
         vertex 1.291209e-001 3.200000e+002 3.933849e+001
      endloop
   endfacet
   facet normal 1.239088e-016 -1.000000e+000 0.000000e+000
      outer loop
         vertex 1.291209e-001 3.200000e+002 3.933849e+001
         vertex 1.463108e-002 3.200000e+002 3.901743e+001
         vertex 2.256301e-001 3.200000e+002 3.947972e+001
      endloop
   endfacet
   facet normal 1.239088e-016 -1.000000e+000 0.000000e+000
      outer loop
         vertex 2.256301e-001 3.200000e+002 3.947972e+001
         vertex 1.463108e-002 3.200000e+002 3.901743e+001
         vertex 3.447984e-001 3.200000e+002 3.960244e+001
      endloop
   endfacet
   facet normal 1.239088e-016 -1.000000e+000 0.000000e+000
      outer loop
         vertex 3.447984e-001 3.200000e+002 3.960244e+001
         vertex 1.463108e-002 3.200000e+002 3.901743e+001
         vertex 0.000000e+000 3.200000e+002 3.884699e+001
      endloop
   endfacet
   facet normal 1.239088e-016 -1.000000e+000 0.000000e+000
      outer loop
         vertex 3.447984e-001 3.200000e+002 3.960244e+001
         vertex 0.000000e+000 3.200000e+002 3.884699e+001
         vertex 1.141422e+000 3.200000e+002 3.216306e+001
      endloop
   endfacet
   facet normal 1.239088e-016 -1.000000e+000 0.000000e+000
      outer loop
         vertex 1.141422e+000 3.200000e+002 3.216306e+001
         vertex 0.000000e+000 3.200000e+002 3.884699e+001
         vertex 0.000000e+000 3.200000e+002 3.315301e+001
      endloop
   endfacet
   facet normal 1.239088e-016 -1.000000e+000 0.000000e+000
      outer loop
         vertex 1.141422e+000 3.200000e+002 3.216306e+001
         vertex 0.000000e+000 3.200000e+002 3.315301e+001
         vertex 1.463108e-002 3.200000e+002 3.298258e+001
      endloop
   endfacet
   facet normal 1.239088e-016 -1.000000e+000 0.000000e+000
      outer loop
         vertex 6.029368e+000 3.200000e+002 3.284656e+001
         vertex 6.029368e+000 3.200000e+002 3.915344e+001
         vertex 5.858579e+000 3.200000e+002 3.283694e+001
      endloop
   endfacet
   facet normal 1.239088e-016 -1.000000e+000 0.000000e+000
      outer loop
         vertex 5.858579e+000 3.200000e+002 3.283694e+001
         vertex 6.029368e+000 3.200000e+002 3.915344e+001
         vertex 5.858579e+000 3.200000e+002 3.916306e+001
      endloop
   endfacet
   facet normal 1.239088e-016 -1.000000e+000 0.000000e+000
      outer loop
         vertex 5.858579e+000 3.200000e+002 3.283694e+001
         vertex 5.858579e+000 3.200000e+002 3.916306e+001
         vertex 1.141422e+000 3.200000e+002 3.216306e+001
      endloop
   endfacet
   facet normal 1.239088e-016 -1.000000e+000 0.000000e+000
      outer loop
         vertex 1.141422e+000 3.200000e+002 3.216306e+001
         vertex 5.858579e+000 3.200000e+002 3.916306e+001
         vertex 1.141422e+000 3.200000e+002 3.983694e+001
      endloop
   endfacet
   facet normal 1.239088e-016 -1.000000e+000 0.000000e+000
      outer loop
         vertex 1.141422e+000 3.200000e+002 3.216306e+001
         vertex 1.141422e+000 3.200000e+002 3.983694e+001
         vertex 9.706323e-001 3.200000e+002 3.984656e+001
      endloop
   endfacet
   facet normal 1.239088e-016 -1.000000e+000 0.000000e+000
      outer loop
         vertex 8.007023e-001 3.200000e+002 3.982693e+001
         vertex 6.366037e-001 3.200000e+002 3.977863e+001
         vertex 1.141422e+000 3.200000e+002 3.216306e+001
      endloop
   endfacet
   facet normal 1.239088e-016 -1.000000e+000 0.000000e+000
      outer loop
         vertex 1.141422e+000 3.200000e+002 3.216306e+001
         vertex 6.366037e-001 3.200000e+002 3.977863e+001
         vertex 4.831389e-001 3.200000e+002 3.970306e+001
      endloop
   endfacet
   facet normal 1.239088e-016 -1.000000e+000 0.000000e+000
      outer loop
         vertex 1.141422e+000 3.200000e+002 3.216306e+001
         vertex 4.831389e-001 3.200000e+002 3.970306e+001
         vertex 3.447984e-001 3.200000e+002 3.960244e+001
      endloop
   endfacet
   facet normal 1.239088e-016 -1.000000e+000 0.000000e+000
      outer loop
         vertex 4.831389e-001 3.200000e+002 3.229694e+001
         vertex 6.366037e-001 3.200000e+002 3.222137e+001
         vertex 8.007023e-001 3.200000e+002 3.217307e+001
      endloop
   endfacet
   facet normal 1.239088e-016 -1.000000e+000 0.000000e+000
      outer loop
         vertex 1.463108e-002 3.200000e+002 3.298258e+001
         vertex 5.809497e-002 3.200000e+002 3.281713e+001
         vertex 1.141422e+000 3.200000e+002 3.216306e+001
      endloop
   endfacet
   facet normal 1.239088e-016 -1.000000e+000 0.000000e+000
      outer loop
         vertex 1.141422e+000 3.200000e+002 3.216306e+001
         vertex 5.809497e-002 3.200000e+002 3.281713e+001
         vertex 1.291209e-001 3.200000e+002 3.266151e+001
      endloop
   endfacet
   facet normal 1.239088e-016 -1.000000e+000 0.000000e+000
      outer loop
         vertex 1.141422e+000 3.200000e+002 3.216306e+001
         vertex 1.291209e-001 3.200000e+002 3.266151e+001
         vertex 2.256301e-001 3.200000e+002 3.252028e+001
      endloop
   endfacet
   facet normal 1.239088e-016 -1.000000e+000 0.000000e+000
      outer loop
         vertex 2.256301e-001 3.200000e+002 3.252028e+001
         vertex 3.447984e-001 3.200000e+002 3.239755e+001
         vertex 1.141422e+000 3.200000e+002 3.216306e+001
      endloop
   endfacet
   facet normal 1.239088e-016 -1.000000e+000 0.000000e+000
      outer loop
         vertex 1.141422e+000 3.200000e+002 3.216306e+001
         vertex 3.447984e-001 3.200000e+002 3.239755e+001
         vertex 4.831389e-001 3.200000e+002 3.229694e+001
      endloop
   endfacet
   facet normal 1.239088e-016 -1.000000e+000 0.000000e+000
      outer loop
         vertex 1.141422e+000 3.200000e+002 3.216306e+001
         vertex 4.831389e-001 3.200000e+002 3.229694e+001
         vertex 9.706323e-001 3.200000e+002 3.215344e+001
      endloop
   endfacet
   facet normal 1.239088e-016 -1.000000e+000 0.000000e+000
      outer loop
         vertex 9.706323e-001 3.200000e+002 3.215344e+001
         vertex 4.831389e-001 3.200000e+002 3.229694e+001
         vertex 8.007023e-001 3.200000e+002 3.217307e+001
      endloop
   endfacet
   facet normal 1.239088e-016 -1.000000e+000 0.000000e+000
      outer loop
         vertex 1.900000e+002 3.200000e+002 3.600000e+001
         vertex 1.900000e+002 3.200000e+002 4.500000e+001
         vertex 1.750000e+002 3.200000e+002 3.600000e+001
      endloop
   endfacet
   facet normal 1.239088e-016 -1.000000e+000 0.000000e+000
      outer loop
         vertex 1.750000e+002 3.200000e+002 3.600000e+001
         vertex 1.900000e+002 3.200000e+002 4.500000e+001
         vertex 1.750000e+002 3.200000e+002 4.500000e+001
      endloop
   endfacet
   facet normal 0.000000e+000 0.000000e+000 -1.000000e+000
      outer loop
         vertex 1.400000e+001 3.400000e+002 1.900000e+001
         vertex 1.400000e+001 3.200000e+002 1.900000e+001
         vertex 0.000000e+000 3.400000e+002 1.900000e+001
      endloop
   endfacet
   facet normal 0.000000e+000 0.000000e+000 -1.000000e+000
      outer loop
         vertex 0.000000e+000 3.400000e+002 1.900000e+001
         vertex 1.400000e+001 3.200000e+002 1.900000e+001
         vertex 0.000000e+000 3.200000e+002 1.900000e+001
      endloop
   endfacet
   facet normal -1.224647e-016 1.000000e+000 0.000000e+000
      outer loop
         vertex 7.000000e+000 3.400000e+002 4.015301e+001
         vertex 7.000000e+000 3.400000e+002 4.500000e+001
         vertex 1.750000e+002 3.400000e+002 4.500000e+001
      endloop
   endfacet
   facet normal -1.224647e-016 1.000000e+000 0.000000e+000
      outer loop
         vertex 1.400000e+001 3.400000e+002 2.500000e+001
         vertex 6.985370e+000 3.400000e+002 3.201743e+001
         vertex 1.750000e+002 3.400000e+002 2.500000e+001
      endloop
   endfacet
   facet normal -1.224647e-016 1.000000e+000 0.000000e+000
      outer loop
         vertex 1.750000e+002 3.400000e+002 2.500000e+001
         vertex 6.985370e+000 3.400000e+002 3.201743e+001
         vertex 6.941905e+000 3.400000e+002 3.218287e+001
      endloop
   endfacet
   facet normal -1.224647e-016 1.000000e+000 0.000000e+000
      outer loop
         vertex 0.000000e+000 3.400000e+002 1.900000e+001
         vertex 0.000000e+000 3.400000e+002 2.500000e+001
         vertex 6.000000e+000 3.400000e+002 2.500000e+001
      endloop
   endfacet
   facet normal -1.224647e-016 1.000000e+000 0.000000e+000
      outer loop
         vertex 6.987689e+000 3.400000e+002 2.584356e+001
         vertex 7.000000e+000 3.400000e+002 2.600000e+001
         vertex 1.400000e+001 3.400000e+002 2.500000e+001
      endloop
   endfacet
   facet normal -1.224647e-016 1.000000e+000 0.000000e+000
      outer loop
         vertex 1.400000e+001 3.400000e+002 2.500000e+001
         vertex 7.000000e+000 3.400000e+002 2.600000e+001
         vertex 7.000000e+000 3.400000e+002 3.184699e+001
      endloop
   endfacet
   facet normal -1.224647e-016 1.000000e+000 0.000000e+000
      outer loop
         vertex 1.400000e+001 3.400000e+002 2.500000e+001
         vertex 7.000000e+000 3.400000e+002 3.184699e+001
         vertex 6.985370e+000 3.400000e+002 3.201743e+001
      endloop
   endfacet
   facet normal -1.224647e-016 1.000000e+000 0.000000e+000
      outer loop
         vertex 6.774371e+000 3.400000e+002 3.952028e+001
         vertex 6.870879e+000 3.400000e+002 3.966151e+001
         vertex 1.750000e+002 3.400000e+002 2.500000e+001
      endloop
   endfacet
   facet normal -1.224647e-016 1.000000e+000 0.000000e+000
      outer loop
         vertex 1.750000e+002 3.400000e+002 2.500000e+001
         vertex 6.870879e+000 3.400000e+002 3.966151e+001
         vertex 6.941905e+000 3.400000e+002 3.981713e+001
      endloop
   endfacet
   facet normal -1.224647e-016 1.000000e+000 0.000000e+000
      outer loop
         vertex 1.750000e+002 3.400000e+002 2.500000e+001
         vertex 6.941905e+000 3.400000e+002 3.981713e+001
         vertex 1.750000e+002 3.400000e+002 4.500000e+001
      endloop
   endfacet
   facet normal -1.224647e-016 1.000000e+000 0.000000e+000
      outer loop
         vertex 1.750000e+002 3.400000e+002 4.500000e+001
         vertex 6.941905e+000 3.400000e+002 3.981713e+001
         vertex 6.985370e+000 3.400000e+002 3.998257e+001
      endloop
   endfacet
   facet normal -1.224647e-016 1.000000e+000 0.000000e+000
      outer loop
         vertex 1.750000e+002 3.400000e+002 4.500000e+001
         vertex 6.985370e+000 3.400000e+002 3.998257e+001
         vertex 7.000000e+000 3.400000e+002 4.015301e+001
      endloop
   endfacet
   facet normal -1.224647e-016 1.000000e+000 0.000000e+000
      outer loop
         vertex 6.309017e+000 3.400000e+002 2.504894e+001
         vertex 6.453991e+000 3.400000e+002 2.510899e+001
         vertex 1.400000e+001 3.400000e+002 1.900000e+001
      endloop
   endfacet
   facet normal -1.224647e-016 1.000000e+000 0.000000e+000
      outer loop
         vertex 1.400000e+001 3.400000e+002 1.900000e+001
         vertex 6.453991e+000 3.400000e+002 2.510899e+001
         vertex 6.587786e+000 3.400000e+002 2.519098e+001
      endloop
   endfacet
   facet normal -1.224647e-016 1.000000e+000 0.000000e+000
      outer loop
         vertex 1.400000e+001 3.400000e+002 1.900000e+001
         vertex 6.587786e+000 3.400000e+002 2.519098e+001
         vertex 6.707107e+000 3.400000e+002 2.529289e+001
      endloop
   endfacet
   facet normal -1.224647e-016 1.000000e+000 0.000000e+000
      outer loop
         vertex 0.000000e+000 3.400000e+002 1.900000e+001
         vertex 6.000000e+000 3.400000e+002 2.500000e+001
         vertex 1.400000e+001 3.400000e+002 1.900000e+001
      endloop
   endfacet
   facet normal -1.224647e-016 1.000000e+000 0.000000e+000
      outer loop
         vertex 1.400000e+001 3.400000e+002 1.900000e+001
         vertex 6.000000e+000 3.400000e+002 2.500000e+001
         vertex 6.156435e+000 3.400000e+002 2.501231e+001
      endloop
   endfacet
   facet normal -1.224647e-016 1.000000e+000 0.000000e+000
      outer loop
         vertex 1.400000e+001 3.400000e+002 1.900000e+001
         vertex 6.156435e+000 3.400000e+002 2.501231e+001
         vertex 6.309017e+000 3.400000e+002 2.504894e+001
      endloop
   endfacet
   facet normal -1.224647e-016 1.000000e+000 0.000000e+000
      outer loop
         vertex 6.774371e+000 3.400000e+002 3.247972e+001
         vertex 6.655202e+000 3.400000e+002 3.260244e+001
         vertex 6.516861e+000 3.400000e+002 3.929694e+001
      endloop
   endfacet
   facet normal -1.224647e-016 1.000000e+000 0.000000e+000
      outer loop
         vertex 6.516861e+000 3.400000e+002 3.929694e+001
         vertex 6.655202e+000 3.400000e+002 3.260244e+001
         vertex 6.516861e+000 3.400000e+002 3.270306e+001
      endloop
   endfacet
   facet normal -1.224647e-016 1.000000e+000 0.000000e+000
      outer loop
         vertex 6.516861e+000 3.400000e+002 3.929694e+001
         vertex 6.516861e+000 3.400000e+002 3.270306e+001
         vertex 6.363397e+000 3.400000e+002 3.277863e+001
      endloop
   endfacet
   facet normal -1.224647e-016 1.000000e+000 0.000000e+000
      outer loop
         vertex 6.774371e+000 3.400000e+002 3.952028e+001
         vertex 1.750000e+002 3.400000e+002 2.500000e+001
         vertex 6.655202e+000 3.400000e+002 3.939755e+001
      endloop
   endfacet
   facet normal -1.224647e-016 1.000000e+000 0.000000e+000
      outer loop
         vertex 6.655202e+000 3.400000e+002 3.939755e+001
         vertex 1.750000e+002 3.400000e+002 2.500000e+001
         vertex 6.941905e+000 3.400000e+002 3.218287e+001
      endloop
   endfacet
   facet normal -1.224647e-016 1.000000e+000 0.000000e+000
      outer loop
         vertex 6.655202e+000 3.400000e+002 3.939755e+001
         vertex 6.941905e+000 3.400000e+002 3.218287e+001
         vertex 6.516861e+000 3.400000e+002 3.929694e+001
      endloop
   endfacet
   facet normal -1.224647e-016 1.000000e+000 0.000000e+000
      outer loop
         vertex 6.516861e+000 3.400000e+002 3.929694e+001
         vertex 6.941905e+000 3.400000e+002 3.218287e+001
         vertex 6.870879e+000 3.400000e+002 3.233849e+001
      endloop
   endfacet
   facet normal -1.224647e-016 1.000000e+000 0.000000e+000
      outer loop
         vertex 6.516861e+000 3.400000e+002 3.929694e+001
         vertex 6.870879e+000 3.400000e+002 3.233849e+001
         vertex 6.774371e+000 3.400000e+002 3.247972e+001
      endloop
   endfacet
   facet normal -1.224647e-016 1.000000e+000 0.000000e+000
      outer loop
         vertex 6.707107e+000 3.400000e+002 2.529289e+001
         vertex 6.809017e+000 3.400000e+002 2.541221e+001
         vertex 1.400000e+001 3.400000e+002 1.900000e+001
      endloop
   endfacet
   facet normal -1.224647e-016 1.000000e+000 0.000000e+000
      outer loop
         vertex 1.400000e+001 3.400000e+002 1.900000e+001
         vertex 6.809017e+000 3.400000e+002 2.541221e+001
         vertex 6.891006e+000 3.400000e+002 2.554601e+001
      endloop
   endfacet
   facet normal -1.224647e-016 1.000000e+000 0.000000e+000
      outer loop
         vertex 1.400000e+001 3.400000e+002 1.900000e+001
         vertex 6.891006e+000 3.400000e+002 2.554601e+001
         vertex 1.400000e+001 3.400000e+002 2.500000e+001
      endloop
   endfacet
   facet normal -1.224647e-016 1.000000e+000 0.000000e+000
      outer loop
         vertex 1.400000e+001 3.400000e+002 2.500000e+001
         vertex 6.891006e+000 3.400000e+002 2.554601e+001
         vertex 6.951057e+000 3.400000e+002 2.569098e+001
      endloop
   endfacet
   facet normal -1.224647e-016 1.000000e+000 0.000000e+000
      outer loop
         vertex 1.400000e+001 3.400000e+002 2.500000e+001
         vertex 6.951057e+000 3.400000e+002 2.569098e+001
         vertex 6.987689e+000 3.400000e+002 2.584356e+001
      endloop
   endfacet
   facet normal -1.224647e-016 1.000000e+000 0.000000e+000
      outer loop
         vertex 6.029368e+000 3.400000e+002 3.915344e+001
         vertex 6.199298e+000 3.400000e+002 3.917307e+001
         vertex 6.363397e+000 3.400000e+002 3.277863e+001
      endloop
   endfacet
   facet normal -1.224647e-016 1.000000e+000 0.000000e+000
      outer loop
         vertex 6.363397e+000 3.400000e+002 3.277863e+001
         vertex 6.199298e+000 3.400000e+002 3.917307e+001
         vertex 6.363397e+000 3.400000e+002 3.922137e+001
      endloop
   endfacet
   facet normal -1.224647e-016 1.000000e+000 0.000000e+000
      outer loop
         vertex 6.363397e+000 3.400000e+002 3.277863e+001
         vertex 6.363397e+000 3.400000e+002 3.922137e+001
         vertex 6.516861e+000 3.400000e+002 3.929694e+001
      endloop
   endfacet
   facet normal -1.224647e-016 1.000000e+000 0.000000e+000
      outer loop
         vertex 6.363397e+000 3.400000e+002 3.277863e+001
         vertex 6.199298e+000 3.400000e+002 3.282693e+001
         vertex 6.029368e+000 3.400000e+002 3.915344e+001
      endloop
   endfacet
   facet normal -1.224647e-016 1.000000e+000 0.000000e+000
      outer loop
         vertex 6.029368e+000 3.400000e+002 3.915344e+001
         vertex 6.199298e+000 3.400000e+002 3.282693e+001
         vertex 6.029368e+000 3.400000e+002 3.284656e+001
      endloop
   endfacet
   facet normal -1.224647e-016 1.000000e+000 0.000000e+000
      outer loop
         vertex 6.029368e+000 3.400000e+002 3.915344e+001
         vertex 6.029368e+000 3.400000e+002 3.284656e+001
         vertex 5.858579e+000 3.400000e+002 3.916306e+001
      endloop
   endfacet
   facet normal -1.224647e-016 1.000000e+000 0.000000e+000
      outer loop
         vertex 5.858579e+000 3.400000e+002 3.916306e+001
         vertex 6.029368e+000 3.400000e+002 3.284656e+001
         vertex 5.858579e+000 3.400000e+002 3.283694e+001
      endloop
   endfacet
   facet normal -1.224647e-016 1.000000e+000 0.000000e+000
      outer loop
         vertex 5.858579e+000 3.400000e+002 3.916306e+001
         vertex 5.858579e+000 3.400000e+002 3.283694e+001
         vertex 1.141422e+000 3.400000e+002 3.983694e+001
      endloop
   endfacet
   facet normal -1.224647e-016 1.000000e+000 0.000000e+000
      outer loop
         vertex 1.141422e+000 3.400000e+002 3.983694e+001
         vertex 5.858579e+000 3.400000e+002 3.283694e+001
         vertex 1.141422e+000 3.400000e+002 3.216306e+001
      endloop
   endfacet
   facet normal -1.224647e-016 1.000000e+000 0.000000e+000
      outer loop
         vertex 6.366037e-001 3.400000e+002 3.977863e+001
         vertex 8.007023e-001 3.400000e+002 3.982693e+001
         vertex 1.141422e+000 3.400000e+002 3.216306e+001
      endloop
   endfacet
   facet normal -1.224647e-016 1.000000e+000 0.000000e+000
      outer loop
         vertex 1.141422e+000 3.400000e+002 3.216306e+001
         vertex 8.007023e-001 3.400000e+002 3.982693e+001
         vertex 9.706323e-001 3.400000e+002 3.984656e+001
      endloop
   endfacet
   facet normal -1.224647e-016 1.000000e+000 0.000000e+000
      outer loop
         vertex 1.141422e+000 3.400000e+002 3.216306e+001
         vertex 9.706323e-001 3.400000e+002 3.984656e+001
         vertex 1.141422e+000 3.400000e+002 3.983694e+001
      endloop
   endfacet
   facet normal -1.224647e-016 1.000000e+000 0.000000e+000
      outer loop
         vertex 0.000000e+000 3.400000e+002 3.315301e+001
         vertex 0.000000e+000 3.400000e+002 3.884699e+001
         vertex 3.447984e-001 3.400000e+002 3.960244e+001
      endloop
   endfacet
   facet normal -1.224647e-016 1.000000e+000 0.000000e+000
      outer loop
         vertex 3.447984e-001 3.400000e+002 3.960244e+001
         vertex 0.000000e+000 3.400000e+002 3.884699e+001
         vertex 1.463108e-002 3.400000e+002 3.901743e+001
      endloop
   endfacet
   facet normal -1.224647e-016 1.000000e+000 0.000000e+000
      outer loop
         vertex 0.000000e+000 3.400000e+002 3.315301e+001
         vertex 3.447984e-001 3.400000e+002 3.960244e+001
         vertex 1.141422e+000 3.400000e+002 3.216306e+001
      endloop
   endfacet
   facet normal -1.224647e-016 1.000000e+000 0.000000e+000
      outer loop
         vertex 1.141422e+000 3.400000e+002 3.216306e+001
         vertex 3.447984e-001 3.400000e+002 3.960244e+001
         vertex 4.831389e-001 3.400000e+002 3.970306e+001
      endloop
   endfacet
   facet normal -1.224647e-016 1.000000e+000 0.000000e+000
      outer loop
         vertex 1.141422e+000 3.400000e+002 3.216306e+001
         vertex 4.831389e-001 3.400000e+002 3.970306e+001
         vertex 6.366037e-001 3.400000e+002 3.977863e+001
      endloop
   endfacet
   facet normal -1.224647e-016 1.000000e+000 0.000000e+000
      outer loop
         vertex 9.706323e-001 3.400000e+002 3.215344e+001
         vertex 8.007023e-001 3.400000e+002 3.217307e+001
         vertex 3.447984e-001 3.400000e+002 3.239755e+001
      endloop
   endfacet
   facet normal -1.224647e-016 1.000000e+000 0.000000e+000
      outer loop
         vertex 3.447984e-001 3.400000e+002 3.239755e+001
         vertex 8.007023e-001 3.400000e+002 3.217307e+001
         vertex 6.366037e-001 3.400000e+002 3.222137e+001
      endloop
   endfacet
   facet normal -1.224647e-016 1.000000e+000 0.000000e+000
      outer loop
         vertex 3.447984e-001 3.400000e+002 3.239755e+001
         vertex 6.366037e-001 3.400000e+002 3.222137e+001
         vertex 4.831389e-001 3.400000e+002 3.229694e+001
      endloop
   endfacet
   facet normal -1.224647e-016 1.000000e+000 0.000000e+000
      outer loop
         vertex 9.706323e-001 3.400000e+002 3.215344e+001
         vertex 3.447984e-001 3.400000e+002 3.239755e+001
         vertex 1.141422e+000 3.400000e+002 3.216306e+001
      endloop
   endfacet
   facet normal -1.224647e-016 1.000000e+000 0.000000e+000
      outer loop
         vertex 1.141422e+000 3.400000e+002 3.216306e+001
         vertex 3.447984e-001 3.400000e+002 3.239755e+001
         vertex 2.256301e-001 3.400000e+002 3.252028e+001
      endloop
   endfacet
   facet normal -1.224647e-016 1.000000e+000 0.000000e+000
      outer loop
         vertex 1.141422e+000 3.400000e+002 3.216306e+001
         vertex 2.256301e-001 3.400000e+002 3.252028e+001
         vertex 1.291209e-001 3.400000e+002 3.266151e+001
      endloop
   endfacet
   facet normal -1.224647e-016 1.000000e+000 0.000000e+000
      outer loop
         vertex 5.809497e-002 3.400000e+002 3.918287e+001
         vertex 1.291209e-001 3.400000e+002 3.933849e+001
         vertex 1.463108e-002 3.400000e+002 3.901743e+001
      endloop
   endfacet
   facet normal -1.224647e-016 1.000000e+000 0.000000e+000
      outer loop
         vertex 1.463108e-002 3.400000e+002 3.901743e+001
         vertex 1.291209e-001 3.400000e+002 3.933849e+001
         vertex 2.256301e-001 3.400000e+002 3.947972e+001
      endloop
   endfacet
   facet normal -1.224647e-016 1.000000e+000 0.000000e+000
      outer loop
         vertex 1.463108e-002 3.400000e+002 3.901743e+001
         vertex 2.256301e-001 3.400000e+002 3.947972e+001
         vertex 3.447984e-001 3.400000e+002 3.960244e+001
      endloop
   endfacet
   facet normal -1.224647e-016 1.000000e+000 0.000000e+000
      outer loop
         vertex 1.291209e-001 3.400000e+002 3.266151e+001
         vertex 5.809497e-002 3.400000e+002 3.281713e+001
         vertex 1.141422e+000 3.400000e+002 3.216306e+001
      endloop
   endfacet
   facet normal -1.224647e-016 1.000000e+000 0.000000e+000
      outer loop
         vertex 1.141422e+000 3.400000e+002 3.216306e+001
         vertex 5.809497e-002 3.400000e+002 3.281713e+001
         vertex 1.463108e-002 3.400000e+002 3.298258e+001
      endloop
   endfacet
   facet normal -1.224647e-016 1.000000e+000 0.000000e+000
      outer loop
         vertex 1.141422e+000 3.400000e+002 3.216306e+001
         vertex 1.463108e-002 3.400000e+002 3.298258e+001
         vertex 0.000000e+000 3.400000e+002 3.315301e+001
      endloop
   endfacet
   facet normal 0.000000e+000 0.000000e+000 1.000000e+000
      outer loop
         vertex 1.750000e+002 3.140000e+002 4.500000e+001
         vertex 1.750000e+002 3.200000e+002 4.500000e+001
         vertex 1.690000e+002 3.200000e+002 4.500000e+001
      endloop
   endfacet
   facet normal 0.000000e+000 0.000000e+000 1.000000e+000
      outer loop
         vertex 1.690000e+002 3.200000e+002 4.500000e+001
         vertex 1.750000e+002 3.200000e+002 4.500000e+001
         vertex 7.000000e+000 3.400000e+002 4.500000e+001
      endloop
   endfacet
   facet normal 0.000000e+000 0.000000e+000 1.000000e+000
      outer loop
         vertex 1.690000e+002 3.200000e+002 4.500000e+001
         vertex 7.000000e+000 3.400000e+002 4.500000e+001
         vertex 7.000000e+000 3.200000e+002 4.500000e+001
      endloop
   endfacet
   facet normal 0.000000e+000 0.000000e+000 1.000000e+000
      outer loop
         vertex 1.750000e+002 3.400000e+002 4.500000e+001
         vertex 7.000000e+000 3.400000e+002 4.500000e+001
         vertex 1.750000e+002 3.290000e+002 4.500000e+001
      endloop
   endfacet
   facet normal 0.000000e+000 0.000000e+000 1.000000e+000
      outer loop
         vertex 1.750000e+002 3.290000e+002 4.500000e+001
         vertex 7.000000e+000 3.400000e+002 4.500000e+001
         vertex 1.750000e+002 3.200000e+002 4.500000e+001
      endloop
   endfacet
   facet normal 0.000000e+000 0.000000e+000 1.000000e+000
      outer loop
         vertex 1.750000e+002 3.290000e+002 4.500000e+001
         vertex 1.750000e+002 3.200000e+002 4.500000e+001
         vertex 1.900000e+002 3.290000e+002 4.500000e+001
      endloop
   endfacet
   facet normal 0.000000e+000 0.000000e+000 1.000000e+000
      outer loop
         vertex 1.900000e+002 3.290000e+002 4.500000e+001
         vertex 1.750000e+002 3.200000e+002 4.500000e+001
         vertex 1.900000e+002 3.200000e+002 4.500000e+001
      endloop
   endfacet
   facet normal 0.000000e+000 0.000000e+000 -1.000000e+000
      outer loop
         vertex 1.400000e+001 3.200000e+002 2.500000e+001
         vertex 1.400000e+001 3.400000e+002 2.500000e+001
         vertex 1.690000e+002 3.200000e+002 2.500000e+001
      endloop
   endfacet
   facet normal 0.000000e+000 0.000000e+000 -1.000000e+000
      outer loop
         vertex 1.690000e+002 3.200000e+002 2.500000e+001
         vertex 1.400000e+001 3.400000e+002 2.500000e+001
         vertex 1.750000e+002 3.400000e+002 2.500000e+001
      endloop
   endfacet
   facet normal 0.000000e+000 0.000000e+000 -1.000000e+000
      outer loop
         vertex 1.690000e+002 3.200000e+002 2.500000e+001
         vertex 1.750000e+002 3.400000e+002 2.500000e+001
         vertex 1.750000e+002 3.140000e+002 2.500000e+001
      endloop
   endfacet
   facet normal 1.000000e+000 1.224647e-016 -2.335205e-016
      outer loop
         vertex 1.400000e+001 3.400000e+002 2.500000e+001
         vertex 1.400000e+001 3.200000e+002 2.500000e+001
         vertex 1.400000e+001 3.400000e+002 1.900000e+001
      endloop
   endfacet
   facet normal 1.000000e+000 1.224647e-016 -2.335205e-016
      outer loop
         vertex 1.400000e+001 3.400000e+002 1.900000e+001
         vertex 1.400000e+001 3.200000e+002 2.500000e+001
         vertex 1.400000e+001 3.200000e+002 1.900000e+001
      endloop
   endfacet
   facet normal -1.000000e+000 -1.224647e-016 0.000000e+000
      outer loop
         vertex 0.000000e+000 3.400000e+002 2.500000e+001
         vertex 0.000000e+000 3.400000e+002 1.900000e+001
         vertex 0.000000e+000 3.200000e+002 2.500000e+001
      endloop
   endfacet
   facet normal -1.000000e+000 -1.224647e-016 0.000000e+000
      outer loop
         vertex 0.000000e+000 3.200000e+002 2.500000e+001
         vertex 0.000000e+000 3.400000e+002 1.900000e+001
         vertex 0.000000e+000 3.200000e+002 1.900000e+001
      endloop
   endfacet
   facet normal 1.000000e+000 1.039902e-016 2.465190e-032
      outer loop
         vertex 1.750000e+002 3.200000e+002 4.500000e+001
         vertex 1.750000e+002 3.140000e+002 4.500000e+001
         vertex 1.750000e+002 3.200000e+002 3.600000e+001
      endloop
   endfacet
   facet normal 1.000000e+000 1.039902e-016 2.465190e-032
      outer loop
         vertex 1.750000e+002 3.200000e+002 3.600000e+001
         vertex 1.750000e+002 3.140000e+002 4.500000e+001
         vertex 1.750000e+002 3.140000e+002 2.500000e+001
      endloop
   endfacet
   facet normal 1.000000e+000 1.039902e-016 2.465190e-032
      outer loop
         vertex 1.750000e+002 3.200000e+002 3.600000e+001
         vertex 1.750000e+002 3.140000e+002 2.500000e+001
         vertex 1.750000e+002 3.290000e+002 3.600000e+001
      endloop
   endfacet
   facet normal 1.000000e+000 1.039902e-016 2.465190e-032
      outer loop
         vertex 1.750000e+002 3.290000e+002 3.600000e+001
         vertex 1.750000e+002 3.140000e+002 2.500000e+001
         vertex 1.750000e+002 3.400000e+002 2.500000e+001
      endloop
   endfacet
   facet normal 1.000000e+000 1.039902e-016 2.465190e-032
      outer loop
         vertex 1.750000e+002 3.290000e+002 3.600000e+001
         vertex 1.750000e+002 3.400000e+002 2.500000e+001
         vertex 1.750000e+002 3.290000e+002 4.500000e+001
      endloop
   endfacet
   facet normal 1.000000e+000 1.039902e-016 2.465190e-032
      outer loop
         vertex 1.750000e+002 3.290000e+002 4.500000e+001
         vertex 1.750000e+002 3.400000e+002 2.500000e+001
         vertex 1.750000e+002 3.400000e+002 4.500000e+001
      endloop
   endfacet
   facet normal 2.465190e-032 0.000000e+000 -1.000000e+000
      outer loop
         vertex 1.900000e+002 3.290000e+002 3.600000e+001
         vertex 1.900000e+002 3.200000e+002 3.600000e+001
         vertex 1.750000e+002 3.290000e+002 3.600000e+001
      endloop
   endfacet
   facet normal 2.465190e-032 0.000000e+000 -1.000000e+000
      outer loop
         vertex 1.750000e+002 3.290000e+002 3.600000e+001
         vertex 1.900000e+002 3.200000e+002 3.600000e+001
         vertex 1.750000e+002 3.200000e+002 3.600000e+001
      endloop
   endfacet
   facet normal -1.039902e-016 1.000000e+000 0.000000e+000
      outer loop
         vertex 1.900000e+002 3.290000e+002 4.500000e+001
         vertex 1.900000e+002 3.290000e+002 3.600000e+001
         vertex 1.750000e+002 3.290000e+002 4.500000e+001
      endloop
   endfacet
   facet normal -1.039902e-016 1.000000e+000 0.000000e+000
      outer loop
         vertex 1.750000e+002 3.290000e+002 4.500000e+001
         vertex 1.900000e+002 3.290000e+002 3.600000e+001
         vertex 1.750000e+002 3.290000e+002 3.600000e+001
      endloop
   endfacet
   facet normal 1.000000e+000 1.039902e-016 2.465190e-032
      outer loop
         vertex 1.900000e+002 3.290000e+002 4.500000e+001
         vertex 1.900000e+002 3.200000e+002 4.500000e+001
         vertex 1.900000e+002 3.290000e+002 3.600000e+001
      endloop
   endfacet
   facet normal 1.000000e+000 1.039902e-016 2.465190e-032
      outer loop
         vertex 1.900000e+002 3.290000e+002 3.600000e+001
         vertex 1.900000e+002 3.200000e+002 4.500000e+001
         vertex 1.900000e+002 3.200000e+002 3.600000e+001
      endloop
   endfacet
   facet normal -7.071068e-001 -7.071068e-001 0.000000e+000
      outer loop
         vertex 1.690000e+002 3.200000e+002 2.500000e+001
         vertex 1.750000e+002 3.140000e+002 2.500000e+001
         vertex 1.690000e+002 3.200000e+002 4.500000e+001
      endloop
   endfacet
   facet normal -7.071068e-001 -7.071068e-001 0.000000e+000
      outer loop
         vertex 1.690000e+002 3.200000e+002 4.500000e+001
         vertex 1.750000e+002 3.140000e+002 2.500000e+001
         vertex 1.750000e+002 3.140000e+002 4.500000e+001
      endloop
   endfacet
   facet normal -9.986320e-001 -1.222972e-016 5.228807e-002
      outer loop
         vertex 7.000000e+000 3.200000e+002 2.600000e+001
         vertex 7.000000e+000 3.400000e+002 2.600000e+001
         vertex 6.987689e+000 3.200000e+002 2.584356e+001
      endloop
   endfacet
   facet normal -9.945168e-001 -1.217932e-016 1.045761e-001
      outer loop
         vertex 6.987689e+000 3.200000e+002 2.584356e+001
         vertex 7.000000e+000 3.400000e+002 2.600000e+001
         vertex 6.987689e+000 3.400000e+002 2.584356e+001
      endloop
   endfacet
   facet normal -9.781576e-001 -1.197898e-016 2.078648e-001
      outer loop
         vertex 6.987689e+000 3.200000e+002 2.584356e+001
         vertex 6.987689e+000 3.400000e+002 2.584356e+001
         vertex 6.951057e+000 3.200000e+002 2.569098e+001
      endloop
   endfacet
   facet normal -9.659134e-001 -1.182903e-016 2.588653e-001
      outer loop
         vertex 6.951057e+000 3.200000e+002 2.569098e+001
         vertex 6.987689e+000 3.400000e+002 2.584356e+001
         vertex 6.951057e+000 3.400000e+002 2.569098e+001
      endloop
   endfacet
   facet normal -9.335976e-001 -1.143327e-016 3.583232e-001
      outer loop
         vertex 6.951057e+000 3.200000e+002 2.569098e+001
         vertex 6.951057e+000 3.400000e+002 2.569098e+001
         vertex 6.891006e+000 3.200000e+002 2.554601e+001
      endloop
   endfacet
   facet normal -9.135259e-001 -1.118747e-016 4.067805e-001
      outer loop
         vertex 6.891006e+000 3.200000e+002 2.554601e+001
         vertex 6.951057e+000 3.400000e+002 2.569098e+001
         vertex 6.891006e+000 3.400000e+002 2.554601e+001
      endloop
   endfacet
   facet normal -8.660494e-001 -1.060605e-016 4.999584e-001
      outer loop
         vertex 6.891006e+000 3.200000e+002 2.554601e+001
         vertex 6.891006e+000 3.400000e+002 2.554601e+001
         vertex 6.809017e+000 3.200000e+002 2.541221e+001
      endloop
   endfacet
   facet normal -8.386444e-001 -1.027043e-016 5.446792e-001
      outer loop
         vertex 6.809017e+000 3.200000e+002 2.541221e+001
         vertex 6.891006e+000 3.400000e+002 2.554601e+001
         vertex 6.809017e+000 3.400000e+002 2.541221e+001
      endloop
   endfacet
   facet normal -7.771761e-001 -9.517663e-017 6.292831e-001
      outer loop
         vertex 6.809017e+000 3.200000e+002 2.541221e+001
         vertex 6.809017e+000 3.400000e+002 2.541221e+001
         vertex 6.707107e+000 3.200000e+002 2.529289e+001
      endloop
   endfacet
   facet normal -7.431127e-001 -9.100506e-017 6.691663e-001
      outer loop
         vertex 6.707107e+000 3.200000e+002 2.529289e+001
         vertex 6.809017e+000 3.400000e+002 2.541221e+001
         vertex 6.707107e+000 3.400000e+002 2.529289e+001
      endloop
   endfacet
   facet normal -6.691663e-001 -8.194923e-017 7.431127e-001
      outer loop
         vertex 6.707107e+000 3.200000e+002 2.529289e+001
         vertex 6.707107e+000 3.400000e+002 2.529289e+001
         vertex 6.587786e+000 3.200000e+002 2.519098e+001
      endloop
   endfacet
   facet normal -6.292831e-001 -7.706495e-017 7.771761e-001
      outer loop
         vertex 6.587786e+000 3.200000e+002 2.519098e+001
         vertex 6.707107e+000 3.400000e+002 2.529289e+001
         vertex 6.587786e+000 3.400000e+002 2.519098e+001
      endloop
   endfacet
   facet normal -5.446792e-001 -6.670397e-017 8.386444e-001
      outer loop
         vertex 6.587786e+000 3.200000e+002 2.519098e+001
         vertex 6.587786e+000 3.400000e+002 2.519098e+001
         vertex 6.453991e+000 3.200000e+002 2.510899e+001
      endloop
   endfacet
   facet normal -4.999584e-001 -6.122726e-017 8.660494e-001
      outer loop
         vertex 6.453991e+000 3.200000e+002 2.510899e+001
         vertex 6.587786e+000 3.400000e+002 2.519098e+001
         vertex 6.453991e+000 3.400000e+002 2.510899e+001
      endloop
   endfacet
   facet normal -4.067805e-001 -4.981624e-017 9.135259e-001
      outer loop
         vertex 6.453991e+000 3.200000e+002 2.510899e+001
         vertex 6.453991e+000 3.400000e+002 2.510899e+001
         vertex 6.309017e+000 3.200000e+002 2.504894e+001
      endloop
   endfacet
   facet normal -3.583232e-001 -4.388194e-017 9.335976e-001
      outer loop
         vertex 6.309017e+000 3.200000e+002 2.504894e+001
         vertex 6.453991e+000 3.400000e+002 2.510899e+001
         vertex 6.309017e+000 3.400000e+002 2.504894e+001
      endloop
   endfacet
   facet normal -2.588653e-001 -3.170186e-017 9.659134e-001
      outer loop
         vertex 6.309017e+000 3.200000e+002 2.504894e+001
         vertex 6.309017e+000 3.400000e+002 2.504894e+001
         vertex 6.156435e+000 3.200000e+002 2.501231e+001
      endloop
   endfacet
   facet normal -2.078648e-001 -2.545609e-017 9.781575e-001
      outer loop
         vertex 6.156435e+000 3.200000e+002 2.501231e+001
         vertex 6.309017e+000 3.400000e+002 2.504894e+001
         vertex 6.156435e+000 3.400000e+002 2.501231e+001
      endloop
   endfacet
   facet normal -1.045761e-001 -1.280688e-017 9.945168e-001
      outer loop
         vertex 6.156435e+000 3.200000e+002 2.501231e+001
         vertex 6.156435e+000 3.400000e+002 2.501231e+001
         vertex 6.000000e+000 3.200000e+002 2.500000e+001
      endloop
   endfacet
   facet normal -5.228807e-002 -6.403442e-018 9.986320e-001
      outer loop
         vertex 6.000000e+000 3.200000e+002 2.500000e+001
         vertex 6.156435e+000 3.400000e+002 2.501231e+001
         vertex 6.000000e+000 3.400000e+002 2.500000e+001
      endloop
   endfacet
   facet normal -9.983743e-001 -1.222656e-016 5.699670e-002
      outer loop
         vertex 7.000000e+000 3.200000e+002 4.015301e+001
         vertex 7.000000e+000 3.400000e+002 4.015301e+001
         vertex 6.985370e+000 3.200000e+002 3.998257e+001
      endloop
   endfacet
   facet normal -9.934815e-001 -1.216664e-016 1.139934e-001
      outer loop
         vertex 6.985370e+000 3.200000e+002 3.998257e+001
         vertex 7.000000e+000 3.400000e+002 4.015301e+001
         vertex 6.985370e+000 3.400000e+002 3.998257e+001
      endloop
   endfacet
   facet normal -9.740532e-001 -1.192871e-016 2.263190e-001
      outer loop
         vertex 6.985370e+000 3.200000e+002 3.998257e+001
         vertex 6.985370e+000 3.400000e+002 3.998257e+001
         vertex 6.941905e+000 3.200000e+002 3.981713e+001
      endloop
   endfacet
   facet normal -9.595178e-001 -1.175071e-016 2.816479e-001
      outer loop
         vertex 6.941905e+000 3.200000e+002 3.981713e+001
         vertex 6.985370e+000 3.400000e+002 3.998257e+001
         vertex 6.941905e+000 3.400000e+002 3.981713e+001
      endloop
   endfacet
   facet normal -9.212298e-001 -1.128181e-016 3.890188e-001
      outer loop
         vertex 6.941905e+000 3.200000e+002 3.981713e+001
         vertex 6.941905e+000 3.400000e+002 3.981713e+001
         vertex 6.870879e+000 3.200000e+002 3.966151e+001
      endloop
   endfacet
   facet normal -8.974771e-001 -1.099093e-016 4.410609e-001
      outer loop
         vertex 6.870879e+000 3.200000e+002 3.966151e+001
         vertex 6.941905e+000 3.400000e+002 3.981713e+001
         vertex 6.870879e+000 3.400000e+002 3.966151e+001
      endloop
   endfacet
   facet normal -8.414497e-001 -1.030479e-016 5.403354e-001
      outer loop
         vertex 6.870879e+000 3.200000e+002 3.966151e+001
         vertex 6.870879e+000 3.400000e+002 3.966151e+001
         vertex 6.774371e+000 3.200000e+002 3.952028e+001
      endloop
   endfacet
   facet normal -8.091750e-001 -9.909535e-017 5.875677e-001
      outer loop
         vertex 6.774371e+000 3.200000e+002 3.952028e+001
         vertex 6.870879e+000 3.400000e+002 3.966151e+001
         vertex 6.774371e+000 3.400000e+002 3.952028e+001
      endloop
   endfacet
   facet normal -7.370476e-001 -9.026229e-017 6.758409e-001
      outer loop
         vertex 6.774371e+000 3.200000e+002 3.952028e+001
         vertex 6.774371e+000 3.400000e+002 3.952028e+001
         vertex 6.655202e+000 3.200000e+002 3.939755e+001
      endloop
   endfacet
   facet normal -6.971950e-001 -8.538176e-017 7.168816e-001
      outer loop
         vertex 6.655202e+000 3.200000e+002 3.939755e+001
         vertex 6.774371e+000 3.400000e+002 3.952028e+001
         vertex 6.655202e+000 3.400000e+002 3.939755e+001
      endloop
   endfacet
   facet normal -6.110782e-001 -7.483550e-017 7.915702e-001
      outer loop
         vertex 6.655202e+000 3.200000e+002 3.939755e+001
         vertex 6.655202e+000 3.400000e+002 3.939755e+001
         vertex 6.516861e+000 3.200000e+002 3.929694e+001
      endloop
   endfacet
   facet normal -5.648140e-001 -6.916978e-017 8.252182e-001
      outer loop
         vertex 6.516861e+000 3.200000e+002 3.929694e+001
         vertex 6.655202e+000 3.400000e+002 3.939755e+001
         vertex 6.516861e+000 3.400000e+002 3.929694e+001
      endloop
   endfacet
   facet normal -4.672278e-001 -5.721890e-017 8.841370e-001
      outer loop
         vertex 6.516861e+000 3.200000e+002 3.929694e+001
         vertex 6.516861e+000 3.400000e+002 3.929694e+001
         vertex 6.363397e+000 3.200000e+002 3.922137e+001
      endloop
   endfacet
   facet normal -4.159058e-001 -5.093377e-017 9.094077e-001
      outer loop
         vertex 6.363397e+000 3.200000e+002 3.922137e+001
         vertex 6.516861e+000 3.400000e+002 3.929694e+001
         vertex 6.363397e+000 3.400000e+002 3.922137e+001
      endloop
   endfacet
   facet normal -3.097056e-001 -3.792799e-017 9.508325e-001
      outer loop
         vertex 6.363397e+000 3.200000e+002 3.922137e+001
         vertex 6.363397e+000 3.400000e+002 3.922137e+001
         vertex 6.199298e+000 3.200000e+002 3.917307e+001
      endloop
   endfacet
   facet normal -2.548274e-001 -3.120736e-017 9.669865e-001
      outer loop
         vertex 6.199298e+000 3.200000e+002 3.917307e+001
         vertex 6.363397e+000 3.400000e+002 3.922137e+001
         vertex 6.199298e+000 3.400000e+002 3.917307e+001
      endloop
   endfacet
   facet normal -1.431209e-001 -1.752725e-017 9.897052e-001
      outer loop
         vertex 6.199298e+000 3.200000e+002 3.917307e+001
         vertex 6.199298e+000 3.400000e+002 3.917307e+001
         vertex 6.029368e+000 3.200000e+002 3.915344e+001
      endloop
   endfacet
   facet normal -8.629244e-002 -1.056778e-017 9.962698e-001
      outer loop
         vertex 6.029368e+000 3.200000e+002 3.915344e+001
         vertex 6.199298e+000 3.400000e+002 3.917307e+001
         vertex 6.029368e+000 3.400000e+002 3.915344e+001
      endloop
   endfacet
   facet normal 2.765180e-002 3.386368e-018 9.996176e-001
      outer loop
         vertex 6.029368e+000 3.200000e+002 3.915344e+001
         vertex 6.029368e+000 3.400000e+002 3.915344e+001
         vertex 5.858579e+000 3.200000e+002 3.916306e+001
      endloop
   endfacet
   facet normal 8.476760e-002 1.038104e-017 9.964007e-001
      outer loop
         vertex 5.858579e+000 3.200000e+002 3.916306e+001
         vertex 6.029368e+000 3.400000e+002 3.915344e+001
         vertex 5.858579e+000 3.400000e+002 3.916306e+001
      endloop
   endfacet
   facet normal 1.414214e-001 1.731912e-017 9.899495e-001
      outer loop
         vertex 1.141422e+000 3.400000e+002 3.983694e+001
         vertex 1.141422e+000 3.200000e+002 3.983694e+001
         vertex 5.858579e+000 3.400000e+002 3.916306e+001
      endloop
   endfacet
   facet normal 1.414214e-001 1.731912e-017 9.899495e-001
      outer loop
         vertex 5.858579e+000 3.400000e+002 3.916306e+001
         vertex 1.141422e+000 3.200000e+002 3.983694e+001
         vertex 5.858579e+000 3.200000e+002 3.916306e+001
      endloop
   endfacet
   facet normal 8.476760e-002 1.038104e-017 9.964007e-001
      outer loop
         vertex 1.141422e+000 3.200000e+002 3.983694e+001
         vertex 1.141422e+000 3.400000e+002 3.983694e+001
         vertex 9.706323e-001 3.400000e+002 3.984656e+001
      endloop
   endfacet
   facet normal 2.765180e-002 3.386368e-018 9.996176e-001
      outer loop
         vertex 1.141422e+000 3.200000e+002 3.983694e+001
         vertex 9.706323e-001 3.400000e+002 3.984656e+001
         vertex 9.706323e-001 3.200000e+002 3.984656e+001
      endloop
   endfacet
   facet normal -8.629244e-002 -1.056778e-017 9.962698e-001
      outer loop
         vertex 9.706323e-001 3.200000e+002 3.984656e+001
         vertex 9.706323e-001 3.400000e+002 3.984656e+001
         vertex 8.007023e-001 3.400000e+002 3.982693e+001
      endloop
   endfacet
   facet normal -1.431209e-001 -1.752725e-017 9.897052e-001
      outer loop
         vertex 9.706323e-001 3.200000e+002 3.984656e+001
         vertex 8.007023e-001 3.400000e+002 3.982693e+001
         vertex 8.007023e-001 3.200000e+002 3.982693e+001
      endloop
   endfacet
   facet normal -2.548274e-001 -3.120736e-017 9.669865e-001
      outer loop
         vertex 8.007023e-001 3.200000e+002 3.982693e+001
         vertex 8.007023e-001 3.400000e+002 3.982693e+001
         vertex 6.366037e-001 3.400000e+002 3.977863e+001
      endloop
   endfacet
   facet normal -3.097056e-001 -3.792799e-017 9.508325e-001
      outer loop
         vertex 8.007023e-001 3.200000e+002 3.982693e+001
         vertex 6.366037e-001 3.400000e+002 3.977863e+001
         vertex 6.366037e-001 3.200000e+002 3.977863e+001
      endloop
   endfacet
   facet normal -4.159058e-001 -5.093377e-017 9.094077e-001
      outer loop
         vertex 6.366037e-001 3.200000e+002 3.977863e+001
         vertex 6.366037e-001 3.400000e+002 3.977863e+001
         vertex 4.831389e-001 3.400000e+002 3.970306e+001
      endloop
   endfacet
   facet normal -4.672278e-001 -5.721890e-017 8.841370e-001
      outer loop
         vertex 6.366037e-001 3.200000e+002 3.977863e+001
         vertex 4.831389e-001 3.400000e+002 3.970306e+001
         vertex 4.831389e-001 3.200000e+002 3.970306e+001
      endloop
   endfacet
   facet normal -5.648140e-001 -6.916978e-017 8.252182e-001
      outer loop
         vertex 4.831389e-001 3.200000e+002 3.970306e+001
         vertex 4.831389e-001 3.400000e+002 3.970306e+001
         vertex 3.447984e-001 3.400000e+002 3.960244e+001
      endloop
   endfacet
   facet normal -6.110782e-001 -7.483550e-017 7.915702e-001
      outer loop
         vertex 4.831389e-001 3.200000e+002 3.970306e+001
         vertex 3.447984e-001 3.400000e+002 3.960244e+001
         vertex 3.447984e-001 3.200000e+002 3.960244e+001
      endloop
   endfacet
   facet normal -6.971950e-001 -8.538176e-017 7.168815e-001
      outer loop
         vertex 3.447984e-001 3.200000e+002 3.960244e+001
         vertex 3.447984e-001 3.400000e+002 3.960244e+001
         vertex 2.256301e-001 3.400000e+002 3.947972e+001
      endloop
   endfacet
   facet normal -7.370476e-001 -9.026229e-017 6.758409e-001
      outer loop
         vertex 3.447984e-001 3.200000e+002 3.960244e+001
         vertex 2.256301e-001 3.400000e+002 3.947972e+001
         vertex 2.256301e-001 3.200000e+002 3.947972e+001
      endloop
   endfacet
   facet normal -8.091750e-001 -9.909535e-017 5.875677e-001
      outer loop
         vertex 2.256301e-001 3.200000e+002 3.947972e+001
         vertex 2.256301e-001 3.400000e+002 3.947972e+001
         vertex 1.291209e-001 3.400000e+002 3.933849e+001
      endloop
   endfacet
   facet normal -8.414497e-001 -1.030479e-016 5.403354e-001
      outer loop
         vertex 2.256301e-001 3.200000e+002 3.947972e+001
         vertex 1.291209e-001 3.400000e+002 3.933849e+001
         vertex 1.291209e-001 3.200000e+002 3.933849e+001
      endloop
   endfacet
   facet normal -8.974771e-001 -1.099093e-016 4.410609e-001
      outer loop
         vertex 1.291209e-001 3.200000e+002 3.933849e+001
         vertex 1.291209e-001 3.400000e+002 3.933849e+001
         vertex 5.809497e-002 3.400000e+002 3.918287e+001
      endloop
   endfacet
   facet normal -9.212298e-001 -1.128181e-016 3.890188e-001
      outer loop
         vertex 1.291209e-001 3.200000e+002 3.933849e+001
         vertex 5.809497e-002 3.400000e+002 3.918287e+001
         vertex 5.809497e-002 3.200000e+002 3.918287e+001
      endloop
   endfacet
   facet normal -9.595178e-001 -1.175071e-016 2.816479e-001
      outer loop
         vertex 5.809497e-002 3.200000e+002 3.918287e+001
         vertex 5.809497e-002 3.400000e+002 3.918287e+001
         vertex 1.463108e-002 3.400000e+002 3.901743e+001
      endloop
   endfacet
   facet normal -9.740532e-001 -1.192871e-016 2.263190e-001
      outer loop
         vertex 5.809497e-002 3.200000e+002 3.918287e+001
         vertex 1.463108e-002 3.400000e+002 3.901743e+001
         vertex 1.463108e-002 3.200000e+002 3.901743e+001
      endloop
   endfacet
   facet normal -9.934815e-001 -1.216664e-016 1.139934e-001
      outer loop
         vertex 1.463108e-002 3.200000e+002 3.901743e+001
         vertex 1.463108e-002 3.400000e+002 3.901743e+001
         vertex 0.000000e+000 3.400000e+002 3.884699e+001
      endloop
   endfacet
   facet normal -9.983743e-001 -1.222656e-016 5.699670e-002
      outer loop
         vertex 1.463108e-002 3.200000e+002 3.901743e+001
         vertex 0.000000e+000 3.400000e+002 3.884699e+001
         vertex 0.000000e+000 3.200000e+002 3.884699e+001
      endloop
   endfacet
   facet normal -1.000000e+000 -1.224647e-016 0.000000e+000
      outer loop
         vertex 0.000000e+000 3.400000e+002 3.315301e+001
         vertex 0.000000e+000 3.200000e+002 3.315301e+001
         vertex 0.000000e+000 3.400000e+002 3.884699e+001
      endloop
   endfacet
   facet normal -1.000000e+000 -1.224647e-016 0.000000e+000
      outer loop
         vertex 0.000000e+000 3.400000e+002 3.884699e+001
         vertex 0.000000e+000 3.200000e+002 3.315301e+001
         vertex 0.000000e+000 3.200000e+002 3.884699e+001
      endloop
   endfacet
   facet normal -9.983743e-001 -1.222656e-016 -5.699670e-002
      outer loop
         vertex 0.000000e+000 3.200000e+002 3.315301e+001
         vertex 0.000000e+000 3.400000e+002 3.315301e+001
         vertex 1.463108e-002 3.400000e+002 3.298258e+001
      endloop
   endfacet
   facet normal -9.934815e-001 -1.216664e-016 -1.139934e-001
      outer loop
         vertex 0.000000e+000 3.200000e+002 3.315301e+001
         vertex 1.463108e-002 3.400000e+002 3.298258e+001
         vertex 1.463108e-002 3.200000e+002 3.298258e+001
      endloop
   endfacet
   facet normal -9.740532e-001 -1.192871e-016 -2.263190e-001
      outer loop
         vertex 1.463108e-002 3.200000e+002 3.298258e+001
         vertex 1.463108e-002 3.400000e+002 3.298258e+001
         vertex 5.809497e-002 3.400000e+002 3.281713e+001
      endloop
   endfacet
   facet normal -9.595178e-001 -1.175071e-016 -2.816479e-001
      outer loop
         vertex 1.463108e-002 3.200000e+002 3.298258e+001
         vertex 5.809497e-002 3.400000e+002 3.281713e+001
         vertex 5.809497e-002 3.200000e+002 3.281713e+001
      endloop
   endfacet
   facet normal -9.212298e-001 -1.128181e-016 -3.890188e-001
      outer loop
         vertex 5.809497e-002 3.200000e+002 3.281713e+001
         vertex 5.809497e-002 3.400000e+002 3.281713e+001
         vertex 1.291209e-001 3.400000e+002 3.266151e+001
      endloop
   endfacet
   facet normal -8.974771e-001 -1.099093e-016 -4.410609e-001
      outer loop
         vertex 5.809497e-002 3.200000e+002 3.281713e+001
         vertex 1.291209e-001 3.400000e+002 3.266151e+001
         vertex 1.291209e-001 3.200000e+002 3.266151e+001
      endloop
   endfacet
   facet normal -8.414497e-001 -1.030479e-016 -5.403354e-001
      outer loop
         vertex 1.291209e-001 3.200000e+002 3.266151e+001
         vertex 1.291209e-001 3.400000e+002 3.266151e+001
         vertex 2.256301e-001 3.400000e+002 3.252028e+001
      endloop
   endfacet
   facet normal -8.091750e-001 -9.909535e-017 -5.875677e-001
      outer loop
         vertex 1.291209e-001 3.200000e+002 3.266151e+001
         vertex 2.256301e-001 3.400000e+002 3.252028e+001
         vertex 2.256301e-001 3.200000e+002 3.252028e+001
      endloop
   endfacet
   facet normal -7.370476e-001 -9.026229e-017 -6.758409e-001
      outer loop
         vertex 2.256301e-001 3.200000e+002 3.252028e+001
         vertex 2.256301e-001 3.400000e+002 3.252028e+001
         vertex 3.447984e-001 3.400000e+002 3.239755e+001
      endloop
   endfacet
   facet normal -6.971950e-001 -8.538176e-017 -7.168816e-001
      outer loop
         vertex 2.256301e-001 3.200000e+002 3.252028e+001
         vertex 3.447984e-001 3.400000e+002 3.239755e+001
         vertex 3.447984e-001 3.200000e+002 3.239755e+001
      endloop
   endfacet
   facet normal -6.110782e-001 -7.483550e-017 -7.915702e-001
      outer loop
         vertex 3.447984e-001 3.200000e+002 3.239755e+001
         vertex 3.447984e-001 3.400000e+002 3.239755e+001
         vertex 4.831389e-001 3.400000e+002 3.229694e+001
      endloop
   endfacet
   facet normal -5.648140e-001 -6.916978e-017 -8.252182e-001
      outer loop
         vertex 3.447984e-001 3.200000e+002 3.239755e+001
         vertex 4.831389e-001 3.400000e+002 3.229694e+001
         vertex 4.831389e-001 3.200000e+002 3.229694e+001
      endloop
   endfacet
   facet normal -4.672278e-001 -5.721890e-017 -8.841370e-001
      outer loop
         vertex 4.831389e-001 3.200000e+002 3.229694e+001
         vertex 4.831389e-001 3.400000e+002 3.229694e+001
         vertex 6.366037e-001 3.400000e+002 3.222137e+001
      endloop
   endfacet
   facet normal -4.159058e-001 -5.093377e-017 -9.094077e-001
      outer loop
         vertex 4.831389e-001 3.200000e+002 3.229694e+001
         vertex 6.366037e-001 3.400000e+002 3.222137e+001
         vertex 6.366037e-001 3.200000e+002 3.222137e+001
      endloop
   endfacet
   facet normal -3.097056e-001 -3.792799e-017 -9.508325e-001
      outer loop
         vertex 6.366037e-001 3.200000e+002 3.222137e+001
         vertex 6.366037e-001 3.400000e+002 3.222137e+001
         vertex 8.007023e-001 3.400000e+002 3.217307e+001
      endloop
   endfacet
   facet normal -2.548274e-001 -3.120736e-017 -9.669865e-001
      outer loop
         vertex 6.366037e-001 3.200000e+002 3.222137e+001
         vertex 8.007023e-001 3.400000e+002 3.217307e+001
         vertex 8.007023e-001 3.200000e+002 3.217307e+001
      endloop
   endfacet
   facet normal -1.431209e-001 -1.752725e-017 -9.897052e-001
      outer loop
         vertex 8.007023e-001 3.200000e+002 3.217307e+001
         vertex 8.007023e-001 3.400000e+002 3.217307e+001
         vertex 9.706323e-001 3.400000e+002 3.215344e+001
      endloop
   endfacet
   facet normal -8.629244e-002 -1.056778e-017 -9.962698e-001
      outer loop
         vertex 8.007023e-001 3.200000e+002 3.217307e+001
         vertex 9.706323e-001 3.400000e+002 3.215344e+001
         vertex 9.706323e-001 3.200000e+002 3.215344e+001
      endloop
   endfacet
   facet normal 2.765180e-002 3.386368e-018 -9.996176e-001
      outer loop
         vertex 9.706323e-001 3.200000e+002 3.215344e+001
         vertex 9.706323e-001 3.400000e+002 3.215344e+001
         vertex 1.141422e+000 3.400000e+002 3.216306e+001
      endloop
   endfacet
   facet normal 8.476760e-002 1.038104e-017 -9.964007e-001
      outer loop
         vertex 9.706323e-001 3.200000e+002 3.215344e+001
         vertex 1.141422e+000 3.400000e+002 3.216306e+001
         vertex 1.141422e+000 3.200000e+002 3.216306e+001
      endloop
   endfacet
   facet normal 1.414214e-001 1.731912e-017 -9.899495e-001
      outer loop
         vertex 5.858579e+000 3.400000e+002 3.283694e+001
         vertex 5.858579e+000 3.200000e+002 3.283694e+001
         vertex 1.141422e+000 3.400000e+002 3.216306e+001
      endloop
   endfacet
   facet normal 1.414214e-001 1.731912e-017 -9.899495e-001
      outer loop
         vertex 1.141422e+000 3.400000e+002 3.216306e+001
         vertex 5.858579e+000 3.200000e+002 3.283694e+001
         vertex 1.141422e+000 3.200000e+002 3.216306e+001
      endloop
   endfacet
   facet normal 8.476760e-002 1.038104e-017 -9.964007e-001
      outer loop
         vertex 5.858579e+000 3.200000e+002 3.283694e+001
         vertex 5.858579e+000 3.400000e+002 3.283694e+001
         vertex 6.029368e+000 3.200000e+002 3.284656e+001
      endloop
   endfacet
   facet normal 2.765180e-002 3.386368e-018 -9.996176e-001
      outer loop
         vertex 6.029368e+000 3.200000e+002 3.284656e+001
         vertex 5.858579e+000 3.400000e+002 3.283694e+001
         vertex 6.029368e+000 3.400000e+002 3.284656e+001
      endloop
   endfacet
   facet normal -8.629244e-002 -1.056778e-017 -9.962698e-001
      outer loop
         vertex 6.029368e+000 3.200000e+002 3.284656e+001
         vertex 6.029368e+000 3.400000e+002 3.284656e+001
         vertex 6.199298e+000 3.200000e+002 3.282693e+001
      endloop
   endfacet
   facet normal -1.431209e-001 -1.752725e-017 -9.897052e-001
      outer loop
         vertex 6.199298e+000 3.200000e+002 3.282693e+001
         vertex 6.029368e+000 3.400000e+002 3.284656e+001
         vertex 6.199298e+000 3.400000e+002 3.282693e+001
      endloop
   endfacet
   facet normal -2.548274e-001 -3.120736e-017 -9.669865e-001
      outer loop
         vertex 6.199298e+000 3.200000e+002 3.282693e+001
         vertex 6.199298e+000 3.400000e+002 3.282693e+001
         vertex 6.363397e+000 3.200000e+002 3.277863e+001
      endloop
   endfacet
   facet normal -3.097056e-001 -3.792799e-017 -9.508325e-001
      outer loop
         vertex 6.363397e+000 3.200000e+002 3.277863e+001
         vertex 6.199298e+000 3.400000e+002 3.282693e+001
         vertex 6.363397e+000 3.400000e+002 3.277863e+001
      endloop
   endfacet
   facet normal -4.159058e-001 -5.093377e-017 -9.094077e-001
      outer loop
         vertex 6.363397e+000 3.200000e+002 3.277863e+001
         vertex 6.363397e+000 3.400000e+002 3.277863e+001
         vertex 6.516861e+000 3.200000e+002 3.270306e+001
      endloop
   endfacet
   facet normal -4.672278e-001 -5.721890e-017 -8.841370e-001
      outer loop
         vertex 6.516861e+000 3.200000e+002 3.270306e+001
         vertex 6.363397e+000 3.400000e+002 3.277863e+001
         vertex 6.516861e+000 3.400000e+002 3.270306e+001
      endloop
   endfacet
   facet normal -5.648140e-001 -6.916978e-017 -8.252182e-001
      outer loop
         vertex 6.516861e+000 3.200000e+002 3.270306e+001
         vertex 6.516861e+000 3.400000e+002 3.270306e+001
         vertex 6.655202e+000 3.200000e+002 3.260244e+001
      endloop
   endfacet
   facet normal -6.110782e-001 -7.483550e-017 -7.915702e-001
      outer loop
         vertex 6.655202e+000 3.200000e+002 3.260244e+001
         vertex 6.516861e+000 3.400000e+002 3.270306e+001
         vertex 6.655202e+000 3.400000e+002 3.260244e+001
      endloop
   endfacet
   facet normal -6.971950e-001 -8.538176e-017 -7.168815e-001
      outer loop
         vertex 6.655202e+000 3.200000e+002 3.260244e+001
         vertex 6.655202e+000 3.400000e+002 3.260244e+001
         vertex 6.774371e+000 3.200000e+002 3.247972e+001
      endloop
   endfacet
   facet normal -7.370476e-001 -9.026229e-017 -6.758409e-001
      outer loop
         vertex 6.774371e+000 3.200000e+002 3.247972e+001
         vertex 6.655202e+000 3.400000e+002 3.260244e+001
         vertex 6.774371e+000 3.400000e+002 3.247972e+001
      endloop
   endfacet
   facet normal -8.091750e-001 -9.909535e-017 -5.875677e-001
      outer loop
         vertex 6.774371e+000 3.200000e+002 3.247972e+001
         vertex 6.774371e+000 3.400000e+002 3.247972e+001
         vertex 6.870879e+000 3.200000e+002 3.233849e+001
      endloop
   endfacet
   facet normal -8.414497e-001 -1.030479e-016 -5.403354e-001
      outer loop
         vertex 6.870879e+000 3.200000e+002 3.233849e+001
         vertex 6.774371e+000 3.400000e+002 3.247972e+001
         vertex 6.870879e+000 3.400000e+002 3.233849e+001
      endloop
   endfacet
   facet normal -8.974771e-001 -1.099093e-016 -4.410609e-001
      outer loop
         vertex 6.870879e+000 3.200000e+002 3.233849e+001
         vertex 6.870879e+000 3.400000e+002 3.233849e+001
         vertex 6.941905e+000 3.200000e+002 3.218287e+001
      endloop
   endfacet
   facet normal -9.212298e-001 -1.128181e-016 -3.890188e-001
      outer loop
         vertex 6.941905e+000 3.200000e+002 3.218287e+001
         vertex 6.870879e+000 3.400000e+002 3.233849e+001
         vertex 6.941905e+000 3.400000e+002 3.218287e+001
      endloop
   endfacet
   facet normal -9.595178e-001 -1.175071e-016 -2.816479e-001
      outer loop
         vertex 6.941905e+000 3.200000e+002 3.218287e+001
         vertex 6.941905e+000 3.400000e+002 3.218287e+001
         vertex 6.985370e+000 3.200000e+002 3.201743e+001
      endloop
   endfacet
   facet normal -9.740532e-001 -1.192871e-016 -2.263190e-001
      outer loop
         vertex 6.985370e+000 3.200000e+002 3.201743e+001
         vertex 6.941905e+000 3.400000e+002 3.218287e+001
         vertex 6.985370e+000 3.400000e+002 3.201743e+001
      endloop
   endfacet
   facet normal -9.934815e-001 -1.216664e-016 -1.139934e-001
      outer loop
         vertex 6.985370e+000 3.200000e+002 3.201743e+001
         vertex 6.985370e+000 3.400000e+002 3.201743e+001
         vertex 7.000000e+000 3.200000e+002 3.184699e+001
      endloop
   endfacet
   facet normal -9.983743e-001 -1.222656e-016 -5.699670e-002
      outer loop
         vertex 7.000000e+000 3.200000e+002 3.184699e+001
         vertex 6.985370e+000 3.400000e+002 3.201743e+001
         vertex 7.000000e+000 3.400000e+002 3.184699e+001
      endloop
   endfacet
   facet normal -1.000000e+000 -1.224647e-016 0.000000e+000
      outer loop
         vertex 7.000000e+000 3.400000e+002 2.600000e+001
         vertex 7.000000e+000 3.200000e+002 2.600000e+001
         vertex 7.000000e+000 3.400000e+002 3.184699e+001
      endloop
   endfacet
   facet normal -1.000000e+000 -1.224647e-016 0.000000e+000
      outer loop
         vertex 7.000000e+000 3.400000e+002 3.184699e+001
         vertex 7.000000e+000 3.200000e+002 2.600000e+001
         vertex 7.000000e+000 3.200000e+002 3.184699e+001
      endloop
   endfacet
   facet normal -1.000000e+000 -1.224647e-016 4.625929e-015
      outer loop
         vertex 7.000000e+000 3.400000e+002 4.015301e+001
         vertex 7.000000e+000 3.200000e+002 4.015301e+001
         vertex 7.000000e+000 3.400000e+002 4.500000e+001
      endloop
   endfacet
   facet normal -1.000000e+000 -1.224647e-016 4.625929e-015
      outer loop
         vertex 7.000000e+000 3.400000e+002 4.500000e+001
         vertex 7.000000e+000 3.200000e+002 4.015301e+001
         vertex 7.000000e+000 3.200000e+002 4.500000e+001
      endloop
   endfacet
   facet normal 0.000000e+000 0.000000e+000 1.000000e+000
      outer loop
         vertex 6.000000e+000 3.400000e+002 2.500000e+001
         vertex 0.000000e+000 3.400000e+002 2.500000e+001
         vertex 6.000000e+000 3.200000e+002 2.500000e+001
      endloop
   endfacet
   facet normal 0.000000e+000 0.000000e+000 1.000000e+000
      outer loop
         vertex 6.000000e+000 3.200000e+002 2.500000e+001
         vertex 0.000000e+000 3.400000e+002 2.500000e+001
         vertex 0.000000e+000 3.200000e+002 2.500000e+001
      endloop
   endfacet
endsolid