solid 식판구동부_측면_서보암측_2.0
   facet normal 0.000000e+000 0.000000e+000 1.000000e+000
      outer loop
         vertex 1.680000e+002 1.650000e+002 4.500000e+001
         vertex 1.680000e+002 1.025086e+002 4.500000e+001
         vertex 1.830000e+002 1.650000e+002 4.500000e+001
      endloop
   endfacet
   facet normal 0.000000e+000 0.000000e+000 1.000000e+000
      outer loop
         vertex 1.830000e+002 1.650000e+002 4.500000e+001
         vertex 1.680000e+002 1.025086e+002 4.500000e+001
         vertex 1.830000e+002 1.025086e+002 4.500000e+001
      endloop
   endfacet
   facet normal -1.000000e+000 -8.673617e-017 0.000000e+000
      outer loop
         vertex 1.680000e+002 2.800000e+001 5.500000e+001
         vertex 1.680000e+002 0.000000e+000 5.500000e+001
         vertex 1.680000e+002 0.000000e+000 6.400000e+001
      endloop
   endfacet
   facet normal -1.000000e+000 -8.673617e-017 0.000000e+000
      outer loop
         vertex 1.680000e+002 1.650000e+002 0.000000e+000
         vertex 1.680000e+002 3.799999e+001 0.000000e+000
         vertex 1.680000e+002 1.650000e+002 2.900000e+001
      endloop
   endfacet
   facet normal -1.000000e+000 -8.673617e-017 0.000000e+000
      outer loop
         vertex 1.680000e+002 1.650000e+002 2.900000e+001
         vertex 1.680000e+002 3.799999e+001 0.000000e+000
         vertex 1.680000e+002 1.650000e+002 3.700000e+001
      endloop
   endfacet
   facet normal -1.000000e+000 -8.673617e-017 0.000000e+000
      outer loop
         vertex 1.680000e+002 1.650000e+002 2.900000e+001
         vertex 1.680000e+002 1.650000e+002 3.700000e+001
         vertex 1.680000e+002 2.050000e+002 2.900000e+001
      endloop
   endfacet
   facet normal -1.000000e+000 -8.673617e-017 0.000000e+000
      outer loop
         vertex 1.680000e+002 2.050000e+002 2.900000e+001
         vertex 1.680000e+002 1.650000e+002 3.700000e+001
         vertex 1.680000e+002 2.050000e+002 3.700000e+001
      endloop
   endfacet
   facet normal -1.000000e+000 -8.673617e-017 0.000000e+000
      outer loop
         vertex 1.680000e+002 2.800000e+001 1.400000e+001
         vertex 1.680000e+002 2.294427e+001 9.888543e+000
         vertex 1.680000e+002 2.008399e+001 1.105216e+001
      endloop
   endfacet
   facet normal -1.000000e+000 -8.673617e-017 0.000000e+000
      outer loop
         vertex 1.680000e+002 0.000000e+000 1.200000e+001
         vertex 1.680000e+002 0.000000e+000 1.400000e+001
         vertex 1.680000e+002 1.400000e+001 1.200000e+001
      endloop
   endfacet
   facet normal -1.000000e+000 -8.673617e-017 0.000000e+000
      outer loop
         vertex 1.680000e+002 1.400000e+001 1.200000e+001
         vertex 1.680000e+002 0.000000e+000 1.400000e+001
         vertex 1.680000e+002 2.800000e+001 1.400000e+001
      endloop
   endfacet
   facet normal -1.000000e+000 -8.673617e-017 0.000000e+000
      outer loop
         vertex 1.680000e+002 1.400000e+001 1.200000e+001
         vertex 1.680000e+002 2.800000e+001 1.400000e+001
         vertex 1.680000e+002 1.707870e+001 1.176162e+001
      endloop
   endfacet
   facet normal -1.000000e+000 -8.673617e-017 0.000000e+000
      outer loop
         vertex 1.680000e+002 1.707870e+001 1.176162e+001
         vertex 1.680000e+002 2.800000e+001 1.400000e+001
         vertex 1.680000e+002 2.008399e+001 1.105216e+001
      endloop
   endfacet
   facet normal -1.000000e+000 -8.673617e-017 0.000000e+000
      outer loop
         vertex 1.680000e+002 9.392747e+001 4.693445e+001
         vertex 1.680000e+002 9.668172e+001 4.586764e+001
         vertex 1.680000e+002 3.799999e+001 0.000000e+000
      endloop
   endfacet
   facet normal -1.000000e+000 -8.673617e-017 0.000000e+000
      outer loop
         vertex 1.680000e+002 3.000000e+001 4.000000e+000
         vertex 1.680000e+002 2.796209e+001 6.319927e+000
         vertex 1.680000e+002 2.800000e+001 1.400000e+001
      endloop
   endfacet
   facet normal -1.000000e+000 -8.673617e-017 0.000000e+000
      outer loop
         vertex 1.680000e+002 2.800000e+001 1.400000e+001
         vertex 1.680000e+002 2.796209e+001 6.319927e+000
         vertex 1.680000e+002 2.559134e+001 8.298496e+000
      endloop
   endfacet
   facet normal -1.000000e+000 -8.673617e-017 0.000000e+000
      outer loop
         vertex 1.680000e+002 2.800000e+001 1.400000e+001
         vertex 1.680000e+002 2.559134e+001 8.298496e+000
         vertex 1.680000e+002 2.294427e+001 9.888543e+000
      endloop
   endfacet
   facet normal -1.000000e+000 -8.673617e-017 0.000000e+000
      outer loop
         vertex 1.680000e+002 1.650000e+002 4.500000e+001
         vertex 1.680000e+002 1.650000e+002 3.700000e+001
         vertex 1.680000e+002 1.025086e+002 4.500000e+001
      endloop
   endfacet
   facet normal -1.000000e+000 -8.673617e-017 0.000000e+000
      outer loop
         vertex 1.680000e+002 1.025086e+002 4.500000e+001
         vertex 1.680000e+002 1.650000e+002 3.700000e+001
         vertex 1.680000e+002 3.799999e+001 0.000000e+000
      endloop
   endfacet
   facet normal -1.000000e+000 -8.673617e-017 0.000000e+000
      outer loop
         vertex 1.680000e+002 1.025086e+002 4.500000e+001
         vertex 1.680000e+002 3.799999e+001 0.000000e+000
         vertex 1.680000e+002 9.956303e+001 4.521809e+001
      endloop
   endfacet
   facet normal -1.000000e+000 -8.673617e-017 0.000000e+000
      outer loop
         vertex 1.680000e+002 9.956303e+001 4.521809e+001
         vertex 1.680000e+002 3.799999e+001 0.000000e+000
         vertex 1.680000e+002 9.668172e+001 4.586764e+001
      endloop
   endfacet
   facet normal -1.000000e+000 -8.673617e-017 0.000000e+000
      outer loop
         vertex 1.680000e+002 5.349138e+001 6.400000e+001
         vertex 1.680000e+002 5.643695e+001 6.378190e+001
         vertex 1.680000e+002 3.799999e+001 0.000000e+000
      endloop
   endfacet
   facet normal -1.000000e+000 -8.673617e-017 0.000000e+000
      outer loop
         vertex 1.680000e+002 2.800000e+001 1.400000e+001
         vertex 1.680000e+002 3.495800e+001 4.739165e-001
         vertex 1.680000e+002 3.352785e+001 1.055727e+000
      endloop
   endfacet
   facet normal -1.000000e+000 -8.673617e-017 0.000000e+000
      outer loop
         vertex 1.680000e+002 5.643695e+001 6.378190e+001
         vertex 1.680000e+002 5.931828e+001 6.313236e+001
         vertex 1.680000e+002 3.799999e+001 0.000000e+000
      endloop
   endfacet
   facet normal -1.000000e+000 -8.673617e-017 0.000000e+000
      outer loop
         vertex 1.680000e+002 3.799999e+001 0.000000e+000
         vertex 1.680000e+002 5.931828e+001 6.313236e+001
         vertex 1.680000e+002 6.207252e+001 6.206555e+001
      endloop
   endfacet
   facet normal -1.000000e+000 -8.673617e-017 0.000000e+000
      outer loop
         vertex 1.680000e+002 3.799999e+001 0.000000e+000
         vertex 1.680000e+002 6.207252e+001 6.206555e+001
         vertex 1.680000e+002 9.392747e+001 4.693445e+001
      endloop
   endfacet
   facet normal -1.000000e+000 -8.673617e-017 0.000000e+000
      outer loop
         vertex 1.680000e+002 0.000000e+000 6.400000e+001
         vertex 1.680000e+002 5.349138e+001 6.400000e+001
         vertex 1.680000e+002 2.800000e+001 5.500000e+001
      endloop
   endfacet
   facet normal -1.000000e+000 -8.673617e-017 0.000000e+000
      outer loop
         vertex 1.680000e+002 2.800000e+001 5.500000e+001
         vertex 1.680000e+002 5.349138e+001 6.400000e+001
         vertex 1.680000e+002 3.799999e+001 0.000000e+000
      endloop
   endfacet
   facet normal -1.000000e+000 -8.673617e-017 0.000000e+000
      outer loop
         vertex 1.680000e+002 2.800000e+001 5.500000e+001
         vertex 1.680000e+002 3.799999e+001 0.000000e+000
         vertex 1.680000e+002 2.800000e+001 1.400000e+001
      endloop
   endfacet
   facet normal -1.000000e+000 -8.673617e-017 0.000000e+000
      outer loop
         vertex 1.680000e+002 2.800000e+001 1.400000e+001
         vertex 1.680000e+002 3.799999e+001 0.000000e+000
         vertex 1.680000e+002 3.646067e+001 1.191888e-001
      endloop
   endfacet
   facet normal -1.000000e+000 -8.673617e-017 0.000000e+000
      outer loop
         vertex 1.680000e+002 2.800000e+001 1.400000e+001
         vertex 1.680000e+002 3.646067e+001 1.191888e-001
         vertex 1.680000e+002 3.495800e+001 4.739165e-001
      endloop
   endfacet
   facet normal -1.000000e+000 -8.673617e-017 0.000000e+000
      outer loop
         vertex 1.680000e+002 3.352785e+001 1.055727e+000
         vertex 1.680000e+002 3.220433e+001 1.850750e+000
         vertex 1.680000e+002 2.800000e+001 1.400000e+001
      endloop
   endfacet
   facet normal -1.000000e+000 -8.673617e-017 0.000000e+000
      outer loop
         vertex 1.680000e+002 2.800000e+001 1.400000e+001
         vertex 1.680000e+002 3.220433e+001 1.850750e+000
         vertex 1.680000e+002 3.101897e+001 2.840037e+000
      endloop
   endfacet
   facet normal -1.000000e+000 -8.673617e-017 0.000000e+000
      outer loop
         vertex 1.680000e+002 2.800000e+001 1.400000e+001
         vertex 1.680000e+002 3.101897e+001 2.840037e+000
         vertex 1.680000e+002 3.000000e+001 4.000000e+000
      endloop
   endfacet
   facet normal 1.000000e+000 1.632681e-016 0.000000e+000
      outer loop
         vertex 1.830000e+002 1.025086e+002 4.500000e+001
         vertex 1.830000e+002 9.956303e+001 4.521809e+001
         vertex 1.830000e+002 2.800000e+001 1.400000e+001
      endloop
   endfacet
   facet normal 1.000000e+000 1.632681e-016 0.000000e+000
      outer loop
         vertex 1.830000e+002 0.000000e+000 1.400000e+001
         vertex 1.830000e+002 0.000000e+000 1.200000e+001
         vertex 1.830000e+002 2.800000e+001 1.400000e+001
      endloop
   endfacet
   facet normal 1.000000e+000 1.632681e-016 0.000000e+000
      outer loop
         vertex 1.830000e+002 2.800000e+001 1.400000e+001
         vertex 1.830000e+002 0.000000e+000 1.200000e+001
         vertex 1.830000e+002 1.650000e+002 1.200000e+001
      endloop
   endfacet
   facet normal 1.000000e+000 1.632681e-016 0.000000e+000
      outer loop
         vertex 1.830000e+002 2.800000e+001 1.400000e+001
         vertex 1.830000e+002 1.650000e+002 1.200000e+001
         vertex 1.830000e+002 1.650000e+002 2.900000e+001
      endloop
   endfacet
   facet normal 1.000000e+000 1.632681e-016 0.000000e+000
      outer loop
         vertex 1.830000e+002 2.050000e+002 2.900000e+001
         vertex 1.830000e+002 2.050000e+002 3.700000e+001
         vertex 1.830000e+002 1.650000e+002 2.900000e+001
      endloop
   endfacet
   facet normal 1.000000e+000 1.632681e-016 0.000000e+000
      outer loop
         vertex 1.830000e+002 1.650000e+002 2.900000e+001
         vertex 1.830000e+002 2.050000e+002 3.700000e+001
         vertex 1.830000e+002 1.650000e+002 3.700000e+001
      endloop
   endfacet
   facet normal 1.000000e+000 1.632681e-016 0.000000e+000
      outer loop
         vertex 1.830000e+002 1.650000e+002 2.900000e+001
         vertex 1.830000e+002 1.650000e+002 3.700000e+001
         vertex 1.830000e+002 2.800000e+001 1.400000e+001
      endloop
   endfacet
   facet normal 1.000000e+000 1.632681e-016 0.000000e+000
      outer loop
         vertex 1.830000e+002 2.800000e+001 1.400000e+001
         vertex 1.830000e+002 1.650000e+002 3.700000e+001
         vertex 1.830000e+002 1.650000e+002 4.500000e+001
      endloop
   endfacet
   facet normal 1.000000e+000 1.632681e-016 0.000000e+000
      outer loop
         vertex 1.830000e+002 2.800000e+001 1.400000e+001
         vertex 1.830000e+002 1.650000e+002 4.500000e+001
         vertex 1.830000e+002 1.025086e+002 4.500000e+001
      endloop
   endfacet
   facet normal 1.000000e+000 1.632681e-016 0.000000e+000
      outer loop
         vertex 1.830000e+002 9.956303e+001 4.521809e+001
         vertex 1.830000e+002 9.668172e+001 4.586764e+001
         vertex 1.830000e+002 2.800000e+001 1.400000e+001
      endloop
   endfacet
   facet normal 1.000000e+000 1.632681e-016 0.000000e+000
      outer loop
         vertex 1.830000e+002 2.800000e+001 1.400000e+001
         vertex 1.830000e+002 9.668172e+001 4.586764e+001
         vertex 1.830000e+002 9.392747e+001 4.693445e+001
      endloop
   endfacet
   facet normal 1.000000e+000 1.632681e-016 0.000000e+000
      outer loop
         vertex 1.830000e+002 2.800000e+001 1.400000e+001
         vertex 1.830000e+002 9.392747e+001 4.693445e+001
         vertex 1.830000e+002 6.207252e+001 6.206555e+001
      endloop
   endfacet
   facet normal 1.000000e+000 1.632681e-016 0.000000e+000
      outer loop
         vertex 1.830000e+002 0.000000e+000 6.400000e+001
         vertex 1.830000e+002 0.000000e+000 5.500000e+001
         vertex 1.830000e+002 5.349138e+001 6.400000e+001
      endloop
   endfacet
   facet normal 1.000000e+000 1.632681e-016 0.000000e+000
      outer loop
         vertex 1.830000e+002 5.349138e+001 6.400000e+001
         vertex 1.830000e+002 0.000000e+000 5.500000e+001
         vertex 1.830000e+002 2.800000e+001 5.500000e+001
      endloop
   endfacet
   facet normal 1.000000e+000 1.632681e-016 0.000000e+000
      outer loop
         vertex 1.830000e+002 5.349138e+001 6.400000e+001
         vertex 1.830000e+002 2.800000e+001 5.500000e+001
         vertex 1.830000e+002 5.643695e+001 6.378190e+001
      endloop
   endfacet
   facet normal 1.000000e+000 1.632681e-016 0.000000e+000
      outer loop
         vertex 1.830000e+002 5.643695e+001 6.378190e+001
         vertex 1.830000e+002 2.800000e+001 5.500000e+001
         vertex 1.830000e+002 2.800000e+001 1.400000e+001
      endloop
   endfacet
   facet normal 1.000000e+000 1.632681e-016 0.000000e+000
      outer loop
         vertex 1.830000e+002 5.643695e+001 6.378190e+001
         vertex 1.830000e+002 2.800000e+001 1.400000e+001
         vertex 1.830000e+002 5.931828e+001 6.313236e+001
      endloop
   endfacet
   facet normal 1.000000e+000 1.632681e-016 0.000000e+000
      outer loop
         vertex 1.830000e+002 5.931828e+001 6.313236e+001
         vertex 1.830000e+002 2.800000e+001 1.400000e+001
         vertex 1.830000e+002 6.207252e+001 6.206555e+001
      endloop
   endfacet
   facet normal 1.000000e+000 8.163404e-017 0.000000e+000
      outer loop
         vertex 1.720000e+002 1.400000e+001 1.200000e+001
         vertex 1.720000e+002 1.707870e+001 1.176162e+001
         vertex 1.720000e+002 1.650000e+002 1.200000e+001
      endloop
   endfacet
   facet normal 1.000000e+000 8.163404e-017 0.000000e+000
      outer loop
         vertex 1.720000e+002 1.650000e+002 1.200000e+001
         vertex 1.720000e+002 1.707870e+001 1.176162e+001
         vertex 1.720000e+002 2.008399e+001 1.105216e+001
      endloop
   endfacet
   facet normal 1.000000e+000 8.163404e-017 0.000000e+000
      outer loop
         vertex 1.720000e+002 1.650000e+002 1.200000e+001
         vertex 1.720000e+002 2.008399e+001 1.105216e+001
         vertex 1.720000e+002 2.294427e+001 9.888543e+000
      endloop
   endfacet
   facet normal 1.000000e+000 8.163404e-017 0.000000e+000
      outer loop
         vertex 1.720000e+002 2.294427e+001 9.888543e+000
         vertex 1.720000e+002 2.559134e+001 8.298496e+000
         vertex 1.720000e+002 1.650000e+002 1.200000e+001
      endloop
   endfacet
   facet normal 1.000000e+000 8.163404e-017 0.000000e+000
      outer loop
         vertex 1.720000e+002 1.650000e+002 1.200000e+001
         vertex 1.720000e+002 2.559134e+001 8.298496e+000
         vertex 1.720000e+002 2.796209e+001 6.319927e+000
      endloop
   endfacet
   facet normal 1.000000e+000 8.163404e-017 0.000000e+000
      outer loop
         vertex 1.720000e+002 1.650000e+002 1.200000e+001
         vertex 1.720000e+002 2.796209e+001 6.319927e+000
         vertex 1.720000e+002 3.000000e+001 4.000000e+000
      endloop
   endfacet
   facet normal 1.000000e+000 8.163404e-017 0.000000e+000
      outer loop
         vertex 1.720000e+002 1.650000e+002 0.000000e+000
         vertex 1.720000e+002 1.650000e+002 1.200000e+001
         vertex 1.720000e+002 3.799999e+001 0.000000e+000
      endloop
   endfacet
   facet normal 1.000000e+000 8.163404e-017 0.000000e+000
      outer loop
         vertex 1.720000e+002 3.799999e+001 0.000000e+000
         vertex 1.720000e+002 1.650000e+002 1.200000e+001
         vertex 1.720000e+002 3.000000e+001 4.000000e+000
      endloop
   endfacet
   facet normal 1.000000e+000 8.163404e-017 0.000000e+000
      outer loop
         vertex 1.720000e+002 3.799999e+001 0.000000e+000
         vertex 1.720000e+002 3.000000e+001 4.000000e+000
         vertex 1.720000e+002 3.646067e+001 1.191888e-001
      endloop
   endfacet
   facet normal 1.000000e+000 8.163404e-017 0.000000e+000
      outer loop
         vertex 1.720000e+002 3.646067e+001 1.191888e-001
         vertex 1.720000e+002 3.000000e+001 4.000000e+000
         vertex 1.720000e+002 3.495800e+001 4.739165e-001
      endloop
   endfacet
   facet normal 1.000000e+000 8.163404e-017 0.000000e+000
      outer loop
         vertex 1.720000e+002 3.495800e+001 4.739165e-001
         vertex 1.720000e+002 3.000000e+001 4.000000e+000
         vertex 1.720000e+002 3.352785e+001 1.055727e+000
      endloop
   endfacet
   facet normal 1.000000e+000 8.163404e-017 0.000000e+000
      outer loop
         vertex 1.720000e+002 3.352785e+001 1.055727e+000
         vertex 1.720000e+002 3.000000e+001 4.000000e+000
         vertex 1.720000e+002 3.101897e+001 2.840037e+000
      endloop
   endfacet
   facet normal 1.000000e+000 8.163404e-017 0.000000e+000
      outer loop
         vertex 1.720000e+002 3.352785e+001 1.055727e+000
         vertex 1.720000e+002 3.101897e+001 2.840037e+000
         vertex 1.720000e+002 3.220433e+001 1.850750e+000
      endloop
   endfacet
   facet normal 0.000000e+000 0.000000e+000 -1.000000e+000
      outer loop
         vertex 1.720000e+002 3.799999e+001 0.000000e+000
         vertex 1.680000e+002 3.799999e+001 0.000000e+000
         vertex 1.720000e+002 1.650000e+002 0.000000e+000
      endloop
   endfacet
   facet normal 0.000000e+000 0.000000e+000 -1.000000e+000
      outer loop
         vertex 1.720000e+002 1.650000e+002 0.000000e+000
         vertex 1.680000e+002 3.799999e+001 0.000000e+000
         vertex 1.680000e+002 1.650000e+002 0.000000e+000
      endloop
   endfacet
   facet normal 0.000000e+000 0.000000e+000 -1.000000e+000
      outer loop
         vertex 1.680000e+002 0.000000e+000 1.200000e+001
         vertex 1.680000e+002 1.400000e+001 1.200000e+001
         vertex 1.830000e+002 0.000000e+000 1.200000e+001
      endloop
   endfacet
   facet normal 0.000000e+000 0.000000e+000 -1.000000e+000
      outer loop
         vertex 1.830000e+002 0.000000e+000 1.200000e+001
         vertex 1.680000e+002 1.400000e+001 1.200000e+001
         vertex 1.720000e+002 1.400000e+001 1.200000e+001
      endloop
   endfacet
   facet normal 0.000000e+000 0.000000e+000 -1.000000e+000
      outer loop
         vertex 1.811000e+002 2.800000e+001 1.200000e+001
         vertex 1.830000e+002 0.000000e+000 1.200000e+001
         vertex 1.811000e+002 2.300000e+001 1.200000e+001
      endloop
   endfacet
   facet normal 0.000000e+000 0.000000e+000 -1.000000e+000
      outer loop
         vertex 1.811000e+002 2.300000e+001 1.200000e+001
         vertex 1.830000e+002 0.000000e+000 1.200000e+001
         vertex 1.720000e+002 1.400000e+001 1.200000e+001
      endloop
   endfacet
   facet normal 0.000000e+000 0.000000e+000 -1.000000e+000
      outer loop
         vertex 1.811000e+002 2.300000e+001 1.200000e+001
         vertex 1.720000e+002 1.400000e+001 1.200000e+001
         vertex 1.745000e+002 2.300000e+001 1.200000e+001
      endloop
   endfacet
   facet normal 0.000000e+000 0.000000e+000 -1.000000e+000
      outer loop
         vertex 1.745000e+002 2.300000e+001 1.200000e+001
         vertex 1.720000e+002 1.400000e+001 1.200000e+001
         vertex 1.745000e+002 2.800000e+001 1.200000e+001
      endloop
   endfacet
   facet normal 0.000000e+000 0.000000e+000 -1.000000e+000
      outer loop
         vertex 1.745000e+002 2.800000e+001 1.200000e+001
         vertex 1.720000e+002 1.400000e+001 1.200000e+001
         vertex 1.720000e+002 1.650000e+002 1.200000e+001
      endloop
   endfacet
   facet normal 0.000000e+000 0.000000e+000 -1.000000e+000
      outer loop
         vertex 1.745000e+002 2.800000e+001 1.200000e+001
         vertex 1.720000e+002 1.650000e+002 1.200000e+001
         vertex 1.811000e+002 2.800000e+001 1.200000e+001
      endloop
   endfacet
   facet normal 0.000000e+000 0.000000e+000 -1.000000e+000
      outer loop
         vertex 1.811000e+002 2.800000e+001 1.200000e+001
         vertex 1.720000e+002 1.650000e+002 1.200000e+001
         vertex 1.830000e+002 1.650000e+002 1.200000e+001
      endloop
   endfacet
   facet normal 0.000000e+000 0.000000e+000 -1.000000e+000
      outer loop
         vertex 1.811000e+002 2.800000e+001 1.200000e+001
         vertex 1.830000e+002 1.650000e+002 1.200000e+001
         vertex 1.830000e+002 0.000000e+000 1.200000e+001
      endloop
   endfacet
   facet normal 0.000000e+000 -1.000000e+000 0.000000e+000
      outer loop
         vertex 1.680000e+002 2.800000e+001 5.500000e+001
         vertex 1.680000e+002 2.800000e+001 1.400000e+001
         vertex 1.830000e+002 2.800000e+001 5.500000e+001
      endloop
   endfacet
   facet normal 0.000000e+000 -1.000000e+000 0.000000e+000
      outer loop
         vertex 1.830000e+002 2.800000e+001 5.500000e+001
         vertex 1.680000e+002 2.800000e+001 1.400000e+001
         vertex 1.745000e+002 2.800000e+001 1.400000e+001
      endloop
   endfacet
   facet normal 0.000000e+000 -1.000000e+000 0.000000e+000
      outer loop
         vertex 1.830000e+002 2.800000e+001 1.400000e+001
         vertex 1.830000e+002 2.800000e+001 5.500000e+001
         vertex 1.811000e+002 2.800000e+001 1.400000e+001
      endloop
   endfacet
   facet normal 0.000000e+000 -1.000000e+000 0.000000e+000
      outer loop
         vertex 1.811000e+002 2.800000e+001 1.400000e+001
         vertex 1.830000e+002 2.800000e+001 5.500000e+001
         vertex 1.745000e+002 2.800000e+001 1.400000e+001
      endloop
   endfacet
   facet normal 0.000000e+000 -1.000000e+000 0.000000e+000
      outer loop
         vertex 1.811000e+002 2.800000e+001 1.400000e+001
         vertex 1.745000e+002 2.800000e+001 1.400000e+001
         vertex 1.811000e+002 2.800000e+001 1.200000e+001
      endloop
   endfacet
   facet normal 0.000000e+000 -1.000000e+000 0.000000e+000
      outer loop
         vertex 1.811000e+002 2.800000e+001 1.200000e+001
         vertex 1.745000e+002 2.800000e+001 1.400000e+001
         vertex 1.745000e+002 2.800000e+001 1.200000e+001
      endloop
   endfacet
   facet normal 4.565062e-016 0.000000e+000 1.000000e+000
      outer loop
         vertex 1.830000e+002 2.800000e+001 1.400000e+001
         vertex 1.811000e+002 2.800000e+001 1.400000e+001
         vertex 1.811000e+002 2.300000e+001 1.400000e+001
      endloop
   endfacet
   facet normal 4.565062e-016 0.000000e+000 1.000000e+000
      outer loop
         vertex 1.745000e+002 2.800000e+001 1.400000e+001
         vertex 1.680000e+002 2.800000e+001 1.400000e+001
         vertex 1.745000e+002 2.300000e+001 1.400000e+001
      endloop
   endfacet
   facet normal 4.565062e-016 0.000000e+000 1.000000e+000
      outer loop
         vertex 1.745000e+002 2.300000e+001 1.400000e+001
         vertex 1.680000e+002 2.800000e+001 1.400000e+001
         vertex 1.680000e+002 0.000000e+000 1.400000e+001
      endloop
   endfacet
   facet normal 4.565062e-016 0.000000e+000 1.000000e+000
      outer loop
         vertex 1.745000e+002 2.300000e+001 1.400000e+001
         vertex 1.680000e+002 0.000000e+000 1.400000e+001
         vertex 1.811000e+002 2.300000e+001 1.400000e+001
      endloop
   endfacet
   facet normal 4.565062e-016 0.000000e+000 1.000000e+000
      outer loop
         vertex 1.811000e+002 2.300000e+001 1.400000e+001
         vertex 1.680000e+002 0.000000e+000 1.400000e+001
         vertex 1.830000e+002 0.000000e+000 1.400000e+001
      endloop
   endfacet
   facet normal 4.565062e-016 0.000000e+000 1.000000e+000
      outer loop
         vertex 1.811000e+002 2.300000e+001 1.400000e+001
         vertex 1.830000e+002 0.000000e+000 1.400000e+001
         vertex 1.830000e+002 2.800000e+001 1.400000e+001
      endloop
   endfacet
   facet normal 0.000000e+000 -5.144802e-002 -9.986757e-001
      outer loop
         vertex 1.680000e+002 3.799999e+001 0.000000e+000
         vertex 1.720000e+002 3.799999e+001 0.000000e+000
         vertex 1.720000e+002 3.646067e+001 1.191888e-001
      endloop
   endfacet
   facet normal 0.000000e+000 -1.028960e-001 -9.946921e-001
      outer loop
         vertex 1.680000e+002 3.799999e+001 0.000000e+000
         vertex 1.720000e+002 3.646067e+001 1.191888e-001
         vertex 1.680000e+002 3.646067e+001 1.191888e-001
      endloop
   endfacet
   facet normal 0.000000e+000 -2.045656e-001 -9.788529e-001
      outer loop
         vertex 1.680000e+002 3.646067e+001 1.191888e-001
         vertex 1.720000e+002 3.646067e+001 1.191888e-001
         vertex 1.720000e+002 3.495800e+001 4.739165e-001
      endloop
   endfacet
   facet normal 0.000000e+000 -2.547872e-001 -9.669972e-001
      outer loop
         vertex 1.680000e+002 3.646067e+001 1.191888e-001
         vertex 1.720000e+002 3.495800e+001 4.739165e-001
         vertex 1.680000e+002 3.495800e+001 4.739165e-001
      endloop
   endfacet
   facet normal 0.000000e+000 -3.528069e-001 -9.356962e-001
      outer loop
         vertex 1.680000e+002 3.495800e+001 4.739165e-001
         vertex 1.720000e+002 3.495800e+001 4.739165e-001
         vertex 1.720000e+002 3.352785e+001 1.055727e+000
      endloop
   endfacet
   facet normal 0.000000e+000 -4.006048e-001 -9.162510e-001
      outer loop
         vertex 1.680000e+002 3.495800e+001 4.739165e-001
         vertex 1.720000e+002 3.352785e+001 1.055727e+000
         vertex 1.680000e+002 3.352785e+001 1.055727e+000
      endloop
   endfacet
   facet normal 0.000000e+000 -4.926378e-001 -8.702345e-001
      outer loop
         vertex 1.680000e+002 3.352785e+001 1.055727e+000
         vertex 1.720000e+002 3.352785e+001 1.055727e+000
         vertex 1.720000e+002 3.220433e+001 1.850750e+000
      endloop
   endfacet
   facet normal 0.000000e+000 -5.368729e-001 -8.436632e-001
      outer loop
         vertex 1.680000e+002 3.352785e+001 1.055727e+000
         vertex 1.720000e+002 3.220433e+001 1.850750e+000
         vertex 1.680000e+002 3.220433e+001 1.850750e+000
      endloop
   endfacet
   facet normal 0.000000e+000 -6.207254e-001 -7.840281e-001
      outer loop
         vertex 1.680000e+002 3.220433e+001 1.850750e+000
         vertex 1.720000e+002 3.220433e+001 1.850750e+000
         vertex 1.720000e+002 3.101897e+001 2.840037e+000
      endloop
   endfacet
   facet normal 0.000000e+000 -6.603429e-001 -7.509642e-001
      outer loop
         vertex 1.680000e+002 3.220433e+001 1.850750e+000
         vertex 1.720000e+002 3.101897e+001 2.840037e+000
         vertex 1.680000e+002 3.101897e+001 2.840037e+000
      endloop
   endfacet
   facet normal 0.000000e+000 -7.340161e-001 -6.791322e-001
      outer loop
         vertex 1.680000e+002 3.101897e+001 2.840037e+000
         vertex 1.720000e+002 3.101897e+001 2.840037e+000
         vertex 1.720000e+002 3.000000e+001 4.000000e+000
      endloop
   endfacet
   facet normal 0.000000e+000 -7.680717e-001 -6.403639e-001
      outer loop
         vertex 1.680000e+002 3.101897e+001 2.840037e+000
         vertex 1.720000e+002 3.000000e+001 4.000000e+000
         vertex 1.680000e+002 3.000000e+001 4.000000e+000
      endloop
   endfacet
   facet normal 0.000000e+000 -1.000000e+000 0.000000e+000
      outer loop
         vertex 1.830000e+002 0.000000e+000 1.400000e+001
         vertex 1.680000e+002 0.000000e+000 1.400000e+001
         vertex 1.830000e+002 0.000000e+000 1.200000e+001
      endloop
   endfacet
   facet normal 0.000000e+000 -1.000000e+000 0.000000e+000
      outer loop
         vertex 1.830000e+002 0.000000e+000 1.200000e+001
         vertex 1.680000e+002 0.000000e+000 1.400000e+001
         vertex 1.680000e+002 0.000000e+000 1.200000e+001
      endloop
   endfacet
   facet normal 1.000000e+000 0.000000e+000 0.000000e+000
      outer loop
         vertex 1.745000e+002 2.300000e+001 1.400000e+001
         vertex 1.745000e+002 2.300000e+001 1.200000e+001
         vertex 1.745000e+002 2.800000e+001 1.400000e+001
      endloop
   endfacet
   facet normal 1.000000e+000 0.000000e+000 0.000000e+000
      outer loop
         vertex 1.745000e+002 2.800000e+001 1.400000e+001
         vertex 1.745000e+002 2.300000e+001 1.200000e+001
         vertex 1.745000e+002 2.800000e+001 1.200000e+001
      endloop
   endfacet
   facet normal -1.000000e+000 0.000000e+000 0.000000e+000
      outer loop
         vertex 1.811000e+002 2.300000e+001 1.200000e+001
         vertex 1.811000e+002 2.300000e+001 1.400000e+001
         vertex 1.811000e+002 2.800000e+001 1.200000e+001
      endloop
   endfacet
   facet normal -1.000000e+000 0.000000e+000 0.000000e+000
      outer loop
         vertex 1.811000e+002 2.800000e+001 1.200000e+001
         vertex 1.811000e+002 2.300000e+001 1.400000e+001
         vertex 1.811000e+002 2.800000e+001 1.400000e+001
      endloop
   endfacet
   facet normal 0.000000e+000 1.000000e+000 0.000000e+000
      outer loop
         vertex 1.811000e+002 2.300000e+001 1.200000e+001
         vertex 1.745000e+002 2.300000e+001 1.200000e+001
         vertex 1.811000e+002 2.300000e+001 1.400000e+001
      endloop
   endfacet
   facet normal 0.000000e+000 1.000000e+000 0.000000e+000
      outer loop
         vertex 1.811000e+002 2.300000e+001 1.400000e+001
         vertex 1.745000e+002 2.300000e+001 1.200000e+001
         vertex 1.745000e+002 2.300000e+001 1.400000e+001
      endloop
   endfacet
   facet normal 0.000000e+000 0.000000e+000 1.000000e+000
      outer loop
         vertex 1.680000e+002 5.349138e+001 6.400000e+001
         vertex 1.680000e+002 0.000000e+000 6.400000e+001
         vertex 1.830000e+002 5.349138e+001 6.400000e+001
      endloop
   endfacet
   facet normal 0.000000e+000 0.000000e+000 1.000000e+000
      outer loop
         vertex 1.830000e+002 5.349138e+001 6.400000e+001
         vertex 1.680000e+002 0.000000e+000 6.400000e+001
         vertex 1.830000e+002 0.000000e+000 6.400000e+001
      endloop
   endfacet
   facet normal 0.000000e+000 0.000000e+000 -1.000000e+000
      outer loop
         vertex 1.830000e+002 0.000000e+000 5.500000e+001
         vertex 1.680000e+002 0.000000e+000 5.500000e+001
         vertex 1.830000e+002 2.800000e+001 5.500000e+001
      endloop
   endfacet
   facet normal 0.000000e+000 0.000000e+000 -1.000000e+000
      outer loop
         vertex 1.830000e+002 2.800000e+001 5.500000e+001
         vertex 1.680000e+002 0.000000e+000 5.500000e+001
         vertex 1.680000e+002 2.800000e+001 5.500000e+001
      endloop
   endfacet
   facet normal 0.000000e+000 -1.000000e+000 0.000000e+000
      outer loop
         vertex 1.680000e+002 0.000000e+000 5.500000e+001
         vertex 1.830000e+002 0.000000e+000 5.500000e+001
         vertex 1.680000e+002 0.000000e+000 6.400000e+001
      endloop
   endfacet
   facet normal 0.000000e+000 -1.000000e+000 0.000000e+000
      outer loop
         vertex 1.680000e+002 0.000000e+000 6.400000e+001
         vertex 1.830000e+002 0.000000e+000 5.500000e+001
         vertex 1.830000e+002 0.000000e+000 6.400000e+001
      endloop
   endfacet
   facet normal 7.005129e-017 4.290568e-001 9.032776e-001
      outer loop
         vertex 1.680000e+002 9.392747e+001 4.693445e+001
         vertex 1.680000e+002 6.207252e+001 6.206555e+001
         vertex 1.830000e+002 9.392747e+001 4.693445e+001
      endloop
   endfacet
   facet normal 7.005129e-017 4.290568e-001 9.032776e-001
      outer loop
         vertex 1.830000e+002 9.392747e+001 4.693445e+001
         vertex 1.680000e+002 6.207252e+001 6.206555e+001
         vertex 1.830000e+002 6.207252e+001 6.206555e+001
      endloop
   endfacet
   facet normal 6.270877e-017 3.840847e-001 9.232979e-001
      outer loop
         vertex 1.680000e+002 9.392747e+001 4.693445e+001
         vertex 1.830000e+002 9.392747e+001 4.693445e+001
         vertex 1.680000e+002 9.668172e+001 4.586764e+001
      endloop
   endfacet
   facet normal 5.519588e-017 3.380690e-001 9.411213e-001
      outer loop
         vertex 1.680000e+002 9.668172e+001 4.586764e+001
         vertex 1.830000e+002 9.392747e+001 4.693445e+001
         vertex 1.830000e+002 9.668172e+001 4.586764e+001
      endloop
   endfacet
   facet normal 3.982344e-017 2.439144e-001 9.697968e-001
      outer loop
         vertex 1.680000e+002 9.668172e+001 4.586764e+001
         vertex 1.830000e+002 9.668172e+001 4.586764e+001
         vertex 1.680000e+002 9.956303e+001 4.521809e+001
      endloop
   endfacet
   facet normal 3.196390e-017 1.957755e-001 9.806487e-001
      outer loop
         vertex 1.680000e+002 9.956303e+001 4.521809e+001
         vertex 1.830000e+002 9.668172e+001 4.586764e+001
         vertex 1.830000e+002 9.956303e+001 4.521809e+001
      endloop
   endfacet
   facet normal 1.606956e-017 9.842440e-002 9.951445e-001
      outer loop
         vertex 1.680000e+002 9.956303e+001 4.521809e+001
         vertex 1.830000e+002 9.956303e+001 4.521809e+001
         vertex 1.680000e+002 1.025086e+002 4.500000e+001
      endloop
   endfacet
   facet normal 8.034782e-018 4.921220e-002 9.987884e-001
      outer loop
         vertex 1.680000e+002 1.025086e+002 4.500000e+001
         vertex 1.830000e+002 9.956303e+001 4.521809e+001
         vertex 1.830000e+002 1.025086e+002 4.500000e+001
      endloop
   endfacet
   facet normal 8.034782e-018 4.921220e-002 9.987884e-001
      outer loop
         vertex 1.680000e+002 5.349138e+001 6.400000e+001
         vertex 1.830000e+002 5.349138e+001 6.400000e+001
         vertex 1.830000e+002 5.643695e+001 6.378190e+001
      endloop
   endfacet
   facet normal 1.606956e-017 9.842440e-002 9.951445e-001
      outer loop
         vertex 1.680000e+002 5.349138e+001 6.400000e+001
         vertex 1.830000e+002 5.643695e+001 6.378190e+001
         vertex 1.680000e+002 5.643695e+001 6.378190e+001
      endloop
   endfacet
   facet normal 3.196390e-017 1.957755e-001 9.806487e-001
      outer loop
         vertex 1.680000e+002 5.643695e+001 6.378190e+001
         vertex 1.830000e+002 5.643695e+001 6.378190e+001
         vertex 1.830000e+002 5.931828e+001 6.313236e+001
      endloop
   endfacet
   facet normal 3.982344e-017 2.439144e-001 9.697968e-001
      outer loop
         vertex 1.680000e+002 5.643695e+001 6.378190e+001
         vertex 1.830000e+002 5.931828e+001 6.313236e+001
         vertex 1.680000e+002 5.931828e+001 6.313236e+001
      endloop
   endfacet
   facet normal 5.519588e-017 3.380690e-001 9.411213e-001
      outer loop
         vertex 1.680000e+002 5.931828e+001 6.313236e+001
         vertex 1.830000e+002 5.931828e+001 6.313236e+001
         vertex 1.830000e+002 6.207252e+001 6.206555e+001
      endloop
   endfacet
   facet normal 6.270877e-017 3.840847e-001 9.232979e-001
      outer loop
         vertex 1.680000e+002 5.931828e+001 6.313236e+001
         vertex 1.830000e+002 6.207252e+001 6.206555e+001
         vertex 1.680000e+002 6.207252e+001 6.206555e+001
      endloop
   endfacet
   facet normal 0.000000e+000 -7.680717e-001 -6.403639e-001
      outer loop
         vertex 1.680000e+002 3.000000e+001 4.000000e+000
         vertex 1.720000e+002 3.000000e+001 4.000000e+000
         vertex 1.680000e+002 2.796209e+001 6.319927e+000
      endloop
   endfacet
   facet normal 0.000000e+000 -7.340161e-001 -6.791322e-001
      outer loop
         vertex 1.680000e+002 2.796209e+001 6.319927e+000
         vertex 1.720000e+002 3.000000e+001 4.000000e+000
         vertex 1.720000e+002 2.796209e+001 6.319927e+000
      endloop
   endfacet
   facet normal 0.000000e+000 -6.603429e-001 -7.509642e-001
      outer loop
         vertex 1.680000e+002 2.796209e+001 6.319927e+000
         vertex 1.720000e+002 2.796209e+001 6.319927e+000
         vertex 1.680000e+002 2.559134e+001 8.298496e+000
      endloop
   endfacet
   facet normal 0.000000e+000 -6.207254e-001 -7.840281e-001
      outer loop
         vertex 1.680000e+002 2.559134e+001 8.298496e+000
         vertex 1.720000e+002 2.796209e+001 6.319927e+000
         vertex 1.720000e+002 2.559134e+001 8.298496e+000
      endloop
   endfacet
   facet normal 0.000000e+000 -5.368729e-001 -8.436632e-001
      outer loop
         vertex 1.680000e+002 2.559134e+001 8.298496e+000
         vertex 1.720000e+002 2.559134e+001 8.298496e+000
         vertex 1.680000e+002 2.294427e+001 9.888543e+000
      endloop
   endfacet
   facet normal 0.000000e+000 -4.926378e-001 -8.702345e-001
      outer loop
         vertex 1.680000e+002 2.294427e+001 9.888543e+000
         vertex 1.720000e+002 2.559134e+001 8.298496e+000
         vertex 1.720000e+002 2.294427e+001 9.888543e+000
      endloop
   endfacet
   facet normal 0.000000e+000 -4.006048e-001 -9.162509e-001
      outer loop
         vertex 1.680000e+002 2.294427e+001 9.888543e+000
         vertex 1.720000e+002 2.294427e+001 9.888543e+000
         vertex 1.680000e+002 2.008399e+001 1.105216e+001
      endloop
   endfacet
   facet normal 0.000000e+000 -3.528069e-001 -9.356962e-001
      outer loop
         vertex 1.680000e+002 2.008399e+001 1.105216e+001
         vertex 1.720000e+002 2.294427e+001 9.888543e+000
         vertex 1.720000e+002 2.008399e+001 1.105216e+001
      endloop
   endfacet
   facet normal 0.000000e+000 -2.547873e-001 -9.669971e-001
      outer loop
         vertex 1.680000e+002 2.008399e+001 1.105216e+001
         vertex 1.720000e+002 2.008399e+001 1.105216e+001
         vertex 1.680000e+002 1.707870e+001 1.176162e+001
      endloop
   endfacet
   facet normal 0.000000e+000 -2.045656e-001 -9.788529e-001
      outer loop
         vertex 1.680000e+002 1.707870e+001 1.176162e+001
         vertex 1.720000e+002 2.008399e+001 1.105216e+001
         vertex 1.720000e+002 1.707870e+001 1.176162e+001
      endloop
   endfacet
   facet normal 0.000000e+000 -1.028960e-001 -9.946921e-001
      outer loop
         vertex 1.680000e+002 1.707870e+001 1.176162e+001
         vertex 1.720000e+002 1.707870e+001 1.176162e+001
         vertex 1.680000e+002 1.400000e+001 1.200000e+001
      endloop
   endfacet
   facet normal 0.000000e+000 -5.144802e-002 -9.986757e-001
      outer loop
         vertex 1.680000e+002 1.400000e+001 1.200000e+001
         vertex 1.720000e+002 1.707870e+001 1.176162e+001
         vertex 1.720000e+002 1.400000e+001 1.200000e+001
      endloop
   endfacet
   facet normal -8.673617e-017 1.000000e+000 0.000000e+000
      outer loop
         vertex 1.680000e+002 1.650000e+002 4.500000e+001
         vertex 1.830000e+002 1.650000e+002 4.500000e+001
         vertex 1.680000e+002 1.650000e+002 3.700000e+001
      endloop
   endfacet
   facet normal -8.673617e-017 1.000000e+000 0.000000e+000
      outer loop
         vertex 1.680000e+002 1.650000e+002 3.700000e+001
         vertex 1.830000e+002 1.650000e+002 4.500000e+001
         vertex 1.830000e+002 1.650000e+002 3.700000e+001
      endloop
   endfacet
   facet normal 0.000000e+000 0.000000e+000 1.000000e+000
      outer loop
         vertex 1.680000e+002 1.650000e+002 3.700000e+001
         vertex 1.830000e+002 1.650000e+002 3.700000e+001
         vertex 1.680000e+002 2.050000e+002 3.700000e+001
      endloop
   endfacet
   facet normal 0.000000e+000 0.000000e+000 1.000000e+000
      outer loop
         vertex 1.680000e+002 2.050000e+002 3.700000e+001
         vertex 1.830000e+002 1.650000e+002 3.700000e+001
         vertex 1.830000e+002 2.050000e+002 3.700000e+001
      endloop
   endfacet
   facet normal -8.673617e-017 1.000000e+000 0.000000e+000
      outer loop
         vertex 1.680000e+002 2.050000e+002 3.700000e+001
         vertex 1.830000e+002 2.050000e+002 3.700000e+001
         vertex 1.680000e+002 2.050000e+002 2.900000e+001
      endloop
   endfacet
   facet normal -8.673617e-017 1.000000e+000 0.000000e+000
      outer loop
         vertex 1.680000e+002 2.050000e+002 2.900000e+001
         vertex 1.830000e+002 2.050000e+002 3.700000e+001
         vertex 1.830000e+002 2.050000e+002 2.900000e+001
      endloop
   endfacet
   facet normal 7.523164e-033 -8.673617e-017 -1.000000e+000
      outer loop
         vertex 1.680000e+002 2.050000e+002 2.900000e+001
         vertex 1.830000e+002 2.050000e+002 2.900000e+001
         vertex 1.680000e+002 1.650000e+002 2.900000e+001
      endloop
   endfacet
   facet normal 7.523164e-033 -8.673617e-017 -1.000000e+000
      outer loop
         vertex 1.680000e+002 1.650000e+002 2.900000e+001
         vertex 1.830000e+002 2.050000e+002 2.900000e+001
         vertex 1.830000e+002 1.650000e+002 2.900000e+001
      endloop
   endfacet
   facet normal -8.673617e-017 1.000000e+000 0.000000e+000
      outer loop
         vertex 1.720000e+002 1.650000e+002 0.000000e+000
         vertex 1.680000e+002 1.650000e+002 0.000000e+000
         vertex 1.720000e+002 1.650000e+002 1.200000e+001
      endloop
   endfacet
   facet normal -8.673617e-017 1.000000e+000 0.000000e+000
      outer loop
         vertex 1.720000e+002 1.650000e+002 1.200000e+001
         vertex 1.680000e+002 1.650000e+002 0.000000e+000
         vertex 1.680000e+002 1.650000e+002 2.900000e+001
      endloop
   endfacet
   facet normal -8.673617e-017 1.000000e+000 0.000000e+000
      outer loop
         vertex 1.720000e+002 1.650000e+002 1.200000e+001
         vertex 1.680000e+002 1.650000e+002 2.900000e+001
         vertex 1.830000e+002 1.650000e+002 1.200000e+001
      endloop
   endfacet
   facet normal -8.673617e-017 1.000000e+000 0.000000e+000
      outer loop
         vertex 1.830000e+002 1.650000e+002 1.200000e+001
         vertex 1.680000e+002 1.650000e+002 2.900000e+001
         vertex 1.830000e+002 1.650000e+002 2.900000e+001
      endloop
   endfacet
endsolid