solid 식판구동부_측면_부품_모터측0
   facet normal -1.000000e+000 -8.673617e-017 0.000000e+000
      outer loop
         vertex 1.680000e+002 3.398481e+002 8.263517e+000
         vertex 1.680000e+002 3.395394e+002 6.999999e+000
         vertex 1.680000e+002 1.700000e+002 6.999999e+000
      endloop
   endfacet
   facet normal -1.000000e+000 -8.673617e-017 0.000000e+000
      outer loop
         vertex 1.680000e+002 3.200000e+002 3.500000e+001
         vertex 1.680000e+002 1.699859e+002 3.632624e+001
         vertex 1.680000e+002 3.200000e+002 4.500000e+001
      endloop
   endfacet
   facet normal -1.000000e+000 -8.673617e-017 0.000000e+000
      outer loop
         vertex 1.680000e+002 3.200000e+002 4.500000e+001
         vertex 1.680000e+002 1.699859e+002 3.632624e+001
         vertex 1.680000e+002 1.700000e+002 3.649373e+001
      endloop
   endfacet
   facet normal -1.000000e+000 -8.673617e-017 0.000000e+000
      outer loop
         vertex 1.680000e+002 3.200000e+002 4.500000e+001
         vertex 1.680000e+002 1.700000e+002 3.649373e+001
         vertex 1.680000e+002 1.700000e+002 4.500000e+001
      endloop
   endfacet
   facet normal -1.000000e+000 -8.673617e-017 0.000000e+000
      outer loop
         vertex 1.680000e+002 1.691118e+002 2.750000e+001
         vertex 1.680000e+002 1.692227e+002 3.551883e+001
         vertex 1.680000e+002 1.693828e+002 3.556989e+001
      endloop
   endfacet
   facet normal -1.000000e+000 -8.673617e-017 0.000000e+000
      outer loop
         vertex 1.680000e+002 3.300000e+002 4.500000e+001
         vertex 1.680000e+002 3.400000e+002 4.500000e+001
         vertex 1.680000e+002 3.300000e+002 3.500000e+001
      endloop
   endfacet
   facet normal -1.000000e+000 -8.673617e-017 0.000000e+000
      outer loop
         vertex 1.680000e+002 3.300000e+002 3.500000e+001
         vertex 1.680000e+002 3.400000e+002 4.500000e+001
         vertex 1.680000e+002 3.400000e+002 1.000000e+001
      endloop
   endfacet
   facet normal -1.000000e+000 -8.673617e-017 0.000000e+000
      outer loop
         vertex 1.680000e+002 3.300000e+002 3.500000e+001
         vertex 1.680000e+002 3.400000e+002 1.000000e+001
         vertex 1.680000e+002 3.200000e+002 3.500000e+001
      endloop
   endfacet
   facet normal -1.000000e+000 -8.673617e-017 0.000000e+000
      outer loop
         vertex 1.680000e+002 3.200000e+002 3.500000e+001
         vertex 1.680000e+002 3.400000e+002 1.000000e+001
         vertex 1.680000e+002 3.398481e+002 8.263517e+000
      endloop
   endfacet
   facet normal -1.000000e+000 -8.673617e-017 0.000000e+000
      outer loop
         vertex 1.680000e+002 1.696892e+002 2.723085e+001
         vertex 1.680000e+002 1.695632e+002 2.733257e+001
         vertex 1.680000e+002 1.699859e+002 3.632624e+001
      endloop
   endfacet
   facet normal -1.000000e+000 -8.673617e-017 0.000000e+000
      outer loop
         vertex 1.680000e+002 1.688882e+002 2.750000e+001
         vertex 1.680000e+002 1.688882e+002 3.550000e+001
         vertex 1.680000e+002 1.691118e+002 2.750000e+001
      endloop
   endfacet
   facet normal -1.000000e+000 -8.673617e-017 0.000000e+000
      outer loop
         vertex 1.680000e+002 1.691118e+002 2.750000e+001
         vertex 1.680000e+002 1.688882e+002 3.550000e+001
         vertex 1.680000e+002 1.690562e+002 3.549531e+001
      endloop
   endfacet
   facet normal -1.000000e+000 -8.673617e-017 0.000000e+000
      outer loop
         vertex 1.680000e+002 1.691118e+002 2.750000e+001
         vertex 1.680000e+002 1.690562e+002 3.549531e+001
         vertex 1.680000e+002 1.692227e+002 3.551883e+001
      endloop
   endfacet
   facet normal -1.000000e+000 -8.673617e-017 0.000000e+000
      outer loop
         vertex 1.680000e+002 1.693828e+002 3.556989e+001
         vertex 1.680000e+002 1.695321e+002 3.564706e+001
         vertex 1.680000e+002 1.691118e+002 2.750000e+001
      endloop
   endfacet
   facet normal -1.000000e+000 -8.673617e-017 0.000000e+000
      outer loop
         vertex 1.680000e+002 1.691118e+002 2.750000e+001
         vertex 1.680000e+002 1.695321e+002 3.564706e+001
         vertex 1.680000e+002 1.696664e+002 3.574814e+001
      endloop
   endfacet
   facet normal -1.000000e+000 -8.673617e-017 0.000000e+000
      outer loop
         vertex 1.680000e+002 1.691118e+002 2.750000e+001
         vertex 1.680000e+002 1.696664e+002 3.574814e+001
         vertex 1.680000e+002 1.697819e+002 3.587029e+001
      endloop
   endfacet
   facet normal -1.000000e+000 -8.673617e-017 0.000000e+000
      outer loop
         vertex 1.680000e+002 3.398481e+002 8.263517e+000
         vertex 1.680000e+002 1.700000e+002 6.999999e+000
         vertex 1.680000e+002 3.200000e+002 3.500000e+001
      endloop
   endfacet
   facet normal -1.000000e+000 -8.673617e-017 0.000000e+000
      outer loop
         vertex 1.680000e+002 3.200000e+002 3.500000e+001
         vertex 1.680000e+002 1.700000e+002 6.999999e+000
         vertex 1.680000e+002 1.700000e+002 2.650627e+001
      endloop
   endfacet
   facet normal -1.000000e+000 -8.673617e-017 0.000000e+000
      outer loop
         vertex 1.680000e+002 3.200000e+002 3.500000e+001
         vertex 1.680000e+002 1.700000e+002 2.650627e+001
         vertex 1.680000e+002 1.699869e+002 2.666764e+001
      endloop
   endfacet
   facet normal -1.000000e+000 -8.673617e-017 0.000000e+000
      outer loop
         vertex 1.680000e+002 1.600000e+002 2.761882e+001
         vertex 1.680000e+002 1.688882e+002 2.750000e+001
         vertex 1.680000e+002 1.611118e+002 2.662509e+001
      endloop
   endfacet
   facet normal -1.000000e+000 -8.673617e-017 0.000000e+000
      outer loop
         vertex 1.680000e+002 1.695632e+002 2.733257e+001
         vertex 1.680000e+002 1.694225e+002 2.741263e+001
         vertex 1.680000e+002 1.699859e+002 3.632624e+001
      endloop
   endfacet
   facet normal -1.000000e+000 -8.673617e-017 0.000000e+000
      outer loop
         vertex 1.680000e+002 1.699859e+002 3.632624e+001
         vertex 1.680000e+002 1.694225e+002 2.741263e+001
         vertex 1.680000e+002 1.692707e+002 2.746893e+001
      endloop
   endfacet
   facet normal -1.000000e+000 -8.673617e-017 0.000000e+000
      outer loop
         vertex 1.680000e+002 1.699859e+002 3.632624e+001
         vertex 1.680000e+002 1.692707e+002 2.746893e+001
         vertex 1.680000e+002 1.699439e+002 3.616348e+001
      endloop
   endfacet
   facet normal -1.000000e+000 -8.673617e-017 0.000000e+000
      outer loop
         vertex 1.680000e+002 1.699439e+002 3.616348e+001
         vertex 1.680000e+002 1.692707e+002 2.746893e+001
         vertex 1.680000e+002 1.691118e+002 2.750000e+001
      endloop
   endfacet
   facet normal -1.000000e+000 -8.673617e-017 0.000000e+000
      outer loop
         vertex 1.680000e+002 1.699439e+002 3.616348e+001
         vertex 1.680000e+002 1.691118e+002 2.750000e+001
         vertex 1.680000e+002 1.698752e+002 3.601005e+001
      endloop
   endfacet
   facet normal -1.000000e+000 -8.673617e-017 0.000000e+000
      outer loop
         vertex 1.680000e+002 1.698752e+002 3.601005e+001
         vertex 1.680000e+002 1.691118e+002 2.750000e+001
         vertex 1.680000e+002 1.697819e+002 3.587029e+001
      endloop
   endfacet
   facet normal -1.000000e+000 -8.673617e-017 0.000000e+000
      outer loop
         vertex 1.680000e+002 1.688882e+002 2.750000e+001
         vertex 1.680000e+002 1.600000e+002 2.761882e+001
         vertex 1.680000e+002 1.688882e+002 3.550000e+001
      endloop
   endfacet
   facet normal -1.000000e+000 -8.673617e-017 0.000000e+000
      outer loop
         vertex 1.680000e+002 1.688882e+002 3.550000e+001
         vertex 1.680000e+002 1.600000e+002 2.761882e+001
         vertex 1.680000e+002 1.600000e+002 3.538118e+001
      endloop
   endfacet
   facet normal -1.000000e+000 -8.673617e-017 0.000000e+000
      outer loop
         vertex 1.680000e+002 1.688882e+002 3.550000e+001
         vertex 1.680000e+002 1.600000e+002 3.538118e+001
         vertex 1.680000e+002 1.611118e+002 3.637491e+001
      endloop
   endfacet
   facet normal -1.000000e+000 -8.673617e-017 0.000000e+000
      outer loop
         vertex 1.680000e+002 1.699869e+002 2.666764e+001
         vertex 1.680000e+002 1.699479e+002 2.682479e+001
         vertex 1.680000e+002 3.200000e+002 3.500000e+001
      endloop
   endfacet
   facet normal -1.000000e+000 -8.673617e-017 0.000000e+000
      outer loop
         vertex 1.680000e+002 3.200000e+002 3.500000e+001
         vertex 1.680000e+002 1.699479e+002 2.682479e+001
         vertex 1.680000e+002 1.698841e+002 2.697359e+001
      endloop
   endfacet
   facet normal -1.000000e+000 -8.673617e-017 0.000000e+000
      outer loop
         vertex 1.680000e+002 3.200000e+002 3.500000e+001
         vertex 1.680000e+002 1.698841e+002 2.697359e+001
         vertex 1.680000e+002 1.699859e+002 3.632624e+001
      endloop
   endfacet
   facet normal -1.000000e+000 -8.673617e-017 0.000000e+000
      outer loop
         vertex 1.680000e+002 1.699859e+002 3.632624e+001
         vertex 1.680000e+002 1.698841e+002 2.697359e+001
         vertex 1.680000e+002 1.697971e+002 2.711013e+001
      endloop
   endfacet
   facet normal -1.000000e+000 -8.673617e-017 0.000000e+000
      outer loop
         vertex 1.680000e+002 1.699859e+002 3.632624e+001
         vertex 1.680000e+002 1.697971e+002 2.711013e+001
         vertex 1.680000e+002 1.696892e+002 2.723085e+001
      endloop
   endfacet
   facet normal -1.000000e+000 -8.673617e-017 0.000000e+000
      outer loop
         vertex 1.680000e+002 1.603336e+002 3.612677e+001
         vertex 1.680000e+002 1.604679e+002 3.622785e+001
         vertex 1.680000e+002 1.606172e+002 3.630502e+001
      endloop
   endfacet
   facet normal -1.000000e+000 -8.673617e-017 0.000000e+000
      outer loop
         vertex 1.680000e+002 1.609438e+002 2.662040e+001
         vertex 1.680000e+002 1.600561e+002 2.728857e+001
         vertex 1.680000e+002 1.611118e+002 2.662509e+001
      endloop
   endfacet
   facet normal -1.000000e+000 -8.673617e-017 0.000000e+000
      outer loop
         vertex 1.680000e+002 1.611118e+002 2.662509e+001
         vertex 1.680000e+002 1.600561e+002 2.728857e+001
         vertex 1.680000e+002 1.600141e+002 2.745133e+001
      endloop
   endfacet
   facet normal -1.000000e+000 -8.673617e-017 0.000000e+000
      outer loop
         vertex 1.680000e+002 1.611118e+002 2.662509e+001
         vertex 1.680000e+002 1.600141e+002 2.745133e+001
         vertex 1.680000e+002 1.600000e+002 2.761882e+001
      endloop
   endfacet
   facet normal -1.000000e+000 -8.673617e-017 0.000000e+000
      outer loop
         vertex 1.680000e+002 1.609438e+002 2.662040e+001
         vertex 1.680000e+002 1.607774e+002 2.664392e+001
         vertex 1.680000e+002 1.600561e+002 2.728857e+001
      endloop
   endfacet
   facet normal -1.000000e+000 -8.673617e-017 0.000000e+000
      outer loop
         vertex 1.680000e+002 1.600561e+002 2.728857e+001
         vertex 1.680000e+002 1.607774e+002 2.664392e+001
         vertex 1.680000e+002 1.606172e+002 2.669498e+001
      endloop
   endfacet
   facet normal -1.000000e+000 -8.673617e-017 0.000000e+000
      outer loop
         vertex 1.680000e+002 1.600561e+002 2.728857e+001
         vertex 1.680000e+002 1.606172e+002 2.669498e+001
         vertex 1.680000e+002 1.604679e+002 2.677214e+001
      endloop
   endfacet
   facet normal -1.000000e+000 -8.673617e-017 0.000000e+000
      outer loop
         vertex 1.680000e+002 1.603336e+002 2.687323e+001
         vertex 1.680000e+002 1.602181e+002 2.699538e+001
         vertex 1.680000e+002 1.604679e+002 2.677214e+001
      endloop
   endfacet
   facet normal -1.000000e+000 -8.673617e-017 0.000000e+000
      outer loop
         vertex 1.680000e+002 1.604679e+002 2.677214e+001
         vertex 1.680000e+002 1.602181e+002 2.699538e+001
         vertex 1.680000e+002 1.601248e+002 2.713514e+001
      endloop
   endfacet
   facet normal -1.000000e+000 -8.673617e-017 0.000000e+000
      outer loop
         vertex 1.680000e+002 1.604679e+002 2.677214e+001
         vertex 1.680000e+002 1.601248e+002 2.713514e+001
         vertex 1.680000e+002 1.600561e+002 2.728857e+001
      endloop
   endfacet
   facet normal -1.000000e+000 -8.673617e-017 0.000000e+000
      outer loop
         vertex 1.680000e+002 1.600000e+002 3.538118e+001
         vertex 1.680000e+002 1.600141e+002 3.554867e+001
         vertex 1.680000e+002 1.611118e+002 3.637491e+001
      endloop
   endfacet
   facet normal -1.000000e+000 -8.673617e-017 0.000000e+000
      outer loop
         vertex 1.680000e+002 1.611118e+002 3.637491e+001
         vertex 1.680000e+002 1.600141e+002 3.554867e+001
         vertex 1.680000e+002 1.600561e+002 3.571143e+001
      endloop
   endfacet
   facet normal -1.000000e+000 -8.673617e-017 0.000000e+000
      outer loop
         vertex 1.680000e+002 1.611118e+002 3.637491e+001
         vertex 1.680000e+002 1.600561e+002 3.571143e+001
         vertex 1.680000e+002 1.609438e+002 3.637960e+001
      endloop
   endfacet
   facet normal -1.000000e+000 -8.673617e-017 0.000000e+000
      outer loop
         vertex 1.680000e+002 1.609438e+002 3.637960e+001
         vertex 1.680000e+002 1.600561e+002 3.571143e+001
         vertex 1.680000e+002 1.607774e+002 3.635608e+001
      endloop
   endfacet
   facet normal -1.000000e+000 -8.673617e-017 0.000000e+000
      outer loop
         vertex 1.680000e+002 1.603336e+002 3.612677e+001
         vertex 1.680000e+002 1.606172e+002 3.630502e+001
         vertex 1.680000e+002 1.602181e+002 3.600462e+001
      endloop
   endfacet
   facet normal -1.000000e+000 -8.673617e-017 0.000000e+000
      outer loop
         vertex 1.680000e+002 1.607774e+002 3.635608e+001
         vertex 1.680000e+002 1.600561e+002 3.571143e+001
         vertex 1.680000e+002 1.606172e+002 3.630502e+001
      endloop
   endfacet
   facet normal -1.000000e+000 -8.673617e-017 0.000000e+000
      outer loop
         vertex 1.680000e+002 1.606172e+002 3.630502e+001
         vertex 1.680000e+002 1.600561e+002 3.571143e+001
         vertex 1.680000e+002 1.601248e+002 3.586486e+001
      endloop
   endfacet
   facet normal -1.000000e+000 -8.673617e-017 0.000000e+000
      outer loop
         vertex 1.680000e+002 1.606172e+002 3.630502e+001
         vertex 1.680000e+002 1.601248e+002 3.586486e+001
         vertex 1.680000e+002 1.602181e+002 3.600462e+001
      endloop
   endfacet
   facet normal 1.000000e+000 1.632681e-016 0.000000e+000
      outer loop
         vertex 1.830000e+002 3.400000e+002 1.900000e+001
         vertex 1.830000e+002 3.400000e+002 4.500000e+001
         vertex 1.830000e+002 3.300000e+002 4.500000e+001
      endloop
   endfacet
   facet normal 1.000000e+000 1.632681e-016 0.000000e+000
      outer loop
         vertex 1.830000e+002 3.300000e+002 4.500000e+001
         vertex 1.830000e+002 3.300000e+002 3.500000e+001
         vertex 1.830000e+002 3.400000e+002 1.900000e+001
      endloop
   endfacet
   facet normal 1.000000e+000 1.632681e-016 0.000000e+000
      outer loop
         vertex 1.830000e+002 3.400000e+002 1.900000e+001
         vertex 1.830000e+002 3.300000e+002 3.500000e+001
         vertex 1.830000e+002 3.200000e+002 3.500000e+001
      endloop
   endfacet
   facet normal 1.000000e+000 1.632681e-016 0.000000e+000
      outer loop
         vertex 1.830000e+002 3.400000e+002 1.900000e+001
         vertex 1.830000e+002 3.200000e+002 3.500000e+001
         vertex 1.830000e+002 1.700000e+002 1.900000e+001
      endloop
   endfacet
   facet normal 1.000000e+000 1.632681e-016 0.000000e+000
      outer loop
         vertex 1.830000e+002 1.700000e+002 1.900000e+001
         vertex 1.830000e+002 3.200000e+002 3.500000e+001
         vertex 1.830000e+002 1.700000e+002 2.650627e+001
      endloop
   endfacet
   facet normal 1.000000e+000 1.632681e-016 0.000000e+000
      outer loop
         vertex 1.830000e+002 3.200000e+002 4.500000e+001
         vertex 1.830000e+002 1.700000e+002 4.500000e+001
         vertex 1.830000e+002 3.200000e+002 3.500000e+001
      endloop
   endfacet
   facet normal 1.000000e+000 1.632681e-016 0.000000e+000
      outer loop
         vertex 1.830000e+002 3.200000e+002 3.500000e+001
         vertex 1.830000e+002 1.700000e+002 4.500000e+001
         vertex 1.830000e+002 1.700000e+002 3.649373e+001
      endloop
   endfacet
   facet normal 1.000000e+000 1.632681e-016 0.000000e+000
      outer loop
         vertex 1.830000e+002 3.200000e+002 3.500000e+001
         vertex 1.830000e+002 1.700000e+002 3.649373e+001
         vertex 1.830000e+002 1.699859e+002 3.632624e+001
      endloop
   endfacet
   facet normal 1.000000e+000 1.632681e-016 0.000000e+000
      outer loop
         vertex 1.830000e+002 1.697819e+002 3.587029e+001
         vertex 1.830000e+002 1.696664e+002 3.574814e+001
         vertex 1.830000e+002 1.691118e+002 2.750000e+001
      endloop
   endfacet
   facet normal 1.000000e+000 1.632681e-016 0.000000e+000
      outer loop
         vertex 1.830000e+002 1.691118e+002 2.750000e+001
         vertex 1.830000e+002 1.696664e+002 3.574814e+001
         vertex 1.830000e+002 1.695321e+002 3.564706e+001
      endloop
   endfacet
   facet normal 1.000000e+000 1.632681e-016 0.000000e+000
      outer loop
         vertex 1.830000e+002 1.691118e+002 2.750000e+001
         vertex 1.830000e+002 1.695321e+002 3.564706e+001
         vertex 1.830000e+002 1.693828e+002 3.556989e+001
      endloop
   endfacet
   facet normal 1.000000e+000 1.632681e-016 0.000000e+000
      outer loop
         vertex 1.830000e+002 1.698841e+002 2.697359e+001
         vertex 1.830000e+002 1.699479e+002 2.682479e+001
         vertex 1.830000e+002 3.200000e+002 3.500000e+001
      endloop
   endfacet
   facet normal 1.000000e+000 1.632681e-016 0.000000e+000
      outer loop
         vertex 1.830000e+002 3.200000e+002 3.500000e+001
         vertex 1.830000e+002 1.699479e+002 2.682479e+001
         vertex 1.830000e+002 1.699869e+002 2.666764e+001
      endloop
   endfacet
   facet normal 1.000000e+000 1.632681e-016 0.000000e+000
      outer loop
         vertex 1.830000e+002 3.200000e+002 3.500000e+001
         vertex 1.830000e+002 1.699869e+002 2.666764e+001
         vertex 1.830000e+002 1.700000e+002 2.650627e+001
      endloop
   endfacet
   facet normal 1.000000e+000 1.632681e-016 0.000000e+000
      outer loop
         vertex 1.830000e+002 1.693828e+002 3.556989e+001
         vertex 1.830000e+002 1.692227e+002 3.551883e+001
         vertex 1.830000e+002 1.691118e+002 2.750000e+001
      endloop
   endfacet
   facet normal 1.000000e+000 1.632681e-016 0.000000e+000
      outer loop
         vertex 1.830000e+002 1.691118e+002 2.750000e+001
         vertex 1.830000e+002 1.692227e+002 3.551883e+001
         vertex 1.830000e+002 1.690562e+002 3.549531e+001
      endloop
   endfacet
   facet normal 1.000000e+000 1.632681e-016 0.000000e+000
      outer loop
         vertex 1.830000e+002 1.691118e+002 2.750000e+001
         vertex 1.830000e+002 1.690562e+002 3.549531e+001
         vertex 1.830000e+002 1.688882e+002 2.750000e+001
      endloop
   endfacet
   facet normal 1.000000e+000 1.632681e-016 0.000000e+000
      outer loop
         vertex 1.830000e+002 1.688882e+002 2.750000e+001
         vertex 1.830000e+002 1.690562e+002 3.549531e+001
         vertex 1.830000e+002 1.688882e+002 3.550000e+001
      endloop
   endfacet
   facet normal 1.000000e+000 1.632681e-016 0.000000e+000
      outer loop
         vertex 1.830000e+002 1.600141e+002 3.554867e+001
         vertex 1.830000e+002 1.600000e+002 3.538118e+001
         vertex 1.830000e+002 1.611118e+002 3.637491e+001
      endloop
   endfacet
   facet normal 1.000000e+000 1.632681e-016 0.000000e+000
      outer loop
         vertex 1.830000e+002 1.694225e+002 2.741263e+001
         vertex 1.830000e+002 1.699859e+002 3.632624e+001
         vertex 1.830000e+002 1.692707e+002 2.746893e+001
      endloop
   endfacet
   facet normal 1.000000e+000 1.632681e-016 0.000000e+000
      outer loop
         vertex 1.830000e+002 1.692707e+002 2.746893e+001
         vertex 1.830000e+002 1.699859e+002 3.632624e+001
         vertex 1.830000e+002 1.699439e+002 3.616348e+001
      endloop
   endfacet
   facet normal 1.000000e+000 1.632681e-016 0.000000e+000
      outer loop
         vertex 1.830000e+002 1.692707e+002 2.746893e+001
         vertex 1.830000e+002 1.699439e+002 3.616348e+001
         vertex 1.830000e+002 1.691118e+002 2.750000e+001
      endloop
   endfacet
   facet normal 1.000000e+000 1.632681e-016 0.000000e+000
      outer loop
         vertex 1.830000e+002 1.691118e+002 2.750000e+001
         vertex 1.830000e+002 1.699439e+002 3.616348e+001
         vertex 1.830000e+002 1.698752e+002 3.601005e+001
      endloop
   endfacet
   facet normal 1.000000e+000 1.632681e-016 0.000000e+000
      outer loop
         vertex 1.830000e+002 1.691118e+002 2.750000e+001
         vertex 1.830000e+002 1.698752e+002 3.601005e+001
         vertex 1.830000e+002 1.697819e+002 3.587029e+001
      endloop
   endfacet
   facet normal 1.000000e+000 1.632681e-016 0.000000e+000
      outer loop
         vertex 1.830000e+002 1.694225e+002 2.741263e+001
         vertex 1.830000e+002 1.695632e+002 2.733257e+001
         vertex 1.830000e+002 1.699859e+002 3.632624e+001
      endloop
   endfacet
   facet normal 1.000000e+000 1.632681e-016 0.000000e+000
      outer loop
         vertex 1.830000e+002 1.699859e+002 3.632624e+001
         vertex 1.830000e+002 1.695632e+002 2.733257e+001
         vertex 1.830000e+002 1.696892e+002 2.723085e+001
      endloop
   endfacet
   facet normal 1.000000e+000 1.632681e-016 0.000000e+000
      outer loop
         vertex 1.830000e+002 1.699859e+002 3.632624e+001
         vertex 1.830000e+002 1.696892e+002 2.723085e+001
         vertex 1.830000e+002 3.200000e+002 3.500000e+001
      endloop
   endfacet
   facet normal 1.000000e+000 1.632681e-016 0.000000e+000
      outer loop
         vertex 1.830000e+002 3.200000e+002 3.500000e+001
         vertex 1.830000e+002 1.696892e+002 2.723085e+001
         vertex 1.830000e+002 1.697971e+002 2.711013e+001
      endloop
   endfacet
   facet normal 1.000000e+000 1.632681e-016 0.000000e+000
      outer loop
         vertex 1.830000e+002 3.200000e+002 3.500000e+001
         vertex 1.830000e+002 1.697971e+002 2.711013e+001
         vertex 1.830000e+002 1.698841e+002 2.697359e+001
      endloop
   endfacet
   facet normal 1.000000e+000 1.632681e-016 0.000000e+000
      outer loop
         vertex 1.830000e+002 1.600141e+002 2.745133e+001
         vertex 1.830000e+002 1.611118e+002 2.662509e+001
         vertex 1.830000e+002 1.600000e+002 2.761882e+001
      endloop
   endfacet
   facet normal 1.000000e+000 1.632681e-016 0.000000e+000
      outer loop
         vertex 1.830000e+002 1.600000e+002 2.761882e+001
         vertex 1.830000e+002 1.611118e+002 2.662509e+001
         vertex 1.830000e+002 1.688882e+002 2.750000e+001
      endloop
   endfacet
   facet normal 1.000000e+000 1.632681e-016 0.000000e+000
      outer loop
         vertex 1.830000e+002 1.600000e+002 2.761882e+001
         vertex 1.830000e+002 1.688882e+002 2.750000e+001
         vertex 1.830000e+002 1.600000e+002 3.538118e+001
      endloop
   endfacet
   facet normal 1.000000e+000 1.632681e-016 0.000000e+000
      outer loop
         vertex 1.830000e+002 1.600000e+002 3.538118e+001
         vertex 1.830000e+002 1.688882e+002 2.750000e+001
         vertex 1.830000e+002 1.688882e+002 3.550000e+001
      endloop
   endfacet
   facet normal 1.000000e+000 1.632681e-016 0.000000e+000
      outer loop
         vertex 1.830000e+002 1.600000e+002 3.538118e+001
         vertex 1.830000e+002 1.688882e+002 3.550000e+001
         vertex 1.830000e+002 1.611118e+002 3.637491e+001
      endloop
   endfacet
   facet normal 1.000000e+000 1.632681e-016 0.000000e+000
      outer loop
         vertex 1.830000e+002 1.601248e+002 2.713514e+001
         vertex 1.830000e+002 1.606172e+002 2.669498e+001
         vertex 1.830000e+002 1.607774e+002 2.664392e+001
      endloop
   endfacet
   facet normal 1.000000e+000 1.632681e-016 0.000000e+000
      outer loop
         vertex 1.830000e+002 1.602181e+002 3.600462e+001
         vertex 1.830000e+002 1.601248e+002 3.586486e+001
         vertex 1.830000e+002 1.611118e+002 3.637491e+001
      endloop
   endfacet
   facet normal 1.000000e+000 1.632681e-016 0.000000e+000
      outer loop
         vertex 1.830000e+002 1.611118e+002 3.637491e+001
         vertex 1.830000e+002 1.601248e+002 3.586486e+001
         vertex 1.830000e+002 1.600561e+002 3.571143e+001
      endloop
   endfacet
   facet normal 1.000000e+000 1.632681e-016 0.000000e+000
      outer loop
         vertex 1.830000e+002 1.611118e+002 3.637491e+001
         vertex 1.830000e+002 1.600561e+002 3.571143e+001
         vertex 1.830000e+002 1.600141e+002 3.554867e+001
      endloop
   endfacet
   facet normal 1.000000e+000 1.632681e-016 0.000000e+000
      outer loop
         vertex 1.830000e+002 1.602181e+002 2.699538e+001
         vertex 1.830000e+002 1.603336e+002 2.687323e+001
         vertex 1.830000e+002 1.601248e+002 2.713514e+001
      endloop
   endfacet
   facet normal 1.000000e+000 1.632681e-016 0.000000e+000
      outer loop
         vertex 1.830000e+002 1.601248e+002 2.713514e+001
         vertex 1.830000e+002 1.603336e+002 2.687323e+001
         vertex 1.830000e+002 1.604679e+002 2.677214e+001
      endloop
   endfacet
   facet normal 1.000000e+000 1.632681e-016 0.000000e+000
      outer loop
         vertex 1.830000e+002 1.601248e+002 2.713514e+001
         vertex 1.830000e+002 1.604679e+002 2.677214e+001
         vertex 1.830000e+002 1.606172e+002 2.669498e+001
      endloop
   endfacet
   facet normal 1.000000e+000 1.632681e-016 0.000000e+000
      outer loop
         vertex 1.830000e+002 1.600141e+002 2.745133e+001
         vertex 1.830000e+002 1.600561e+002 2.728857e+001
         vertex 1.830000e+002 1.611118e+002 2.662509e+001
      endloop
   endfacet
   facet normal 1.000000e+000 1.632681e-016 0.000000e+000
      outer loop
         vertex 1.830000e+002 1.611118e+002 2.662509e+001
         vertex 1.830000e+002 1.600561e+002 2.728857e+001
         vertex 1.830000e+002 1.601248e+002 2.713514e+001
      endloop
   endfacet
   facet normal 1.000000e+000 1.632681e-016 0.000000e+000
      outer loop
         vertex 1.830000e+002 1.611118e+002 2.662509e+001
         vertex 1.830000e+002 1.601248e+002 2.713514e+001
         vertex 1.830000e+002 1.609438e+002 2.662040e+001
      endloop
   endfacet
   facet normal 1.000000e+000 1.632681e-016 0.000000e+000
      outer loop
         vertex 1.830000e+002 1.609438e+002 2.662040e+001
         vertex 1.830000e+002 1.601248e+002 2.713514e+001
         vertex 1.830000e+002 1.607774e+002 2.664392e+001
      endloop
   endfacet
   facet normal 1.000000e+000 1.632681e-016 0.000000e+000
      outer loop
         vertex 1.830000e+002 1.606172e+002 3.630502e+001
         vertex 1.830000e+002 1.611118e+002 3.637491e+001
         vertex 1.830000e+002 1.607774e+002 3.635608e+001
      endloop
   endfacet
   facet normal 1.000000e+000 1.632681e-016 0.000000e+000
      outer loop
         vertex 1.830000e+002 1.607774e+002 3.635608e+001
         vertex 1.830000e+002 1.611118e+002 3.637491e+001
         vertex 1.830000e+002 1.609438e+002 3.637960e+001
      endloop
   endfacet
   facet normal 1.000000e+000 1.632681e-016 0.000000e+000
      outer loop
         vertex 1.830000e+002 1.606172e+002 3.630502e+001
         vertex 1.830000e+002 1.604679e+002 3.622785e+001
         vertex 1.830000e+002 1.611118e+002 3.637491e+001
      endloop
   endfacet
   facet normal 1.000000e+000 1.632681e-016 0.000000e+000
      outer loop
         vertex 1.830000e+002 1.611118e+002 3.637491e+001
         vertex 1.830000e+002 1.604679e+002 3.622785e+001
         vertex 1.830000e+002 1.603336e+002 3.612677e+001
      endloop
   endfacet
   facet normal 1.000000e+000 1.632681e-016 0.000000e+000
      outer loop
         vertex 1.830000e+002 1.611118e+002 3.637491e+001
         vertex 1.830000e+002 1.603336e+002 3.612677e+001
         vertex 1.830000e+002 1.602181e+002 3.600462e+001
      endloop
   endfacet
   facet normal 0.000000e+000 0.000000e+000 -1.000000e+000
      outer loop
         vertex 1.720000e+002 3.400000e+002 1.900000e+001
         vertex 1.830000e+002 3.400000e+002 1.900000e+001
         vertex 1.720000e+002 1.700000e+002 1.900000e+001
      endloop
   endfacet
   facet normal 0.000000e+000 0.000000e+000 -1.000000e+000
      outer loop
         vertex 1.720000e+002 1.700000e+002 1.900000e+001
         vertex 1.830000e+002 3.400000e+002 1.900000e+001
         vertex 1.830000e+002 1.700000e+002 1.900000e+001
      endloop
   endfacet
   facet normal 1.000000e+000 8.163404e-017 0.000000e+000
      outer loop
         vertex 1.720000e+002 3.400000e+002 1.000000e+001
         vertex 1.720000e+002 3.400000e+002 1.900000e+001
         vertex 1.720000e+002 1.700000e+002 1.900000e+001
      endloop
   endfacet
   facet normal 1.000000e+000 8.163404e-017 0.000000e+000
      outer loop
         vertex 1.720000e+002 1.700000e+002 1.900000e+001
         vertex 1.720000e+002 1.700000e+002 4.999999e+000
         vertex 1.720000e+002 1.750000e+002 0.000000e+000
      endloop
   endfacet
   facet normal 1.000000e+000 8.163404e-017 0.000000e+000
      outer loop
         vertex 1.720000e+002 1.750000e+002 0.000000e+000
         vertex 1.720000e+002 1.700000e+002 4.999999e+000
         vertex 1.720000e+002 1.700760e+002 4.131759e+000
      endloop
   endfacet
   facet normal 1.000000e+000 8.163404e-017 0.000000e+000
      outer loop
         vertex 1.720000e+002 3.317365e+002 1.519211e-001
         vertex 1.720000e+002 3.334202e+002 6.030723e-001
         vertex 1.720000e+002 3.400000e+002 1.000000e+001
      endloop
   endfacet
   facet normal 1.000000e+000 8.163404e-017 0.000000e+000
      outer loop
         vertex 1.720000e+002 1.700000e+002 1.900000e+001
         vertex 1.720000e+002 1.750000e+002 0.000000e+000
         vertex 1.720000e+002 3.400000e+002 1.000000e+001
      endloop
   endfacet
   facet normal 1.000000e+000 8.163404e-017 0.000000e+000
      outer loop
         vertex 1.720000e+002 3.400000e+002 1.000000e+001
         vertex 1.720000e+002 1.750000e+002 0.000000e+000
         vertex 1.720000e+002 3.300000e+002 0.000000e+000
      endloop
   endfacet
   facet normal 1.000000e+000 8.163404e-017 0.000000e+000
      outer loop
         vertex 1.720000e+002 3.400000e+002 1.000000e+001
         vertex 1.720000e+002 3.300000e+002 0.000000e+000
         vertex 1.720000e+002 3.317365e+002 1.519211e-001
      endloop
   endfacet
   facet normal 1.000000e+000 8.163404e-017 0.000000e+000
      outer loop
         vertex 1.720000e+002 3.386603e+002 4.999999e+000
         vertex 1.720000e+002 3.393969e+002 6.579798e+000
         vertex 1.720000e+002 3.376605e+002 3.572123e+000
      endloop
   endfacet
   facet normal 1.000000e+000 8.163404e-017 0.000000e+000
      outer loop
         vertex 1.720000e+002 3.376605e+002 3.572123e+000
         vertex 1.720000e+002 3.393969e+002 6.579798e+000
         vertex 1.720000e+002 3.364279e+002 2.339555e+000
      endloop
   endfacet
   facet normal 1.000000e+000 8.163404e-017 0.000000e+000
      outer loop
         vertex 1.720000e+002 3.334202e+002 6.030723e-001
         vertex 1.720000e+002 3.350000e+002 1.339745e+000
         vertex 1.720000e+002 3.400000e+002 1.000000e+001
      endloop
   endfacet
   facet normal 1.000000e+000 8.163404e-017 0.000000e+000
      outer loop
         vertex 1.720000e+002 3.400000e+002 1.000000e+001
         vertex 1.720000e+002 3.350000e+002 1.339745e+000
         vertex 1.720000e+002 3.364279e+002 2.339555e+000
      endloop
   endfacet
   facet normal 1.000000e+000 8.163404e-017 0.000000e+000
      outer loop
         vertex 1.720000e+002 3.400000e+002 1.000000e+001
         vertex 1.720000e+002 3.364279e+002 2.339555e+000
         vertex 1.720000e+002 3.398481e+002 8.263517e+000
      endloop
   endfacet
   facet normal 1.000000e+000 8.163404e-017 0.000000e+000
      outer loop
         vertex 1.720000e+002 3.398481e+002 8.263517e+000
         vertex 1.720000e+002 3.364279e+002 2.339555e+000
         vertex 1.720000e+002 3.393969e+002 6.579798e+000
      endloop
   endfacet
   facet normal 1.000000e+000 8.163404e-017 0.000000e+000
      outer loop
         vertex 1.720000e+002 1.711698e+002 1.786061e+000
         vertex 1.720000e+002 1.717861e+002 1.169777e+000
         vertex 1.720000e+002 1.706699e+002 2.500000e+000
      endloop
   endfacet
   facet normal 1.000000e+000 8.163404e-017 0.000000e+000
      outer loop
         vertex 1.720000e+002 1.706699e+002 2.500000e+000
         vertex 1.720000e+002 1.717861e+002 1.169777e+000
         vertex 1.720000e+002 1.725000e+002 6.698724e-001
      endloop
   endfacet
   facet normal 1.000000e+000 8.163404e-017 0.000000e+000
      outer loop
         vertex 1.720000e+002 1.706699e+002 2.500000e+000
         vertex 1.720000e+002 1.725000e+002 6.698724e-001
         vertex 1.720000e+002 1.732899e+002 3.015362e-001
      endloop
   endfacet
   facet normal 1.000000e+000 8.163404e-017 0.000000e+000
      outer loop
         vertex 1.720000e+002 1.700760e+002 4.131759e+000
         vertex 1.720000e+002 1.703015e+002 3.289899e+000
         vertex 1.720000e+002 1.750000e+002 0.000000e+000
      endloop
   endfacet
   facet normal 1.000000e+000 8.163404e-017 0.000000e+000
      outer loop
         vertex 1.720000e+002 1.750000e+002 0.000000e+000
         vertex 1.720000e+002 1.703015e+002 3.289899e+000
         vertex 1.720000e+002 1.706699e+002 2.500000e+000
      endloop
   endfacet
   facet normal 1.000000e+000 8.163404e-017 0.000000e+000
      outer loop
         vertex 1.720000e+002 1.750000e+002 0.000000e+000
         vertex 1.720000e+002 1.706699e+002 2.500000e+000
         vertex 1.720000e+002 1.741318e+002 7.596053e-002
      endloop
   endfacet
   facet normal 1.000000e+000 8.163404e-017 0.000000e+000
      outer loop
         vertex 1.720000e+002 1.741318e+002 7.596053e-002
         vertex 1.720000e+002 1.706699e+002 2.500000e+000
         vertex 1.720000e+002 1.732899e+002 3.015362e-001
      endloop
   endfacet
   facet normal 1.106348e-032 -1.275532e-016 1.000000e+000
      outer loop
         vertex 1.680000e+002 1.700000e+002 6.999999e+000
         vertex 1.680000e+002 3.395394e+002 6.999999e+000
         vertex 1.660000e+002 1.700000e+002 6.999999e+000
      endloop
   endfacet
   facet normal 1.106348e-032 -1.275532e-016 1.000000e+000
      outer loop
         vertex 1.660000e+002 1.700000e+002 6.999999e+000
         vertex 1.680000e+002 3.395394e+002 6.999999e+000
         vertex 1.660000e+002 3.395394e+002 6.999999e+000
      endloop
   endfacet
   facet normal -1.000000e+000 -1.039902e-016 -2.465190e-032
      outer loop
         vertex 1.660000e+002 3.386603e+002 4.999999e+000
         vertex 1.660000e+002 1.700000e+002 4.999999e+000
         vertex 1.660000e+002 3.393969e+002 6.579798e+000
      endloop
   endfacet
   facet normal -1.000000e+000 -1.039902e-016 -2.465190e-032
      outer loop
         vertex 1.660000e+002 3.393969e+002 6.579798e+000
         vertex 1.660000e+002 1.700000e+002 4.999999e+000
         vertex 1.660000e+002 1.700000e+002 6.999999e+000
      endloop
   endfacet
   facet normal -1.000000e+000 -1.039902e-016 -2.465190e-032
      outer loop
         vertex 1.660000e+002 3.393969e+002 6.579798e+000
         vertex 1.660000e+002 1.700000e+002 6.999999e+000
         vertex 1.660000e+002 3.395394e+002 6.999999e+000
      endloop
   endfacet
   facet normal 0.000000e+000 0.000000e+000 1.000000e+000
      outer loop
         vertex 1.830000e+002 3.300000e+002 4.500000e+001
         vertex 1.830000e+002 3.400000e+002 4.500000e+001
         vertex 1.680000e+002 3.300000e+002 4.500000e+001
      endloop
   endfacet
   facet normal 0.000000e+000 0.000000e+000 1.000000e+000
      outer loop
         vertex 1.680000e+002 3.300000e+002 4.500000e+001
         vertex 1.830000e+002 3.400000e+002 4.500000e+001
         vertex 1.680000e+002 3.400000e+002 4.500000e+001
      endloop
   endfacet
   facet normal 0.000000e+000 0.000000e+000 1.000000e+000
      outer loop
         vertex 1.830000e+002 3.200000e+002 4.500000e+001
         vertex 1.680000e+002 3.200000e+002 4.500000e+001
         vertex 1.830000e+002 1.700000e+002 4.500000e+001
      endloop
   endfacet
   facet normal 0.000000e+000 0.000000e+000 1.000000e+000
      outer loop
         vertex 1.830000e+002 1.700000e+002 4.500000e+001
         vertex 1.680000e+002 3.200000e+002 4.500000e+001
         vertex 1.680000e+002 1.700000e+002 4.500000e+001
      endloop
   endfacet
   facet normal -1.000000e+000 -8.673617e-017 0.000000e+000
      outer loop
         vertex 1.680000e+002 3.364279e+002 2.339555e+000
         vertex 1.680000e+002 3.350000e+002 1.339745e+000
         vertex 1.680000e+002 3.334202e+002 6.030723e-001
      endloop
   endfacet
   facet normal -1.000000e+000 -8.673617e-017 0.000000e+000
      outer loop
         vertex 1.680000e+002 3.386603e+002 4.999999e+000
         vertex 1.680000e+002 3.300000e+002 0.000000e+000
         vertex 1.680000e+002 1.700000e+002 4.999999e+000
      endloop
   endfacet
   facet normal -1.000000e+000 -8.673617e-017 0.000000e+000
      outer loop
         vertex 1.680000e+002 1.700000e+002 4.999999e+000
         vertex 1.680000e+002 3.300000e+002 0.000000e+000
         vertex 1.680000e+002 1.750000e+002 0.000000e+000
      endloop
   endfacet
   facet normal -1.000000e+000 -8.673617e-017 0.000000e+000
      outer loop
         vertex 1.680000e+002 1.700000e+002 4.999999e+000
         vertex 1.680000e+002 1.750000e+002 0.000000e+000
         vertex 1.680000e+002 1.700760e+002 4.131759e+000
      endloop
   endfacet
   facet normal -1.000000e+000 -8.673617e-017 0.000000e+000
      outer loop
         vertex 1.680000e+002 1.700760e+002 4.131759e+000
         vertex 1.680000e+002 1.750000e+002 0.000000e+000
         vertex 1.680000e+002 1.741318e+002 7.596053e-002
      endloop
   endfacet
   facet normal -1.000000e+000 -8.673617e-017 0.000000e+000
      outer loop
         vertex 1.680000e+002 3.386603e+002 4.999999e+000
         vertex 1.680000e+002 3.376605e+002 3.572123e+000
         vertex 1.680000e+002 3.300000e+002 0.000000e+000
      endloop
   endfacet
   facet normal -1.000000e+000 -8.673617e-017 0.000000e+000
      outer loop
         vertex 1.680000e+002 3.300000e+002 0.000000e+000
         vertex 1.680000e+002 3.376605e+002 3.572123e+000
         vertex 1.680000e+002 3.364279e+002 2.339555e+000
      endloop
   endfacet
   facet normal -1.000000e+000 -8.673617e-017 0.000000e+000
      outer loop
         vertex 1.680000e+002 3.300000e+002 0.000000e+000
         vertex 1.680000e+002 3.364279e+002 2.339555e+000
         vertex 1.680000e+002 3.317365e+002 1.519211e-001
      endloop
   endfacet
   facet normal -1.000000e+000 -8.673617e-017 0.000000e+000
      outer loop
         vertex 1.680000e+002 3.317365e+002 1.519211e-001
         vertex 1.680000e+002 3.364279e+002 2.339555e+000
         vertex 1.680000e+002 3.334202e+002 6.030723e-001
      endloop
   endfacet
   facet normal -1.000000e+000 -8.673617e-017 0.000000e+000
      outer loop
         vertex 1.680000e+002 1.706699e+002 2.500000e+000
         vertex 1.680000e+002 1.725000e+002 6.698724e-001
         vertex 1.680000e+002 1.711698e+002 1.786061e+000
      endloop
   endfacet
   facet normal -1.000000e+000 -8.673617e-017 0.000000e+000
      outer loop
         vertex 1.680000e+002 1.711698e+002 1.786061e+000
         vertex 1.680000e+002 1.725000e+002 6.698724e-001
         vertex 1.680000e+002 1.717861e+002 1.169777e+000
      endloop
   endfacet
   facet normal -1.000000e+000 -8.673617e-017 0.000000e+000
      outer loop
         vertex 1.680000e+002 1.741318e+002 7.596053e-002
         vertex 1.680000e+002 1.732899e+002 3.015362e-001
         vertex 1.680000e+002 1.700760e+002 4.131759e+000
      endloop
   endfacet
   facet normal -1.000000e+000 -8.673617e-017 0.000000e+000
      outer loop
         vertex 1.680000e+002 1.700760e+002 4.131759e+000
         vertex 1.680000e+002 1.732899e+002 3.015362e-001
         vertex 1.680000e+002 1.725000e+002 6.698724e-001
      endloop
   endfacet
   facet normal -1.000000e+000 -8.673617e-017 0.000000e+000
      outer loop
         vertex 1.680000e+002 1.700760e+002 4.131759e+000
         vertex 1.680000e+002 1.725000e+002 6.698724e-001
         vertex 1.680000e+002 1.703015e+002 3.289899e+000
      endloop
   endfacet
   facet normal -1.000000e+000 -8.673617e-017 0.000000e+000
      outer loop
         vertex 1.680000e+002 1.703015e+002 3.289899e+000
         vertex 1.680000e+002 1.725000e+002 6.698724e-001
         vertex 1.680000e+002 1.706699e+002 2.500000e+000
      endloop
   endfacet
   facet normal -1.224647e-016 1.000000e+000 0.000000e+000
      outer loop
         vertex 1.720000e+002 3.400000e+002 1.000000e+001
         vertex 1.680000e+002 3.400000e+002 1.000000e+001
         vertex 1.720000e+002 3.400000e+002 1.900000e+001
      endloop
   endfacet
   facet normal -1.224647e-016 1.000000e+000 0.000000e+000
      outer loop
         vertex 1.720000e+002 3.400000e+002 1.900000e+001
         vertex 1.680000e+002 3.400000e+002 1.000000e+001
         vertex 1.680000e+002 3.400000e+002 4.500000e+001
      endloop
   endfacet
   facet normal -1.224647e-016 1.000000e+000 0.000000e+000
      outer loop
         vertex 1.720000e+002 3.400000e+002 1.900000e+001
         vertex 1.680000e+002 3.400000e+002 4.500000e+001
         vertex 1.830000e+002 3.400000e+002 1.900000e+001
      endloop
   endfacet
   facet normal -1.224647e-016 1.000000e+000 0.000000e+000
      outer loop
         vertex 1.830000e+002 3.400000e+002 1.900000e+001
         vertex 1.680000e+002 3.400000e+002 4.500000e+001
         vertex 1.830000e+002 3.400000e+002 4.500000e+001
      endloop
   endfacet
   facet normal -1.094348e-016 8.936031e-001 -4.488580e-001
      outer loop
         vertex 1.680000e+002 3.386603e+002 4.999999e+000
         vertex 1.660000e+002 3.386603e+002 4.999999e+000
         vertex 1.660000e+002 3.393969e+002 6.579798e+000
      endloop
   endfacet
   facet normal -7.112642e-018 5.807913e-002 -9.983119e-001
      outer loop
         vertex 1.720000e+002 3.300000e+002 0.000000e+000
         vertex 1.680000e+002 3.300000e+002 0.000000e+000
         vertex 1.680000e+002 3.317365e+002 1.519211e-001
      endloop
   endfacet
   facet normal -1.222580e-016 9.983119e-001 -5.807913e-002
      outer loop
         vertex 1.680000e+002 3.400000e+002 1.000000e+001
         vertex 1.720000e+002 3.400000e+002 1.000000e+001
         vertex 1.720000e+002 3.398481e+002 8.263517e+000
      endloop
   endfacet
   facet normal -1.162677e-016 9.493980e-001 -3.140754e-001
      outer loop
         vertex 1.660000e+002 3.393969e+002 6.579798e+000
         vertex 1.660000e+002 3.395394e+002 6.999999e+000
         vertex 1.680000e+002 3.395394e+002 6.999999e+000
      endloop
   endfacet
   facet normal -1.422529e-017 1.161583e-001 -9.932307e-001
      outer loop
         vertex 1.720000e+002 3.300000e+002 0.000000e+000
         vertex 1.680000e+002 3.317365e+002 1.519211e-001
         vertex 1.720000e+002 3.317365e+002 1.519211e-001
      endloop
   endfacet
   facet normal -1.422529e-017 2.305519e-001 -9.730600e-001
      outer loop
         vertex 1.720000e+002 3.317365e+002 1.519211e-001
         vertex 1.680000e+002 3.317365e+002 1.519211e-001
         vertex 1.680000e+002 3.334202e+002 6.030723e-001
      endloop
   endfacet
   facet normal -2.112181e-017 2.868663e-001 -9.579706e-001
      outer loop
         vertex 1.720000e+002 3.317365e+002 1.519211e-001
         vertex 1.680000e+002 3.334202e+002 6.030723e-001
         vertex 1.720000e+002 3.334202e+002 6.030723e-001
      endloop
   endfacet
   facet normal -1.400917e-017 3.960194e-001 -9.182422e-001
      outer loop
         vertex 1.720000e+002 3.334202e+002 6.030723e-001
         vertex 1.680000e+002 3.334202e+002 6.030723e-001
         vertex 1.680000e+002 3.350000e+002 1.339745e+000
      endloop
   endfacet
   facet normal -3.448921e-017 4.488580e-001 -8.936031e-001
      outer loop
         vertex 1.720000e+002 3.334202e+002 6.030723e-001
         vertex 1.680000e+002 3.350000e+002 1.339745e+000
         vertex 1.720000e+002 3.350000e+002 1.339745e+000
      endloop
   endfacet
   facet normal -2.048004e-017 5.494540e-001 -8.355240e-001
      outer loop
         vertex 1.720000e+002 3.350000e+002 1.339745e+000
         vertex 1.680000e+002 3.350000e+002 1.339745e+000
         vertex 1.680000e+002 3.364279e+002 2.339555e+000
      endloop
   endfacet
   facet normal -4.680867e-017 5.972114e-001 -8.020838e-001
      outer loop
         vertex 1.720000e+002 3.350000e+002 1.339745e+000
         vertex 1.680000e+002 3.364279e+002 2.339555e+000
         vertex 1.720000e+002 3.364279e+002 2.339555e+000
      endloop
   endfacet
   facet normal -2.632863e-017 6.861938e-001 -7.274188e-001
      outer loop
         vertex 1.720000e+002 3.364279e+002 2.339555e+000
         vertex 1.680000e+002 3.364279e+002 2.339555e+000
         vertex 1.680000e+002 3.376605e+002 3.572123e+000
      endloop
   endfacet
   facet normal -5.770587e-017 7.274188e-001 -6.861938e-001
      outer loop
         vertex 1.720000e+002 3.364279e+002 2.339555e+000
         vertex 1.680000e+002 3.376605e+002 3.572123e+000
         vertex 1.720000e+002 3.376605e+002 3.572123e+000
      endloop
   endfacet
   facet normal -6.684970e-017 8.020838e-001 -5.972114e-001
      outer loop
         vertex 1.720000e+002 3.376605e+002 3.572123e+000
         vertex 1.680000e+002 3.376605e+002 3.572123e+000
         vertex 1.680000e+002 3.386603e+002 4.999999e+000
      endloop
   endfacet
   facet normal -1.023222e-016 8.355240e-001 -5.494540e-001
      outer loop
         vertex 1.720000e+002 3.376605e+002 3.572123e+000
         vertex 1.680000e+002 3.386603e+002 4.999999e+000
         vertex 1.720000e+002 3.386603e+002 4.999999e+000
      endloop
   endfacet
   facet normal -1.094348e-016 8.936031e-001 -4.488580e-001
      outer loop
         vertex 1.720000e+002 3.386603e+002 4.999999e+000
         vertex 1.680000e+002 3.386603e+002 4.999999e+000
         vertex 1.660000e+002 3.393969e+002 6.579798e+000
      endloop
   endfacet
   facet normal -1.124522e-016 9.182422e-001 -3.960194e-001
      outer loop
         vertex 1.720000e+002 3.386603e+002 4.999999e+000
         vertex 1.660000e+002 3.393969e+002 6.579798e+000
         vertex 1.720000e+002 3.393969e+002 6.579798e+000
      endloop
   endfacet
   facet normal -1.156860e-016 9.446481e-001 -3.280852e-001
      outer loop
         vertex 1.720000e+002 3.393969e+002 6.579798e+000
         vertex 1.660000e+002 3.393969e+002 6.579798e+000
         vertex 1.680000e+002 3.395394e+002 6.999999e+000
      endloop
   endfacet
   facet normal -1.178254e-016 9.621171e-001 -2.726368e-001
      outer loop
         vertex 1.720000e+002 3.393969e+002 6.579798e+000
         vertex 1.680000e+002 3.395394e+002 6.999999e+000
         vertex 1.720000e+002 3.398481e+002 8.263517e+000
      endloop
   endfacet
   facet normal -1.195690e-016 9.763553e-001 -2.161722e-001
      outer loop
         vertex 1.720000e+002 3.398481e+002 8.263517e+000
         vertex 1.680000e+002 3.395394e+002 6.999999e+000
         vertex 1.680000e+002 3.398481e+002 8.263517e+000
      endloop
   endfacet
   facet normal -1.216357e-016 9.932307e-001 -1.161583e-001
      outer loop
         vertex 1.720000e+002 3.398481e+002 8.263517e+000
         vertex 1.680000e+002 3.398481e+002 8.263517e+000
         vertex 1.680000e+002 3.400000e+002 1.000000e+001
      endloop
   endfacet
   facet normal 0.000000e+000 0.000000e+000 -1.000000e+000
      outer loop
         vertex 1.680000e+002 1.750000e+002 0.000000e+000
         vertex 1.680000e+002 3.300000e+002 0.000000e+000
         vertex 1.720000e+002 1.750000e+002 0.000000e+000
      endloop
   endfacet
   facet normal 0.000000e+000 0.000000e+000 -1.000000e+000
      outer loop
         vertex 1.720000e+002 1.750000e+002 0.000000e+000
         vertex 1.680000e+002 3.300000e+002 0.000000e+000
         vertex 1.720000e+002 3.300000e+002 0.000000e+000
      endloop
   endfacet
   facet normal 8.673617e-017 -1.000000e+000 0.000000e+000
      outer loop
         vertex 1.680000e+002 3.300000e+002 3.500000e+001
         vertex 1.830000e+002 3.300000e+002 3.500000e+001
         vertex 1.680000e+002 3.300000e+002 4.500000e+001
      endloop
   endfacet
   facet normal 8.673617e-017 -1.000000e+000 0.000000e+000
      outer loop
         vertex 1.680000e+002 3.300000e+002 4.500000e+001
         vertex 1.830000e+002 3.300000e+002 3.500000e+001
         vertex 1.830000e+002 3.300000e+002 4.500000e+001
      endloop
   endfacet
   facet normal -8.673617e-017 1.000000e+000 -3.469447e-016
      outer loop
         vertex 1.680000e+002 3.200000e+002 4.500000e+001
         vertex 1.830000e+002 3.200000e+002 4.500000e+001
         vertex 1.680000e+002 3.200000e+002 3.500000e+001
      endloop
   endfacet
   facet normal -8.673617e-017 1.000000e+000 -3.469447e-016
      outer loop
         vertex 1.680000e+002 3.200000e+002 3.500000e+001
         vertex 1.830000e+002 3.200000e+002 4.500000e+001
         vertex 1.830000e+002 3.200000e+002 3.500000e+001
      endloop
   endfacet
   facet normal 0.000000e+000 0.000000e+000 1.000000e+000
      outer loop
         vertex 1.680000e+002 3.300000e+002 3.500000e+001
         vertex 1.680000e+002 3.200000e+002 3.500000e+001
         vertex 1.830000e+002 3.300000e+002 3.500000e+001
      endloop
   endfacet
   facet normal 0.000000e+000 0.000000e+000 1.000000e+000
      outer loop
         vertex 1.830000e+002 3.300000e+002 3.500000e+001
         vertex 1.680000e+002 3.200000e+002 3.500000e+001
         vertex 1.830000e+002 3.200000e+002 3.500000e+001
      endloop
   endfacet
   facet normal 0.000000e+000 0.000000e+000 -1.000000e+000
      outer loop
         vertex 1.660000e+002 3.386603e+002 4.999999e+000
         vertex 1.680000e+002 3.386603e+002 4.999999e+000
         vertex 1.660000e+002 1.700000e+002 4.999999e+000
      endloop
   endfacet
   facet normal 0.000000e+000 0.000000e+000 -1.000000e+000
      outer loop
         vertex 1.660000e+002 1.700000e+002 4.999999e+000
         vertex 1.680000e+002 3.386603e+002 4.999999e+000
         vertex 1.680000e+002 1.700000e+002 4.999999e+000
      endloop
   endfacet
   facet normal 2.212695e-033 -2.551064e-017 -1.000000e+000
      outer loop
         vertex 1.830000e+002 1.688882e+002 2.750000e+001
         vertex 1.680000e+002 1.688882e+002 2.750000e+001
         vertex 1.830000e+002 1.691118e+002 2.750000e+001
      endloop
   endfacet
   facet normal 2.212695e-033 -2.551064e-017 -1.000000e+000
      outer loop
         vertex 1.830000e+002 1.691118e+002 2.750000e+001
         vertex 1.680000e+002 1.688882e+002 2.750000e+001
         vertex 1.680000e+002 1.691118e+002 2.750000e+001
      endloop
   endfacet
   facet normal 8.660985e-017 -9.985437e-001 -5.394921e-002
      outer loop
         vertex 1.680000e+002 1.700000e+002 2.650627e+001
         vertex 1.830000e+002 1.700000e+002 2.650627e+001
         vertex 1.680000e+002 1.699869e+002 2.666764e+001
      endloop
   endfacet
   facet normal 8.622980e-017 -9.941619e-001 -1.078984e-001
      outer loop
         vertex 1.680000e+002 1.699869e+002 2.666764e+001
         vertex 1.830000e+002 1.700000e+002 2.650627e+001
         vertex 1.830000e+002 1.699869e+002 2.666764e+001
      endloop
   endfacet
   facet normal 8.471954e-017 -9.767497e-001 -2.143826e-001
      outer loop
         vertex 1.680000e+002 1.699869e+002 2.666764e+001
         vertex 1.830000e+002 1.699869e+002 2.666764e+001
         vertex 1.680000e+002 1.699479e+002 2.682479e+001
      endloop
   endfacet
   facet normal 8.358933e-017 -9.637193e-001 -2.669176e-001
      outer loop
         vertex 1.680000e+002 1.699479e+002 2.682479e+001
         vertex 1.830000e+002 1.699869e+002 2.666764e+001
         vertex 1.830000e+002 1.699479e+002 2.682479e+001
      endloop
   endfacet
   facet normal 8.060839e-017 -9.293514e-001 -3.691963e-001
      outer loop
         vertex 1.680000e+002 1.699479e+002 2.682479e+001
         vertex 1.830000e+002 1.699479e+002 2.682479e+001
         vertex 1.680000e+002 1.698841e+002 2.697359e+001
      endloop
   endfacet
   facet normal 7.875765e-017 -9.080139e-001 -4.189399e-001
      outer loop
         vertex 1.680000e+002 1.698841e+002 2.697359e+001
         vertex 1.830000e+002 1.699479e+002 2.682479e+001
         vertex 1.830000e+002 1.698841e+002 2.697359e+001
      endloop
   endfacet
   facet normal 7.438418e-017 -8.575912e-001 -5.143318e-001
      outer loop
         vertex 1.680000e+002 1.698841e+002 2.697359e+001
         vertex 1.830000e+002 1.698841e+002 2.697359e+001
         vertex 1.680000e+002 1.697971e+002 2.711013e+001
      endloop
   endfacet
   facet normal 7.186144e-017 -8.285061e-001 -5.599802e-001
      outer loop
         vertex 1.680000e+002 1.697971e+002 2.711013e+001
         vertex 1.830000e+002 1.698841e+002 2.697359e+001
         vertex 1.830000e+002 1.697971e+002 2.711013e+001
      endloop
   endfacet
   facet normal 6.621009e-017 -7.633503e-001 -6.459848e-001
      outer loop
         vertex 1.680000e+002 1.697971e+002 2.711013e+001
         vertex 1.830000e+002 1.697971e+002 2.711013e+001
         vertex 1.680000e+002 1.696892e+002 2.723085e+001
      endloop
   endfacet
   facet normal 6.308146e-017 -7.272798e-001 -6.863410e-001
      outer loop
         vertex 1.680000e+002 1.696892e+002 2.723085e+001
         vertex 1.830000e+002 1.697971e+002 2.711013e+001
         vertex 1.830000e+002 1.696892e+002 2.723085e+001
      endloop
   endfacet
   facet normal 5.630037e-017 -6.490991e-001 -7.607039e-001
      outer loop
         vertex 1.680000e+002 1.696892e+002 2.723085e+001
         vertex 1.830000e+002 1.696892e+002 2.723085e+001
         vertex 1.680000e+002 1.695632e+002 2.733257e+001
      endloop
   endfacet
   facet normal 5.264788e-017 -6.069887e-001 -7.947105e-001
      outer loop
         vertex 1.680000e+002 1.695632e+002 2.733257e+001
         vertex 1.830000e+002 1.696892e+002 2.723085e+001
         vertex 1.830000e+002 1.695632e+002 2.733257e+001
      endloop
   endfacet
   facet normal 4.491479e-017 -5.178323e-001 -8.554822e-001
      outer loop
         vertex 1.680000e+002 1.695632e+002 2.733257e+001
         vertex 1.830000e+002 1.695632e+002 2.733257e+001
         vertex 1.680000e+002 1.694225e+002 2.741263e+001
      endloop
   endfacet
   facet normal 4.083418e-017 -4.707861e-001 -8.822474e-001
      outer loop
         vertex 1.680000e+002 1.694225e+002 2.741263e+001
         vertex 1.830000e+002 1.695632e+002 2.733257e+001
         vertex 1.830000e+002 1.694225e+002 2.741263e+001
      endloop
   endfacet
   facet normal 3.235183e-017 -3.729912e-001 -9.278349e-001
      outer loop
         vertex 1.680000e+002 1.694225e+002 2.741263e+001
         vertex 1.830000e+002 1.694225e+002 2.741263e+001
         vertex 1.680000e+002 1.692707e+002 2.746893e+001
      endloop
   endfacet
   facet normal 2.795008e-017 -3.222425e-001 -9.466572e-001
      outer loop
         vertex 1.680000e+002 1.692707e+002 2.746893e+001
         vertex 1.830000e+002 1.694225e+002 2.741263e+001
         vertex 1.830000e+002 1.692707e+002 2.746893e+001
      endloop
   endfacet
   facet normal 1.894080e-017 -2.183726e-001 -9.758655e-001
      outer loop
         vertex 1.680000e+002 1.692707e+002 2.746893e+001
         vertex 1.830000e+002 1.692707e+002 2.746893e+001
         vertex 1.680000e+002 1.691118e+002 2.750000e+001
      endloop
   endfacet
   facet normal 1.433328e-017 -1.652515e-001 -9.862515e-001
      outer loop
         vertex 1.680000e+002 1.691118e+002 2.750000e+001
         vertex 1.830000e+002 1.692707e+002 2.746893e+001
         vertex 1.830000e+002 1.691118e+002 2.750000e+001
      endloop
   endfacet
   facet normal 8.673617e-017 -1.000000e+000 0.000000e+000
      outer loop
         vertex 1.830000e+002 1.700000e+002 4.500000e+001
         vertex 1.680000e+002 1.700000e+002 4.500000e+001
         vertex 1.830000e+002 1.700000e+002 3.649373e+001
      endloop
   endfacet
   facet normal 8.673617e-017 -1.000000e+000 0.000000e+000
      outer loop
         vertex 1.830000e+002 1.700000e+002 3.649373e+001
         vertex 1.680000e+002 1.700000e+002 4.500000e+001
         vertex 1.680000e+002 1.700000e+002 3.649373e+001
      endloop
   endfacet
   facet normal -4.854871e-018 5.597286e-002 9.984323e-001
      outer loop
         vertex 1.680000e+002 1.688882e+002 3.550000e+001
         vertex 1.830000e+002 1.688882e+002 3.550000e+001
         vertex 1.680000e+002 1.690562e+002 3.549531e+001
      endloop
   endfacet
   facet normal 1.823960e-020 -2.102907e-004 9.999999e-001
      outer loop
         vertex 1.680000e+002 1.690562e+002 3.549531e+001
         vertex 1.830000e+002 1.688882e+002 3.550000e+001
         vertex 1.830000e+002 1.690562e+002 3.549531e+001
      endloop
   endfacet
   facet normal 9.718398e-018 -1.120455e-001 9.937031e-001
      outer loop
         vertex 1.680000e+002 1.690562e+002 3.549531e+001
         vertex 1.830000e+002 1.690562e+002 3.549531e+001
         vertex 1.680000e+002 1.692227e+002 3.551883e+001
      endloop
   endfacet
   facet normal 1.454544e-017 -1.676976e-001 9.858385e-001
      outer loop
         vertex 1.680000e+002 1.692227e+002 3.551883e+001
         vertex 1.830000e+002 1.690562e+002 3.549531e+001
         vertex 1.830000e+002 1.692227e+002 3.551883e+001
      endloop
   endfacet
   facet normal 2.401710e-017 -2.768983e-001 9.608992e-001
      outer loop
         vertex 1.680000e+002 1.692227e+002 3.551883e+001
         vertex 1.830000e+002 1.692227e+002 3.551883e+001
         vertex 1.680000e+002 1.693828e+002 3.556989e+001
      endloop
   endfacet
   facet normal 2.866170e-017 -3.304469e-001 9.438246e-001
      outer loop
         vertex 1.680000e+002 1.693828e+002 3.556989e+001
         vertex 1.830000e+002 1.692227e+002 3.551883e+001
         vertex 1.830000e+002 1.693828e+002 3.556989e+001
      endloop
   endfacet
   facet normal 3.763725e-017 -4.339280e-001 9.009476e-001
      outer loop
         vertex 1.680000e+002 1.693828e+002 3.556989e+001
         vertex 1.830000e+002 1.693828e+002 3.556989e+001
         vertex 1.680000e+002 1.695321e+002 3.564706e+001
      endloop
   endfacet
   facet normal 4.196820e-017 -4.838604e-001 8.751452e-001
      outer loop
         vertex 1.680000e+002 1.695321e+002 3.564706e+001
         vertex 1.830000e+002 1.693828e+002 3.556989e+001
         vertex 1.830000e+002 1.695321e+002 3.564706e+001
      endloop
   endfacet
   facet normal 5.019407e-017 -5.786982e-001 8.155419e-001
      outer loop
         vertex 1.680000e+002 1.695321e+002 3.564706e+001
         vertex 1.830000e+002 1.695321e+002 3.564706e+001
         vertex 1.680000e+002 1.696664e+002 3.574814e+001
      endloop
   endfacet
   facet normal 5.408898e-017 -6.236035e-001 7.817408e-001
      outer loop
         vertex 1.680000e+002 1.696664e+002 3.574814e+001
         vertex 1.830000e+002 1.695321e+002 3.564706e+001
         vertex 1.830000e+002 1.696664e+002 3.574814e+001
      endloop
   endfacet
   facet normal 6.133276e-017 -7.071186e-001 7.070950e-001
      outer loop
         vertex 1.680000e+002 1.696664e+002 3.574814e+001
         vertex 1.830000e+002 1.696664e+002 3.574814e+001
         vertex 1.680000e+002 1.697819e+002 3.587029e+001
      endloop
   endfacet
   facet normal 6.468162e-017 -7.457283e-001 6.662502e-001
      outer loop
         vertex 1.680000e+002 1.697819e+002 3.587029e+001
         vertex 1.830000e+002 1.696664e+002 3.574814e+001
         vertex 1.830000e+002 1.697819e+002 3.587029e+001
      endloop
   endfacet
   facet normal 7.073865e-017 -8.155611e-001 5.786709e-001
      outer loop
         vertex 1.680000e+002 1.697819e+002 3.587029e+001
         vertex 1.830000e+002 1.697819e+002 3.587029e+001
         vertex 1.680000e+002 1.698752e+002 3.601005e+001
      endloop
   endfacet
   facet normal 7.344684e-017 -8.467844e-001 5.319364e-001
      outer loop
         vertex 1.680000e+002 1.698752e+002 3.601005e+001
         vertex 1.830000e+002 1.697819e+002 3.587029e+001
         vertex 1.830000e+002 1.698752e+002 3.601005e+001
      endloop
   endfacet
   facet normal 7.814600e-017 -9.009621e-001 4.338979e-001
      outer loop
         vertex 1.680000e+002 1.698752e+002 3.601005e+001
         vertex 1.830000e+002 1.698752e+002 3.601005e+001
         vertex 1.680000e+002 1.699439e+002 3.616348e+001
      endloop
   endfacet
   facet normal 8.013699e-017 -9.239166e-001 3.825940e-001
      outer loop
         vertex 1.680000e+002 1.699439e+002 3.616348e+001
         vertex 1.830000e+002 1.698752e+002 3.601005e+001
         vertex 1.830000e+002 1.699439e+002 3.616348e+001
      endloop
   endfacet
   facet normal 8.334553e-017 -9.609085e-001 2.768662e-001
      outer loop
         vertex 1.680000e+002 1.699439e+002 3.616348e+001
         vertex 1.830000e+002 1.699439e+002 3.616348e+001
         vertex 1.680000e+002 1.699859e+002 3.632624e+001
      endloop
   endfacet
   facet normal 8.456307e-017 -9.749458e-001 2.224424e-001
      outer loop
         vertex 1.680000e+002 1.699859e+002 3.632624e+001
         vertex 1.830000e+002 1.699439e+002 3.616348e+001
         vertex 1.830000e+002 1.699859e+002 3.632624e+001
      endloop
   endfacet
   facet normal 8.619033e-017 -9.937068e-001 1.120123e-001
      outer loop
         vertex 1.680000e+002 1.699859e+002 3.632624e+001
         vertex 1.830000e+002 1.699859e+002 3.632624e+001
         vertex 1.680000e+002 1.700000e+002 3.649373e+001
      endloop
   endfacet
   facet normal 8.660003e-017 -9.984304e-001 5.600617e-002
      outer loop
         vertex 1.680000e+002 1.700000e+002 3.649373e+001
         vertex 1.830000e+002 1.699859e+002 3.632624e+001
         vertex 1.830000e+002 1.700000e+002 3.649373e+001
      endloop
   endfacet
   facet normal -9.697396e-018 1.118034e-001 9.937304e-001
      outer loop
         vertex 1.830000e+002 1.611118e+002 3.637491e+001
         vertex 1.830000e+002 1.688882e+002 3.550000e+001
         vertex 1.680000e+002 1.611118e+002 3.637491e+001
      endloop
   endfacet
   facet normal -9.697396e-018 1.118034e-001 9.937304e-001
      outer loop
         vertex 1.680000e+002 1.611118e+002 3.637491e+001
         vertex 1.830000e+002 1.688882e+002 3.550000e+001
         vertex 1.680000e+002 1.688882e+002 3.550000e+001
      endloop
   endfacet
   facet normal 8.660003e-017 -9.984304e-001 5.600617e-002
      outer loop
         vertex 1.680000e+002 1.600000e+002 3.538118e+001
         vertex 1.830000e+002 1.600000e+002 3.538118e+001
         vertex 1.830000e+002 1.600141e+002 3.554867e+001
      endloop
   endfacet
   facet normal 8.619033e-017 -9.937068e-001 1.120123e-001
      outer loop
         vertex 1.680000e+002 1.600000e+002 3.538118e+001
         vertex 1.830000e+002 1.600141e+002 3.554867e+001
         vertex 1.680000e+002 1.600141e+002 3.554867e+001
      endloop
   endfacet
   facet normal 8.456307e-017 -9.749458e-001 2.224424e-001
      outer loop
         vertex 1.680000e+002 1.600141e+002 3.554867e+001
         vertex 1.830000e+002 1.600141e+002 3.554867e+001
         vertex 1.830000e+002 1.600561e+002 3.571143e+001
      endloop
   endfacet
   facet normal 8.334551e-017 -9.609085e-001 2.768662e-001
      outer loop
         vertex 1.680000e+002 1.600141e+002 3.554867e+001
         vertex 1.830000e+002 1.600561e+002 3.571143e+001
         vertex 1.680000e+002 1.600561e+002 3.571143e+001
      endloop
   endfacet
   facet normal 8.013699e-017 -9.239166e-001 3.825940e-001
      outer loop
         vertex 1.680000e+002 1.600561e+002 3.571143e+001
         vertex 1.830000e+002 1.600561e+002 3.571143e+001
         vertex 1.830000e+002 1.601248e+002 3.586486e+001
      endloop
   endfacet
   facet normal 7.814600e-017 -9.009621e-001 4.338979e-001
      outer loop
         vertex 1.680000e+002 1.600561e+002 3.571143e+001
         vertex 1.830000e+002 1.601248e+002 3.586486e+001
         vertex 1.680000e+002 1.601248e+002 3.586486e+001
      endloop
   endfacet
   facet normal 7.344684e-017 -8.467844e-001 5.319364e-001
      outer loop
         vertex 1.680000e+002 1.601248e+002 3.586486e+001
         vertex 1.830000e+002 1.601248e+002 3.586486e+001
         vertex 1.830000e+002 1.602181e+002 3.600462e+001
      endloop
   endfacet
   facet normal 7.073865e-017 -8.155611e-001 5.786709e-001
      outer loop
         vertex 1.680000e+002 1.601248e+002 3.586486e+001
         vertex 1.830000e+002 1.602181e+002 3.600462e+001
         vertex 1.680000e+002 1.602181e+002 3.600462e+001
      endloop
   endfacet
   facet normal 6.468162e-017 -7.457283e-001 6.662502e-001
      outer loop
         vertex 1.680000e+002 1.602181e+002 3.600462e+001
         vertex 1.830000e+002 1.602181e+002 3.600462e+001
         vertex 1.830000e+002 1.603336e+002 3.612677e+001
      endloop
   endfacet
   facet normal 6.133276e-017 -7.071186e-001 7.070949e-001
      outer loop
         vertex 1.680000e+002 1.602181e+002 3.600462e+001
         vertex 1.830000e+002 1.603336e+002 3.612677e+001
         vertex 1.680000e+002 1.603336e+002 3.612677e+001
      endloop
   endfacet
   facet normal 5.408898e-017 -6.236035e-001 7.817408e-001
      outer loop
         vertex 1.680000e+002 1.603336e+002 3.612677e+001
         vertex 1.830000e+002 1.603336e+002 3.612677e+001
         vertex 1.830000e+002 1.604679e+002 3.622785e+001
      endloop
   endfacet
   facet normal 5.019406e-017 -5.786982e-001 8.155419e-001
      outer loop
         vertex 1.680000e+002 1.603336e+002 3.612677e+001
         vertex 1.830000e+002 1.604679e+002 3.622785e+001
         vertex 1.680000e+002 1.604679e+002 3.622785e+001
      endloop
   endfacet
   facet normal 4.196820e-017 -4.838604e-001 8.751452e-001
      outer loop
         vertex 1.680000e+002 1.604679e+002 3.622785e+001
         vertex 1.830000e+002 1.604679e+002 3.622785e+001
         vertex 1.830000e+002 1.606172e+002 3.630502e+001
      endloop
   endfacet
   facet normal 3.763725e-017 -4.339280e-001 9.009476e-001
      outer loop
         vertex 1.680000e+002 1.604679e+002 3.622785e+001
         vertex 1.830000e+002 1.606172e+002 3.630502e+001
         vertex 1.680000e+002 1.606172e+002 3.630502e+001
      endloop
   endfacet
   facet normal 2.866171e-017 -3.304469e-001 9.438246e-001
      outer loop
         vertex 1.680000e+002 1.606172e+002 3.630502e+001
         vertex 1.830000e+002 1.606172e+002 3.630502e+001
         vertex 1.830000e+002 1.607774e+002 3.635608e+001
      endloop
   endfacet
   facet normal 2.401710e-017 -2.768983e-001 9.608992e-001
      outer loop
         vertex 1.680000e+002 1.606172e+002 3.630502e+001
         vertex 1.830000e+002 1.607774e+002 3.635608e+001
         vertex 1.680000e+002 1.607774e+002 3.635608e+001
      endloop
   endfacet
   facet normal 1.454544e-017 -1.676976e-001 9.858385e-001
      outer loop
         vertex 1.680000e+002 1.607774e+002 3.635608e+001
         vertex 1.830000e+002 1.607774e+002 3.635608e+001
         vertex 1.830000e+002 1.609438e+002 3.637960e+001
      endloop
   endfacet
   facet normal 9.718399e-018 -1.120455e-001 9.937031e-001
      outer loop
         vertex 1.680000e+002 1.607774e+002 3.635608e+001
         vertex 1.830000e+002 1.609438e+002 3.637960e+001
         vertex 1.680000e+002 1.609438e+002 3.637960e+001
      endloop
   endfacet
   facet normal 1.823960e-020 -2.102907e-004 9.999999e-001
      outer loop
         vertex 1.680000e+002 1.609438e+002 3.637960e+001
         vertex 1.830000e+002 1.609438e+002 3.637960e+001
         vertex 1.830000e+002 1.611118e+002 3.637491e+001
      endloop
   endfacet
   facet normal -4.854871e-018 5.597286e-002 9.984323e-001
      outer loop
         vertex 1.680000e+002 1.609438e+002 3.637960e+001
         vertex 1.830000e+002 1.611118e+002 3.637491e+001
         vertex 1.680000e+002 1.611118e+002 3.637491e+001
      endloop
   endfacet
   facet normal 8.673617e-017 -1.000000e+000 0.000000e+000
      outer loop
         vertex 1.830000e+002 1.600000e+002 2.761882e+001
         vertex 1.830000e+002 1.600000e+002 3.538118e+001
         vertex 1.680000e+002 1.600000e+002 2.761882e+001
      endloop
   endfacet
   facet normal 8.673617e-017 -1.000000e+000 0.000000e+000
      outer loop
         vertex 1.680000e+002 1.600000e+002 2.761882e+001
         vertex 1.830000e+002 1.600000e+002 3.538118e+001
         vertex 1.680000e+002 1.600000e+002 3.538118e+001
      endloop
   endfacet
   facet normal -4.854871e-018 5.597286e-002 -9.984323e-001
      outer loop
         vertex 1.680000e+002 1.611118e+002 2.662509e+001
         vertex 1.830000e+002 1.611118e+002 2.662509e+001
         vertex 1.830000e+002 1.609438e+002 2.662040e+001
      endloop
   endfacet
   facet normal 1.823960e-020 -2.102907e-004 -9.999999e-001
      outer loop
         vertex 1.680000e+002 1.611118e+002 2.662509e+001
         vertex 1.830000e+002 1.609438e+002 2.662040e+001
         vertex 1.680000e+002 1.609438e+002 2.662040e+001
      endloop
   endfacet
   facet normal 9.718398e-018 -1.120455e-001 -9.937031e-001
      outer loop
         vertex 1.680000e+002 1.609438e+002 2.662040e+001
         vertex 1.830000e+002 1.609438e+002 2.662040e+001
         vertex 1.830000e+002 1.607774e+002 2.664392e+001
      endloop
   endfacet
   facet normal 1.454544e-017 -1.676976e-001 -9.858385e-001
      outer loop
         vertex 1.680000e+002 1.609438e+002 2.662040e+001
         vertex 1.830000e+002 1.607774e+002 2.664392e+001
         vertex 1.680000e+002 1.607774e+002 2.664392e+001
      endloop
   endfacet
   facet normal 2.401710e-017 -2.768983e-001 -9.608992e-001
      outer loop
         vertex 1.680000e+002 1.607774e+002 2.664392e+001
         vertex 1.830000e+002 1.607774e+002 2.664392e+001
         vertex 1.830000e+002 1.606172e+002 2.669498e+001
      endloop
   endfacet
   facet normal 2.866170e-017 -3.304469e-001 -9.438246e-001
      outer loop
         vertex 1.680000e+002 1.607774e+002 2.664392e+001
         vertex 1.830000e+002 1.606172e+002 2.669498e+001
         vertex 1.680000e+002 1.606172e+002 2.669498e+001
      endloop
   endfacet
   facet normal 3.763725e-017 -4.339280e-001 -9.009476e-001
      outer loop
         vertex 1.680000e+002 1.606172e+002 2.669498e+001
         vertex 1.830000e+002 1.606172e+002 2.669498e+001
         vertex 1.830000e+002 1.604679e+002 2.677214e+001
      endloop
   endfacet
   facet normal 4.196820e-017 -4.838604e-001 -8.751452e-001
      outer loop
         vertex 1.680000e+002 1.606172e+002 2.669498e+001
         vertex 1.830000e+002 1.604679e+002 2.677214e+001
         vertex 1.680000e+002 1.604679e+002 2.677214e+001
      endloop
   endfacet
   facet normal 5.019407e-017 -5.786982e-001 -8.155419e-001
      outer loop
         vertex 1.680000e+002 1.604679e+002 2.677214e+001
         vertex 1.830000e+002 1.604679e+002 2.677214e+001
         vertex 1.830000e+002 1.603336e+002 2.687323e+001
      endloop
   endfacet
   facet normal 5.408898e-017 -6.236035e-001 -7.817408e-001
      outer loop
         vertex 1.680000e+002 1.604679e+002 2.677214e+001
         vertex 1.830000e+002 1.603336e+002 2.687323e+001
         vertex 1.680000e+002 1.603336e+002 2.687323e+001
      endloop
   endfacet
   facet normal 6.133276e-017 -7.071186e-001 -7.070950e-001
      outer loop
         vertex 1.680000e+002 1.603336e+002 2.687323e+001
         vertex 1.830000e+002 1.603336e+002 2.687323e+001
         vertex 1.830000e+002 1.602181e+002 2.699538e+001
      endloop
   endfacet
   facet normal 6.468162e-017 -7.457283e-001 -6.662502e-001
      outer loop
         vertex 1.680000e+002 1.603336e+002 2.687323e+001
         vertex 1.830000e+002 1.602181e+002 2.699538e+001
         vertex 1.680000e+002 1.602181e+002 2.699538e+001
      endloop
   endfacet
   facet normal 7.073865e-017 -8.155611e-001 -5.786709e-001
      outer loop
         vertex 1.680000e+002 1.602181e+002 2.699538e+001
         vertex 1.830000e+002 1.602181e+002 2.699538e+001
         vertex 1.830000e+002 1.601248e+002 2.713514e+001
      endloop
   endfacet
   facet normal 7.344684e-017 -8.467844e-001 -5.319364e-001
      outer loop
         vertex 1.680000e+002 1.602181e+002 2.699538e+001
         vertex 1.830000e+002 1.601248e+002 2.713514e+001
         vertex 1.680000e+002 1.601248e+002 2.713514e+001
      endloop
   endfacet
   facet normal 7.814600e-017 -9.009621e-001 -4.338979e-001
      outer loop
         vertex 1.680000e+002 1.601248e+002 2.713514e+001
         vertex 1.830000e+002 1.601248e+002 2.713514e+001
         vertex 1.830000e+002 1.600561e+002 2.728857e+001
      endloop
   endfacet
   facet normal 8.013699e-017 -9.239166e-001 -3.825940e-001
      outer loop
         vertex 1.680000e+002 1.601248e+002 2.713514e+001
         vertex 1.830000e+002 1.600561e+002 2.728857e+001
         vertex 1.680000e+002 1.600561e+002 2.728857e+001
      endloop
   endfacet
   facet normal 8.334553e-017 -9.609085e-001 -2.768662e-001
      outer loop
         vertex 1.680000e+002 1.600561e+002 2.728857e+001
         vertex 1.830000e+002 1.600561e+002 2.728857e+001
         vertex 1.830000e+002 1.600141e+002 2.745133e+001
      endloop
   endfacet
   facet normal 8.456307e-017 -9.749458e-001 -2.224424e-001
      outer loop
         vertex 1.680000e+002 1.600561e+002 2.728857e+001
         vertex 1.830000e+002 1.600141e+002 2.745133e+001
         vertex 1.680000e+002 1.600141e+002 2.745133e+001
      endloop
   endfacet
   facet normal 8.619033e-017 -9.937068e-001 -1.120123e-001
      outer loop
         vertex 1.680000e+002 1.600141e+002 2.745133e+001
         vertex 1.830000e+002 1.600141e+002 2.745133e+001
         vertex 1.830000e+002 1.600000e+002 2.761882e+001
      endloop
   endfacet
   facet normal 8.660003e-017 -9.984304e-001 -5.600617e-002
      outer loop
         vertex 1.680000e+002 1.600141e+002 2.745133e+001
         vertex 1.830000e+002 1.600000e+002 2.761882e+001
         vertex 1.680000e+002 1.600000e+002 2.761882e+001
      endloop
   endfacet
   facet normal -9.697396e-018 1.118034e-001 -9.937304e-001
      outer loop
         vertex 1.830000e+002 1.688882e+002 2.750000e+001
         vertex 1.830000e+002 1.611118e+002 2.662509e+001
         vertex 1.680000e+002 1.688882e+002 2.750000e+001
      endloop
   endfacet
   facet normal -9.697396e-018 1.118034e-001 -9.937304e-001
      outer loop
         vertex 1.680000e+002 1.688882e+002 2.750000e+001
         vertex 1.830000e+002 1.611118e+002 2.662509e+001
         vertex 1.680000e+002 1.611118e+002 2.662509e+001
      endloop
   endfacet
   facet normal 8.673617e-017 -1.000000e+000 0.000000e+000
      outer loop
         vertex 1.830000e+002 1.700000e+002 1.900000e+001
         vertex 1.830000e+002 1.700000e+002 2.650627e+001
         vertex 1.720000e+002 1.700000e+002 1.900000e+001
      endloop
   endfacet
   facet normal 8.673617e-017 -1.000000e+000 0.000000e+000
      outer loop
         vertex 1.720000e+002 1.700000e+002 1.900000e+001
         vertex 1.830000e+002 1.700000e+002 2.650627e+001
         vertex 1.680000e+002 1.700000e+002 2.650627e+001
      endloop
   endfacet
   facet normal 8.673617e-017 -1.000000e+000 0.000000e+000
      outer loop
         vertex 1.720000e+002 1.700000e+002 1.900000e+001
         vertex 1.680000e+002 1.700000e+002 2.650627e+001
         vertex 1.720000e+002 1.700000e+002 4.999999e+000
      endloop
   endfacet
   facet normal 8.673617e-017 -1.000000e+000 0.000000e+000
      outer loop
         vertex 1.720000e+002 1.700000e+002 4.999999e+000
         vertex 1.680000e+002 1.700000e+002 2.650627e+001
         vertex 1.680000e+002 1.700000e+002 6.999999e+000
      endloop
   endfacet
   facet normal 8.673617e-017 -1.000000e+000 0.000000e+000
      outer loop
         vertex 1.720000e+002 1.700000e+002 4.999999e+000
         vertex 1.680000e+002 1.700000e+002 6.999999e+000
         vertex 1.680000e+002 1.700000e+002 4.999999e+000
      endloop
   endfacet
   facet normal 8.673617e-017 -1.000000e+000 0.000000e+000
      outer loop
         vertex 1.680000e+002 1.700000e+002 4.999999e+000
         vertex 1.680000e+002 1.700000e+002 6.999999e+000
         vertex 1.660000e+002 1.700000e+002 6.999999e+000
      endloop
   endfacet
   facet normal 8.673617e-017 -1.000000e+000 0.000000e+000
      outer loop
         vertex 1.680000e+002 1.700000e+002 4.999999e+000
         vertex 1.660000e+002 1.700000e+002 6.999999e+000
         vertex 1.660000e+002 1.700000e+002 4.999999e+000
      endloop
   endfacet
   facet normal 5.037562e-018 -5.807913e-002 -9.983119e-001
      outer loop
         vertex 1.680000e+002 1.750000e+002 0.000000e+000
         vertex 1.720000e+002 1.750000e+002 0.000000e+000
         vertex 1.720000e+002 1.741318e+002 7.596053e-002
      endloop
   endfacet
   facet normal 1.007512e-017 -1.161583e-001 -9.932307e-001
      outer loop
         vertex 1.680000e+002 1.750000e+002 0.000000e+000
         vertex 1.720000e+002 1.741318e+002 7.596053e-002
         vertex 1.680000e+002 1.741318e+002 7.596053e-002
      endloop
   endfacet
   facet normal 1.999719e-017 -2.305519e-001 -9.730600e-001
      outer loop
         vertex 1.680000e+002 1.741318e+002 7.596053e-002
         vertex 1.720000e+002 1.741318e+002 7.596053e-002
         vertex 1.720000e+002 1.732899e+002 3.015362e-001
      endloop
   endfacet
   facet normal 2.488168e-017 -2.868663e-001 -9.579706e-001
      outer loop
         vertex 1.680000e+002 1.741318e+002 7.596053e-002
         vertex 1.720000e+002 1.732899e+002 3.015362e-001
         vertex 1.680000e+002 1.732899e+002 3.015362e-001
      endloop
   endfacet
   facet normal 3.434920e-017 -3.960194e-001 -9.182422e-001
      outer loop
         vertex 1.680000e+002 1.732899e+002 3.015362e-001
         vertex 1.720000e+002 1.732899e+002 3.015362e-001
         vertex 1.720000e+002 1.725000e+002 6.698724e-001
      endloop
   endfacet
   facet normal 3.893222e-017 -4.488580e-001 -8.936031e-001
      outer loop
         vertex 1.680000e+002 1.732899e+002 3.015362e-001
         vertex 1.720000e+002 1.725000e+002 6.698724e-001
         vertex 1.680000e+002 1.725000e+002 6.698724e-001
      endloop
   endfacet
   facet normal 4.765754e-017 -5.494540e-001 -8.355240e-001
      outer loop
         vertex 1.680000e+002 1.725000e+002 6.698724e-001
         vertex 1.720000e+002 1.725000e+002 6.698724e-001
         vertex 1.720000e+002 1.717861e+002 1.169777e+000
      endloop
   endfacet
   facet normal 5.179983e-017 -5.972114e-001 -8.020838e-001
      outer loop
         vertex 1.680000e+002 1.725000e+002 6.698724e-001
         vertex 1.720000e+002 1.717861e+002 1.169777e+000
         vertex 1.680000e+002 1.717861e+002 1.169777e+000
      endloop
   endfacet
   facet normal 5.951782e-017 -6.861938e-001 -7.274188e-001
      outer loop
         vertex 1.680000e+002 1.717861e+002 1.169777e+000
         vertex 1.720000e+002 1.717861e+002 1.169777e+000
         vertex 1.720000e+002 1.711698e+002 1.786061e+000
      endloop
   endfacet
   facet normal 6.309353e-017 -7.274188e-001 -6.861938e-001
      outer loop
         vertex 1.680000e+002 1.717861e+002 1.169777e+000
         vertex 1.720000e+002 1.711698e+002 1.786061e+000
         vertex 1.680000e+002 1.711698e+002 1.786061e+000
      endloop
   endfacet
   facet normal 6.956968e-017 -8.020838e-001 -5.972114e-001
      outer loop
         vertex 1.680000e+002 1.711698e+002 1.786061e+000
         vertex 1.720000e+002 1.711698e+002 1.786061e+000
         vertex 1.720000e+002 1.706699e+002 2.500000e+000
      endloop
   endfacet
   facet normal 7.247015e-017 -8.355240e-001 -5.494540e-001
      outer loop
         vertex 1.680000e+002 1.711698e+002 1.786061e+000
         vertex 1.720000e+002 1.706699e+002 2.500000e+000
         vertex 1.680000e+002 1.706699e+002 2.500000e+000
      endloop
   endfacet
   facet normal 7.750772e-017 -8.936031e-001 -4.488580e-001
      outer loop
         vertex 1.680000e+002 1.706699e+002 2.500000e+000
         vertex 1.720000e+002 1.706699e+002 2.500000e+000
         vertex 1.720000e+002 1.703015e+002 3.289899e+000
      endloop
   endfacet
   facet normal 7.964483e-017 -9.182422e-001 -3.960194e-001
      outer loop
         vertex 1.680000e+002 1.706699e+002 2.500000e+000
         vertex 1.720000e+002 1.703015e+002 3.289899e+000
         vertex 1.680000e+002 1.703015e+002 3.289899e+000
      endloop
   endfacet
   facet normal 8.309072e-017 -9.579706e-001 -2.868663e-001
      outer loop
         vertex 1.680000e+002 1.703015e+002 3.289899e+000
         vertex 1.720000e+002 1.703015e+002 3.289899e+000
         vertex 1.720000e+002 1.700760e+002 4.131759e+000
      endloop
   endfacet
   facet normal 8.439951e-017 -9.730600e-001 -2.305519e-001
      outer loop
         vertex 1.680000e+002 1.703015e+002 3.289899e+000
         vertex 1.720000e+002 1.700760e+002 4.131759e+000
         vertex 1.680000e+002 1.700760e+002 4.131759e+000
      endloop
   endfacet
   facet normal 8.614903e-017 -9.932307e-001 -1.161583e-001
      outer loop
         vertex 1.680000e+002 1.700760e+002 4.131759e+000
         vertex 1.720000e+002 1.700760e+002 4.131759e+000
         vertex 1.720000e+002 1.700000e+002 4.999999e+000
      endloop
   endfacet
   facet normal 8.658976e-017 -9.983119e-001 -5.807913e-002
      outer loop
         vertex 1.680000e+002 1.700760e+002 4.131759e+000
         vertex 1.720000e+002 1.700000e+002 4.999999e+000
         vertex 1.680000e+002 1.700000e+002 4.999999e+000
      endloop
   endfacet
endsolid