solid ½ÄÆÇ±¸µ¿ºÎ_Áß¾Ó_ÁÂÃø_2.1
   facet normal 0.000000e+000 0.000000e+000 1.000000e+000
      outer loop
         vertex 3.660000e+002 3.200000e+002 4.500000e+001
         vertex 3.660000e+002 3.298000e+002 4.500000e+001
         vertex 3.510000e+002 3.298000e+002 4.500000e+001
      endloop
   endfacet
   facet normal 0.000000e+000 0.000000e+000 1.000000e+000
      outer loop
         vertex 3.510000e+002 3.400000e+002 4.500000e+001
         vertex 1.980000e+002 3.400000e+002 4.500000e+001
         vertex 3.510000e+002 3.298000e+002 4.500000e+001
      endloop
   endfacet
   facet normal 0.000000e+000 0.000000e+000 1.000000e+000
      outer loop
         vertex 3.510000e+002 3.298000e+002 4.500000e+001
         vertex 1.980000e+002 3.400000e+002 4.500000e+001
         vertex 1.980000e+002 3.200000e+002 4.500000e+001
      endloop
   endfacet
   facet normal 0.000000e+000 0.000000e+000 1.000000e+000
      outer loop
         vertex 3.510000e+002 3.298000e+002 4.500000e+001
         vertex 1.980000e+002 3.200000e+002 4.500000e+001
         vertex 3.660000e+002 3.200000e+002 4.500000e+001
      endloop
   endfacet
   facet normal 1.239088e-016 -1.000000e+000 0.000000e+000
      outer loop
         vertex 1.980000e+002 3.200000e+002 2.500000e+001
         vertex 1.980000e+002 3.200000e+002 1.200000e+001
         vertex 3.510000e+002 3.200000e+002 1.200000e+001
      endloop
   endfacet
   facet normal 1.239088e-016 -1.000000e+000 0.000000e+000
      outer loop
         vertex 1.980000e+002 3.200000e+002 3.500000e+001
         vertex 1.680000e+002 3.200000e+002 3.500000e+001
         vertex 1.680000e+002 3.200000e+002 2.500000e+001
      endloop
   endfacet
   facet normal 1.239088e-016 -1.000000e+000 0.000000e+000
      outer loop
         vertex 1.680000e+002 3.200000e+002 2.500000e+001
         vertex 1.980000e+002 3.200000e+002 2.500000e+001
         vertex 1.980000e+002 3.200000e+002 3.500000e+001
      endloop
   endfacet
   facet normal 1.239088e-016 -1.000000e+000 0.000000e+000
      outer loop
         vertex 1.980000e+002 3.200000e+002 3.500000e+001
         vertex 1.980000e+002 3.200000e+002 2.500000e+001
         vertex 3.510000e+002 3.200000e+002 1.200000e+001
      endloop
   endfacet
   facet normal 1.239088e-016 -1.000000e+000 0.000000e+000
      outer loop
         vertex 1.980000e+002 3.200000e+002 3.500000e+001
         vertex 3.510000e+002 3.200000e+002 1.200000e+001
         vertex 1.980000e+002 3.200000e+002 4.500000e+001
      endloop
   endfacet
   facet normal 1.239088e-016 -1.000000e+000 0.000000e+000
      outer loop
         vertex 1.980000e+002 3.200000e+002 4.500000e+001
         vertex 3.510000e+002 3.200000e+002 1.200000e+001
         vertex 3.510000e+002 3.200000e+002 2.520000e+001
      endloop
   endfacet
   facet normal 1.239088e-016 -1.000000e+000 0.000000e+000
      outer loop
         vertex 1.980000e+002 3.200000e+002 4.500000e+001
         vertex 3.510000e+002 3.200000e+002 2.520000e+001
         vertex 3.660000e+002 3.200000e+002 4.500000e+001
      endloop
   endfacet
   facet normal 1.239088e-016 -1.000000e+000 0.000000e+000
      outer loop
         vertex 3.660000e+002 3.200000e+002 4.500000e+001
         vertex 3.510000e+002 3.200000e+002 2.520000e+001
         vertex 3.660000e+002 3.200000e+002 2.520000e+001
      endloop
   endfacet
   facet normal -1.224647e-016 1.000000e+000 0.000000e+000
      outer loop
         vertex 3.510000e+002 3.400000e+002 1.200000e+001
         vertex 1.980000e+002 3.400000e+002 1.200000e+001
         vertex 3.510000e+002 3.400000e+002 4.500000e+001
      endloop
   endfacet
   facet normal -1.224647e-016 1.000000e+000 0.000000e+000
      outer loop
         vertex 3.510000e+002 3.400000e+002 4.500000e+001
         vertex 1.980000e+002 3.400000e+002 1.200000e+001
         vertex 1.980000e+002 3.400000e+002 2.500000e+001
      endloop
   endfacet
   facet normal -1.224647e-016 1.000000e+000 0.000000e+000
      outer loop
         vertex 1.980000e+002 3.400000e+002 4.500000e+001
         vertex 3.510000e+002 3.400000e+002 4.500000e+001
         vertex 1.980000e+002 3.400000e+002 3.500000e+001
      endloop
   endfacet
   facet normal -1.224647e-016 1.000000e+000 0.000000e+000
      outer loop
         vertex 1.980000e+002 3.400000e+002 3.500000e+001
         vertex 3.510000e+002 3.400000e+002 4.500000e+001
         vertex 1.980000e+002 3.400000e+002 2.500000e+001
      endloop
   endfacet
   facet normal -1.224647e-016 1.000000e+000 0.000000e+000
      outer loop
         vertex 1.980000e+002 3.400000e+002 3.500000e+001
         vertex 1.980000e+002 3.400000e+002 2.500000e+001
         vertex 1.680000e+002 3.400000e+002 3.500000e+001
      endloop
   endfacet
   facet normal -1.224647e-016 1.000000e+000 0.000000e+000
      outer loop
         vertex 1.680000e+002 3.400000e+002 3.500000e+001
         vertex 1.980000e+002 3.400000e+002 2.500000e+001
         vertex 1.680000e+002 3.400000e+002 2.500000e+001
      endloop
   endfacet
   facet normal 0.000000e+000 0.000000e+000 -1.000000e+000
      outer loop
         vertex 1.980000e+002 3.400000e+002 1.200000e+001
         vertex 3.510000e+002 3.400000e+002 1.200000e+001
         vertex 1.980000e+002 3.200000e+002 1.200000e+001
      endloop
   endfacet
   facet normal 0.000000e+000 0.000000e+000 -1.000000e+000
      outer loop
         vertex 1.980000e+002 3.200000e+002 1.200000e+001
         vertex 3.510000e+002 3.400000e+002 1.200000e+001
         vertex 3.510000e+002 3.200000e+002 1.200000e+001
      endloop
   endfacet
   facet normal 1.000000e+000 -2.864602e-016 -2.465190e-032
      outer loop
         vertex 3.510000e+002 3.200000e+002 2.520000e+001
         vertex 3.510000e+002 3.200000e+002 1.200000e+001
         vertex 3.510000e+002 3.298000e+002 2.520000e+001
      endloop
   endfacet
   facet normal 1.000000e+000 -2.864602e-016 -2.465190e-032
      outer loop
         vertex 3.510000e+002 3.298000e+002 2.520000e+001
         vertex 3.510000e+002 3.200000e+002 1.200000e+001
         vertex 3.510000e+002 3.400000e+002 1.200000e+001
      endloop
   endfacet
   facet normal 1.000000e+000 -2.864602e-016 -2.465190e-032
      outer loop
         vertex 3.510000e+002 3.298000e+002 2.520000e+001
         vertex 3.510000e+002 3.400000e+002 1.200000e+001
         vertex 3.510000e+002 3.298000e+002 4.500000e+001
      endloop
   endfacet
   facet normal 1.000000e+000 -2.864602e-016 -2.465190e-032
      outer loop
         vertex 3.510000e+002 3.298000e+002 4.500000e+001
         vertex 3.510000e+002 3.400000e+002 1.200000e+001
         vertex 3.510000e+002 3.400000e+002 4.500000e+001
      endloop
   endfacet
   facet normal -1.632681e-016 1.000000e+000 0.000000e+000
      outer loop
         vertex 3.510000e+002 3.298000e+002 2.520000e+001
         vertex 3.510000e+002 3.298000e+002 4.500000e+001
         vertex 3.660000e+002 3.298000e+002 2.520000e+001
      endloop
   endfacet
   facet normal -1.632681e-016 1.000000e+000 0.000000e+000
      outer loop
         vertex 3.660000e+002 3.298000e+002 2.520000e+001
         vertex 3.510000e+002 3.298000e+002 4.500000e+001
         vertex 3.660000e+002 3.298000e+002 4.500000e+001
      endloop
   endfacet
   facet normal -1.445026e-032 8.850629e-017 -1.000000e+000
      outer loop
         vertex 3.510000e+002 3.200000e+002 2.520000e+001
         vertex 3.510000e+002 3.298000e+002 2.520000e+001
         vertex 3.660000e+002 3.200000e+002 2.520000e+001
      endloop
   endfacet
   facet normal -1.445026e-032 8.850629e-017 -1.000000e+000
      outer loop
         vertex 3.660000e+002 3.200000e+002 2.520000e+001
         vertex 3.510000e+002 3.298000e+002 2.520000e+001
         vertex 3.660000e+002 3.298000e+002 2.520000e+001
      endloop
   endfacet
   facet normal 1.000000e+000 1.909734e-016 3.697785e-032
      outer loop
         vertex 3.660000e+002 3.298000e+002 2.520000e+001
         vertex 3.660000e+002 3.298000e+002 4.500000e+001
         vertex 3.660000e+002 3.200000e+002 2.520000e+001
      endloop
   endfacet
   facet normal 1.000000e+000 1.909734e-016 3.697785e-032
      outer loop
         vertex 3.660000e+002 3.200000e+002 2.520000e+001
         vertex 3.660000e+002 3.298000e+002 4.500000e+001
         vertex 3.660000e+002 3.200000e+002 4.500000e+001
      endloop
   endfacet
   facet normal -1.000000e+000 -1.239088e-016 -8.006416e-016
      outer loop
         vertex 1.980000e+002 3.200000e+002 2.500000e+001
         vertex 1.980000e+002 3.400000e+002 2.500000e+001
         vertex 1.980000e+002 3.200000e+002 1.200000e+001
      endloop
   endfacet
   facet normal -1.000000e+000 -1.239088e-016 -8.006416e-016
      outer loop
         vertex 1.980000e+002 3.200000e+002 1.200000e+001
         vertex 1.980000e+002 3.400000e+002 2.500000e+001
         vertex 1.980000e+002 3.400000e+002 1.200000e+001
      endloop
   endfacet
   facet normal -1.000000e+000 -1.239088e-016 1.214306e-015
      outer loop
         vertex 1.980000e+002 3.200000e+002 4.500000e+001
         vertex 1.980000e+002 3.400000e+002 4.500000e+001
         vertex 1.980000e+002 3.200000e+002 3.500000e+001
      endloop
   endfacet
   facet normal -1.000000e+000 -1.239088e-016 1.214306e-015
      outer loop
         vertex 1.980000e+002 3.200000e+002 3.500000e+001
         vertex 1.980000e+002 3.400000e+002 4.500000e+001
         vertex 1.980000e+002 3.400000e+002 3.500000e+001
      endloop
   endfacet
   facet normal -1.156482e-016 -1.432984e-032 1.000000e+000
      outer loop
         vertex 1.980000e+002 3.200000e+002 3.500000e+001
         vertex 1.980000e+002 3.400000e+002 3.500000e+001
         vertex 1.680000e+002 3.200000e+002 3.500000e+001
      endloop
   endfacet
   facet normal -1.156482e-016 -1.432984e-032 1.000000e+000
      outer loop
         vertex 1.680000e+002 3.200000e+002 3.500000e+001
         vertex 1.980000e+002 3.400000e+002 3.500000e+001
         vertex 1.680000e+002 3.400000e+002 3.500000e+001
      endloop
   endfacet
   facet normal -1.000000e+000 -1.239088e-016 0.000000e+000
      outer loop
         vertex 1.680000e+002 3.200000e+002 3.500000e+001
         vertex 1.680000e+002 3.400000e+002 3.500000e+001
         vertex 1.680000e+002 3.200000e+002 2.500000e+001
      endloop
   endfacet
   facet normal -1.000000e+000 -1.239088e-016 0.000000e+000
      outer loop
         vertex 1.680000e+002 3.200000e+002 2.500000e+001
         vertex 1.680000e+002 3.400000e+002 3.500000e+001
         vertex 1.680000e+002 3.400000e+002 2.500000e+001
      endloop
   endfacet
   facet normal 0.000000e+000 0.000000e+000 -1.000000e+000
      outer loop
         vertex 1.680000e+002 3.200000e+002 2.500000e+001
         vertex 1.680000e+002 3.400000e+002 2.500000e+001
         vertex 1.980000e+002 3.200000e+002 2.500000e+001
      endloop
   endfacet
   facet normal 0.000000e+000 0.000000e+000 -1.000000e+000
      outer loop
         vertex 1.980000e+002 3.200000e+002 2.500000e+001
         vertex 1.680000e+002 3.400000e+002 2.500000e+001
         vertex 1.980000e+002 3.400000e+002 2.500000e+001
      endloop
   endfacet
endsolid