solid 식판구동부_측면_중앙측_2.1
   facet normal 0.000000e+000 0.000000e+000 1.000000e+000
      outer loop
         vertex 1.830000e+002 3.300000e+002 4.500000e+001
         vertex 1.830000e+002 3.400000e+002 4.500000e+001
         vertex 1.680000e+002 3.300000e+002 4.500000e+001
      endloop
   endfacet
   facet normal 0.000000e+000 0.000000e+000 1.000000e+000
      outer loop
         vertex 1.680000e+002 3.300000e+002 4.500000e+001
         vertex 1.830000e+002 3.400000e+002 4.500000e+001
         vertex 1.680000e+002 3.400000e+002 4.500000e+001
      endloop
   endfacet
   facet normal 0.000000e+000 0.000000e+000 1.000000e+000
      outer loop
         vertex 1.830000e+002 3.200000e+002 4.500000e+001
         vertex 1.680000e+002 3.200000e+002 4.500000e+001
         vertex 1.830000e+002 1.370000e+002 4.500000e+001
      endloop
   endfacet
   facet normal 0.000000e+000 0.000000e+000 1.000000e+000
      outer loop
         vertex 1.830000e+002 1.370000e+002 4.500000e+001
         vertex 1.680000e+002 3.200000e+002 4.500000e+001
         vertex 1.680000e+002 1.370000e+002 4.500000e+001
      endloop
   endfacet
   facet normal -1.000000e+000 -8.673617e-017 0.000000e+000
      outer loop
         vertex 1.680000e+002 1.370000e+002 3.720000e+001
         vertex 1.680000e+002 1.370000e+002 4.500000e+001
         vertex 1.680000e+002 1.772000e+002 3.720000e+001
      endloop
   endfacet
   facet normal -1.000000e+000 -8.673617e-017 0.000000e+000
      outer loop
         vertex 1.680000e+002 1.772000e+002 3.720000e+001
         vertex 1.680000e+002 1.370000e+002 4.500000e+001
         vertex 1.680000e+002 3.200000e+002 4.500000e+001
      endloop
   endfacet
   facet normal -1.000000e+000 -8.673617e-017 0.000000e+000
      outer loop
         vertex 1.680000e+002 1.772000e+002 3.720000e+001
         vertex 1.680000e+002 3.200000e+002 4.500000e+001
         vertex 1.680000e+002 1.772000e+002 2.880000e+001
      endloop
   endfacet
   facet normal -1.000000e+000 -8.673617e-017 0.000000e+000
      outer loop
         vertex 1.680000e+002 1.772000e+002 2.880000e+001
         vertex 1.680000e+002 3.200000e+002 4.500000e+001
         vertex 1.680000e+002 3.200000e+002 2.500000e+001
      endloop
   endfacet
   facet normal -1.000000e+000 -8.673617e-017 0.000000e+000
      outer loop
         vertex 1.680000e+002 3.300000e+002 4.500000e+001
         vertex 1.680000e+002 3.400000e+002 4.500000e+001
         vertex 1.680000e+002 3.300000e+002 2.500000e+001
      endloop
   endfacet
   facet normal -1.000000e+000 -8.673617e-017 0.000000e+000
      outer loop
         vertex 1.680000e+002 3.300000e+002 2.500000e+001
         vertex 1.680000e+002 3.400000e+002 4.500000e+001
         vertex 1.680000e+002 3.400000e+002 1.000000e+001
      endloop
   endfacet
   facet normal -1.000000e+000 -8.673617e-017 0.000000e+000
      outer loop
         vertex 1.680000e+002 3.300000e+002 2.500000e+001
         vertex 1.680000e+002 3.400000e+002 1.000000e+001
         vertex 1.680000e+002 3.398481e+002 8.263517e+000
      endloop
   endfacet
   facet normal -1.000000e+000 -8.673617e-017 0.000000e+000
      outer loop
         vertex 1.680000e+002 3.376605e+002 3.572123e+000
         vertex 1.680000e+002 3.364279e+002 2.339555e+000
         vertex 1.680000e+002 3.300000e+002 2.500000e+001
      endloop
   endfacet
   facet normal -1.000000e+000 -8.673617e-017 0.000000e+000
      outer loop
         vertex 1.680000e+002 3.300000e+002 2.500000e+001
         vertex 1.680000e+002 3.364279e+002 2.339555e+000
         vertex 1.680000e+002 3.350000e+002 1.339745e+000
      endloop
   endfacet
   facet normal -1.000000e+000 -8.673617e-017 0.000000e+000
      outer loop
         vertex 1.680000e+002 3.300000e+002 2.500000e+001
         vertex 1.680000e+002 3.350000e+002 1.339745e+000
         vertex 1.680000e+002 3.334202e+002 6.030723e-001
      endloop
   endfacet
   facet normal -1.000000e+000 -8.673617e-017 0.000000e+000
      outer loop
         vertex 1.680000e+002 1.370000e+002 2.880000e+001
         vertex 1.680000e+002 1.772000e+002 2.880000e+001
         vertex 1.680000e+002 1.370000e+002 0.000000e+000
      endloop
   endfacet
   facet normal -1.000000e+000 -8.673617e-017 0.000000e+000
      outer loop
         vertex 1.680000e+002 1.370000e+002 0.000000e+000
         vertex 1.680000e+002 1.772000e+002 2.880000e+001
         vertex 1.680000e+002 3.200000e+002 2.500000e+001
      endloop
   endfacet
   facet normal -1.000000e+000 -8.673617e-017 0.000000e+000
      outer loop
         vertex 1.680000e+002 1.370000e+002 0.000000e+000
         vertex 1.680000e+002 3.200000e+002 2.500000e+001
         vertex 1.680000e+002 3.300000e+002 0.000000e+000
      endloop
   endfacet
   facet normal -1.000000e+000 -8.673617e-017 0.000000e+000
      outer loop
         vertex 1.680000e+002 3.300000e+002 0.000000e+000
         vertex 1.680000e+002 3.200000e+002 2.500000e+001
         vertex 1.680000e+002 3.300000e+002 2.500000e+001
      endloop
   endfacet
   facet normal -1.000000e+000 -8.673617e-017 0.000000e+000
      outer loop
         vertex 1.680000e+002 3.300000e+002 0.000000e+000
         vertex 1.680000e+002 3.300000e+002 2.500000e+001
         vertex 1.680000e+002 3.317365e+002 1.519211e-001
      endloop
   endfacet
   facet normal -1.000000e+000 -8.673617e-017 0.000000e+000
      outer loop
         vertex 1.680000e+002 3.317365e+002 1.519211e-001
         vertex 1.680000e+002 3.300000e+002 2.500000e+001
         vertex 1.680000e+002 3.334202e+002 6.030723e-001
      endloop
   endfacet
   facet normal -1.000000e+000 -8.673617e-017 0.000000e+000
      outer loop
         vertex 1.680000e+002 3.398481e+002 8.263517e+000
         vertex 1.680000e+002 3.393969e+002 6.579798e+000
         vertex 1.680000e+002 3.300000e+002 2.500000e+001
      endloop
   endfacet
   facet normal -1.000000e+000 -8.673617e-017 0.000000e+000
      outer loop
         vertex 1.680000e+002 3.300000e+002 2.500000e+001
         vertex 1.680000e+002 3.393969e+002 6.579798e+000
         vertex 1.680000e+002 3.386603e+002 4.999999e+000
      endloop
   endfacet
   facet normal -1.000000e+000 -8.673617e-017 0.000000e+000
      outer loop
         vertex 1.680000e+002 3.300000e+002 2.500000e+001
         vertex 1.680000e+002 3.386603e+002 4.999999e+000
         vertex 1.680000e+002 3.376605e+002 3.572123e+000
      endloop
   endfacet
   facet normal 1.000000e+000 1.632681e-016 0.000000e+000
      outer loop
         vertex 1.830000e+002 1.772000e+002 2.880000e+001
         vertex 1.830000e+002 1.370000e+002 2.880000e+001
         vertex 1.830000e+002 1.370000e+002 1.200000e+001
      endloop
   endfacet
   facet normal 1.000000e+000 1.632681e-016 0.000000e+000
      outer loop
         vertex 1.830000e+002 1.370000e+002 4.500000e+001
         vertex 1.830000e+002 1.370000e+002 3.720000e+001
         vertex 1.830000e+002 1.772000e+002 3.720000e+001
      endloop
   endfacet
   facet normal 1.000000e+000 1.632681e-016 0.000000e+000
      outer loop
         vertex 1.830000e+002 3.400000e+002 4.500000e+001
         vertex 1.830000e+002 3.300000e+002 4.500000e+001
         vertex 1.830000e+002 3.400000e+002 1.200000e+001
      endloop
   endfacet
   facet normal 1.000000e+000 1.632681e-016 0.000000e+000
      outer loop
         vertex 1.830000e+002 3.400000e+002 1.200000e+001
         vertex 1.830000e+002 3.300000e+002 4.500000e+001
         vertex 1.830000e+002 3.300000e+002 2.500000e+001
      endloop
   endfacet
   facet normal 1.000000e+000 1.632681e-016 0.000000e+000
      outer loop
         vertex 1.830000e+002 3.400000e+002 1.200000e+001
         vertex 1.830000e+002 3.300000e+002 2.500000e+001
         vertex 1.830000e+002 3.200000e+002 2.500000e+001
      endloop
   endfacet
   facet normal 1.000000e+000 1.632681e-016 0.000000e+000
      outer loop
         vertex 1.830000e+002 1.370000e+002 1.200000e+001
         vertex 1.830000e+002 3.400000e+002 1.200000e+001
         vertex 1.830000e+002 1.772000e+002 2.880000e+001
      endloop
   endfacet
   facet normal 1.000000e+000 1.632681e-016 0.000000e+000
      outer loop
         vertex 1.830000e+002 1.772000e+002 2.880000e+001
         vertex 1.830000e+002 3.400000e+002 1.200000e+001
         vertex 1.830000e+002 3.200000e+002 2.500000e+001
      endloop
   endfacet
   facet normal 1.000000e+000 1.632681e-016 0.000000e+000
      outer loop
         vertex 1.830000e+002 1.772000e+002 2.880000e+001
         vertex 1.830000e+002 3.200000e+002 2.500000e+001
         vertex 1.830000e+002 1.772000e+002 3.720000e+001
      endloop
   endfacet
   facet normal 1.000000e+000 1.632681e-016 0.000000e+000
      outer loop
         vertex 1.830000e+002 1.772000e+002 3.720000e+001
         vertex 1.830000e+002 3.200000e+002 2.500000e+001
         vertex 1.830000e+002 3.200000e+002 4.500000e+001
      endloop
   endfacet
   facet normal 1.000000e+000 1.632681e-016 0.000000e+000
      outer loop
         vertex 1.830000e+002 1.772000e+002 3.720000e+001
         vertex 1.830000e+002 3.200000e+002 4.500000e+001
         vertex 1.830000e+002 1.370000e+002 4.500000e+001
      endloop
   endfacet
   facet normal -1.224647e-016 1.000000e+000 0.000000e+000
      outer loop
         vertex 1.720000e+002 3.400000e+002 1.000000e+001
         vertex 1.680000e+002 3.400000e+002 1.000000e+001
         vertex 1.720000e+002 3.400000e+002 1.200000e+001
      endloop
   endfacet
   facet normal -1.224647e-016 1.000000e+000 0.000000e+000
      outer loop
         vertex 1.720000e+002 3.400000e+002 1.200000e+001
         vertex 1.680000e+002 3.400000e+002 1.000000e+001
         vertex 1.680000e+002 3.400000e+002 4.500000e+001
      endloop
   endfacet
   facet normal -1.224647e-016 1.000000e+000 0.000000e+000
      outer loop
         vertex 1.720000e+002 3.400000e+002 1.200000e+001
         vertex 1.680000e+002 3.400000e+002 4.500000e+001
         vertex 1.830000e+002 3.400000e+002 1.200000e+001
      endloop
   endfacet
   facet normal -1.224647e-016 1.000000e+000 0.000000e+000
      outer loop
         vertex 1.830000e+002 3.400000e+002 1.200000e+001
         vertex 1.680000e+002 3.400000e+002 4.500000e+001
         vertex 1.830000e+002 3.400000e+002 4.500000e+001
      endloop
   endfacet
   facet normal 1.000000e+000 8.163404e-017 0.000000e+000
      outer loop
         vertex 1.720000e+002 3.400000e+002 1.200000e+001
         vertex 1.720000e+002 1.370000e+002 1.200000e+001
         vertex 1.720000e+002 3.400000e+002 1.000000e+001
      endloop
   endfacet
   facet normal 1.000000e+000 8.163404e-017 0.000000e+000
      outer loop
         vertex 1.720000e+002 3.400000e+002 1.000000e+001
         vertex 1.720000e+002 1.370000e+002 1.200000e+001
         vertex 1.720000e+002 1.370000e+002 0.000000e+000
      endloop
   endfacet
   facet normal 1.000000e+000 8.163404e-017 0.000000e+000
      outer loop
         vertex 1.720000e+002 1.370000e+002 0.000000e+000
         vertex 1.720000e+002 3.300000e+002 0.000000e+000
         vertex 1.720000e+002 3.400000e+002 1.000000e+001
      endloop
   endfacet
   facet normal 1.000000e+000 8.163404e-017 0.000000e+000
      outer loop
         vertex 1.720000e+002 3.400000e+002 1.000000e+001
         vertex 1.720000e+002 3.300000e+002 0.000000e+000
         vertex 1.720000e+002 3.317365e+002 1.519211e-001
      endloop
   endfacet
   facet normal 1.000000e+000 8.163404e-017 0.000000e+000
      outer loop
         vertex 1.720000e+002 3.400000e+002 1.000000e+001
         vertex 1.720000e+002 3.317365e+002 1.519211e-001
         vertex 1.720000e+002 3.334202e+002 6.030723e-001
      endloop
   endfacet
   facet normal 1.000000e+000 8.163404e-017 0.000000e+000
      outer loop
         vertex 1.720000e+002 3.386603e+002 4.999999e+000
         vertex 1.720000e+002 3.393969e+002 6.579798e+000
         vertex 1.720000e+002 3.376605e+002 3.572123e+000
      endloop
   endfacet
   facet normal 1.000000e+000 8.163404e-017 0.000000e+000
      outer loop
         vertex 1.720000e+002 3.376605e+002 3.572123e+000
         vertex 1.720000e+002 3.393969e+002 6.579798e+000
         vertex 1.720000e+002 3.364279e+002 2.339555e+000
      endloop
   endfacet
   facet normal 1.000000e+000 8.163404e-017 0.000000e+000
      outer loop
         vertex 1.720000e+002 3.334202e+002 6.030723e-001
         vertex 1.720000e+002 3.350000e+002 1.339745e+000
         vertex 1.720000e+002 3.400000e+002 1.000000e+001
      endloop
   endfacet
   facet normal 1.000000e+000 8.163404e-017 0.000000e+000
      outer loop
         vertex 1.720000e+002 3.400000e+002 1.000000e+001
         vertex 1.720000e+002 3.350000e+002 1.339745e+000
         vertex 1.720000e+002 3.364279e+002 2.339555e+000
      endloop
   endfacet
   facet normal 1.000000e+000 8.163404e-017 0.000000e+000
      outer loop
         vertex 1.720000e+002 3.400000e+002 1.000000e+001
         vertex 1.720000e+002 3.364279e+002 2.339555e+000
         vertex 1.720000e+002 3.398481e+002 8.263517e+000
      endloop
   endfacet
   facet normal 1.000000e+000 8.163404e-017 0.000000e+000
      outer loop
         vertex 1.720000e+002 3.398481e+002 8.263517e+000
         vertex 1.720000e+002 3.364279e+002 2.339555e+000
         vertex 1.720000e+002 3.393969e+002 6.579798e+000
      endloop
   endfacet
   facet normal 0.000000e+000 0.000000e+000 -1.000000e+000
      outer loop
         vertex 1.680000e+002 1.370000e+002 0.000000e+000
         vertex 1.680000e+002 3.300000e+002 0.000000e+000
         vertex 1.720000e+002 1.370000e+002 0.000000e+000
      endloop
   endfacet
   facet normal 0.000000e+000 0.000000e+000 -1.000000e+000
      outer loop
         vertex 1.720000e+002 1.370000e+002 0.000000e+000
         vertex 1.680000e+002 3.300000e+002 0.000000e+000
         vertex 1.720000e+002 3.300000e+002 0.000000e+000
      endloop
   endfacet
   facet normal -7.112642e-018 5.807913e-002 -9.983119e-001
      outer loop
         vertex 1.720000e+002 3.300000e+002 0.000000e+000
         vertex 1.680000e+002 3.300000e+002 0.000000e+000
         vertex 1.680000e+002 3.317365e+002 1.519211e-001
      endloop
   endfacet
   facet normal -1.422529e-017 1.161583e-001 -9.932307e-001
      outer loop
         vertex 1.720000e+002 3.300000e+002 0.000000e+000
         vertex 1.680000e+002 3.317365e+002 1.519211e-001
         vertex 1.720000e+002 3.317365e+002 1.519211e-001
      endloop
   endfacet
   facet normal -2.823446e-017 2.305519e-001 -9.730600e-001
      outer loop
         vertex 1.720000e+002 3.317365e+002 1.519211e-001
         vertex 1.680000e+002 3.317365e+002 1.519211e-001
         vertex 1.680000e+002 3.334202e+002 6.030723e-001
      endloop
   endfacet
   facet normal -3.513099e-017 2.868663e-001 -9.579706e-001
      outer loop
         vertex 1.720000e+002 3.317365e+002 1.519211e-001
         vertex 1.680000e+002 3.334202e+002 6.030723e-001
         vertex 1.720000e+002 3.334202e+002 6.030723e-001
      endloop
   endfacet
   facet normal -4.849838e-017 3.960194e-001 -9.182422e-001
      outer loop
         vertex 1.720000e+002 3.334202e+002 6.030723e-001
         vertex 1.680000e+002 3.334202e+002 6.030723e-001
         vertex 1.680000e+002 3.350000e+002 1.339745e+000
      endloop
   endfacet
   facet normal -5.496925e-017 4.488580e-001 -8.936031e-001
      outer loop
         vertex 1.720000e+002 3.334202e+002 6.030723e-001
         vertex 1.680000e+002 3.350000e+002 1.339745e+000
         vertex 1.720000e+002 3.350000e+002 1.339745e+000
      endloop
   endfacet
   facet normal -6.728871e-017 5.494540e-001 -8.355240e-001
      outer loop
         vertex 1.720000e+002 3.350000e+002 1.339745e+000
         vertex 1.680000e+002 3.350000e+002 1.339745e+000
         vertex 1.680000e+002 3.364279e+002 2.339555e+000
      endloop
   endfacet
   facet normal -7.313730e-017 5.972114e-001 -8.020838e-001
      outer loop
         vertex 1.720000e+002 3.350000e+002 1.339745e+000
         vertex 1.680000e+002 3.364279e+002 2.339555e+000
         vertex 1.720000e+002 3.364279e+002 2.339555e+000
      endloop
   endfacet
   facet normal -8.403449e-017 6.861938e-001 -7.274188e-001
      outer loop
         vertex 1.720000e+002 3.364279e+002 2.339555e+000
         vertex 1.680000e+002 3.364279e+002 2.339555e+000
         vertex 1.680000e+002 3.376605e+002 3.572123e+000
      endloop
   endfacet
   facet normal -8.908310e-017 7.274188e-001 -6.861938e-001
      outer loop
         vertex 1.720000e+002 3.364279e+002 2.339555e+000
         vertex 1.680000e+002 3.376605e+002 3.572123e+000
         vertex 1.720000e+002 3.376605e+002 3.572123e+000
      endloop
   endfacet
   facet normal -9.822694e-017 8.020838e-001 -5.972114e-001
      outer loop
         vertex 1.720000e+002 3.376605e+002 3.572123e+000
         vertex 1.680000e+002 3.376605e+002 3.572123e+000
         vertex 1.680000e+002 3.386603e+002 4.999999e+000
      endloop
   endfacet
   facet normal -1.023222e-016 8.355240e-001 -5.494540e-001
      outer loop
         vertex 1.720000e+002 3.376605e+002 3.572123e+000
         vertex 1.680000e+002 3.386603e+002 4.999999e+000
         vertex 1.720000e+002 3.386603e+002 4.999999e+000
      endloop
   endfacet
   facet normal -1.094348e-016 8.936031e-001 -4.488580e-001
      outer loop
         vertex 1.720000e+002 3.386603e+002 4.999999e+000
         vertex 1.680000e+002 3.386603e+002 4.999999e+000
         vertex 1.680000e+002 3.393969e+002 6.579798e+000
      endloop
   endfacet
   facet normal -1.124522e-016 9.182422e-001 -3.960194e-001
      outer loop
         vertex 1.720000e+002 3.386603e+002 4.999999e+000
         vertex 1.680000e+002 3.393969e+002 6.579798e+000
         vertex 1.720000e+002 3.393969e+002 6.579798e+000
      endloop
   endfacet
   facet normal -1.173176e-016 9.579706e-001 -2.868663e-001
      outer loop
         vertex 1.720000e+002 3.393969e+002 6.579798e+000
         vertex 1.680000e+002 3.393969e+002 6.579798e+000
         vertex 1.680000e+002 3.398481e+002 8.263517e+000
      endloop
   endfacet
   facet normal -1.191655e-016 9.730600e-001 -2.305519e-001
      outer loop
         vertex 1.720000e+002 3.393969e+002 6.579798e+000
         vertex 1.680000e+002 3.398481e+002 8.263517e+000
         vertex 1.720000e+002 3.398481e+002 8.263517e+000
      endloop
   endfacet
   facet normal -1.216357e-016 9.932307e-001 -1.161583e-001
      outer loop
         vertex 1.720000e+002 3.398481e+002 8.263517e+000
         vertex 1.680000e+002 3.398481e+002 8.263517e+000
         vertex 1.680000e+002 3.400000e+002 1.000000e+001
      endloop
   endfacet
   facet normal -1.222580e-016 9.983119e-001 -5.807913e-002
      outer loop
         vertex 1.720000e+002 3.398481e+002 8.263517e+000
         vertex 1.680000e+002 3.400000e+002 1.000000e+001
         vertex 1.720000e+002 3.400000e+002 1.000000e+001
      endloop
   endfacet
   facet normal 0.000000e+000 0.000000e+000 -1.000000e+000
      outer loop
         vertex 1.720000e+002 1.370000e+002 1.200000e+001
         vertex 1.720000e+002 3.400000e+002 1.200000e+001
         vertex 1.830000e+002 1.370000e+002 1.200000e+001
      endloop
   endfacet
   facet normal 0.000000e+000 0.000000e+000 -1.000000e+000
      outer loop
         vertex 1.830000e+002 1.370000e+002 1.200000e+001
         vertex 1.720000e+002 3.400000e+002 1.200000e+001
         vertex 1.830000e+002 3.400000e+002 1.200000e+001
      endloop
   endfacet
   facet normal 1.632681e-016 -1.000000e+000 -3.469447e-016
      outer loop
         vertex 1.830000e+002 3.300000e+002 2.500000e+001
         vertex 1.830000e+002 3.300000e+002 4.500000e+001
         vertex 1.680000e+002 3.300000e+002 2.500000e+001
      endloop
   endfacet
   facet normal 1.632681e-016 -1.000000e+000 -3.469447e-016
      outer loop
         vertex 1.680000e+002 3.300000e+002 2.500000e+001
         vertex 1.830000e+002 3.300000e+002 4.500000e+001
         vertex 1.680000e+002 3.300000e+002 4.500000e+001
      endloop
   endfacet
   facet normal 0.000000e+000 0.000000e+000 1.000000e+000
      outer loop
         vertex 1.830000e+002 3.200000e+002 2.500000e+001
         vertex 1.830000e+002 3.300000e+002 2.500000e+001
         vertex 1.680000e+002 3.200000e+002 2.500000e+001
      endloop
   endfacet
   facet normal 0.000000e+000 0.000000e+000 1.000000e+000
      outer loop
         vertex 1.680000e+002 3.200000e+002 2.500000e+001
         vertex 1.830000e+002 3.300000e+002 2.500000e+001
         vertex 1.680000e+002 3.300000e+002 2.500000e+001
      endloop
   endfacet
   facet normal -1.632681e-016 1.000000e+000 3.469447e-016
      outer loop
         vertex 1.830000e+002 3.200000e+002 4.500000e+001
         vertex 1.830000e+002 3.200000e+002 2.500000e+001
         vertex 1.680000e+002 3.200000e+002 4.500000e+001
      endloop
   endfacet
   facet normal -1.632681e-016 1.000000e+000 3.469447e-016
      outer loop
         vertex 1.680000e+002 3.200000e+002 4.500000e+001
         vertex 1.830000e+002 3.200000e+002 2.500000e+001
         vertex 1.680000e+002 3.200000e+002 2.500000e+001
      endloop
   endfacet
   facet normal 8.673617e-017 -1.000000e+000 0.000000e+000
      outer loop
         vertex 1.680000e+002 1.772000e+002 3.720000e+001
         vertex 1.680000e+002 1.772000e+002 2.880000e+001
         vertex 1.830000e+002 1.772000e+002 3.720000e+001
      endloop
   endfacet
   facet normal 8.673617e-017 -1.000000e+000 0.000000e+000
      outer loop
         vertex 1.830000e+002 1.772000e+002 3.720000e+001
         vertex 1.680000e+002 1.772000e+002 2.880000e+001
         vertex 1.830000e+002 1.772000e+002 2.880000e+001
      endloop
   endfacet
   facet normal 0.000000e+000 0.000000e+000 -1.000000e+000
      outer loop
         vertex 1.680000e+002 1.370000e+002 3.720000e+001
         vertex 1.680000e+002 1.772000e+002 3.720000e+001
         vertex 1.830000e+002 1.370000e+002 3.720000e+001
      endloop
   endfacet
   facet normal 0.000000e+000 0.000000e+000 -1.000000e+000
      outer loop
         vertex 1.830000e+002 1.370000e+002 3.720000e+001
         vertex 1.680000e+002 1.772000e+002 3.720000e+001
         vertex 1.830000e+002 1.772000e+002 3.720000e+001
      endloop
   endfacet
   facet normal 8.673617e-017 -1.000000e+000 0.000000e+000
      outer loop
         vertex 1.680000e+002 1.370000e+002 4.500000e+001
         vertex 1.680000e+002 1.370000e+002 3.720000e+001
         vertex 1.830000e+002 1.370000e+002 4.500000e+001
      endloop
   endfacet
   facet normal 8.673617e-017 -1.000000e+000 0.000000e+000
      outer loop
         vertex 1.830000e+002 1.370000e+002 4.500000e+001
         vertex 1.680000e+002 1.370000e+002 3.720000e+001
         vertex 1.830000e+002 1.370000e+002 3.720000e+001
      endloop
   endfacet
   facet normal 8.673617e-017 -1.000000e+000 0.000000e+000
      outer loop
         vertex 1.680000e+002 1.370000e+002 0.000000e+000
         vertex 1.720000e+002 1.370000e+002 0.000000e+000
         vertex 1.720000e+002 1.370000e+002 1.200000e+001
      endloop
   endfacet
   facet normal 8.673617e-017 -1.000000e+000 0.000000e+000
      outer loop
         vertex 1.830000e+002 1.370000e+002 1.200000e+001
         vertex 1.830000e+002 1.370000e+002 2.880000e+001
         vertex 1.720000e+002 1.370000e+002 1.200000e+001
      endloop
   endfacet
   facet normal 8.673617e-017 -1.000000e+000 0.000000e+000
      outer loop
         vertex 1.720000e+002 1.370000e+002 1.200000e+001
         vertex 1.830000e+002 1.370000e+002 2.880000e+001
         vertex 1.680000e+002 1.370000e+002 2.880000e+001
      endloop
   endfacet
   facet normal 8.673617e-017 -1.000000e+000 0.000000e+000
      outer loop
         vertex 1.720000e+002 1.370000e+002 1.200000e+001
         vertex 1.680000e+002 1.370000e+002 2.880000e+001
         vertex 1.680000e+002 1.370000e+002 0.000000e+000
      endloop
   endfacet
   facet normal -1.122860e-032 1.294570e-016 1.000000e+000
      outer loop
         vertex 1.680000e+002 1.772000e+002 2.880000e+001
         vertex 1.680000e+002 1.370000e+002 2.880000e+001
         vertex 1.830000e+002 1.772000e+002 2.880000e+001
      endloop
   endfacet
   facet normal -1.122860e-032 1.294570e-016 1.000000e+000
      outer loop
         vertex 1.830000e+002 1.772000e+002 2.880000e+001
         vertex 1.680000e+002 1.370000e+002 2.880000e+001
         vertex 1.830000e+002 1.370000e+002 2.880000e+001
      endloop
   endfacet
endsolid