solid 식판구동부_중앙_우측
   facet normal 1.239088e-016 -1.000000e+000 0.000000e+000
      outer loop
         vertex 2.100000e+001 3.200000e+002 2.500000e+001
         vertex 1.760000e+002 3.200000e+002 2.500000e+001
         vertex 2.100000e+001 3.200000e+002 4.500000e+001
      endloop
   endfacet
   facet normal 1.239088e-016 -1.000000e+000 0.000000e+000
      outer loop
         vertex 2.100000e+001 3.200000e+002 4.500000e+001
         vertex 1.760000e+002 3.200000e+002 2.500000e+001
         vertex 1.760000e+002 3.200000e+002 2.550000e+001
      endloop
   endfacet
   facet normal 1.239088e-016 -1.000000e+000 0.000000e+000
      outer loop
         vertex 1.756937e+002 3.200000e+002 3.241576e+001
         vertex 1.755871e+002 3.200000e+002 3.264919e+001
         vertex 2.100000e+001 3.200000e+002 4.500000e+001
      endloop
   endfacet
   facet normal 1.239088e-016 -1.000000e+000 0.000000e+000
      outer loop
         vertex 1.760000e+002 3.200000e+002 2.550000e+001
         vertex 1.767010e+002 3.200000e+002 3.168310e+001
         vertex 1.764549e+002 3.200000e+002 3.175556e+001
      endloop
   endfacet
   facet normal 1.239088e-016 -1.000000e+000 0.000000e+000
      outer loop
         vertex 1.819293e+002 3.200000e+002 3.234196e+001
         vertex 1.772121e+002 3.200000e+002 3.166809e+001
         vertex 1.760000e+002 3.200000e+002 2.550000e+001
      endloop
   endfacet
   facet normal 1.239088e-016 -1.000000e+000 0.000000e+000
      outer loop
         vertex 1.760000e+002 3.200000e+002 2.550000e+001
         vertex 1.772121e+002 3.200000e+002 3.166809e+001
         vertex 1.769559e+002 3.200000e+002 3.165366e+001
      endloop
   endfacet
   facet normal 1.239088e-016 -1.000000e+000 0.000000e+000
      outer loop
         vertex 1.760000e+002 3.200000e+002 2.550000e+001
         vertex 1.769559e+002 3.200000e+002 3.165366e+001
         vertex 1.767010e+002 3.200000e+002 3.168310e+001
      endloop
   endfacet
   facet normal 1.239088e-016 -1.000000e+000 0.000000e+000
      outer loop
         vertex 1.764549e+002 3.200000e+002 3.175556e+001
         vertex 1.762247e+002 3.200000e+002 3.186890e+001
         vertex 1.760000e+002 3.200000e+002 2.550000e+001
      endloop
   endfacet
   facet normal 1.239088e-016 -1.000000e+000 0.000000e+000
      outer loop
         vertex 1.760000e+002 3.200000e+002 2.550000e+001
         vertex 1.762247e+002 3.200000e+002 3.186890e+001
         vertex 1.760172e+002 3.200000e+002 3.201983e+001
      endloop
   endfacet
   facet normal 1.239088e-016 -1.000000e+000 0.000000e+000
      outer loop
         vertex 1.760000e+002 3.200000e+002 2.550000e+001
         vertex 1.760172e+002 3.200000e+002 3.201983e+001
         vertex 2.100000e+001 3.200000e+002 4.500000e+001
      endloop
   endfacet
   facet normal 1.239088e-016 -1.000000e+000 0.000000e+000
      outer loop
         vertex 2.100000e+001 3.200000e+002 4.500000e+001
         vertex 1.760172e+002 3.200000e+002 3.201983e+001
         vertex 1.758384e+002 3.200000e+002 3.220391e+001
      endloop
   endfacet
   facet normal 1.239088e-016 -1.000000e+000 0.000000e+000
      outer loop
         vertex 2.100000e+001 3.200000e+002 4.500000e+001
         vertex 1.758384e+002 3.200000e+002 3.220391e+001
         vertex 1.756937e+002 3.200000e+002 3.241576e+001
      endloop
   endfacet
   facet normal 1.239088e-016 -1.000000e+000 0.000000e+000
      outer loop
         vertex 1.755871e+002 3.200000e+002 3.264919e+001
         vertex 1.755219e+002 3.200000e+002 3.289736e+001
         vertex 2.100000e+001 3.200000e+002 4.500000e+001
      endloop
   endfacet
   facet normal 1.239088e-016 -1.000000e+000 0.000000e+000
      outer loop
         vertex 2.100000e+001 3.200000e+002 4.500000e+001
         vertex 1.755219e+002 3.200000e+002 3.289736e+001
         vertex 1.755000e+002 3.200000e+002 3.315301e+001
      endloop
   endfacet
   facet normal 1.239088e-016 -1.000000e+000 0.000000e+000
      outer loop
         vertex 2.100000e+001 3.200000e+002 4.500000e+001
         vertex 1.755000e+002 3.200000e+002 3.315301e+001
         vertex 1.755000e+002 3.200000e+002 3.884699e+001
      endloop
   endfacet
   facet normal 1.239088e-016 -1.000000e+000 0.000000e+000
      outer loop
         vertex 1.755000e+002 3.200000e+002 3.884699e+001
         vertex 1.755219e+002 3.200000e+002 3.910264e+001
         vertex 2.100000e+001 3.200000e+002 4.500000e+001
      endloop
   endfacet
   facet normal 1.239088e-016 -1.000000e+000 0.000000e+000
      outer loop
         vertex 2.100000e+001 3.200000e+002 4.500000e+001
         vertex 1.755219e+002 3.200000e+002 3.910264e+001
         vertex 1.755871e+002 3.200000e+002 3.935081e+001
      endloop
   endfacet
   facet normal 1.239088e-016 -1.000000e+000 0.000000e+000
      outer loop
         vertex 2.100000e+001 3.200000e+002 4.500000e+001
         vertex 1.755871e+002 3.200000e+002 3.935081e+001
         vertex 1.756937e+002 3.200000e+002 3.958424e+001
      endloop
   endfacet
   facet normal 1.239088e-016 -1.000000e+000 0.000000e+000
      outer loop
         vertex 1.764549e+002 3.200000e+002 4.024444e+001
         vertex 1.767010e+002 3.200000e+002 4.031690e+001
         vertex 1.825000e+002 3.200000e+002 4.500000e+001
      endloop
   endfacet
   facet normal 1.239088e-016 -1.000000e+000 0.000000e+000
      outer loop
         vertex 1.825000e+002 3.200000e+002 4.500000e+001
         vertex 1.767010e+002 3.200000e+002 4.031690e+001
         vertex 1.769559e+002 3.200000e+002 4.034634e+001
      endloop
   endfacet
   facet normal 1.239088e-016 -1.000000e+000 0.000000e+000
      outer loop
         vertex 1.756937e+002 3.200000e+002 3.958424e+001
         vertex 1.758384e+002 3.200000e+002 3.979609e+001
         vertex 2.100000e+001 3.200000e+002 4.500000e+001
      endloop
   endfacet
   facet normal 1.239088e-016 -1.000000e+000 0.000000e+000
      outer loop
         vertex 2.100000e+001 3.200000e+002 4.500000e+001
         vertex 1.758384e+002 3.200000e+002 3.979609e+001
         vertex 1.760172e+002 3.200000e+002 3.998017e+001
      endloop
   endfacet
   facet normal 1.239088e-016 -1.000000e+000 0.000000e+000
      outer loop
         vertex 2.100000e+001 3.200000e+002 4.500000e+001
         vertex 1.760172e+002 3.200000e+002 3.998017e+001
         vertex 1.825000e+002 3.200000e+002 4.500000e+001
      endloop
   endfacet
   facet normal 1.239088e-016 -1.000000e+000 0.000000e+000
      outer loop
         vertex 1.825000e+002 3.200000e+002 4.500000e+001
         vertex 1.760172e+002 3.200000e+002 3.998017e+001
         vertex 1.762247e+002 3.200000e+002 4.013109e+001
      endloop
   endfacet
   facet normal 1.239088e-016 -1.000000e+000 0.000000e+000
      outer loop
         vertex 1.825000e+002 3.200000e+002 4.500000e+001
         vertex 1.762247e+002 3.200000e+002 4.013109e+001
         vertex 1.764549e+002 3.200000e+002 4.024444e+001
      endloop
   endfacet
   facet normal 1.239088e-016 -1.000000e+000 0.000000e+000
      outer loop
         vertex 1.769559e+002 3.200000e+002 4.034634e+001
         vertex 1.772121e+002 3.200000e+002 4.033192e+001
         vertex 1.825000e+002 3.200000e+002 4.500000e+001
      endloop
   endfacet
   facet normal 1.239088e-016 -1.000000e+000 0.000000e+000
      outer loop
         vertex 1.825000e+002 3.200000e+002 4.500000e+001
         vertex 1.772121e+002 3.200000e+002 4.033192e+001
         vertex 1.819293e+002 3.200000e+002 3.965803e+001
      endloop
   endfacet
   facet normal 1.239088e-016 -1.000000e+000 0.000000e+000
      outer loop
         vertex 1.825000e+002 3.200000e+002 4.500000e+001
         vertex 1.819293e+002 3.200000e+002 3.965803e+001
         vertex 1.825000e+002 3.200000e+002 4.015301e+001
      endloop
   endfacet
   facet normal 1.239088e-016 -1.000000e+000 0.000000e+000
      outer loop
         vertex 1.825000e+002 3.200000e+002 4.015301e+001
         vertex 1.819293e+002 3.200000e+002 3.965803e+001
         vertex 1.824927e+002 3.200000e+002 4.006779e+001
      endloop
   endfacet
   facet normal 1.239088e-016 -1.000000e+000 0.000000e+000
      outer loop
         vertex 1.760000e+002 3.200000e+002 2.550000e+001
         vertex 1.820000e+002 3.200000e+002 2.550000e+001
         vertex 1.825000e+002 3.200000e+002 2.600000e+001
      endloop
   endfacet
   facet normal 1.239088e-016 -1.000000e+000 0.000000e+000
      outer loop
         vertex 1.825000e+002 3.200000e+002 2.600000e+001
         vertex 1.820000e+002 3.200000e+002 2.550000e+001
         vertex 1.820782e+002 3.200000e+002 2.550616e+001
      endloop
   endfacet
   facet normal 1.239088e-016 -1.000000e+000 0.000000e+000
      outer loop
         vertex 1.824927e+002 3.200000e+002 3.193221e+001
         vertex 1.824709e+002 3.200000e+002 3.201493e+001
         vertex 1.819293e+002 3.200000e+002 3.234196e+001
      endloop
   endfacet
   facet normal 1.239088e-016 -1.000000e+000 0.000000e+000
      outer loop
         vertex 1.823872e+002 3.200000e+002 3.983665e+001
         vertex 1.824354e+002 3.200000e+002 3.990726e+001
         vertex 1.820996e+002 3.200000e+002 3.966304e+001
      endloop
   endfacet
   facet normal 1.239088e-016 -1.000000e+000 0.000000e+000
      outer loop
         vertex 1.820782e+002 3.200000e+002 2.550616e+001
         vertex 1.821545e+002 3.200000e+002 2.552447e+001
         vertex 1.825000e+002 3.200000e+002 2.600000e+001
      endloop
   endfacet
   facet normal 1.239088e-016 -1.000000e+000 0.000000e+000
      outer loop
         vertex 1.825000e+002 3.200000e+002 2.600000e+001
         vertex 1.821545e+002 3.200000e+002 2.552447e+001
         vertex 1.822270e+002 3.200000e+002 2.555450e+001
      endloop
   endfacet
   facet normal 1.239088e-016 -1.000000e+000 0.000000e+000
      outer loop
         vertex 1.825000e+002 3.200000e+002 2.600000e+001
         vertex 1.822270e+002 3.200000e+002 2.555450e+001
         vertex 1.822939e+002 3.200000e+002 2.559549e+001
      endloop
   endfacet
   facet normal 1.239088e-016 -1.000000e+000 0.000000e+000
      outer loop
         vertex 1.760000e+002 3.200000e+002 2.550000e+001
         vertex 1.825000e+002 3.200000e+002 2.600000e+001
         vertex 1.819293e+002 3.200000e+002 3.234196e+001
      endloop
   endfacet
   facet normal 1.239088e-016 -1.000000e+000 0.000000e+000
      outer loop
         vertex 1.819293e+002 3.200000e+002 3.234196e+001
         vertex 1.825000e+002 3.200000e+002 2.600000e+001
         vertex 1.825000e+002 3.200000e+002 3.184699e+001
      endloop
   endfacet
   facet normal 1.239088e-016 -1.000000e+000 0.000000e+000
      outer loop
         vertex 1.819293e+002 3.200000e+002 3.234196e+001
         vertex 1.825000e+002 3.200000e+002 3.184699e+001
         vertex 1.824927e+002 3.200000e+002 3.193221e+001
      endloop
   endfacet
   facet normal 1.239088e-016 -1.000000e+000 0.000000e+000
      outer loop
         vertex 1.820996e+002 3.200000e+002 3.966304e+001
         vertex 1.824354e+002 3.200000e+002 3.990726e+001
         vertex 1.820147e+002 3.200000e+002 3.965322e+001
      endloop
   endfacet
   facet normal 1.239088e-016 -1.000000e+000 0.000000e+000
      outer loop
         vertex 1.825000e+002 3.200000e+002 2.600000e+001
         vertex 1.824455e+002 3.200000e+002 2.577300e+001
         vertex 1.824938e+002 3.200000e+002 2.592178e+001
      endloop
   endfacet
   facet normal 1.239088e-016 -1.000000e+000 0.000000e+000
      outer loop
         vertex 1.824938e+002 3.200000e+002 2.592178e+001
         vertex 1.824455e+002 3.200000e+002 2.577300e+001
         vertex 1.824755e+002 3.200000e+002 2.584549e+001
      endloop
   endfacet
   facet normal 1.239088e-016 -1.000000e+000 0.000000e+000
      outer loop
         vertex 1.824709e+002 3.200000e+002 3.201493e+001
         vertex 1.824354e+002 3.200000e+002 3.209274e+001
         vertex 1.819293e+002 3.200000e+002 3.234196e+001
      endloop
   endfacet
   facet normal 1.239088e-016 -1.000000e+000 0.000000e+000
      outer loop
         vertex 1.819293e+002 3.200000e+002 3.234196e+001
         vertex 1.824354e+002 3.200000e+002 3.209274e+001
         vertex 1.823872e+002 3.200000e+002 3.216336e+001
      endloop
   endfacet
   facet normal 1.239088e-016 -1.000000e+000 0.000000e+000
      outer loop
         vertex 1.819293e+002 3.200000e+002 3.234196e+001
         vertex 1.823872e+002 3.200000e+002 3.216336e+001
         vertex 1.820147e+002 3.200000e+002 3.234678e+001
      endloop
   endfacet
   facet normal 1.239088e-016 -1.000000e+000 0.000000e+000
      outer loop
         vertex 1.822584e+002 3.200000e+002 3.227502e+001
         vertex 1.821817e+002 3.200000e+002 3.231281e+001
         vertex 1.820996e+002 3.200000e+002 3.233696e+001
      endloop
   endfacet
   facet normal 1.239088e-016 -1.000000e+000 0.000000e+000
      outer loop
         vertex 1.820147e+002 3.200000e+002 3.965322e+001
         vertex 1.824354e+002 3.200000e+002 3.990726e+001
         vertex 1.819293e+002 3.200000e+002 3.965803e+001
      endloop
   endfacet
   facet normal 1.239088e-016 -1.000000e+000 0.000000e+000
      outer loop
         vertex 1.819293e+002 3.200000e+002 3.965803e+001
         vertex 1.824354e+002 3.200000e+002 3.990726e+001
         vertex 1.824709e+002 3.200000e+002 3.998507e+001
      endloop
   endfacet
   facet normal 1.239088e-016 -1.000000e+000 0.000000e+000
      outer loop
         vertex 1.819293e+002 3.200000e+002 3.965803e+001
         vertex 1.824709e+002 3.200000e+002 3.998507e+001
         vertex 1.824927e+002 3.200000e+002 4.006779e+001
      endloop
   endfacet
   facet normal 1.239088e-016 -1.000000e+000 0.000000e+000
      outer loop
         vertex 1.822939e+002 3.200000e+002 2.559549e+001
         vertex 1.823536e+002 3.200000e+002 2.564645e+001
         vertex 1.825000e+002 3.200000e+002 2.600000e+001
      endloop
   endfacet
   facet normal 1.239088e-016 -1.000000e+000 0.000000e+000
      outer loop
         vertex 1.825000e+002 3.200000e+002 2.600000e+001
         vertex 1.823536e+002 3.200000e+002 2.564645e+001
         vertex 1.824045e+002 3.200000e+002 2.570611e+001
      endloop
   endfacet
   facet normal 1.239088e-016 -1.000000e+000 0.000000e+000
      outer loop
         vertex 1.825000e+002 3.200000e+002 2.600000e+001
         vertex 1.824045e+002 3.200000e+002 2.570611e+001
         vertex 1.824455e+002 3.200000e+002 2.577300e+001
      endloop
   endfacet
   facet normal 1.239088e-016 -1.000000e+000 0.000000e+000
      outer loop
         vertex 1.820147e+002 3.200000e+002 3.234678e+001
         vertex 1.823872e+002 3.200000e+002 3.216336e+001
         vertex 1.820996e+002 3.200000e+002 3.233696e+001
      endloop
   endfacet
   facet normal 1.239088e-016 -1.000000e+000 0.000000e+000
      outer loop
         vertex 1.820996e+002 3.200000e+002 3.233696e+001
         vertex 1.823872e+002 3.200000e+002 3.216336e+001
         vertex 1.823276e+002 3.200000e+002 3.222472e+001
      endloop
   endfacet
   facet normal 1.239088e-016 -1.000000e+000 0.000000e+000
      outer loop
         vertex 1.820996e+002 3.200000e+002 3.233696e+001
         vertex 1.823276e+002 3.200000e+002 3.222472e+001
         vertex 1.822584e+002 3.200000e+002 3.227502e+001
      endloop
   endfacet
   facet normal 1.239088e-016 -1.000000e+000 0.000000e+000
      outer loop
         vertex 1.821817e+002 3.200000e+002 3.968719e+001
         vertex 1.822584e+002 3.200000e+002 3.972498e+001
         vertex 1.820996e+002 3.200000e+002 3.966304e+001
      endloop
   endfacet
   facet normal 1.239088e-016 -1.000000e+000 0.000000e+000
      outer loop
         vertex 1.820996e+002 3.200000e+002 3.966304e+001
         vertex 1.822584e+002 3.200000e+002 3.972498e+001
         vertex 1.823276e+002 3.200000e+002 3.977528e+001
      endloop
   endfacet
   facet normal 1.239088e-016 -1.000000e+000 0.000000e+000
      outer loop
         vertex 1.820996e+002 3.200000e+002 3.966304e+001
         vertex 1.823276e+002 3.200000e+002 3.977528e+001
         vertex 1.823872e+002 3.200000e+002 3.983665e+001
      endloop
   endfacet
   facet normal -1.224647e-016 1.000000e+000 0.000000e+000
      outer loop
         vertex 1.760172e+002 3.400000e+002 3.998017e+001
         vertex 1.758384e+002 3.400000e+002 3.979609e+001
         vertex 1.500000e+001 3.400000e+002 4.500000e+001
      endloop
   endfacet
   facet normal -1.224647e-016 1.000000e+000 0.000000e+000
      outer loop
         vertex 1.755219e+002 3.400000e+002 3.289736e+001
         vertex 1.755871e+002 3.400000e+002 3.264919e+001
         vertex 1.500000e+001 3.400000e+002 4.500000e+001
      endloop
   endfacet
   facet normal -1.224647e-016 1.000000e+000 0.000000e+000
      outer loop
         vertex 1.500000e+001 3.400000e+002 4.500000e+001
         vertex 1.755871e+002 3.400000e+002 3.264919e+001
         vertex 1.760000e+002 3.400000e+002 2.550000e+001
      endloop
   endfacet
   facet normal -1.224647e-016 1.000000e+000 0.000000e+000
      outer loop
         vertex 1.500000e+001 3.400000e+002 4.500000e+001
         vertex 1.760000e+002 3.400000e+002 2.550000e+001
         vertex 1.500000e+001 3.400000e+002 2.500000e+001
      endloop
   endfacet
   facet normal -1.224647e-016 1.000000e+000 0.000000e+000
      outer loop
         vertex 1.500000e+001 3.400000e+002 2.500000e+001
         vertex 1.760000e+002 3.400000e+002 2.550000e+001
         vertex 1.760000e+002 3.400000e+002 2.500000e+001
      endloop
   endfacet
   facet normal -1.224647e-016 1.000000e+000 0.000000e+000
      outer loop
         vertex 1.769559e+002 3.400000e+002 4.034634e+001
         vertex 1.767010e+002 3.400000e+002 4.031690e+001
         vertex 1.825000e+002 3.400000e+002 4.500000e+001
      endloop
   endfacet
   facet normal -1.224647e-016 1.000000e+000 0.000000e+000
      outer loop
         vertex 1.760172e+002 3.400000e+002 3.998017e+001
         vertex 1.500000e+001 3.400000e+002 4.500000e+001
         vertex 1.762247e+002 3.400000e+002 4.013109e+001
      endloop
   endfacet
   facet normal -1.224647e-016 1.000000e+000 0.000000e+000
      outer loop
         vertex 1.758384e+002 3.400000e+002 3.979609e+001
         vertex 1.756937e+002 3.400000e+002 3.958424e+001
         vertex 1.500000e+001 3.400000e+002 4.500000e+001
      endloop
   endfacet
   facet normal -1.224647e-016 1.000000e+000 0.000000e+000
      outer loop
         vertex 1.500000e+001 3.400000e+002 4.500000e+001
         vertex 1.756937e+002 3.400000e+002 3.958424e+001
         vertex 1.755871e+002 3.400000e+002 3.935081e+001
      endloop
   endfacet
   facet normal -1.224647e-016 1.000000e+000 0.000000e+000
      outer loop
         vertex 1.500000e+001 3.400000e+002 4.500000e+001
         vertex 1.755871e+002 3.400000e+002 3.935081e+001
         vertex 1.755219e+002 3.400000e+002 3.910264e+001
      endloop
   endfacet
   facet normal -1.224647e-016 1.000000e+000 0.000000e+000
      outer loop
         vertex 1.755219e+002 3.400000e+002 3.910264e+001
         vertex 1.755000e+002 3.400000e+002 3.884699e+001
         vertex 1.500000e+001 3.400000e+002 4.500000e+001
      endloop
   endfacet
   facet normal -1.224647e-016 1.000000e+000 0.000000e+000
      outer loop
         vertex 1.500000e+001 3.400000e+002 4.500000e+001
         vertex 1.755000e+002 3.400000e+002 3.884699e+001
         vertex 1.755000e+002 3.400000e+002 3.315301e+001
      endloop
   endfacet
   facet normal -1.224647e-016 1.000000e+000 0.000000e+000
      outer loop
         vertex 1.500000e+001 3.400000e+002 4.500000e+001
         vertex 1.755000e+002 3.400000e+002 3.315301e+001
         vertex 1.755219e+002 3.400000e+002 3.289736e+001
      endloop
   endfacet
   facet normal -1.224647e-016 1.000000e+000 0.000000e+000
      outer loop
         vertex 1.755871e+002 3.400000e+002 3.264919e+001
         vertex 1.756937e+002 3.400000e+002 3.241576e+001
         vertex 1.760000e+002 3.400000e+002 2.550000e+001
      endloop
   endfacet
   facet normal -1.224647e-016 1.000000e+000 0.000000e+000
      outer loop
         vertex 1.760000e+002 3.400000e+002 2.550000e+001
         vertex 1.756937e+002 3.400000e+002 3.241576e+001
         vertex 1.758384e+002 3.400000e+002 3.220391e+001
      endloop
   endfacet
   facet normal -1.224647e-016 1.000000e+000 0.000000e+000
      outer loop
         vertex 1.760000e+002 3.400000e+002 2.550000e+001
         vertex 1.758384e+002 3.400000e+002 3.220391e+001
         vertex 1.820000e+002 3.400000e+002 2.550000e+001
      endloop
   endfacet
   facet normal -1.224647e-016 1.000000e+000 0.000000e+000
      outer loop
         vertex 1.820000e+002 3.400000e+002 2.550000e+001
         vertex 1.758384e+002 3.400000e+002 3.220391e+001
         vertex 1.820782e+002 3.400000e+002 2.550616e+001
      endloop
   endfacet
   facet normal -1.224647e-016 1.000000e+000 0.000000e+000
      outer loop
         vertex 1.760172e+002 3.400000e+002 3.201983e+001
         vertex 1.762247e+002 3.400000e+002 3.186890e+001
         vertex 1.822270e+002 3.400000e+002 2.555450e+001
      endloop
   endfacet
   facet normal -1.224647e-016 1.000000e+000 0.000000e+000
      outer loop
         vertex 1.822270e+002 3.400000e+002 2.555450e+001
         vertex 1.762247e+002 3.400000e+002 3.186890e+001
         vertex 1.764549e+002 3.400000e+002 3.175556e+001
      endloop
   endfacet
   facet normal -1.224647e-016 1.000000e+000 0.000000e+000
      outer loop
         vertex 1.764549e+002 3.400000e+002 3.175556e+001
         vertex 1.767010e+002 3.400000e+002 3.168310e+001
         vertex 1.822270e+002 3.400000e+002 2.555450e+001
      endloop
   endfacet
   facet normal -1.224647e-016 1.000000e+000 0.000000e+000
      outer loop
         vertex 1.822270e+002 3.400000e+002 2.555450e+001
         vertex 1.767010e+002 3.400000e+002 3.168310e+001
         vertex 1.769559e+002 3.400000e+002 3.165366e+001
      endloop
   endfacet
   facet normal -1.224647e-016 1.000000e+000 0.000000e+000
      outer loop
         vertex 1.822270e+002 3.400000e+002 2.555450e+001
         vertex 1.769559e+002 3.400000e+002 3.165366e+001
         vertex 1.772121e+002 3.400000e+002 3.166809e+001
      endloop
   endfacet
   facet normal -1.224647e-016 1.000000e+000 0.000000e+000
      outer loop
         vertex 1.825000e+002 3.400000e+002 4.500000e+001
         vertex 1.767010e+002 3.400000e+002 4.031690e+001
         vertex 1.500000e+001 3.400000e+002 4.500000e+001
      endloop
   endfacet
   facet normal -1.224647e-016 1.000000e+000 0.000000e+000
      outer loop
         vertex 1.500000e+001 3.400000e+002 4.500000e+001
         vertex 1.767010e+002 3.400000e+002 4.031690e+001
         vertex 1.764549e+002 3.400000e+002 4.024444e+001
      endloop
   endfacet
   facet normal -1.224647e-016 1.000000e+000 0.000000e+000
      outer loop
         vertex 1.500000e+001 3.400000e+002 4.500000e+001
         vertex 1.764549e+002 3.400000e+002 4.024444e+001
         vertex 1.762247e+002 3.400000e+002 4.013109e+001
      endloop
   endfacet
   facet normal -1.224647e-016 1.000000e+000 0.000000e+000
      outer loop
         vertex 1.760172e+002 3.400000e+002 3.201983e+001
         vertex 1.822270e+002 3.400000e+002 2.555450e+001
         vertex 1.758384e+002 3.400000e+002 3.220391e+001
      endloop
   endfacet
   facet normal -1.224647e-016 1.000000e+000 0.000000e+000
      outer loop
         vertex 1.758384e+002 3.400000e+002 3.220391e+001
         vertex 1.822270e+002 3.400000e+002 2.555450e+001
         vertex 1.821545e+002 3.400000e+002 2.552447e+001
      endloop
   endfacet
   facet normal -1.224647e-016 1.000000e+000 0.000000e+000
      outer loop
         vertex 1.758384e+002 3.400000e+002 3.220391e+001
         vertex 1.821545e+002 3.400000e+002 2.552447e+001
         vertex 1.820782e+002 3.400000e+002 2.550616e+001
      endloop
   endfacet
   facet normal -1.224647e-016 1.000000e+000 0.000000e+000
      outer loop
         vertex 1.825000e+002 3.400000e+002 4.015301e+001
         vertex 1.819293e+002 3.400000e+002 3.965803e+001
         vertex 1.825000e+002 3.400000e+002 4.500000e+001
      endloop
   endfacet
   facet normal -1.224647e-016 1.000000e+000 0.000000e+000
      outer loop
         vertex 1.825000e+002 3.400000e+002 4.500000e+001
         vertex 1.819293e+002 3.400000e+002 3.965803e+001
         vertex 1.772121e+002 3.400000e+002 4.033192e+001
      endloop
   endfacet
   facet normal -1.224647e-016 1.000000e+000 0.000000e+000
      outer loop
         vertex 1.825000e+002 3.400000e+002 4.500000e+001
         vertex 1.772121e+002 3.400000e+002 4.033192e+001
         vertex 1.769559e+002 3.400000e+002 4.034634e+001
      endloop
   endfacet
   facet normal -1.224647e-016 1.000000e+000 0.000000e+000
      outer loop
         vertex 1.824755e+002 3.400000e+002 2.584549e+001
         vertex 1.824455e+002 3.400000e+002 2.577300e+001
         vertex 1.772121e+002 3.400000e+002 3.166809e+001
      endloop
   endfacet
   facet normal -1.224647e-016 1.000000e+000 0.000000e+000
      outer loop
         vertex 1.772121e+002 3.400000e+002 3.166809e+001
         vertex 1.824455e+002 3.400000e+002 2.577300e+001
         vertex 1.824045e+002 3.400000e+002 2.570611e+001
      endloop
   endfacet
   facet normal -1.224647e-016 1.000000e+000 0.000000e+000
      outer loop
         vertex 1.824354e+002 3.400000e+002 3.209274e+001
         vertex 1.824709e+002 3.400000e+002 3.201493e+001
         vertex 1.819293e+002 3.400000e+002 3.234196e+001
      endloop
   endfacet
   facet normal -1.224647e-016 1.000000e+000 0.000000e+000
      outer loop
         vertex 1.819293e+002 3.400000e+002 3.234196e+001
         vertex 1.824709e+002 3.400000e+002 3.201493e+001
         vertex 1.824927e+002 3.400000e+002 3.193221e+001
      endloop
   endfacet
   facet normal -1.224647e-016 1.000000e+000 0.000000e+000
      outer loop
         vertex 1.824927e+002 3.400000e+002 3.193221e+001
         vertex 1.825000e+002 3.400000e+002 3.184699e+001
         vertex 1.819293e+002 3.400000e+002 3.234196e+001
      endloop
   endfacet
   facet normal -1.224647e-016 1.000000e+000 0.000000e+000
      outer loop
         vertex 1.819293e+002 3.400000e+002 3.234196e+001
         vertex 1.825000e+002 3.400000e+002 3.184699e+001
         vertex 1.825000e+002 3.400000e+002 2.600000e+001
      endloop
   endfacet
   facet normal -1.224647e-016 1.000000e+000 0.000000e+000
      outer loop
         vertex 1.819293e+002 3.400000e+002 3.234196e+001
         vertex 1.825000e+002 3.400000e+002 2.600000e+001
         vertex 1.772121e+002 3.400000e+002 3.166809e+001
      endloop
   endfacet
   facet normal -1.224647e-016 1.000000e+000 0.000000e+000
      outer loop
         vertex 1.772121e+002 3.400000e+002 3.166809e+001
         vertex 1.825000e+002 3.400000e+002 2.600000e+001
         vertex 1.824938e+002 3.400000e+002 2.592178e+001
      endloop
   endfacet
   facet normal -1.224647e-016 1.000000e+000 0.000000e+000
      outer loop
         vertex 1.772121e+002 3.400000e+002 3.166809e+001
         vertex 1.824938e+002 3.400000e+002 2.592178e+001
         vertex 1.824755e+002 3.400000e+002 2.584549e+001
      endloop
   endfacet
   facet normal -1.224647e-016 1.000000e+000 0.000000e+000
      outer loop
         vertex 1.824045e+002 3.400000e+002 2.570611e+001
         vertex 1.823536e+002 3.400000e+002 2.564645e+001
         vertex 1.772121e+002 3.400000e+002 3.166809e+001
      endloop
   endfacet
   facet normal -1.224647e-016 1.000000e+000 0.000000e+000
      outer loop
         vertex 1.772121e+002 3.400000e+002 3.166809e+001
         vertex 1.823536e+002 3.400000e+002 2.564645e+001
         vertex 1.822939e+002 3.400000e+002 2.559549e+001
      endloop
   endfacet
   facet normal -1.224647e-016 1.000000e+000 0.000000e+000
      outer loop
         vertex 1.772121e+002 3.400000e+002 3.166809e+001
         vertex 1.822939e+002 3.400000e+002 2.559549e+001
         vertex 1.822270e+002 3.400000e+002 2.555450e+001
      endloop
   endfacet
   facet normal -1.224647e-016 1.000000e+000 0.000000e+000
      outer loop
         vertex 1.825000e+002 3.400000e+002 4.015301e+001
         vertex 1.824927e+002 3.400000e+002 4.006779e+001
         vertex 1.819293e+002 3.400000e+002 3.965803e+001
      endloop
   endfacet
   facet normal -1.224647e-016 1.000000e+000 0.000000e+000
      outer loop
         vertex 1.819293e+002 3.400000e+002 3.965803e+001
         vertex 1.824927e+002 3.400000e+002 4.006779e+001
         vertex 1.824709e+002 3.400000e+002 3.998507e+001
      endloop
   endfacet
   facet normal -1.224647e-016 1.000000e+000 0.000000e+000
      outer loop
         vertex 1.819293e+002 3.400000e+002 3.965803e+001
         vertex 1.824709e+002 3.400000e+002 3.998507e+001
         vertex 1.824354e+002 3.400000e+002 3.990726e+001
      endloop
   endfacet
   facet normal -1.224647e-016 1.000000e+000 0.000000e+000
      outer loop
         vertex 1.820996e+002 3.400000e+002 3.966304e+001
         vertex 1.823276e+002 3.400000e+002 3.977528e+001
         vertex 1.821817e+002 3.400000e+002 3.968719e+001
      endloop
   endfacet
   facet normal -1.224647e-016 1.000000e+000 0.000000e+000
      outer loop
         vertex 1.821817e+002 3.400000e+002 3.968719e+001
         vertex 1.823276e+002 3.400000e+002 3.977528e+001
         vertex 1.822584e+002 3.400000e+002 3.972498e+001
      endloop
   endfacet
   facet normal -1.224647e-016 1.000000e+000 0.000000e+000
      outer loop
         vertex 1.824354e+002 3.400000e+002 3.990726e+001
         vertex 1.823872e+002 3.400000e+002 3.983665e+001
         vertex 1.819293e+002 3.400000e+002 3.965803e+001
      endloop
   endfacet
   facet normal -1.224647e-016 1.000000e+000 0.000000e+000
      outer loop
         vertex 1.819293e+002 3.400000e+002 3.965803e+001
         vertex 1.823872e+002 3.400000e+002 3.983665e+001
         vertex 1.823276e+002 3.400000e+002 3.977528e+001
      endloop
   endfacet
   facet normal -1.224647e-016 1.000000e+000 0.000000e+000
      outer loop
         vertex 1.819293e+002 3.400000e+002 3.965803e+001
         vertex 1.823276e+002 3.400000e+002 3.977528e+001
         vertex 1.820147e+002 3.400000e+002 3.965322e+001
      endloop
   endfacet
   facet normal -1.224647e-016 1.000000e+000 0.000000e+000
      outer loop
         vertex 1.820147e+002 3.400000e+002 3.965322e+001
         vertex 1.823276e+002 3.400000e+002 3.977528e+001
         vertex 1.820996e+002 3.400000e+002 3.966304e+001
      endloop
   endfacet
   facet normal -1.224647e-016 1.000000e+000 0.000000e+000
      outer loop
         vertex 1.824354e+002 3.400000e+002 3.209274e+001
         vertex 1.819293e+002 3.400000e+002 3.234196e+001
         vertex 1.823872e+002 3.400000e+002 3.216336e+001
      endloop
   endfacet
   facet normal -1.224647e-016 1.000000e+000 0.000000e+000
      outer loop
         vertex 1.823872e+002 3.400000e+002 3.216336e+001
         vertex 1.819293e+002 3.400000e+002 3.234196e+001
         vertex 1.820147e+002 3.400000e+002 3.234678e+001
      endloop
   endfacet
   facet normal -1.224647e-016 1.000000e+000 0.000000e+000
      outer loop
         vertex 1.823872e+002 3.400000e+002 3.216336e+001
         vertex 1.820147e+002 3.400000e+002 3.234678e+001
         vertex 1.820996e+002 3.400000e+002 3.233696e+001
      endloop
   endfacet
   facet normal -1.224647e-016 1.000000e+000 0.000000e+000
      outer loop
         vertex 1.821817e+002 3.400000e+002 3.231281e+001
         vertex 1.822584e+002 3.400000e+002 3.227502e+001
         vertex 1.820996e+002 3.400000e+002 3.233696e+001
      endloop
   endfacet
   facet normal -1.224647e-016 1.000000e+000 0.000000e+000
      outer loop
         vertex 1.820996e+002 3.400000e+002 3.233696e+001
         vertex 1.822584e+002 3.400000e+002 3.227502e+001
         vertex 1.823276e+002 3.400000e+002 3.222472e+001
      endloop
   endfacet
   facet normal -1.224647e-016 1.000000e+000 0.000000e+000
      outer loop
         vertex 1.820996e+002 3.400000e+002 3.233696e+001
         vertex 1.823276e+002 3.400000e+002 3.222472e+001
         vertex 1.823872e+002 3.400000e+002 3.216336e+001
      endloop
   endfacet
   facet normal 0.000000e+000 0.000000e+000 1.000000e+000
      outer loop
         vertex 1.500000e+001 3.200000e+002 4.500000e+001
         vertex 1.500000e+001 3.140000e+002 4.500000e+001
         vertex 2.100000e+001 3.200000e+002 4.500000e+001
      endloop
   endfacet
   facet normal 0.000000e+000 0.000000e+000 1.000000e+000
      outer loop
         vertex 1.825000e+002 3.400000e+002 4.500000e+001
         vertex 1.500000e+001 3.400000e+002 4.500000e+001
         vertex 1.500000e+001 3.290000e+002 4.500000e+001
      endloop
   endfacet
   facet normal 0.000000e+000 0.000000e+000 1.000000e+000
      outer loop
         vertex 0.000000e+000 3.290000e+002 4.500000e+001
         vertex 0.000000e+000 3.200000e+002 4.500000e+001
         vertex 1.500000e+001 3.290000e+002 4.500000e+001
      endloop
   endfacet
   facet normal 0.000000e+000 0.000000e+000 1.000000e+000
      outer loop
         vertex 1.500000e+001 3.290000e+002 4.500000e+001
         vertex 0.000000e+000 3.200000e+002 4.500000e+001
         vertex 1.500000e+001 3.200000e+002 4.500000e+001
      endloop
   endfacet
   facet normal 0.000000e+000 0.000000e+000 1.000000e+000
      outer loop
         vertex 1.500000e+001 3.290000e+002 4.500000e+001
         vertex 1.500000e+001 3.200000e+002 4.500000e+001
         vertex 1.825000e+002 3.400000e+002 4.500000e+001
      endloop
   endfacet
   facet normal 0.000000e+000 0.000000e+000 1.000000e+000
      outer loop
         vertex 1.825000e+002 3.400000e+002 4.500000e+001
         vertex 1.500000e+001 3.200000e+002 4.500000e+001
         vertex 2.100000e+001 3.200000e+002 4.500000e+001
      endloop
   endfacet
   facet normal 0.000000e+000 0.000000e+000 1.000000e+000
      outer loop
         vertex 1.825000e+002 3.400000e+002 4.500000e+001
         vertex 2.100000e+001 3.200000e+002 4.500000e+001
         vertex 1.825000e+002 3.200000e+002 4.500000e+001
      endloop
   endfacet
   facet normal -1.000000e+000 -2.084957e-016 -3.697785e-032
      outer loop
         vertex 1.500000e+001 3.290000e+002 4.500000e+001
         vertex 1.500000e+001 3.400000e+002 4.500000e+001
         vertex 1.500000e+001 3.290000e+002 3.600000e+001
      endloop
   endfacet
   facet normal -1.000000e+000 -2.084957e-016 -3.697785e-032
      outer loop
         vertex 1.500000e+001 3.290000e+002 3.600000e+001
         vertex 1.500000e+001 3.400000e+002 4.500000e+001
         vertex 1.500000e+001 3.400000e+002 2.500000e+001
      endloop
   endfacet
   facet normal -1.000000e+000 -2.084957e-016 -3.697785e-032
      outer loop
         vertex 1.500000e+001 3.290000e+002 3.600000e+001
         vertex 1.500000e+001 3.400000e+002 2.500000e+001
         vertex 1.500000e+001 3.200000e+002 3.600000e+001
      endloop
   endfacet
   facet normal -1.000000e+000 -2.084957e-016 -3.697785e-032
      outer loop
         vertex 1.500000e+001 3.200000e+002 3.600000e+001
         vertex 1.500000e+001 3.400000e+002 2.500000e+001
         vertex 1.500000e+001 3.140000e+002 2.500000e+001
      endloop
   endfacet
   facet normal -1.000000e+000 -2.084957e-016 -3.697785e-032
      outer loop
         vertex 1.500000e+001 3.200000e+002 3.600000e+001
         vertex 1.500000e+001 3.140000e+002 2.500000e+001
         vertex 1.500000e+001 3.200000e+002 4.500000e+001
      endloop
   endfacet
   facet normal -1.000000e+000 -2.084957e-016 -3.697785e-032
      outer loop
         vertex 1.500000e+001 3.200000e+002 4.500000e+001
         vertex 1.500000e+001 3.140000e+002 2.500000e+001
         vertex 1.500000e+001 3.140000e+002 4.500000e+001
      endloop
   endfacet
   facet normal 1.239088e-016 -1.000000e+000 0.000000e+000
      outer loop
         vertex 1.500000e+001 3.200000e+002 4.500000e+001
         vertex 0.000000e+000 3.200000e+002 4.500000e+001
         vertex 1.500000e+001 3.200000e+002 3.600000e+001
      endloop
   endfacet
   facet normal 1.239088e-016 -1.000000e+000 0.000000e+000
      outer loop
         vertex 1.500000e+001 3.200000e+002 3.600000e+001
         vertex 0.000000e+000 3.200000e+002 4.500000e+001
         vertex 0.000000e+000 3.200000e+002 3.600000e+001
      endloop
   endfacet
   facet normal 0.000000e+000 0.000000e+000 -1.000000e+000
      outer loop
         vertex 1.760000e+002 3.400000e+002 2.500000e+001
         vertex 1.760000e+002 3.200000e+002 2.500000e+001
         vertex 1.500000e+001 3.400000e+002 2.500000e+001
      endloop
   endfacet
   facet normal 0.000000e+000 0.000000e+000 -1.000000e+000
      outer loop
         vertex 1.500000e+001 3.400000e+002 2.500000e+001
         vertex 1.760000e+002 3.200000e+002 2.500000e+001
         vertex 2.100000e+001 3.200000e+002 2.500000e+001
      endloop
   endfacet
   facet normal 0.000000e+000 0.000000e+000 -1.000000e+000
      outer loop
         vertex 1.500000e+001 3.400000e+002 2.500000e+001
         vertex 2.100000e+001 3.200000e+002 2.500000e+001
         vertex 1.500000e+001 3.140000e+002 2.500000e+001
      endloop
   endfacet
   facet normal -2.465190e-032 0.000000e+000 -1.000000e+000
      outer loop
         vertex 0.000000e+000 3.200000e+002 3.600000e+001
         vertex 0.000000e+000 3.290000e+002 3.600000e+001
         vertex 1.500000e+001 3.200000e+002 3.600000e+001
      endloop
   endfacet
   facet normal -2.465190e-032 0.000000e+000 -1.000000e+000
      outer loop
         vertex 1.500000e+001 3.200000e+002 3.600000e+001
         vertex 0.000000e+000 3.290000e+002 3.600000e+001
         vertex 1.500000e+001 3.290000e+002 3.600000e+001
      endloop
   endfacet
   facet normal 1.039902e-016 1.000000e+000 0.000000e+000
      outer loop
         vertex 0.000000e+000 3.290000e+002 3.600000e+001
         vertex 0.000000e+000 3.290000e+002 4.500000e+001
         vertex 1.500000e+001 3.290000e+002 3.600000e+001
      endloop
   endfacet
   facet normal 1.039902e-016 1.000000e+000 0.000000e+000
      outer loop
         vertex 1.500000e+001 3.290000e+002 3.600000e+001
         vertex 0.000000e+000 3.290000e+002 4.500000e+001
         vertex 1.500000e+001 3.290000e+002 4.500000e+001
      endloop
   endfacet
   facet normal -1.000000e+000 1.039902e-016 2.465190e-032
      outer loop
         vertex 0.000000e+000 3.200000e+002 4.500000e+001
         vertex 0.000000e+000 3.290000e+002 4.500000e+001
         vertex 0.000000e+000 3.200000e+002 3.600000e+001
      endloop
   endfacet
   facet normal -1.000000e+000 1.039902e-016 2.465190e-032
      outer loop
         vertex 0.000000e+000 3.200000e+002 3.600000e+001
         vertex 0.000000e+000 3.290000e+002 4.500000e+001
         vertex 0.000000e+000 3.290000e+002 3.600000e+001
      endloop
   endfacet
   facet normal 7.071068e-001 -7.071068e-001 0.000000e+000
      outer loop
         vertex 1.500000e+001 3.140000e+002 2.500000e+001
         vertex 2.100000e+001 3.200000e+002 2.500000e+001
         vertex 1.500000e+001 3.140000e+002 4.500000e+001
      endloop
   endfacet
   facet normal 7.071068e-001 -7.071068e-001 0.000000e+000
      outer loop
         vertex 1.500000e+001 3.140000e+002 4.500000e+001
         vertex 2.100000e+001 3.200000e+002 2.500000e+001
         vertex 2.100000e+001 3.200000e+002 4.500000e+001
      endloop
   endfacet
   facet normal -8.476760e-002 -1.038104e-017 -9.964007e-001
      outer loop
         vertex 1.819293e+002 3.200000e+002 3.965803e+001
         vertex 1.819293e+002 3.400000e+002 3.965803e+001
         vertex 1.820147e+002 3.400000e+002 3.965322e+001
      endloop
   endfacet
   facet normal -2.765180e-002 -3.386368e-018 -9.996176e-001
      outer loop
         vertex 1.819293e+002 3.200000e+002 3.965803e+001
         vertex 1.820147e+002 3.400000e+002 3.965322e+001
         vertex 1.820147e+002 3.200000e+002 3.965322e+001
      endloop
   endfacet
   facet normal 8.629244e-002 1.056778e-017 -9.962698e-001
      outer loop
         vertex 1.820147e+002 3.200000e+002 3.965322e+001
         vertex 1.820147e+002 3.400000e+002 3.965322e+001
         vertex 1.820996e+002 3.400000e+002 3.966304e+001
      endloop
   endfacet
   facet normal 1.431209e-001 1.752725e-017 -9.897052e-001
      outer loop
         vertex 1.820147e+002 3.200000e+002 3.965322e+001
         vertex 1.820996e+002 3.400000e+002 3.966304e+001
         vertex 1.820996e+002 3.200000e+002 3.966304e+001
      endloop
   endfacet
   facet normal 2.548274e-001 3.120736e-017 -9.669865e-001
      outer loop
         vertex 1.820996e+002 3.200000e+002 3.966304e+001
         vertex 1.820996e+002 3.400000e+002 3.966304e+001
         vertex 1.821817e+002 3.400000e+002 3.968719e+001
      endloop
   endfacet
   facet normal 3.097056e-001 3.792799e-017 -9.508325e-001
      outer loop
         vertex 1.820996e+002 3.200000e+002 3.966304e+001
         vertex 1.821817e+002 3.400000e+002 3.968719e+001
         vertex 1.821817e+002 3.200000e+002 3.968719e+001
      endloop
   endfacet
   facet normal 4.159058e-001 5.093377e-017 -9.094077e-001
      outer loop
         vertex 1.821817e+002 3.200000e+002 3.968719e+001
         vertex 1.821817e+002 3.400000e+002 3.968719e+001
         vertex 1.822584e+002 3.400000e+002 3.972498e+001
      endloop
   endfacet
   facet normal 4.672278e-001 5.721890e-017 -8.841370e-001
      outer loop
         vertex 1.821817e+002 3.200000e+002 3.968719e+001
         vertex 1.822584e+002 3.400000e+002 3.972498e+001
         vertex 1.822584e+002 3.200000e+002 3.972498e+001
      endloop
   endfacet
   facet normal 5.648140e-001 6.916978e-017 -8.252182e-001
      outer loop
         vertex 1.822584e+002 3.200000e+002 3.972498e+001
         vertex 1.822584e+002 3.400000e+002 3.972498e+001
         vertex 1.823276e+002 3.400000e+002 3.977528e+001
      endloop
   endfacet
   facet normal 6.110782e-001 7.483550e-017 -7.915702e-001
      outer loop
         vertex 1.822584e+002 3.200000e+002 3.972498e+001
         vertex 1.823276e+002 3.400000e+002 3.977528e+001
         vertex 1.823276e+002 3.200000e+002 3.977528e+001
      endloop
   endfacet
   facet normal 6.971950e-001 8.538176e-017 -7.168815e-001
      outer loop
         vertex 1.823276e+002 3.200000e+002 3.977528e+001
         vertex 1.823276e+002 3.400000e+002 3.977528e+001
         vertex 1.823872e+002 3.400000e+002 3.983665e+001
      endloop
   endfacet
   facet normal 7.370476e-001 9.026229e-017 -6.758409e-001
      outer loop
         vertex 1.823276e+002 3.200000e+002 3.977528e+001
         vertex 1.823872e+002 3.400000e+002 3.983665e+001
         vertex 1.823872e+002 3.200000e+002 3.983665e+001
      endloop
   endfacet
   facet normal 8.091750e-001 9.909535e-017 -5.875677e-001
      outer loop
         vertex 1.823872e+002 3.200000e+002 3.983665e+001
         vertex 1.823872e+002 3.400000e+002 3.983665e+001
         vertex 1.824354e+002 3.400000e+002 3.990726e+001
      endloop
   endfacet
   facet normal 8.414497e-001 1.030479e-016 -5.403354e-001
      outer loop
         vertex 1.823872e+002 3.200000e+002 3.983665e+001
         vertex 1.824354e+002 3.400000e+002 3.990726e+001
         vertex 1.824354e+002 3.200000e+002 3.990726e+001
      endloop
   endfacet
   facet normal 8.974771e-001 1.099093e-016 -4.410609e-001
      outer loop
         vertex 1.824354e+002 3.200000e+002 3.990726e+001
         vertex 1.824354e+002 3.400000e+002 3.990726e+001
         vertex 1.824709e+002 3.400000e+002 3.998507e+001
      endloop
   endfacet
   facet normal 9.212298e-001 1.128181e-016 -3.890188e-001
      outer loop
         vertex 1.824354e+002 3.200000e+002 3.990726e+001
         vertex 1.824709e+002 3.400000e+002 3.998507e+001
         vertex 1.824709e+002 3.200000e+002 3.998507e+001
      endloop
   endfacet
   facet normal 9.595178e-001 1.175071e-016 -2.816479e-001
      outer loop
         vertex 1.824709e+002 3.200000e+002 3.998507e+001
         vertex 1.824709e+002 3.400000e+002 3.998507e+001
         vertex 1.824927e+002 3.400000e+002 4.006779e+001
      endloop
   endfacet
   facet normal 9.740532e-001 1.192871e-016 -2.263190e-001
      outer loop
         vertex 1.824709e+002 3.200000e+002 3.998507e+001
         vertex 1.824927e+002 3.400000e+002 4.006779e+001
         vertex 1.824927e+002 3.200000e+002 4.006779e+001
      endloop
   endfacet
   facet normal 9.934815e-001 1.216664e-016 -1.139934e-001
      outer loop
         vertex 1.824927e+002 3.200000e+002 4.006779e+001
         vertex 1.824927e+002 3.400000e+002 4.006779e+001
         vertex 1.825000e+002 3.400000e+002 4.015301e+001
      endloop
   endfacet
   facet normal 9.983743e-001 1.222656e-016 -5.699670e-002
      outer loop
         vertex 1.824927e+002 3.200000e+002 4.006779e+001
         vertex 1.825000e+002 3.400000e+002 4.015301e+001
         vertex 1.825000e+002 3.200000e+002 4.015301e+001
      endloop
   endfacet
   facet normal -1.414214e-001 -1.731912e-017 -9.899495e-001
      outer loop
         vertex 1.772121e+002 3.400000e+002 4.033192e+001
         vertex 1.819293e+002 3.400000e+002 3.965803e+001
         vertex 1.772121e+002 3.200000e+002 4.033192e+001
      endloop
   endfacet
   facet normal -1.414214e-001 -1.731912e-017 -9.899495e-001
      outer loop
         vertex 1.772121e+002 3.200000e+002 4.033192e+001
         vertex 1.819293e+002 3.400000e+002 3.965803e+001
         vertex 1.819293e+002 3.200000e+002 3.965803e+001
      endloop
   endfacet
   facet normal 9.983743e-001 1.222656e-016 -5.699670e-002
      outer loop
         vertex 1.755000e+002 3.200000e+002 3.884699e+001
         vertex 1.755000e+002 3.400000e+002 3.884699e+001
         vertex 1.755219e+002 3.200000e+002 3.910264e+001
      endloop
   endfacet
   facet normal 9.934815e-001 1.216664e-016 -1.139934e-001
      outer loop
         vertex 1.755219e+002 3.200000e+002 3.910264e+001
         vertex 1.755000e+002 3.400000e+002 3.884699e+001
         vertex 1.755219e+002 3.400000e+002 3.910264e+001
      endloop
   endfacet
   facet normal 9.740532e-001 1.192871e-016 -2.263190e-001
      outer loop
         vertex 1.755219e+002 3.200000e+002 3.910264e+001
         vertex 1.755219e+002 3.400000e+002 3.910264e+001
         vertex 1.755871e+002 3.200000e+002 3.935081e+001
      endloop
   endfacet
   facet normal 9.595178e-001 1.175071e-016 -2.816479e-001
      outer loop
         vertex 1.755871e+002 3.200000e+002 3.935081e+001
         vertex 1.755219e+002 3.400000e+002 3.910264e+001
         vertex 1.755871e+002 3.400000e+002 3.935081e+001
      endloop
   endfacet
   facet normal 9.212298e-001 1.128181e-016 -3.890188e-001
      outer loop
         vertex 1.755871e+002 3.200000e+002 3.935081e+001
         vertex 1.755871e+002 3.400000e+002 3.935081e+001
         vertex 1.756937e+002 3.200000e+002 3.958424e+001
      endloop
   endfacet
   facet normal 8.974771e-001 1.099093e-016 -4.410609e-001
      outer loop
         vertex 1.756937e+002 3.200000e+002 3.958424e+001
         vertex 1.755871e+002 3.400000e+002 3.935081e+001
         vertex 1.756937e+002 3.400000e+002 3.958424e+001
      endloop
   endfacet
   facet normal 8.414497e-001 1.030479e-016 -5.403354e-001
      outer loop
         vertex 1.756937e+002 3.200000e+002 3.958424e+001
         vertex 1.756937e+002 3.400000e+002 3.958424e+001
         vertex 1.758384e+002 3.200000e+002 3.979609e+001
      endloop
   endfacet
   facet normal 8.091750e-001 9.909535e-017 -5.875677e-001
      outer loop
         vertex 1.758384e+002 3.200000e+002 3.979609e+001
         vertex 1.756937e+002 3.400000e+002 3.958424e+001
         vertex 1.758384e+002 3.400000e+002 3.979609e+001
      endloop
   endfacet
   facet normal 7.370476e-001 9.026229e-017 -6.758409e-001
      outer loop
         vertex 1.758384e+002 3.200000e+002 3.979609e+001
         vertex 1.758384e+002 3.400000e+002 3.979609e+001
         vertex 1.760172e+002 3.200000e+002 3.998017e+001
      endloop
   endfacet
   facet normal 6.971950e-001 8.538176e-017 -7.168816e-001
      outer loop
         vertex 1.760172e+002 3.200000e+002 3.998017e+001
         vertex 1.758384e+002 3.400000e+002 3.979609e+001
         vertex 1.760172e+002 3.400000e+002 3.998017e+001
      endloop
   endfacet
   facet normal 6.110782e-001 7.483550e-017 -7.915702e-001
      outer loop
         vertex 1.760172e+002 3.200000e+002 3.998017e+001
         vertex 1.760172e+002 3.400000e+002 3.998017e+001
         vertex 1.762247e+002 3.200000e+002 4.013109e+001
      endloop
   endfacet
   facet normal 5.648140e-001 6.916978e-017 -8.252182e-001
      outer loop
         vertex 1.762247e+002 3.200000e+002 4.013109e+001
         vertex 1.760172e+002 3.400000e+002 3.998017e+001
         vertex 1.762247e+002 3.400000e+002 4.013109e+001
      endloop
   endfacet
   facet normal 4.672278e-001 5.721890e-017 -8.841370e-001
      outer loop
         vertex 1.762247e+002 3.200000e+002 4.013109e+001
         vertex 1.762247e+002 3.400000e+002 4.013109e+001
         vertex 1.764549e+002 3.200000e+002 4.024444e+001
      endloop
   endfacet
   facet normal 4.159058e-001 5.093377e-017 -9.094077e-001
      outer loop
         vertex 1.764549e+002 3.200000e+002 4.024444e+001
         vertex 1.762247e+002 3.400000e+002 4.013109e+001
         vertex 1.764549e+002 3.400000e+002 4.024444e+001
      endloop
   endfacet
   facet normal 3.097056e-001 3.792799e-017 -9.508325e-001
      outer loop
         vertex 1.764549e+002 3.200000e+002 4.024444e+001
         vertex 1.764549e+002 3.400000e+002 4.024444e+001
         vertex 1.767010e+002 3.200000e+002 4.031690e+001
      endloop
   endfacet
   facet normal 2.548274e-001 3.120736e-017 -9.669865e-001
      outer loop
         vertex 1.767010e+002 3.200000e+002 4.031690e+001
         vertex 1.764549e+002 3.400000e+002 4.024444e+001
         vertex 1.767010e+002 3.400000e+002 4.031690e+001
      endloop
   endfacet
   facet normal 1.431209e-001 1.752725e-017 -9.897052e-001
      outer loop
         vertex 1.767010e+002 3.200000e+002 4.031690e+001
         vertex 1.767010e+002 3.400000e+002 4.031690e+001
         vertex 1.769559e+002 3.200000e+002 4.034634e+001
      endloop
   endfacet
   facet normal 8.629244e-002 1.056778e-017 -9.962698e-001
      outer loop
         vertex 1.769559e+002 3.200000e+002 4.034634e+001
         vertex 1.767010e+002 3.400000e+002 4.031690e+001
         vertex 1.769559e+002 3.400000e+002 4.034634e+001
      endloop
   endfacet
   facet normal -2.765180e-002 -3.386368e-018 -9.996176e-001
      outer loop
         vertex 1.769559e+002 3.200000e+002 4.034634e+001
         vertex 1.769559e+002 3.400000e+002 4.034634e+001
         vertex 1.772121e+002 3.200000e+002 4.033192e+001
      endloop
   endfacet
   facet normal -8.476760e-002 -1.038104e-017 -9.964007e-001
      outer loop
         vertex 1.772121e+002 3.200000e+002 4.033192e+001
         vertex 1.769559e+002 3.400000e+002 4.034634e+001
         vertex 1.772121e+002 3.400000e+002 4.033192e+001
      endloop
   endfacet
   facet normal 1.000000e+000 1.224647e-016 1.523296e-016
      outer loop
         vertex 1.755000e+002 3.400000e+002 3.315301e+001
         vertex 1.755000e+002 3.400000e+002 3.884699e+001
         vertex 1.755000e+002 3.200000e+002 3.315301e+001
      endloop
   endfacet
   facet normal 1.000000e+000 1.224647e-016 1.523296e-016
      outer loop
         vertex 1.755000e+002 3.200000e+002 3.315301e+001
         vertex 1.755000e+002 3.400000e+002 3.884699e+001
         vertex 1.755000e+002 3.200000e+002 3.884699e+001
      endloop
   endfacet
   facet normal -8.476760e-002 -1.038104e-017 9.964007e-001
      outer loop
         vertex 1.772121e+002 3.200000e+002 3.166809e+001
         vertex 1.772121e+002 3.400000e+002 3.166809e+001
         vertex 1.769559e+002 3.200000e+002 3.165366e+001
      endloop
   endfacet
   facet normal -2.765180e-002 -3.386368e-018 9.996176e-001
      outer loop
         vertex 1.769559e+002 3.200000e+002 3.165366e+001
         vertex 1.772121e+002 3.400000e+002 3.166809e+001
         vertex 1.769559e+002 3.400000e+002 3.165366e+001
      endloop
   endfacet
   facet normal 8.629244e-002 1.056778e-017 9.962698e-001
      outer loop
         vertex 1.769559e+002 3.200000e+002 3.165366e+001
         vertex 1.769559e+002 3.400000e+002 3.165366e+001
         vertex 1.767010e+002 3.200000e+002 3.168310e+001
      endloop
   endfacet
   facet normal 1.431209e-001 1.752725e-017 9.897052e-001
      outer loop
         vertex 1.767010e+002 3.200000e+002 3.168310e+001
         vertex 1.769559e+002 3.400000e+002 3.165366e+001
         vertex 1.767010e+002 3.400000e+002 3.168310e+001
      endloop
   endfacet
   facet normal 2.548274e-001 3.120736e-017 9.669865e-001
      outer loop
         vertex 1.767010e+002 3.200000e+002 3.168310e+001
         vertex 1.767010e+002 3.400000e+002 3.168310e+001
         vertex 1.764549e+002 3.200000e+002 3.175556e+001
      endloop
   endfacet
   facet normal 3.097056e-001 3.792799e-017 9.508325e-001
      outer loop
         vertex 1.764549e+002 3.200000e+002 3.175556e+001
         vertex 1.767010e+002 3.400000e+002 3.168310e+001
         vertex 1.764549e+002 3.400000e+002 3.175556e+001
      endloop
   endfacet
   facet normal 4.159058e-001 5.093377e-017 9.094077e-001
      outer loop
         vertex 1.764549e+002 3.200000e+002 3.175556e+001
         vertex 1.764549e+002 3.400000e+002 3.175556e+001
         vertex 1.762247e+002 3.200000e+002 3.186890e+001
      endloop
   endfacet
   facet normal 4.672278e-001 5.721890e-017 8.841370e-001
      outer loop
         vertex 1.762247e+002 3.200000e+002 3.186890e+001
         vertex 1.764549e+002 3.400000e+002 3.175556e+001
         vertex 1.762247e+002 3.400000e+002 3.186890e+001
      endloop
   endfacet
   facet normal 5.648140e-001 6.916978e-017 8.252182e-001
      outer loop
         vertex 1.762247e+002 3.200000e+002 3.186890e+001
         vertex 1.762247e+002 3.400000e+002 3.186890e+001
         vertex 1.760172e+002 3.200000e+002 3.201983e+001
      endloop
   endfacet
   facet normal 6.110782e-001 7.483550e-017 7.915702e-001
      outer loop
         vertex 1.760172e+002 3.200000e+002 3.201983e+001
         vertex 1.762247e+002 3.400000e+002 3.186890e+001
         vertex 1.760172e+002 3.400000e+002 3.201983e+001
      endloop
   endfacet
   facet normal 6.971950e-001 8.538176e-017 7.168815e-001
      outer loop
         vertex 1.760172e+002 3.200000e+002 3.201983e+001
         vertex 1.760172e+002 3.400000e+002 3.201983e+001
         vertex 1.758384e+002 3.200000e+002 3.220391e+001
      endloop
   endfacet
   facet normal 7.370476e-001 9.026229e-017 6.758409e-001
      outer loop
         vertex 1.758384e+002 3.200000e+002 3.220391e+001
         vertex 1.760172e+002 3.400000e+002 3.201983e+001
         vertex 1.758384e+002 3.400000e+002 3.220391e+001
      endloop
   endfacet
   facet normal 8.091750e-001 9.909535e-017 5.875677e-001
      outer loop
         vertex 1.758384e+002 3.200000e+002 3.220391e+001
         vertex 1.758384e+002 3.400000e+002 3.220391e+001
         vertex 1.756937e+002 3.200000e+002 3.241576e+001
      endloop
   endfacet
   facet normal 8.414497e-001 1.030479e-016 5.403354e-001
      outer loop
         vertex 1.756937e+002 3.200000e+002 3.241576e+001
         vertex 1.758384e+002 3.400000e+002 3.220391e+001
         vertex 1.756937e+002 3.400000e+002 3.241576e+001
      endloop
   endfacet
   facet normal 8.974771e-001 1.099093e-016 4.410609e-001
      outer loop
         vertex 1.756937e+002 3.200000e+002 3.241576e+001
         vertex 1.756937e+002 3.400000e+002 3.241576e+001
         vertex 1.755871e+002 3.200000e+002 3.264919e+001
      endloop
   endfacet
   facet normal 9.212298e-001 1.128181e-016 3.890188e-001
      outer loop
         vertex 1.755871e+002 3.200000e+002 3.264919e+001
         vertex 1.756937e+002 3.400000e+002 3.241576e+001
         vertex 1.755871e+002 3.400000e+002 3.264919e+001
      endloop
   endfacet
   facet normal 9.595178e-001 1.175071e-016 2.816479e-001
      outer loop
         vertex 1.755871e+002 3.200000e+002 3.264919e+001
         vertex 1.755871e+002 3.400000e+002 3.264919e+001
         vertex 1.755219e+002 3.200000e+002 3.289736e+001
      endloop
   endfacet
   facet normal 9.740532e-001 1.192871e-016 2.263190e-001
      outer loop
         vertex 1.755219e+002 3.200000e+002 3.289736e+001
         vertex 1.755871e+002 3.400000e+002 3.264919e+001
         vertex 1.755219e+002 3.400000e+002 3.289736e+001
      endloop
   endfacet
   facet normal 9.934815e-001 1.216664e-016 1.139934e-001
      outer loop
         vertex 1.755219e+002 3.200000e+002 3.289736e+001
         vertex 1.755219e+002 3.400000e+002 3.289736e+001
         vertex 1.755000e+002 3.200000e+002 3.315301e+001
      endloop
   endfacet
   facet normal 9.983743e-001 1.222656e-016 5.699670e-002
      outer loop
         vertex 1.755000e+002 3.200000e+002 3.315301e+001
         vertex 1.755219e+002 3.400000e+002 3.289736e+001
         vertex 1.755000e+002 3.400000e+002 3.315301e+001
      endloop
   endfacet
   facet normal -1.414214e-001 -1.731912e-017 9.899495e-001
      outer loop
         vertex 1.819293e+002 3.400000e+002 3.234196e+001
         vertex 1.772121e+002 3.400000e+002 3.166809e+001
         vertex 1.819293e+002 3.200000e+002 3.234196e+001
      endloop
   endfacet
   facet normal -1.414214e-001 -1.731912e-017 9.899495e-001
      outer loop
         vertex 1.819293e+002 3.200000e+002 3.234196e+001
         vertex 1.772121e+002 3.400000e+002 3.166809e+001
         vertex 1.772121e+002 3.200000e+002 3.166809e+001
      endloop
   endfacet
   facet normal 9.983743e-001 1.222656e-016 5.699670e-002
      outer loop
         vertex 1.825000e+002 3.200000e+002 3.184699e+001
         vertex 1.825000e+002 3.400000e+002 3.184699e+001
         vertex 1.824927e+002 3.400000e+002 3.193221e+001
      endloop
   endfacet
   facet normal 9.934815e-001 1.216664e-016 1.139934e-001
      outer loop
         vertex 1.825000e+002 3.200000e+002 3.184699e+001
         vertex 1.824927e+002 3.400000e+002 3.193221e+001
         vertex 1.824927e+002 3.200000e+002 3.193221e+001
      endloop
   endfacet
   facet normal 9.740532e-001 1.192871e-016 2.263190e-001
      outer loop
         vertex 1.824927e+002 3.200000e+002 3.193221e+001
         vertex 1.824927e+002 3.400000e+002 3.193221e+001
         vertex 1.824709e+002 3.400000e+002 3.201493e+001
      endloop
   endfacet
   facet normal 9.595178e-001 1.175071e-016 2.816479e-001
      outer loop
         vertex 1.824927e+002 3.200000e+002 3.193221e+001
         vertex 1.824709e+002 3.400000e+002 3.201493e+001
         vertex 1.824709e+002 3.200000e+002 3.201493e+001
      endloop
   endfacet
   facet normal 9.212298e-001 1.128181e-016 3.890188e-001
      outer loop
         vertex 1.824709e+002 3.200000e+002 3.201493e+001
         vertex 1.824709e+002 3.400000e+002 3.201493e+001
         vertex 1.824354e+002 3.400000e+002 3.209274e+001
      endloop
   endfacet
   facet normal 8.974771e-001 1.099093e-016 4.410609e-001
      outer loop
         vertex 1.824709e+002 3.200000e+002 3.201493e+001
         vertex 1.824354e+002 3.400000e+002 3.209274e+001
         vertex 1.824354e+002 3.200000e+002 3.209274e+001
      endloop
   endfacet
   facet normal 8.414497e-001 1.030479e-016 5.403354e-001
      outer loop
         vertex 1.824354e+002 3.200000e+002 3.209274e+001
         vertex 1.824354e+002 3.400000e+002 3.209274e+001
         vertex 1.823872e+002 3.400000e+002 3.216336e+001
      endloop
   endfacet
   facet normal 8.091750e-001 9.909535e-017 5.875677e-001
      outer loop
         vertex 1.824354e+002 3.200000e+002 3.209274e+001
         vertex 1.823872e+002 3.400000e+002 3.216336e+001
         vertex 1.823872e+002 3.200000e+002 3.216336e+001
      endloop
   endfacet
   facet normal 7.370476e-001 9.026229e-017 6.758409e-001
      outer loop
         vertex 1.823872e+002 3.200000e+002 3.216336e+001
         vertex 1.823872e+002 3.400000e+002 3.216336e+001
         vertex 1.823276e+002 3.400000e+002 3.222472e+001
      endloop
   endfacet
   facet normal 6.971950e-001 8.538176e-017 7.168816e-001
      outer loop
         vertex 1.823872e+002 3.200000e+002 3.216336e+001
         vertex 1.823276e+002 3.400000e+002 3.222472e+001
         vertex 1.823276e+002 3.200000e+002 3.222472e+001
      endloop
   endfacet
   facet normal 6.110782e-001 7.483550e-017 7.915702e-001
      outer loop
         vertex 1.823276e+002 3.200000e+002 3.222472e+001
         vertex 1.823276e+002 3.400000e+002 3.222472e+001
         vertex 1.822584e+002 3.400000e+002 3.227502e+001
      endloop
   endfacet
   facet normal 5.648140e-001 6.916978e-017 8.252182e-001
      outer loop
         vertex 1.823276e+002 3.200000e+002 3.222472e+001
         vertex 1.822584e+002 3.400000e+002 3.227502e+001
         vertex 1.822584e+002 3.200000e+002 3.227502e+001
      endloop
   endfacet
   facet normal 4.672278e-001 5.721890e-017 8.841370e-001
      outer loop
         vertex 1.822584e+002 3.200000e+002 3.227502e+001
         vertex 1.822584e+002 3.400000e+002 3.227502e+001
         vertex 1.821817e+002 3.400000e+002 3.231281e+001
      endloop
   endfacet
   facet normal 4.159058e-001 5.093377e-017 9.094077e-001
      outer loop
         vertex 1.822584e+002 3.200000e+002 3.227502e+001
         vertex 1.821817e+002 3.400000e+002 3.231281e+001
         vertex 1.821817e+002 3.200000e+002 3.231281e+001
      endloop
   endfacet
   facet normal 3.097056e-001 3.792799e-017 9.508325e-001
      outer loop
         vertex 1.821817e+002 3.200000e+002 3.231281e+001
         vertex 1.821817e+002 3.400000e+002 3.231281e+001
         vertex 1.820996e+002 3.400000e+002 3.233696e+001
      endloop
   endfacet
   facet normal 2.548274e-001 3.120736e-017 9.669865e-001
      outer loop
         vertex 1.821817e+002 3.200000e+002 3.231281e+001
         vertex 1.820996e+002 3.400000e+002 3.233696e+001
         vertex 1.820996e+002 3.200000e+002 3.233696e+001
      endloop
   endfacet
   facet normal 1.431209e-001 1.752725e-017 9.897052e-001
      outer loop
         vertex 1.820996e+002 3.200000e+002 3.233696e+001
         vertex 1.820996e+002 3.400000e+002 3.233696e+001
         vertex 1.820147e+002 3.400000e+002 3.234678e+001
      endloop
   endfacet
   facet normal 8.629244e-002 1.056778e-017 9.962698e-001
      outer loop
         vertex 1.820996e+002 3.200000e+002 3.233696e+001
         vertex 1.820147e+002 3.400000e+002 3.234678e+001
         vertex 1.820147e+002 3.200000e+002 3.234678e+001
      endloop
   endfacet
   facet normal -2.765180e-002 -3.386368e-018 9.996176e-001
      outer loop
         vertex 1.820147e+002 3.200000e+002 3.234678e+001
         vertex 1.820147e+002 3.400000e+002 3.234678e+001
         vertex 1.819293e+002 3.400000e+002 3.234196e+001
      endloop
   endfacet
   facet normal -8.476760e-002 -1.038104e-017 9.964007e-001
      outer loop
         vertex 1.820147e+002 3.200000e+002 3.234678e+001
         vertex 1.819293e+002 3.400000e+002 3.234196e+001
         vertex 1.819293e+002 3.200000e+002 3.234196e+001
      endloop
   endfacet
   facet normal 1.000000e+000 1.224647e-016 -7.417164e-017
      outer loop
         vertex 1.825000e+002 3.400000e+002 2.600000e+001
         vertex 1.825000e+002 3.400000e+002 3.184699e+001
         vertex 1.825000e+002 3.200000e+002 2.600000e+001
      endloop
   endfacet
   facet normal 1.000000e+000 1.224647e-016 -7.417164e-017
      outer loop
         vertex 1.825000e+002 3.200000e+002 2.600000e+001
         vertex 1.825000e+002 3.400000e+002 3.184699e+001
         vertex 1.825000e+002 3.200000e+002 3.184699e+001
      endloop
   endfacet
   facet normal 5.228807e-002 6.403442e-018 -9.986320e-001
      outer loop
         vertex 1.820000e+002 3.200000e+002 2.550000e+001
         vertex 1.820000e+002 3.400000e+002 2.550000e+001
         vertex 1.820782e+002 3.400000e+002 2.550616e+001
      endloop
   endfacet
   facet normal 1.045761e-001 1.280688e-017 -9.945168e-001
      outer loop
         vertex 1.820000e+002 3.200000e+002 2.550000e+001
         vertex 1.820782e+002 3.400000e+002 2.550616e+001
         vertex 1.820782e+002 3.200000e+002 2.550616e+001
      endloop
   endfacet
   facet normal 2.078648e-001 2.545609e-017 -9.781576e-001
      outer loop
         vertex 1.820782e+002 3.200000e+002 2.550616e+001
         vertex 1.820782e+002 3.400000e+002 2.550616e+001
         vertex 1.821545e+002 3.400000e+002 2.552447e+001
      endloop
   endfacet
   facet normal 2.588653e-001 3.170186e-017 -9.659134e-001
      outer loop
         vertex 1.820782e+002 3.200000e+002 2.550616e+001
         vertex 1.821545e+002 3.400000e+002 2.552447e+001
         vertex 1.821545e+002 3.200000e+002 2.552447e+001
      endloop
   endfacet
   facet normal 3.583232e-001 4.388193e-017 -9.335976e-001
      outer loop
         vertex 1.821545e+002 3.200000e+002 2.552447e+001
         vertex 1.821545e+002 3.400000e+002 2.552447e+001
         vertex 1.822270e+002 3.400000e+002 2.555450e+001
      endloop
   endfacet
   facet normal 4.067805e-001 4.981624e-017 -9.135259e-001
      outer loop
         vertex 1.821545e+002 3.200000e+002 2.552447e+001
         vertex 1.822270e+002 3.400000e+002 2.555450e+001
         vertex 1.822270e+002 3.200000e+002 2.555450e+001
      endloop
   endfacet
   facet normal 4.999584e-001 6.122725e-017 -8.660494e-001
      outer loop
         vertex 1.822270e+002 3.200000e+002 2.555450e+001
         vertex 1.822270e+002 3.400000e+002 2.555450e+001
         vertex 1.822939e+002 3.400000e+002 2.559549e+001
      endloop
   endfacet
   facet normal 5.446792e-001 6.670397e-017 -8.386444e-001
      outer loop
         vertex 1.822270e+002 3.200000e+002 2.555450e+001
         vertex 1.822939e+002 3.400000e+002 2.559549e+001
         vertex 1.822939e+002 3.200000e+002 2.559549e+001
      endloop
   endfacet
   facet normal 6.292831e-001 7.706495e-017 -7.771761e-001
      outer loop
         vertex 1.822939e+002 3.200000e+002 2.559549e+001
         vertex 1.822939e+002 3.400000e+002 2.559549e+001
         vertex 1.823536e+002 3.400000e+002 2.564645e+001
      endloop
   endfacet
   facet normal 6.691663e-001 8.194924e-017 -7.431127e-001
      outer loop
         vertex 1.822939e+002 3.200000e+002 2.559549e+001
         vertex 1.823536e+002 3.400000e+002 2.564645e+001
         vertex 1.823536e+002 3.200000e+002 2.564645e+001
      endloop
   endfacet
   facet normal 7.431127e-001 9.100507e-017 -6.691663e-001
      outer loop
         vertex 1.823536e+002 3.200000e+002 2.564645e+001
         vertex 1.823536e+002 3.400000e+002 2.564645e+001
         vertex 1.824045e+002 3.400000e+002 2.570611e+001
      endloop
   endfacet
   facet normal 7.771761e-001 9.517663e-017 -6.292831e-001
      outer loop
         vertex 1.823536e+002 3.200000e+002 2.564645e+001
         vertex 1.824045e+002 3.400000e+002 2.570611e+001
         vertex 1.824045e+002 3.200000e+002 2.570611e+001
      endloop
   endfacet
   facet normal 8.386444e-001 1.027043e-016 -5.446792e-001
      outer loop
         vertex 1.824045e+002 3.200000e+002 2.570611e+001
         vertex 1.824045e+002 3.400000e+002 2.570611e+001
         vertex 1.824455e+002 3.400000e+002 2.577300e+001
      endloop
   endfacet
   facet normal 8.660494e-001 1.060605e-016 -4.999584e-001
      outer loop
         vertex 1.824045e+002 3.200000e+002 2.570611e+001
         vertex 1.824455e+002 3.400000e+002 2.577300e+001
         vertex 1.824455e+002 3.200000e+002 2.577300e+001
      endloop
   endfacet
   facet normal 9.135259e-001 1.118747e-016 -4.067805e-001
      outer loop
         vertex 1.824455e+002 3.200000e+002 2.577300e+001
         vertex 1.824455e+002 3.400000e+002 2.577300e+001
         vertex 1.824755e+002 3.400000e+002 2.584549e+001
      endloop
   endfacet
   facet normal 9.335976e-001 1.143327e-016 -3.583232e-001
      outer loop
         vertex 1.824455e+002 3.200000e+002 2.577300e+001
         vertex 1.824755e+002 3.400000e+002 2.584549e+001
         vertex 1.824755e+002 3.200000e+002 2.584549e+001
      endloop
   endfacet
   facet normal 9.659134e-001 1.182903e-016 -2.588653e-001
      outer loop
         vertex 1.824755e+002 3.200000e+002 2.584549e+001
         vertex 1.824755e+002 3.400000e+002 2.584549e+001
         vertex 1.824938e+002 3.400000e+002 2.592178e+001
      endloop
   endfacet
   facet normal 9.781575e-001 1.197897e-016 -2.078648e-001
      outer loop
         vertex 1.824755e+002 3.200000e+002 2.584549e+001
         vertex 1.824938e+002 3.400000e+002 2.592178e+001
         vertex 1.824938e+002 3.200000e+002 2.592178e+001
      endloop
   endfacet
   facet normal 9.945168e-001 1.217932e-016 -1.045761e-001
      outer loop
         vertex 1.824938e+002 3.200000e+002 2.592178e+001
         vertex 1.824938e+002 3.400000e+002 2.592178e+001
         vertex 1.825000e+002 3.400000e+002 2.600000e+001
      endloop
   endfacet
   facet normal 9.986320e-001 1.222972e-016 -5.228807e-002
      outer loop
         vertex 1.824938e+002 3.200000e+002 2.592178e+001
         vertex 1.825000e+002 3.400000e+002 2.600000e+001
         vertex 1.825000e+002 3.200000e+002 2.600000e+001
      endloop
   endfacet
   facet normal 0.000000e+000 0.000000e+000 -1.000000e+000
      outer loop
         vertex 1.820000e+002 3.400000e+002 2.550000e+001
         vertex 1.820000e+002 3.200000e+002 2.550000e+001
         vertex 1.760000e+002 3.400000e+002 2.550000e+001
      endloop
   endfacet
   facet normal 0.000000e+000 0.000000e+000 -1.000000e+000
      outer loop
         vertex 1.760000e+002 3.400000e+002 2.550000e+001
         vertex 1.820000e+002 3.200000e+002 2.550000e+001
         vertex 1.760000e+002 3.200000e+002 2.550000e+001
      endloop
   endfacet
   facet normal 1.000000e+000 1.224647e-016 0.000000e+000
      outer loop
         vertex 1.825000e+002 3.400000e+002 4.015301e+001
         vertex 1.825000e+002 3.400000e+002 4.500000e+001
         vertex 1.825000e+002 3.200000e+002 4.015301e+001
      endloop
   endfacet
   facet normal 1.000000e+000 1.224647e-016 0.000000e+000
      outer loop
         vertex 1.825000e+002 3.200000e+002 4.015301e+001
         vertex 1.825000e+002 3.400000e+002 4.500000e+001
         vertex 1.825000e+002 3.200000e+002 4.500000e+001
      endloop
   endfacet
   facet normal 1.000000e+000 1.224647e-016 0.000000e+000
      outer loop
         vertex 1.760000e+002 3.400000e+002 2.500000e+001
         vertex 1.760000e+002 3.400000e+002 2.550000e+001
         vertex 1.760000e+002 3.200000e+002 2.500000e+001
      endloop
   endfacet
   facet normal 1.000000e+000 1.224647e-016 0.000000e+000
      outer loop
         vertex 1.760000e+002 3.200000e+002 2.500000e+001
         vertex 1.760000e+002 3.400000e+002 2.550000e+001
         vertex 1.760000e+002 3.200000e+002 2.550000e+001
      endloop
   endfacet
endsolid