solid 식판구동부_측면_부품_입구측
   facet normal 0.000000e+000 0.000000e+000 1.000000e+000
      outer loop
         vertex 1.680000e+002 1.690000e+002 4.500000e+001
         vertex 1.680000e+002 0.000000e+000 4.500000e+001
         vertex 1.830000e+002 1.690000e+002 4.500000e+001
      endloop
   endfacet
   facet normal 0.000000e+000 0.000000e+000 1.000000e+000
      outer loop
         vertex 1.830000e+002 1.690000e+002 4.500000e+001
         vertex 1.680000e+002 0.000000e+000 4.500000e+001
         vertex 1.830000e+002 0.000000e+000 4.500000e+001
      endloop
   endfacet
   facet normal 1.000000e+000 8.163404e-017 0.000000e+000
      outer loop
         vertex 1.720000e+002 1.690000e+002 1.900000e+001
         vertex 1.720000e+002 0.000000e+000 1.900000e+001
         vertex 1.720000e+002 1.690000e+002 4.999999e+000
      endloop
   endfacet
   facet normal 1.000000e+000 8.163404e-017 0.000000e+000
      outer loop
         vertex 1.720000e+002 1.690000e+002 4.999999e+000
         vertex 1.720000e+002 0.000000e+000 1.900000e+001
         vertex 1.720000e+002 1.690492e+002 4.233308e+000
      endloop
   endfacet
   facet normal 1.000000e+000 8.163404e-017 0.000000e+000
      outer loop
         vertex 1.720000e+002 1.695804e+002 2.116995e+000
         vertex 1.720000e+002 1.695350e+002 2.439316e+000
         vertex 1.720000e+002 1.675838e+002 0.000000e+000
      endloop
   endfacet
   facet normal 1.000000e+000 8.163404e-017 0.000000e+000
      outer loop
         vertex 1.720000e+002 1.675838e+002 0.000000e+000
         vertex 1.720000e+002 1.695350e+002 2.439316e+000
         vertex 1.720000e+002 1.694379e+002 2.750000e+000
      endloop
   endfacet
   facet normal 1.000000e+000 8.163404e-017 0.000000e+000
      outer loop
         vertex 1.720000e+002 1.675838e+002 0.000000e+000
         vertex 1.720000e+002 1.694379e+002 2.750000e+000
         vertex 1.720000e+002 9.999990e+000 0.000000e+000
      endloop
   endfacet
   facet normal 1.000000e+000 8.163404e-017 0.000000e+000
      outer loop
         vertex 1.720000e+002 0.000000e+000 1.900000e+001
         vertex 1.720000e+002 0.000000e+000 1.000000e+001
         vertex 1.720000e+002 1.690492e+002 4.233308e+000
      endloop
   endfacet
   facet normal 1.000000e+000 8.163404e-017 0.000000e+000
      outer loop
         vertex 1.720000e+002 1.690492e+002 4.233308e+000
         vertex 1.720000e+002 0.000000e+000 1.000000e+001
         vertex 1.720000e+002 9.999990e+000 0.000000e+000
      endloop
   endfacet
   facet normal 1.000000e+000 8.163404e-017 0.000000e+000
      outer loop
         vertex 1.720000e+002 1.690492e+002 4.233308e+000
         vertex 1.720000e+002 9.999990e+000 0.000000e+000
         vertex 1.720000e+002 1.691959e+002 3.479187e+000
      endloop
   endfacet
   facet normal 1.000000e+000 8.163404e-017 0.000000e+000
      outer loop
         vertex 1.720000e+002 1.691959e+002 3.479187e+000
         vertex 1.720000e+002 9.999990e+000 0.000000e+000
         vertex 1.720000e+002 1.694379e+002 2.750000e+000
      endloop
   endfacet
   facet normal 1.000000e+000 8.163404e-017 0.000000e+000
      outer loop
         vertex 1.720000e+002 1.695804e+002 2.116995e+000
         vertex 1.720000e+002 1.675838e+002 0.000000e+000
         vertex 1.720000e+002 1.695729e+002 1.791576e+000
      endloop
   endfacet
   facet normal 1.000000e+000 8.163404e-017 0.000000e+000
      outer loop
         vertex 1.720000e+002 1.695729e+002 1.791576e+000
         vertex 1.720000e+002 1.675838e+002 0.000000e+000
         vertex 1.720000e+002 1.679082e+002 2.648868e-002
      endloop
   endfacet
   facet normal 1.000000e+000 8.163404e-017 0.000000e+000
      outer loop
         vertex 1.720000e+002 1.695729e+002 1.791576e+000
         vertex 1.720000e+002 1.679082e+002 2.648868e-002
         vertex 1.720000e+002 1.682241e+002 1.052506e-001
      endloop
   endfacet
   facet normal 1.000000e+000 8.163404e-017 0.000000e+000
      outer loop
         vertex 1.720000e+002 1.694015e+002 1.165772e+000
         vertex 1.720000e+002 1.687969e+002 4.099291e-001
         vertex 1.720000e+002 1.692421e+002 8.819662e-001
      endloop
   endfacet
   facet normal 1.000000e+000 8.163404e-017 0.000000e+000
      outer loop
         vertex 1.720000e+002 1.692421e+002 8.819662e-001
         vertex 1.720000e+002 1.687969e+002 4.099291e-001
         vertex 1.720000e+002 1.690388e+002 6.277729e-001
      endloop
   endfacet
   facet normal 1.000000e+000 8.163404e-017 0.000000e+000
      outer loop
         vertex 1.720000e+002 1.682241e+002 1.052506e-001
         vertex 1.720000e+002 1.685229e+002 2.342034e-001
         vertex 1.720000e+002 1.695729e+002 1.791576e+000
      endloop
   endfacet
   facet normal 1.000000e+000 8.163404e-017 0.000000e+000
      outer loop
         vertex 1.720000e+002 1.695729e+002 1.791576e+000
         vertex 1.720000e+002 1.685229e+002 2.342034e-001
         vertex 1.720000e+002 1.687969e+002 4.099291e-001
      endloop
   endfacet
   facet normal 1.000000e+000 8.163404e-017 0.000000e+000
      outer loop
         vertex 1.720000e+002 1.695729e+002 1.791576e+000
         vertex 1.720000e+002 1.687969e+002 4.099291e-001
         vertex 1.720000e+002 1.695128e+002 1.471676e+000
      endloop
   endfacet
   facet normal 1.000000e+000 8.163404e-017 0.000000e+000
      outer loop
         vertex 1.720000e+002 1.695128e+002 1.471676e+000
         vertex 1.720000e+002 1.687969e+002 4.099291e-001
         vertex 1.720000e+002 1.694015e+002 1.165772e+000
      endloop
   endfacet
   facet normal 1.000000e+000 8.163404e-017 0.000000e+000
      outer loop
         vertex 1.720000e+002 1.089931e+000 5.460094e+000
         vertex 1.720000e+002 1.909822e+000 4.122147e+000
         vertex 1.720000e+002 4.894435e-001 6.909830e+000
      endloop
   endfacet
   facet normal 1.000000e+000 8.163404e-017 0.000000e+000
      outer loop
         vertex 1.720000e+002 4.894435e-001 6.909830e+000
         vertex 1.720000e+002 1.909822e+000 4.122147e+000
         vertex 1.720000e+002 2.928942e+000 2.928931e+000
      endloop
   endfacet
   facet normal 1.000000e+000 8.163404e-017 0.000000e+000
      outer loop
         vertex 1.720000e+002 2.928942e+000 2.928931e+000
         vertex 1.720000e+002 4.122138e+000 1.909830e+000
         vertex 1.720000e+002 4.894435e-001 6.909830e+000
      endloop
   endfacet
   facet normal 1.000000e+000 8.163404e-017 0.000000e+000
      outer loop
         vertex 1.720000e+002 4.894435e-001 6.909830e+000
         vertex 1.720000e+002 4.122138e+000 1.909830e+000
         vertex 1.720000e+002 5.460114e+000 1.089934e+000
      endloop
   endfacet
   facet normal 1.000000e+000 8.163404e-017 0.000000e+000
      outer loop
         vertex 1.720000e+002 4.894435e-001 6.909830e+000
         vertex 1.720000e+002 5.460114e+000 1.089934e+000
         vertex 1.720000e+002 6.909847e+000 4.894342e-001
      endloop
   endfacet
   facet normal 1.000000e+000 8.163404e-017 0.000000e+000
      outer loop
         vertex 1.720000e+002 0.000000e+000 1.000000e+001
         vertex 1.720000e+002 1.231134e-001 8.435655e+000
         vertex 1.720000e+002 9.999990e+000 0.000000e+000
      endloop
   endfacet
   facet normal 1.000000e+000 8.163404e-017 0.000000e+000
      outer loop
         vertex 1.720000e+002 9.999990e+000 0.000000e+000
         vertex 1.720000e+002 1.231134e-001 8.435655e+000
         vertex 1.720000e+002 4.894435e-001 6.909830e+000
      endloop
   endfacet
   facet normal 1.000000e+000 8.163404e-017 0.000000e+000
      outer loop
         vertex 1.720000e+002 9.999990e+000 0.000000e+000
         vertex 1.720000e+002 4.894435e-001 6.909830e+000
         vertex 1.720000e+002 8.435667e+000 1.231153e-001
      endloop
   endfacet
   facet normal 1.000000e+000 8.163404e-017 0.000000e+000
      outer loop
         vertex 1.720000e+002 8.435667e+000 1.231153e-001
         vertex 1.720000e+002 4.894435e-001 6.909830e+000
         vertex 1.720000e+002 6.909847e+000 4.894342e-001
      endloop
   endfacet
   facet normal -1.000000e+000 -8.673617e-017 0.000000e+000
      outer loop
         vertex 1.680000e+002 0.000000e+000 4.500000e+001
         vertex 1.680000e+002 1.599358e+002 3.707453e+001
         vertex 1.680000e+002 1.596672e+002 3.687236e+001
      endloop
   endfacet
   facet normal -1.000000e+000 -8.673617e-017 0.000000e+000
      outer loop
         vertex 1.680000e+002 4.606247e-001 6.999999e+000
         vertex 1.680000e+002 1.590283e+002 2.728384e+001
         vertex 1.680000e+002 1.591122e+002 2.695832e+001
      endloop
   endfacet
   facet normal -1.000000e+000 -8.673617e-017 0.000000e+000
      outer loop
         vertex 1.680000e+002 1.591122e+002 2.695832e+001
         vertex 1.680000e+002 1.592495e+002 2.665146e+001
         vertex 1.680000e+002 4.606247e-001 6.999999e+000
      endloop
   endfacet
   facet normal -1.000000e+000 -8.673617e-017 0.000000e+000
      outer loop
         vertex 1.680000e+002 4.606247e-001 6.999999e+000
         vertex 1.680000e+002 1.592495e+002 2.665146e+001
         vertex 1.680000e+002 1.594362e+002 2.637194e+001
      endloop
   endfacet
   facet normal -1.000000e+000 -8.673617e-017 0.000000e+000
      outer loop
         vertex 1.680000e+002 4.606247e-001 6.999999e+000
         vertex 1.680000e+002 1.594362e+002 2.637194e+001
         vertex 1.680000e+002 1.690000e+002 6.999999e+000
      endloop
   endfacet
   facet normal -1.000000e+000 -8.673617e-017 0.000000e+000
      outer loop
         vertex 1.680000e+002 1.690000e+002 6.999999e+000
         vertex 1.680000e+002 1.594362e+002 2.637194e+001
         vertex 1.680000e+002 1.596672e+002 2.612764e+001
      endloop
   endfacet
   facet normal -1.000000e+000 -8.673617e-017 0.000000e+000
      outer loop
         vertex 1.680000e+002 1.690000e+002 6.999999e+000
         vertex 1.680000e+002 1.596672e+002 2.612764e+001
         vertex 1.680000e+002 1.599358e+002 2.592547e+001
      endloop
   endfacet
   facet normal -1.000000e+000 -8.673617e-017 0.000000e+000
      outer loop
         vertex 1.680000e+002 1.591122e+002 3.604168e+001
         vertex 1.680000e+002 1.590283e+002 3.571616e+001
         vertex 1.680000e+002 4.606247e-001 6.999999e+000
      endloop
   endfacet
   facet normal -1.000000e+000 -8.673617e-017 0.000000e+000
      outer loop
         vertex 1.680000e+002 1.599358e+002 2.592547e+001
         vertex 1.680000e+002 1.602344e+002 2.577114e+001
         vertex 1.680000e+002 1.690000e+002 6.999999e+000
      endloop
   endfacet
   facet normal -1.000000e+000 -8.673617e-017 0.000000e+000
      outer loop
         vertex 1.680000e+002 1.690000e+002 6.999999e+000
         vertex 1.680000e+002 1.602344e+002 2.577114e+001
         vertex 1.680000e+002 1.605547e+002 2.566902e+001
      endloop
   endfacet
   facet normal -1.000000e+000 -8.673617e-017 0.000000e+000
      outer loop
         vertex 1.680000e+002 1.690000e+002 6.999999e+000
         vertex 1.680000e+002 1.605547e+002 2.566902e+001
         vertex 1.680000e+002 1.608876e+002 2.562198e+001
      endloop
   endfacet
   facet normal -1.000000e+000 -8.673617e-017 0.000000e+000
      outer loop
         vertex 1.680000e+002 1.590283e+002 3.571616e+001
         vertex 1.680000e+002 1.590000e+002 3.538118e+001
         vertex 1.680000e+002 4.606247e-001 6.999999e+000
      endloop
   endfacet
   facet normal -1.000000e+000 -8.673617e-017 0.000000e+000
      outer loop
         vertex 1.680000e+002 4.606247e-001 6.999999e+000
         vertex 1.680000e+002 1.590000e+002 3.538118e+001
         vertex 1.680000e+002 1.590000e+002 2.761882e+001
      endloop
   endfacet
   facet normal -1.000000e+000 -8.673617e-017 0.000000e+000
      outer loop
         vertex 1.680000e+002 4.606247e-001 6.999999e+000
         vertex 1.680000e+002 1.590000e+002 2.761882e+001
         vertex 1.680000e+002 1.590283e+002 2.728384e+001
      endloop
   endfacet
   facet normal -1.000000e+000 -8.673617e-017 0.000000e+000
      outer loop
         vertex 1.680000e+002 1.608876e+002 2.562198e+001
         vertex 1.680000e+002 1.612236e+002 2.563136e+001
         vertex 1.680000e+002 1.690000e+002 6.999999e+000
      endloop
   endfacet
   facet normal -1.000000e+000 -8.673617e-017 0.000000e+000
      outer loop
         vertex 1.680000e+002 1.690000e+002 6.999999e+000
         vertex 1.680000e+002 1.612236e+002 2.563136e+001
         vertex 1.680000e+002 1.678882e+002 2.638118e+001
      endloop
   endfacet
   facet normal -1.000000e+000 -8.673617e-017 0.000000e+000
      outer loop
         vertex 1.680000e+002 1.690000e+002 6.999999e+000
         vertex 1.680000e+002 1.678882e+002 2.638118e+001
         vertex 1.680000e+002 1.690000e+002 2.538745e+001
      endloop
   endfacet
   facet normal -1.000000e+000 -8.673617e-017 0.000000e+000
      outer loop
         vertex 1.680000e+002 1.612236e+002 3.736864e+001
         vertex 1.680000e+002 1.608876e+002 3.737802e+001
         vertex 1.680000e+002 1.690000e+002 4.500000e+001
      endloop
   endfacet
   facet normal -1.000000e+000 -8.673617e-017 0.000000e+000
      outer loop
         vertex 1.680000e+002 1.690000e+002 4.500000e+001
         vertex 1.680000e+002 1.608876e+002 3.737802e+001
         vertex 1.680000e+002 1.605547e+002 3.733098e+001
      endloop
   endfacet
   facet normal -1.000000e+000 -8.673617e-017 0.000000e+000
      outer loop
         vertex 1.680000e+002 1.690000e+002 4.500000e+001
         vertex 1.680000e+002 1.605547e+002 3.733098e+001
         vertex 1.680000e+002 0.000000e+000 4.500000e+001
      endloop
   endfacet
   facet normal -1.000000e+000 -8.673617e-017 0.000000e+000
      outer loop
         vertex 1.680000e+002 0.000000e+000 4.500000e+001
         vertex 1.680000e+002 1.605547e+002 3.733098e+001
         vertex 1.680000e+002 1.602344e+002 3.722885e+001
      endloop
   endfacet
   facet normal -1.000000e+000 -8.673617e-017 0.000000e+000
      outer loop
         vertex 1.680000e+002 0.000000e+000 4.500000e+001
         vertex 1.680000e+002 1.602344e+002 3.722885e+001
         vertex 1.680000e+002 1.599358e+002 3.707453e+001
      endloop
   endfacet
   facet normal -1.000000e+000 -8.673617e-017 0.000000e+000
      outer loop
         vertex 1.680000e+002 1.596672e+002 3.687236e+001
         vertex 1.680000e+002 1.594362e+002 3.662806e+001
         vertex 1.680000e+002 0.000000e+000 4.500000e+001
      endloop
   endfacet
   facet normal -1.000000e+000 -8.673617e-017 0.000000e+000
      outer loop
         vertex 1.680000e+002 0.000000e+000 4.500000e+001
         vertex 1.680000e+002 1.594362e+002 3.662806e+001
         vertex 1.680000e+002 1.592495e+002 3.634854e+001
      endloop
   endfacet
   facet normal -1.000000e+000 -8.673617e-017 0.000000e+000
      outer loop
         vertex 1.680000e+002 0.000000e+000 4.500000e+001
         vertex 1.680000e+002 1.592495e+002 3.634854e+001
         vertex 1.680000e+002 0.000000e+000 1.000000e+001
      endloop
   endfacet
   facet normal -1.000000e+000 -8.673617e-017 0.000000e+000
      outer loop
         vertex 1.680000e+002 0.000000e+000 1.000000e+001
         vertex 1.680000e+002 1.592495e+002 3.634854e+001
         vertex 1.680000e+002 1.591122e+002 3.604168e+001
      endloop
   endfacet
   facet normal -1.000000e+000 -8.673617e-017 0.000000e+000
      outer loop
         vertex 1.680000e+002 0.000000e+000 1.000000e+001
         vertex 1.680000e+002 1.591122e+002 3.604168e+001
         vertex 1.680000e+002 1.231134e-001 8.435655e+000
      endloop
   endfacet
   facet normal -1.000000e+000 -8.673617e-017 0.000000e+000
      outer loop
         vertex 1.680000e+002 1.231134e-001 8.435655e+000
         vertex 1.680000e+002 1.591122e+002 3.604168e+001
         vertex 1.680000e+002 4.606247e-001 6.999999e+000
      endloop
   endfacet
   facet normal -1.000000e+000 -8.673617e-017 0.000000e+000
      outer loop
         vertex 1.680000e+002 1.612236e+002 3.736864e+001
         vertex 1.680000e+002 1.690000e+002 4.500000e+001
         vertex 1.680000e+002 1.678882e+002 3.661882e+001
      endloop
   endfacet
   facet normal -1.000000e+000 -8.673617e-017 0.000000e+000
      outer loop
         vertex 1.680000e+002 1.678882e+002 3.661882e+001
         vertex 1.680000e+002 1.690000e+002 4.500000e+001
         vertex 1.680000e+002 1.690000e+002 3.761255e+001
      endloop
   endfacet
   facet normal -1.000000e+000 -8.673617e-017 0.000000e+000
      outer loop
         vertex 1.680000e+002 1.678882e+002 3.661882e+001
         vertex 1.680000e+002 1.690000e+002 3.761255e+001
         vertex 1.680000e+002 1.689859e+002 3.744506e+001
      endloop
   endfacet
   facet normal -1.000000e+000 -8.673617e-017 0.000000e+000
      outer loop
         vertex 1.680000e+002 1.686664e+002 3.686696e+001
         vertex 1.680000e+002 1.685321e+002 3.676587e+001
         vertex 1.680000e+002 1.683828e+002 3.668871e+001
      endloop
   endfacet
   facet normal -1.000000e+000 -8.673617e-017 0.000000e+000
      outer loop
         vertex 1.680000e+002 1.689859e+002 3.744506e+001
         vertex 1.680000e+002 1.689439e+002 3.728230e+001
         vertex 1.680000e+002 1.678882e+002 3.661882e+001
      endloop
   endfacet
   facet normal -1.000000e+000 -8.673617e-017 0.000000e+000
      outer loop
         vertex 1.680000e+002 1.678882e+002 3.661882e+001
         vertex 1.680000e+002 1.689439e+002 3.728230e+001
         vertex 1.680000e+002 1.688752e+002 3.712887e+001
      endloop
   endfacet
   facet normal -1.000000e+000 -8.673617e-017 0.000000e+000
      outer loop
         vertex 1.680000e+002 1.678882e+002 3.661882e+001
         vertex 1.680000e+002 1.688752e+002 3.712887e+001
         vertex 1.680000e+002 1.680562e+002 3.661413e+001
      endloop
   endfacet
   facet normal -1.000000e+000 -8.673617e-017 0.000000e+000
      outer loop
         vertex 1.680000e+002 1.686664e+002 3.686696e+001
         vertex 1.680000e+002 1.683828e+002 3.668871e+001
         vertex 1.680000e+002 1.687819e+002 3.698911e+001
      endloop
   endfacet
   facet normal -1.000000e+000 -8.673617e-017 0.000000e+000
      outer loop
         vertex 1.680000e+002 1.688752e+002 2.587113e+001
         vertex 1.680000e+002 1.678882e+002 2.638118e+001
         vertex 1.680000e+002 1.680562e+002 2.638587e+001
      endloop
   endfacet
   facet normal -1.000000e+000 -8.673617e-017 0.000000e+000
      outer loop
         vertex 1.680000e+002 1.683828e+002 2.631129e+001
         vertex 1.680000e+002 1.685321e+002 2.623412e+001
         vertex 1.680000e+002 1.686664e+002 2.613304e+001
      endloop
   endfacet
   facet normal -1.000000e+000 -8.673617e-017 0.000000e+000
      outer loop
         vertex 1.680000e+002 1.688752e+002 2.587113e+001
         vertex 1.680000e+002 1.689439e+002 2.571770e+001
         vertex 1.680000e+002 1.678882e+002 2.638118e+001
      endloop
   endfacet
   facet normal -1.000000e+000 -8.673617e-017 0.000000e+000
      outer loop
         vertex 1.680000e+002 1.678882e+002 2.638118e+001
         vertex 1.680000e+002 1.689439e+002 2.571770e+001
         vertex 1.680000e+002 1.689859e+002 2.555494e+001
      endloop
   endfacet
   facet normal -1.000000e+000 -8.673617e-017 0.000000e+000
      outer loop
         vertex 1.680000e+002 1.678882e+002 2.638118e+001
         vertex 1.680000e+002 1.689859e+002 2.555494e+001
         vertex 1.680000e+002 1.690000e+002 2.538745e+001
      endloop
   endfacet
   facet normal -1.000000e+000 -8.673617e-017 0.000000e+000
      outer loop
         vertex 1.680000e+002 1.687819e+002 3.698911e+001
         vertex 1.680000e+002 1.683828e+002 3.668871e+001
         vertex 1.680000e+002 1.688752e+002 3.712887e+001
      endloop
   endfacet
   facet normal -1.000000e+000 -8.673617e-017 0.000000e+000
      outer loop
         vertex 1.680000e+002 1.688752e+002 3.712887e+001
         vertex 1.680000e+002 1.683828e+002 3.668871e+001
         vertex 1.680000e+002 1.682227e+002 3.663765e+001
      endloop
   endfacet
   facet normal -1.000000e+000 -8.673617e-017 0.000000e+000
      outer loop
         vertex 1.680000e+002 1.688752e+002 3.712887e+001
         vertex 1.680000e+002 1.682227e+002 3.663765e+001
         vertex 1.680000e+002 1.680562e+002 3.661413e+001
      endloop
   endfacet
   facet normal -1.000000e+000 -8.673617e-017 0.000000e+000
      outer loop
         vertex 1.680000e+002 1.680562e+002 2.638587e+001
         vertex 1.680000e+002 1.682227e+002 2.636235e+001
         vertex 1.680000e+002 1.688752e+002 2.587113e+001
      endloop
   endfacet
   facet normal -1.000000e+000 -8.673617e-017 0.000000e+000
      outer loop
         vertex 1.680000e+002 1.688752e+002 2.587113e+001
         vertex 1.680000e+002 1.682227e+002 2.636235e+001
         vertex 1.680000e+002 1.683828e+002 2.631129e+001
      endloop
   endfacet
   facet normal -1.000000e+000 -8.673617e-017 0.000000e+000
      outer loop
         vertex 1.680000e+002 1.688752e+002 2.587113e+001
         vertex 1.680000e+002 1.683828e+002 2.631129e+001
         vertex 1.680000e+002 1.687819e+002 2.601089e+001
      endloop
   endfacet
   facet normal -1.000000e+000 -8.673617e-017 0.000000e+000
      outer loop
         vertex 1.680000e+002 1.687819e+002 2.601089e+001
         vertex 1.680000e+002 1.683828e+002 2.631129e+001
         vertex 1.680000e+002 1.686664e+002 2.613304e+001
      endloop
   endfacet
   facet normal -1.000000e+000 -8.673617e-017 0.000000e+000
      outer loop
         vertex 1.680000e+002 1.690000e+002 4.999999e+000
         vertex 1.680000e+002 1.690492e+002 4.233308e+000
         vertex 1.680000e+002 1.339763e+000 4.999999e+000
      endloop
   endfacet
   facet normal -1.000000e+000 -8.673617e-017 0.000000e+000
      outer loop
         vertex 1.680000e+002 1.339763e+000 4.999999e+000
         vertex 1.680000e+002 1.690492e+002 4.233308e+000
         vertex 1.680000e+002 9.999990e+000 0.000000e+000
      endloop
   endfacet
   facet normal -1.000000e+000 -8.673617e-017 0.000000e+000
      outer loop
         vertex 1.680000e+002 1.695804e+002 2.116995e+000
         vertex 1.680000e+002 1.695729e+002 1.791576e+000
         vertex 1.680000e+002 1.675838e+002 0.000000e+000
      endloop
   endfacet
   facet normal -1.000000e+000 -8.673617e-017 0.000000e+000
      outer loop
         vertex 1.680000e+002 4.122138e+000 1.909830e+000
         vertex 1.680000e+002 2.928942e+000 2.928931e+000
         vertex 1.680000e+002 9.999990e+000 0.000000e+000
      endloop
   endfacet
   facet normal -1.000000e+000 -8.673617e-017 0.000000e+000
      outer loop
         vertex 1.680000e+002 9.999990e+000 0.000000e+000
         vertex 1.680000e+002 2.928942e+000 2.928931e+000
         vertex 1.680000e+002 1.909822e+000 4.122147e+000
      endloop
   endfacet
   facet normal -1.000000e+000 -8.673617e-017 0.000000e+000
      outer loop
         vertex 1.680000e+002 9.999990e+000 0.000000e+000
         vertex 1.680000e+002 1.909822e+000 4.122147e+000
         vertex 1.680000e+002 1.339763e+000 4.999999e+000
      endloop
   endfacet
   facet normal -1.000000e+000 -8.673617e-017 0.000000e+000
      outer loop
         vertex 1.680000e+002 1.690492e+002 4.233308e+000
         vertex 1.680000e+002 1.691959e+002 3.479187e+000
         vertex 1.680000e+002 9.999990e+000 0.000000e+000
      endloop
   endfacet
   facet normal -1.000000e+000 -8.673617e-017 0.000000e+000
      outer loop
         vertex 1.680000e+002 9.999990e+000 0.000000e+000
         vertex 1.680000e+002 1.691959e+002 3.479187e+000
         vertex 1.680000e+002 1.694379e+002 2.750000e+000
      endloop
   endfacet
   facet normal -1.000000e+000 -8.673617e-017 0.000000e+000
      outer loop
         vertex 1.680000e+002 9.999990e+000 0.000000e+000
         vertex 1.680000e+002 1.694379e+002 2.750000e+000
         vertex 1.680000e+002 1.675838e+002 0.000000e+000
      endloop
   endfacet
   facet normal -1.000000e+000 -8.673617e-017 0.000000e+000
      outer loop
         vertex 1.680000e+002 1.675838e+002 0.000000e+000
         vertex 1.680000e+002 1.694379e+002 2.750000e+000
         vertex 1.680000e+002 1.695350e+002 2.439316e+000
      endloop
   endfacet
   facet normal -1.000000e+000 -8.673617e-017 0.000000e+000
      outer loop
         vertex 1.680000e+002 1.675838e+002 0.000000e+000
         vertex 1.680000e+002 1.695350e+002 2.439316e+000
         vertex 1.680000e+002 1.695804e+002 2.116995e+000
      endloop
   endfacet
   facet normal -1.000000e+000 -8.673617e-017 0.000000e+000
      outer loop
         vertex 1.680000e+002 8.435667e+000 1.231153e-001
         vertex 1.680000e+002 6.909847e+000 4.894342e-001
         vertex 1.680000e+002 9.999990e+000 0.000000e+000
      endloop
   endfacet
   facet normal -1.000000e+000 -8.673617e-017 0.000000e+000
      outer loop
         vertex 1.680000e+002 9.999990e+000 0.000000e+000
         vertex 1.680000e+002 6.909847e+000 4.894342e-001
         vertex 1.680000e+002 5.460114e+000 1.089934e+000
      endloop
   endfacet
   facet normal -1.000000e+000 -8.673617e-017 0.000000e+000
      outer loop
         vertex 1.680000e+002 9.999990e+000 0.000000e+000
         vertex 1.680000e+002 5.460114e+000 1.089934e+000
         vertex 1.680000e+002 4.122138e+000 1.909830e+000
      endloop
   endfacet
   facet normal -1.000000e+000 -8.673617e-017 0.000000e+000
      outer loop
         vertex 1.680000e+002 1.694015e+002 1.165772e+000
         vertex 1.680000e+002 1.692421e+002 8.819662e-001
         vertex 1.680000e+002 1.690388e+002 6.277729e-001
      endloop
   endfacet
   facet normal -1.000000e+000 -8.673617e-017 0.000000e+000
      outer loop
         vertex 1.680000e+002 1.690388e+002 6.277729e-001
         vertex 1.680000e+002 1.687969e+002 4.099291e-001
         vertex 1.680000e+002 1.694015e+002 1.165772e+000
      endloop
   endfacet
   facet normal -1.000000e+000 -8.673617e-017 0.000000e+000
      outer loop
         vertex 1.680000e+002 1.694015e+002 1.165772e+000
         vertex 1.680000e+002 1.687969e+002 4.099291e-001
         vertex 1.680000e+002 1.685229e+002 2.342034e-001
      endloop
   endfacet
   facet normal -1.000000e+000 -8.673617e-017 0.000000e+000
      outer loop
         vertex 1.680000e+002 1.694015e+002 1.165772e+000
         vertex 1.680000e+002 1.685229e+002 2.342034e-001
         vertex 1.680000e+002 1.682241e+002 1.052506e-001
      endloop
   endfacet
   facet normal -1.000000e+000 -8.673617e-017 0.000000e+000
      outer loop
         vertex 1.680000e+002 1.695729e+002 1.791576e+000
         vertex 1.680000e+002 1.695128e+002 1.471676e+000
         vertex 1.680000e+002 1.675838e+002 0.000000e+000
      endloop
   endfacet
   facet normal -1.000000e+000 -8.673617e-017 0.000000e+000
      outer loop
         vertex 1.680000e+002 1.675838e+002 0.000000e+000
         vertex 1.680000e+002 1.695128e+002 1.471676e+000
         vertex 1.680000e+002 1.694015e+002 1.165772e+000
      endloop
   endfacet
   facet normal -1.000000e+000 -8.673617e-017 0.000000e+000
      outer loop
         vertex 1.680000e+002 1.675838e+002 0.000000e+000
         vertex 1.680000e+002 1.694015e+002 1.165772e+000
         vertex 1.680000e+002 1.679082e+002 2.648868e-002
      endloop
   endfacet
   facet normal -1.000000e+000 -8.673617e-017 0.000000e+000
      outer loop
         vertex 1.680000e+002 1.679082e+002 2.648868e-002
         vertex 1.680000e+002 1.694015e+002 1.165772e+000
         vertex 1.680000e+002 1.682241e+002 1.052506e-001
      endloop
   endfacet
   facet normal 1.000000e+000 1.632681e-016 0.000000e+000
      outer loop
         vertex 1.830000e+002 1.590000e+002 3.538118e+001
         vertex 1.830000e+002 1.590283e+002 3.571616e+001
         vertex 1.830000e+002 0.000000e+000 4.500000e+001
      endloop
   endfacet
   facet normal 1.000000e+000 1.632681e-016 0.000000e+000
      outer loop
         vertex 1.830000e+002 1.590000e+002 3.538118e+001
         vertex 1.830000e+002 0.000000e+000 4.500000e+001
         vertex 1.830000e+002 1.590000e+002 2.761882e+001
      endloop
   endfacet
   facet normal 1.000000e+000 1.632681e-016 0.000000e+000
      outer loop
         vertex 1.830000e+002 1.590283e+002 3.571616e+001
         vertex 1.830000e+002 1.591122e+002 3.604168e+001
         vertex 1.830000e+002 0.000000e+000 4.500000e+001
      endloop
   endfacet
   facet normal 1.000000e+000 1.632681e-016 0.000000e+000
      outer loop
         vertex 1.830000e+002 0.000000e+000 4.500000e+001
         vertex 1.830000e+002 1.591122e+002 3.604168e+001
         vertex 1.830000e+002 1.592495e+002 3.634854e+001
      endloop
   endfacet
   facet normal 1.000000e+000 1.632681e-016 0.000000e+000
      outer loop
         vertex 1.830000e+002 0.000000e+000 4.500000e+001
         vertex 1.830000e+002 1.592495e+002 3.634854e+001
         vertex 1.830000e+002 1.594362e+002 3.662806e+001
      endloop
   endfacet
   facet normal 1.000000e+000 1.632681e-016 0.000000e+000
      outer loop
         vertex 1.830000e+002 1.602344e+002 2.577114e+001
         vertex 1.830000e+002 1.599358e+002 2.592547e+001
         vertex 1.830000e+002 0.000000e+000 1.900000e+001
      endloop
   endfacet
   facet normal 1.000000e+000 1.632681e-016 0.000000e+000
      outer loop
         vertex 1.830000e+002 0.000000e+000 1.900000e+001
         vertex 1.830000e+002 1.599358e+002 2.592547e+001
         vertex 1.830000e+002 1.596672e+002 2.612764e+001
      endloop
   endfacet
   facet normal 1.000000e+000 1.632681e-016 0.000000e+000
      outer loop
         vertex 1.830000e+002 0.000000e+000 1.900000e+001
         vertex 1.830000e+002 1.596672e+002 2.612764e+001
         vertex 1.830000e+002 1.594362e+002 2.637194e+001
      endloop
   endfacet
   facet normal 1.000000e+000 1.632681e-016 0.000000e+000
      outer loop
         vertex 1.830000e+002 1.594362e+002 2.637194e+001
         vertex 1.830000e+002 1.592495e+002 2.665146e+001
         vertex 1.830000e+002 0.000000e+000 1.900000e+001
      endloop
   endfacet
   facet normal 1.000000e+000 1.632681e-016 0.000000e+000
      outer loop
         vertex 1.830000e+002 0.000000e+000 1.900000e+001
         vertex 1.830000e+002 1.592495e+002 2.665146e+001
         vertex 1.830000e+002 1.591122e+002 2.695832e+001
      endloop
   endfacet
   facet normal 1.000000e+000 1.632681e-016 0.000000e+000
      outer loop
         vertex 1.830000e+002 0.000000e+000 1.900000e+001
         vertex 1.830000e+002 1.591122e+002 2.695832e+001
         vertex 1.830000e+002 0.000000e+000 4.500000e+001
      endloop
   endfacet
   facet normal 1.000000e+000 1.632681e-016 0.000000e+000
      outer loop
         vertex 1.830000e+002 0.000000e+000 4.500000e+001
         vertex 1.830000e+002 1.591122e+002 2.695832e+001
         vertex 1.830000e+002 1.590283e+002 2.728384e+001
      endloop
   endfacet
   facet normal 1.000000e+000 1.632681e-016 0.000000e+000
      outer loop
         vertex 1.830000e+002 0.000000e+000 4.500000e+001
         vertex 1.830000e+002 1.590283e+002 2.728384e+001
         vertex 1.830000e+002 1.590000e+002 2.761882e+001
      endloop
   endfacet
   facet normal 1.000000e+000 1.632681e-016 0.000000e+000
      outer loop
         vertex 1.830000e+002 1.594362e+002 3.662806e+001
         vertex 1.830000e+002 1.596672e+002 3.687236e+001
         vertex 1.830000e+002 0.000000e+000 4.500000e+001
      endloop
   endfacet
   facet normal 1.000000e+000 1.632681e-016 0.000000e+000
      outer loop
         vertex 1.830000e+002 0.000000e+000 4.500000e+001
         vertex 1.830000e+002 1.596672e+002 3.687236e+001
         vertex 1.830000e+002 1.599358e+002 3.707453e+001
      endloop
   endfacet
   facet normal 1.000000e+000 1.632681e-016 0.000000e+000
      outer loop
         vertex 1.830000e+002 0.000000e+000 4.500000e+001
         vertex 1.830000e+002 1.599358e+002 3.707453e+001
         vertex 1.830000e+002 1.690000e+002 4.500000e+001
      endloop
   endfacet
   facet normal 1.000000e+000 1.632681e-016 0.000000e+000
      outer loop
         vertex 1.830000e+002 1.690000e+002 4.500000e+001
         vertex 1.830000e+002 1.599358e+002 3.707453e+001
         vertex 1.830000e+002 1.602344e+002 3.722885e+001
      endloop
   endfacet
   facet normal 1.000000e+000 1.632681e-016 0.000000e+000
      outer loop
         vertex 1.830000e+002 1.690000e+002 4.500000e+001
         vertex 1.830000e+002 1.602344e+002 3.722885e+001
         vertex 1.830000e+002 1.605547e+002 3.733098e+001
      endloop
   endfacet
   facet normal 1.000000e+000 1.632681e-016 0.000000e+000
      outer loop
         vertex 1.830000e+002 1.602344e+002 2.577114e+001
         vertex 1.830000e+002 0.000000e+000 1.900000e+001
         vertex 1.830000e+002 1.605547e+002 2.566902e+001
      endloop
   endfacet
   facet normal 1.000000e+000 1.632681e-016 0.000000e+000
      outer loop
         vertex 1.830000e+002 1.605547e+002 2.566902e+001
         vertex 1.830000e+002 0.000000e+000 1.900000e+001
         vertex 1.830000e+002 1.690000e+002 1.900000e+001
      endloop
   endfacet
   facet normal 1.000000e+000 1.632681e-016 0.000000e+000
      outer loop
         vertex 1.830000e+002 1.605547e+002 2.566902e+001
         vertex 1.830000e+002 1.690000e+002 1.900000e+001
         vertex 1.830000e+002 1.608876e+002 2.562198e+001
      endloop
   endfacet
   facet normal 1.000000e+000 1.632681e-016 0.000000e+000
      outer loop
         vertex 1.830000e+002 1.680562e+002 2.638587e+001
         vertex 1.830000e+002 1.678882e+002 2.638118e+001
         vertex 1.830000e+002 1.688752e+002 2.587113e+001
      endloop
   endfacet
   facet normal 1.000000e+000 1.632681e-016 0.000000e+000
      outer loop
         vertex 1.830000e+002 1.689439e+002 3.728230e+001
         vertex 1.830000e+002 1.678882e+002 3.661882e+001
         vertex 1.830000e+002 1.688752e+002 3.712887e+001
      endloop
   endfacet
   facet normal 1.000000e+000 1.632681e-016 0.000000e+000
      outer loop
         vertex 1.830000e+002 1.688752e+002 3.712887e+001
         vertex 1.830000e+002 1.678882e+002 3.661882e+001
         vertex 1.830000e+002 1.680562e+002 3.661413e+001
      endloop
   endfacet
   facet normal 1.000000e+000 1.632681e-016 0.000000e+000
      outer loop
         vertex 1.830000e+002 1.688752e+002 3.712887e+001
         vertex 1.830000e+002 1.680562e+002 3.661413e+001
         vertex 1.830000e+002 1.682227e+002 3.663765e+001
      endloop
   endfacet
   facet normal 1.000000e+000 1.632681e-016 0.000000e+000
      outer loop
         vertex 1.830000e+002 1.605547e+002 3.733098e+001
         vertex 1.830000e+002 1.608876e+002 3.737802e+001
         vertex 1.830000e+002 1.690000e+002 4.500000e+001
      endloop
   endfacet
   facet normal 1.000000e+000 1.632681e-016 0.000000e+000
      outer loop
         vertex 1.830000e+002 1.690000e+002 4.500000e+001
         vertex 1.830000e+002 1.608876e+002 3.737802e+001
         vertex 1.830000e+002 1.612236e+002 3.736864e+001
      endloop
   endfacet
   facet normal 1.000000e+000 1.632681e-016 0.000000e+000
      outer loop
         vertex 1.830000e+002 1.690000e+002 4.500000e+001
         vertex 1.830000e+002 1.612236e+002 3.736864e+001
         vertex 1.830000e+002 1.690000e+002 3.761255e+001
      endloop
   endfacet
   facet normal 1.000000e+000 1.632681e-016 0.000000e+000
      outer loop
         vertex 1.830000e+002 1.690000e+002 3.761255e+001
         vertex 1.830000e+002 1.612236e+002 3.736864e+001
         vertex 1.830000e+002 1.678882e+002 3.661882e+001
      endloop
   endfacet
   facet normal 1.000000e+000 1.632681e-016 0.000000e+000
      outer loop
         vertex 1.830000e+002 1.690000e+002 3.761255e+001
         vertex 1.830000e+002 1.678882e+002 3.661882e+001
         vertex 1.830000e+002 1.689859e+002 3.744506e+001
      endloop
   endfacet
   facet normal 1.000000e+000 1.632681e-016 0.000000e+000
      outer loop
         vertex 1.830000e+002 1.689859e+002 3.744506e+001
         vertex 1.830000e+002 1.678882e+002 3.661882e+001
         vertex 1.830000e+002 1.689439e+002 3.728230e+001
      endloop
   endfacet
   facet normal 1.000000e+000 1.632681e-016 0.000000e+000
      outer loop
         vertex 1.830000e+002 1.688752e+002 2.587113e+001
         vertex 1.830000e+002 1.678882e+002 2.638118e+001
         vertex 1.830000e+002 1.689439e+002 2.571770e+001
      endloop
   endfacet
   facet normal 1.000000e+000 1.632681e-016 0.000000e+000
      outer loop
         vertex 1.830000e+002 1.682227e+002 3.663765e+001
         vertex 1.830000e+002 1.683828e+002 3.668871e+001
         vertex 1.830000e+002 1.688752e+002 3.712887e+001
      endloop
   endfacet
   facet normal 1.000000e+000 1.632681e-016 0.000000e+000
      outer loop
         vertex 1.830000e+002 1.688752e+002 3.712887e+001
         vertex 1.830000e+002 1.683828e+002 3.668871e+001
         vertex 1.830000e+002 1.685321e+002 3.676587e+001
      endloop
   endfacet
   facet normal 1.000000e+000 1.632681e-016 0.000000e+000
      outer loop
         vertex 1.830000e+002 1.688752e+002 3.712887e+001
         vertex 1.830000e+002 1.685321e+002 3.676587e+001
         vertex 1.830000e+002 1.687819e+002 3.698911e+001
      endloop
   endfacet
   facet normal 1.000000e+000 1.632681e-016 0.000000e+000
      outer loop
         vertex 1.830000e+002 1.687819e+002 3.698911e+001
         vertex 1.830000e+002 1.685321e+002 3.676587e+001
         vertex 1.830000e+002 1.686664e+002 3.686696e+001
      endloop
   endfacet
   facet normal 1.000000e+000 1.632681e-016 0.000000e+000
      outer loop
         vertex 1.830000e+002 1.608876e+002 2.562198e+001
         vertex 1.830000e+002 1.690000e+002 1.900000e+001
         vertex 1.830000e+002 1.612236e+002 2.563136e+001
      endloop
   endfacet
   facet normal 1.000000e+000 1.632681e-016 0.000000e+000
      outer loop
         vertex 1.830000e+002 1.612236e+002 2.563136e+001
         vertex 1.830000e+002 1.690000e+002 1.900000e+001
         vertex 1.830000e+002 1.690000e+002 2.538745e+001
      endloop
   endfacet
   facet normal 1.000000e+000 1.632681e-016 0.000000e+000
      outer loop
         vertex 1.830000e+002 1.612236e+002 2.563136e+001
         vertex 1.830000e+002 1.690000e+002 2.538745e+001
         vertex 1.830000e+002 1.678882e+002 2.638118e+001
      endloop
   endfacet
   facet normal 1.000000e+000 1.632681e-016 0.000000e+000
      outer loop
         vertex 1.830000e+002 1.678882e+002 2.638118e+001
         vertex 1.830000e+002 1.690000e+002 2.538745e+001
         vertex 1.830000e+002 1.689859e+002 2.555494e+001
      endloop
   endfacet
   facet normal 1.000000e+000 1.632681e-016 0.000000e+000
      outer loop
         vertex 1.830000e+002 1.678882e+002 2.638118e+001
         vertex 1.830000e+002 1.689859e+002 2.555494e+001
         vertex 1.830000e+002 1.689439e+002 2.571770e+001
      endloop
   endfacet
   facet normal 1.000000e+000 1.632681e-016 0.000000e+000
      outer loop
         vertex 1.830000e+002 1.685321e+002 2.623412e+001
         vertex 1.830000e+002 1.688752e+002 2.587113e+001
         vertex 1.830000e+002 1.686664e+002 2.613304e+001
      endloop
   endfacet
   facet normal 1.000000e+000 1.632681e-016 0.000000e+000
      outer loop
         vertex 1.830000e+002 1.686664e+002 2.613304e+001
         vertex 1.830000e+002 1.688752e+002 2.587113e+001
         vertex 1.830000e+002 1.687819e+002 2.601089e+001
      endloop
   endfacet
   facet normal 1.000000e+000 1.632681e-016 0.000000e+000
      outer loop
         vertex 1.830000e+002 1.685321e+002 2.623412e+001
         vertex 1.830000e+002 1.683828e+002 2.631129e+001
         vertex 1.830000e+002 1.688752e+002 2.587113e+001
      endloop
   endfacet
   facet normal 1.000000e+000 1.632681e-016 0.000000e+000
      outer loop
         vertex 1.830000e+002 1.688752e+002 2.587113e+001
         vertex 1.830000e+002 1.683828e+002 2.631129e+001
         vertex 1.830000e+002 1.682227e+002 2.636235e+001
      endloop
   endfacet
   facet normal 1.000000e+000 1.632681e-016 0.000000e+000
      outer loop
         vertex 1.830000e+002 1.688752e+002 2.587113e+001
         vertex 1.830000e+002 1.682227e+002 2.636235e+001
         vertex 1.830000e+002 1.680562e+002 2.638587e+001
      endloop
   endfacet
   facet normal 0.000000e+000 -9.529878e-001 -3.030087e-001
      outer loop
         vertex 1.680000e+002 4.606247e-001 6.999999e+000
         vertex 1.660000e+002 4.606247e-001 6.999999e+000
         vertex 1.660000e+002 4.894435e-001 6.909830e+000
      endloop
   endfacet
   facet normal 0.000000e+000 -7.431127e-001 -6.691663e-001
      outer loop
         vertex 1.720000e+002 1.909822e+000 4.122147e+000
         vertex 1.680000e+002 2.928942e+000 2.928931e+000
         vertex 1.720000e+002 2.928942e+000 2.928931e+000
      endloop
   endfacet
   facet normal 0.000000e+000 -6.691663e-001 -7.431127e-001
      outer loop
         vertex 1.720000e+002 2.928942e+000 2.928931e+000
         vertex 1.680000e+002 2.928942e+000 2.928931e+000
         vertex 1.680000e+002 4.122138e+000 1.909830e+000
      endloop
   endfacet
   facet normal 0.000000e+000 -6.292831e-001 -7.771761e-001
      outer loop
         vertex 1.720000e+002 2.928942e+000 2.928931e+000
         vertex 1.680000e+002 4.122138e+000 1.909830e+000
         vertex 1.720000e+002 4.122138e+000 1.909830e+000
      endloop
   endfacet
   facet normal 0.000000e+000 -5.446792e-001 -8.386444e-001
      outer loop
         vertex 1.720000e+002 4.122138e+000 1.909830e+000
         vertex 1.680000e+002 4.122138e+000 1.909830e+000
         vertex 1.680000e+002 5.460114e+000 1.089934e+000
      endloop
   endfacet
   facet normal 0.000000e+000 -4.999584e-001 -8.660494e-001
      outer loop
         vertex 1.720000e+002 4.122138e+000 1.909830e+000
         vertex 1.680000e+002 5.460114e+000 1.089934e+000
         vertex 1.720000e+002 5.460114e+000 1.089934e+000
      endloop
   endfacet
   facet normal 0.000000e+000 -4.067805e-001 -9.135259e-001
      outer loop
         vertex 1.720000e+002 5.460114e+000 1.089934e+000
         vertex 1.680000e+002 5.460114e+000 1.089934e+000
         vertex 1.680000e+002 6.909847e+000 4.894342e-001
      endloop
   endfacet
   facet normal 0.000000e+000 -3.583232e-001 -9.335976e-001
      outer loop
         vertex 1.720000e+002 5.460114e+000 1.089934e+000
         vertex 1.680000e+002 6.909847e+000 4.894342e-001
         vertex 1.720000e+002 6.909847e+000 4.894342e-001
      endloop
   endfacet
   facet normal 0.000000e+000 -2.588653e-001 -9.659134e-001
      outer loop
         vertex 1.720000e+002 6.909847e+000 4.894342e-001
         vertex 1.680000e+002 6.909847e+000 4.894342e-001
         vertex 1.680000e+002 8.435667e+000 1.231153e-001
      endloop
   endfacet
   facet normal 0.000000e+000 -2.078648e-001 -9.781575e-001
      outer loop
         vertex 1.720000e+002 6.909847e+000 4.894342e-001
         vertex 1.680000e+002 8.435667e+000 1.231153e-001
         vertex 1.720000e+002 8.435667e+000 1.231153e-001
      endloop
   endfacet
   facet normal 0.000000e+000 -1.045761e-001 -9.945168e-001
      outer loop
         vertex 1.720000e+002 8.435667e+000 1.231153e-001
         vertex 1.680000e+002 8.435667e+000 1.231153e-001
         vertex 1.680000e+002 9.999990e+000 0.000000e+000
      endloop
   endfacet
   facet normal 0.000000e+000 -5.228807e-002 -9.986320e-001
      outer loop
         vertex 1.720000e+002 8.435667e+000 1.231153e-001
         vertex 1.680000e+002 9.999990e+000 0.000000e+000
         vertex 1.720000e+002 9.999990e+000 0.000000e+000
      endloop
   endfacet
   facet normal 0.000000e+000 -8.746188e-001 -4.848112e-001
      outer loop
         vertex 1.660000e+002 1.089931e+000 5.460094e+000
         vertex 1.660000e+002 1.339763e+000 4.999999e+000
         vertex 1.680000e+002 1.339763e+000 4.999999e+000
      endloop
   endfacet
   facet normal 0.000000e+000 -9.667266e-001 -2.558117e-001
      outer loop
         vertex 1.680000e+002 1.231134e-001 8.435655e+000
         vertex 1.680000e+002 4.606247e-001 6.999999e+000
         vertex 1.720000e+002 4.894435e-001 6.909830e+000
      endloop
   endfacet
   facet normal 0.000000e+000 -9.781575e-001 -2.078648e-001
      outer loop
         vertex 1.720000e+002 4.894435e-001 6.909830e+000
         vertex 1.720000e+002 1.231134e-001 8.435655e+000
         vertex 1.680000e+002 1.231134e-001 8.435655e+000
      endloop
   endfacet
   facet normal 0.000000e+000 -9.945168e-001 -1.045761e-001
      outer loop
         vertex 1.680000e+002 1.231134e-001 8.435655e+000
         vertex 1.720000e+002 1.231134e-001 8.435655e+000
         vertex 1.720000e+002 0.000000e+000 1.000000e+001
      endloop
   endfacet
   facet normal 0.000000e+000 -9.986320e-001 -5.228807e-002
      outer loop
         vertex 1.680000e+002 1.231134e-001 8.435655e+000
         vertex 1.720000e+002 0.000000e+000 1.000000e+001
         vertex 1.680000e+002 0.000000e+000 1.000000e+001
      endloop
   endfacet
   facet normal 0.000000e+000 -9.520269e-001 -3.060144e-001
      outer loop
         vertex 1.680000e+002 4.606247e-001 6.999999e+000
         vertex 1.660000e+002 4.894435e-001 6.909830e+000
         vertex 1.720000e+002 4.894435e-001 6.909830e+000
      endloop
   endfacet
   facet normal 0.000000e+000 -9.335976e-001 -3.583232e-001
      outer loop
         vertex 1.720000e+002 4.894435e-001 6.909830e+000
         vertex 1.660000e+002 4.894435e-001 6.909830e+000
         vertex 1.660000e+002 1.089931e+000 5.460094e+000
      endloop
   endfacet
   facet normal 0.000000e+000 -9.135259e-001 -4.067805e-001
      outer loop
         vertex 1.720000e+002 4.894435e-001 6.909830e+000
         vertex 1.660000e+002 1.089931e+000 5.460094e+000
         vertex 1.720000e+002 1.089931e+000 5.460094e+000
      endloop
   endfacet
   facet normal 0.000000e+000 -8.829485e-001 -4.694700e-001
      outer loop
         vertex 1.720000e+002 1.089931e+000 5.460094e+000
         vertex 1.660000e+002 1.089931e+000 5.460094e+000
         vertex 1.680000e+002 1.339763e+000 4.999999e+000
      endloop
   endfacet
   facet normal 0.000000e+000 -8.571764e-001 -5.150229e-001
      outer loop
         vertex 1.720000e+002 1.089931e+000 5.460094e+000
         vertex 1.680000e+002 1.339763e+000 4.999999e+000
         vertex 1.720000e+002 1.909822e+000 4.122147e+000
      endloop
   endfacet
   facet normal 0.000000e+000 -8.290296e-001 -5.592046e-001
      outer loop
         vertex 1.720000e+002 1.909822e+000 4.122147e+000
         vertex 1.680000e+002 1.339763e+000 4.999999e+000
         vertex 1.680000e+002 1.909822e+000 4.122147e+000
      endloop
   endfacet
   facet normal 0.000000e+000 -7.771761e-001 -6.292831e-001
      outer loop
         vertex 1.720000e+002 1.909822e+000 4.122147e+000
         vertex 1.680000e+002 1.909822e+000 4.122147e+000
         vertex 1.680000e+002 2.928942e+000 2.928931e+000
      endloop
   endfacet
   facet normal 0.000000e+000 -1.000000e+000 0.000000e+000
      outer loop
         vertex 1.680000e+002 0.000000e+000 1.000000e+001
         vertex 1.720000e+002 0.000000e+000 1.000000e+001
         vertex 1.720000e+002 0.000000e+000 1.900000e+001
      endloop
   endfacet
   facet normal 0.000000e+000 -1.000000e+000 0.000000e+000
      outer loop
         vertex 1.830000e+002 0.000000e+000 1.900000e+001
         vertex 1.830000e+002 0.000000e+000 4.500000e+001
         vertex 1.720000e+002 0.000000e+000 1.900000e+001
      endloop
   endfacet
   facet normal 0.000000e+000 -1.000000e+000 0.000000e+000
      outer loop
         vertex 1.720000e+002 0.000000e+000 1.900000e+001
         vertex 1.830000e+002 0.000000e+000 4.500000e+001
         vertex 1.680000e+002 0.000000e+000 4.500000e+001
      endloop
   endfacet
   facet normal 0.000000e+000 -1.000000e+000 0.000000e+000
      outer loop
         vertex 1.720000e+002 0.000000e+000 1.900000e+001
         vertex 1.680000e+002 0.000000e+000 4.500000e+001
         vertex 1.680000e+002 0.000000e+000 1.000000e+001
      endloop
   endfacet
   facet normal 0.000000e+000 0.000000e+000 -1.000000e+000
      outer loop
         vertex 1.830000e+002 1.690000e+002 1.900000e+001
         vertex 1.830000e+002 0.000000e+000 1.900000e+001
         vertex 1.720000e+002 1.690000e+002 1.900000e+001
      endloop
   endfacet
   facet normal 0.000000e+000 0.000000e+000 -1.000000e+000
      outer loop
         vertex 1.720000e+002 1.690000e+002 1.900000e+001
         vertex 1.830000e+002 0.000000e+000 1.900000e+001
         vertex 1.720000e+002 0.000000e+000 1.900000e+001
      endloop
   endfacet
   facet normal 0.000000e+000 0.000000e+000 -1.000000e+000
      outer loop
         vertex 1.720000e+002 1.675838e+002 0.000000e+000
         vertex 1.720000e+002 9.999990e+000 0.000000e+000
         vertex 1.680000e+002 1.675838e+002 0.000000e+000
      endloop
   endfacet
   facet normal 0.000000e+000 0.000000e+000 -1.000000e+000
      outer loop
         vertex 1.680000e+002 1.675838e+002 0.000000e+000
         vertex 1.720000e+002 9.999990e+000 0.000000e+000
         vertex 1.680000e+002 9.999990e+000 0.000000e+000
      endloop
   endfacet
   facet normal 1.106348e-032 -1.275532e-016 1.000000e+000
      outer loop
         vertex 1.660000e+002 4.606247e-001 6.999999e+000
         vertex 1.680000e+002 4.606247e-001 6.999999e+000
         vertex 1.660000e+002 1.690000e+002 6.999999e+000
      endloop
   endfacet
   facet normal 1.106348e-032 -1.275532e-016 1.000000e+000
      outer loop
         vertex 1.660000e+002 1.690000e+002 6.999999e+000
         vertex 1.680000e+002 4.606247e-001 6.999999e+000
         vertex 1.680000e+002 1.690000e+002 6.999999e+000
      endloop
   endfacet
   facet normal 0.000000e+000 0.000000e+000 -1.000000e+000
      outer loop
         vertex 1.680000e+002 1.339763e+000 4.999999e+000
         vertex 1.660000e+002 1.339763e+000 4.999999e+000
         vertex 1.680000e+002 1.690000e+002 4.999999e+000
      endloop
   endfacet
   facet normal 0.000000e+000 0.000000e+000 -1.000000e+000
      outer loop
         vertex 1.680000e+002 1.690000e+002 4.999999e+000
         vertex 1.660000e+002 1.339763e+000 4.999999e+000
         vertex 1.660000e+002 1.690000e+002 4.999999e+000
      endloop
   endfacet
   facet normal -1.000000e+000 -1.039902e-016 -2.465190e-032
      outer loop
         vertex 1.660000e+002 4.894435e-001 6.909830e+000
         vertex 1.660000e+002 4.606247e-001 6.999999e+000
         vertex 1.660000e+002 1.690000e+002 6.999999e+000
      endloop
   endfacet
   facet normal -1.000000e+000 -1.039902e-016 -2.465190e-032
      outer loop
         vertex 1.660000e+002 4.894435e-001 6.909830e+000
         vertex 1.660000e+002 1.690000e+002 6.999999e+000
         vertex 1.660000e+002 1.089931e+000 5.460094e+000
      endloop
   endfacet
   facet normal -1.000000e+000 -1.039902e-016 -2.465190e-032
      outer loop
         vertex 1.660000e+002 1.089931e+000 5.460094e+000
         vertex 1.660000e+002 1.690000e+002 6.999999e+000
         vertex 1.660000e+002 1.690000e+002 4.999999e+000
      endloop
   endfacet
   facet normal -1.000000e+000 -1.039902e-016 -2.465190e-032
      outer loop
         vertex 1.660000e+002 1.089931e+000 5.460094e+000
         vertex 1.660000e+002 1.690000e+002 4.999999e+000
         vertex 1.660000e+002 1.339763e+000 4.999999e+000
      endloop
   endfacet
   facet normal -8.673617e-017 1.000000e+000 0.000000e+000
      outer loop
         vertex 1.830000e+002 1.690000e+002 4.500000e+001
         vertex 1.830000e+002 1.690000e+002 3.761255e+001
         vertex 1.680000e+002 1.690000e+002 4.500000e+001
      endloop
   endfacet
   facet normal -8.673617e-017 1.000000e+000 0.000000e+000
      outer loop
         vertex 1.680000e+002 1.690000e+002 4.500000e+001
         vertex 1.830000e+002 1.690000e+002 3.761255e+001
         vertex 1.680000e+002 1.690000e+002 3.761255e+001
      endloop
   endfacet
   facet normal 4.854871e-018 -5.597286e-002 9.984323e-001
      outer loop
         vertex 1.680000e+002 1.678882e+002 2.638118e+001
         vertex 1.830000e+002 1.678882e+002 2.638118e+001
         vertex 1.830000e+002 1.680562e+002 2.638587e+001
      endloop
   endfacet
   facet normal -1.823960e-020 2.102907e-004 9.999999e-001
      outer loop
         vertex 1.680000e+002 1.678882e+002 2.638118e+001
         vertex 1.830000e+002 1.680562e+002 2.638587e+001
         vertex 1.680000e+002 1.680562e+002 2.638587e+001
      endloop
   endfacet
   facet normal -9.718398e-018 1.120455e-001 9.937031e-001
      outer loop
         vertex 1.680000e+002 1.680562e+002 2.638587e+001
         vertex 1.830000e+002 1.680562e+002 2.638587e+001
         vertex 1.830000e+002 1.682227e+002 2.636235e+001
      endloop
   endfacet
   facet normal -1.454544e-017 1.676976e-001 9.858385e-001
      outer loop
         vertex 1.680000e+002 1.680562e+002 2.638587e+001
         vertex 1.830000e+002 1.682227e+002 2.636235e+001
         vertex 1.680000e+002 1.682227e+002 2.636235e+001
      endloop
   endfacet
   facet normal -2.401710e-017 2.768983e-001 9.608992e-001
      outer loop
         vertex 1.680000e+002 1.682227e+002 2.636235e+001
         vertex 1.830000e+002 1.682227e+002 2.636235e+001
         vertex 1.830000e+002 1.683828e+002 2.631129e+001
      endloop
   endfacet
   facet normal -2.866170e-017 3.304469e-001 9.438246e-001
      outer loop
         vertex 1.680000e+002 1.682227e+002 2.636235e+001
         vertex 1.830000e+002 1.683828e+002 2.631129e+001
         vertex 1.680000e+002 1.683828e+002 2.631129e+001
      endloop
   endfacet
   facet normal -3.763725e-017 4.339280e-001 9.009476e-001
      outer loop
         vertex 1.680000e+002 1.683828e+002 2.631129e+001
         vertex 1.830000e+002 1.683828e+002 2.631129e+001
         vertex 1.830000e+002 1.685321e+002 2.623412e+001
      endloop
   endfacet
   facet normal -4.196820e-017 4.838604e-001 8.751452e-001
      outer loop
         vertex 1.680000e+002 1.683828e+002 2.631129e+001
         vertex 1.830000e+002 1.685321e+002 2.623412e+001
         vertex 1.680000e+002 1.685321e+002 2.623412e+001
      endloop
   endfacet
   facet normal -5.019407e-017 5.786982e-001 8.155419e-001
      outer loop
         vertex 1.680000e+002 1.685321e+002 2.623412e+001
         vertex 1.830000e+002 1.685321e+002 2.623412e+001
         vertex 1.830000e+002 1.686664e+002 2.613304e+001
      endloop
   endfacet
   facet normal -5.408898e-017 6.236035e-001 7.817408e-001
      outer loop
         vertex 1.680000e+002 1.685321e+002 2.623412e+001
         vertex 1.830000e+002 1.686664e+002 2.613304e+001
         vertex 1.680000e+002 1.686664e+002 2.613304e+001
      endloop
   endfacet
   facet normal -6.133276e-017 7.071186e-001 7.070950e-001
      outer loop
         vertex 1.680000e+002 1.686664e+002 2.613304e+001
         vertex 1.830000e+002 1.686664e+002 2.613304e+001
         vertex 1.830000e+002 1.687819e+002 2.601089e+001
      endloop
   endfacet
   facet normal -6.468162e-017 7.457283e-001 6.662502e-001
      outer loop
         vertex 1.680000e+002 1.686664e+002 2.613304e+001
         vertex 1.830000e+002 1.687819e+002 2.601089e+001
         vertex 1.680000e+002 1.687819e+002 2.601089e+001
      endloop
   endfacet
   facet normal -7.073865e-017 8.155611e-001 5.786709e-001
      outer loop
         vertex 1.680000e+002 1.687819e+002 2.601089e+001
         vertex 1.830000e+002 1.687819e+002 2.601089e+001
         vertex 1.830000e+002 1.688752e+002 2.587113e+001
      endloop
   endfacet
   facet normal -7.344684e-017 8.467844e-001 5.319364e-001
      outer loop
         vertex 1.680000e+002 1.687819e+002 2.601089e+001
         vertex 1.830000e+002 1.688752e+002 2.587113e+001
         vertex 1.680000e+002 1.688752e+002 2.587113e+001
      endloop
   endfacet
   facet normal -7.814600e-017 9.009621e-001 4.338979e-001
      outer loop
         vertex 1.680000e+002 1.688752e+002 2.587113e+001
         vertex 1.830000e+002 1.688752e+002 2.587113e+001
         vertex 1.830000e+002 1.689439e+002 2.571770e+001
      endloop
   endfacet
   facet normal -8.013699e-017 9.239166e-001 3.825940e-001
      outer loop
         vertex 1.680000e+002 1.688752e+002 2.587113e+001
         vertex 1.830000e+002 1.689439e+002 2.571770e+001
         vertex 1.680000e+002 1.689439e+002 2.571770e+001
      endloop
   endfacet
   facet normal -8.334553e-017 9.609085e-001 2.768662e-001
      outer loop
         vertex 1.680000e+002 1.689439e+002 2.571770e+001
         vertex 1.830000e+002 1.689439e+002 2.571770e+001
         vertex 1.830000e+002 1.689859e+002 2.555494e+001
      endloop
   endfacet
   facet normal -8.456307e-017 9.749458e-001 2.224424e-001
      outer loop
         vertex 1.680000e+002 1.689439e+002 2.571770e+001
         vertex 1.830000e+002 1.689859e+002 2.555494e+001
         vertex 1.680000e+002 1.689859e+002 2.555494e+001
      endloop
   endfacet
   facet normal -8.619033e-017 9.937068e-001 1.120123e-001
      outer loop
         vertex 1.680000e+002 1.689859e+002 2.555494e+001
         vertex 1.830000e+002 1.689859e+002 2.555494e+001
         vertex 1.830000e+002 1.690000e+002 2.538745e+001
      endloop
   endfacet
   facet normal -8.660003e-017 9.984304e-001 5.600617e-002
      outer loop
         vertex 1.680000e+002 1.689859e+002 2.555494e+001
         vertex 1.830000e+002 1.690000e+002 2.538745e+001
         vertex 1.680000e+002 1.690000e+002 2.538745e+001
      endloop
   endfacet
   facet normal 9.697396e-018 -1.118034e-001 9.937304e-001
      outer loop
         vertex 1.830000e+002 1.678882e+002 2.638118e+001
         vertex 1.680000e+002 1.678882e+002 2.638118e+001
         vertex 1.830000e+002 1.612236e+002 2.563136e+001
      endloop
   endfacet
   facet normal 9.697396e-018 -1.118034e-001 9.937304e-001
      outer loop
         vertex 1.830000e+002 1.612236e+002 2.563136e+001
         vertex 1.680000e+002 1.678882e+002 2.638118e+001
         vertex 1.680000e+002 1.612236e+002 2.563136e+001
      endloop
   endfacet
   facet normal -8.660003e-017 9.984304e-001 5.600617e-002
      outer loop
         vertex 1.680000e+002 1.590000e+002 2.761882e+001
         vertex 1.830000e+002 1.590000e+002 2.761882e+001
         vertex 1.680000e+002 1.590283e+002 2.728384e+001
      endloop
   endfacet
   facet normal -8.619033e-017 9.937068e-001 1.120123e-001
      outer loop
         vertex 1.680000e+002 1.590283e+002 2.728384e+001
         vertex 1.830000e+002 1.590000e+002 2.761882e+001
         vertex 1.830000e+002 1.590283e+002 2.728384e+001
      endloop
   endfacet
   facet normal -8.456307e-017 9.749458e-001 2.224424e-001
      outer loop
         vertex 1.680000e+002 1.590283e+002 2.728384e+001
         vertex 1.830000e+002 1.590283e+002 2.728384e+001
         vertex 1.680000e+002 1.591122e+002 2.695832e+001
      endloop
   endfacet
   facet normal -8.334551e-017 9.609085e-001 2.768662e-001
      outer loop
         vertex 1.680000e+002 1.591122e+002 2.695832e+001
         vertex 1.830000e+002 1.590283e+002 2.728384e+001
         vertex 1.830000e+002 1.591122e+002 2.695832e+001
      endloop
   endfacet
   facet normal -8.013699e-017 9.239166e-001 3.825940e-001
      outer loop
         vertex 1.680000e+002 1.591122e+002 2.695832e+001
         vertex 1.830000e+002 1.591122e+002 2.695832e+001
         vertex 1.680000e+002 1.592495e+002 2.665146e+001
      endloop
   endfacet
   facet normal -7.814600e-017 9.009621e-001 4.338979e-001
      outer loop
         vertex 1.680000e+002 1.592495e+002 2.665146e+001
         vertex 1.830000e+002 1.591122e+002 2.695832e+001
         vertex 1.830000e+002 1.592495e+002 2.665146e+001
      endloop
   endfacet
   facet normal -7.344684e-017 8.467844e-001 5.319364e-001
      outer loop
         vertex 1.680000e+002 1.592495e+002 2.665146e+001
         vertex 1.830000e+002 1.592495e+002 2.665146e+001
         vertex 1.680000e+002 1.594362e+002 2.637194e+001
      endloop
   endfacet
   facet normal -7.073865e-017 8.155611e-001 5.786709e-001
      outer loop
         vertex 1.680000e+002 1.594362e+002 2.637194e+001
         vertex 1.830000e+002 1.592495e+002 2.665146e+001
         vertex 1.830000e+002 1.594362e+002 2.637194e+001
      endloop
   endfacet
   facet normal -6.468162e-017 7.457283e-001 6.662502e-001
      outer loop
         vertex 1.680000e+002 1.594362e+002 2.637194e+001
         vertex 1.830000e+002 1.594362e+002 2.637194e+001
         vertex 1.680000e+002 1.596672e+002 2.612764e+001
      endloop
   endfacet
   facet normal -6.133276e-017 7.071186e-001 7.070949e-001
      outer loop
         vertex 1.680000e+002 1.596672e+002 2.612764e+001
         vertex 1.830000e+002 1.594362e+002 2.637194e+001
         vertex 1.830000e+002 1.596672e+002 2.612764e+001
      endloop
   endfacet
   facet normal -5.408898e-017 6.236035e-001 7.817408e-001
      outer loop
         vertex 1.680000e+002 1.596672e+002 2.612764e+001
         vertex 1.830000e+002 1.596672e+002 2.612764e+001
         vertex 1.680000e+002 1.599358e+002 2.592547e+001
      endloop
   endfacet
   facet normal -5.019406e-017 5.786982e-001 8.155419e-001
      outer loop
         vertex 1.680000e+002 1.599358e+002 2.592547e+001
         vertex 1.830000e+002 1.596672e+002 2.612764e+001
         vertex 1.830000e+002 1.599358e+002 2.592547e+001
      endloop
   endfacet
   facet normal -4.196820e-017 4.838604e-001 8.751452e-001
      outer loop
         vertex 1.680000e+002 1.599358e+002 2.592547e+001
         vertex 1.830000e+002 1.599358e+002 2.592547e+001
         vertex 1.680000e+002 1.602344e+002 2.577114e+001
      endloop
   endfacet
   facet normal -3.763725e-017 4.339280e-001 9.009476e-001
      outer loop
         vertex 1.680000e+002 1.602344e+002 2.577114e+001
         vertex 1.830000e+002 1.599358e+002 2.592547e+001
         vertex 1.830000e+002 1.602344e+002 2.577114e+001
      endloop
   endfacet
   facet normal -2.866171e-017 3.304469e-001 9.438246e-001
      outer loop
         vertex 1.680000e+002 1.602344e+002 2.577114e+001
         vertex 1.830000e+002 1.602344e+002 2.577114e+001
         vertex 1.680000e+002 1.605547e+002 2.566902e+001
      endloop
   endfacet
   facet normal -2.401710e-017 2.768983e-001 9.608992e-001
      outer loop
         vertex 1.680000e+002 1.605547e+002 2.566902e+001
         vertex 1.830000e+002 1.602344e+002 2.577114e+001
         vertex 1.830000e+002 1.605547e+002 2.566902e+001
      endloop
   endfacet
   facet normal -1.454544e-017 1.676976e-001 9.858385e-001
      outer loop
         vertex 1.680000e+002 1.605547e+002 2.566902e+001
         vertex 1.830000e+002 1.605547e+002 2.566902e+001
         vertex 1.680000e+002 1.608876e+002 2.562198e+001
      endloop
   endfacet
   facet normal -9.718399e-018 1.120455e-001 9.937031e-001
      outer loop
         vertex 1.680000e+002 1.608876e+002 2.562198e+001
         vertex 1.830000e+002 1.605547e+002 2.566902e+001
         vertex 1.830000e+002 1.608876e+002 2.562198e+001
      endloop
   endfacet
   facet normal -1.823960e-020 2.102907e-004 9.999999e-001
      outer loop
         vertex 1.680000e+002 1.608876e+002 2.562198e+001
         vertex 1.830000e+002 1.608876e+002 2.562198e+001
         vertex 1.680000e+002 1.612236e+002 2.563136e+001
      endloop
   endfacet
   facet normal 4.854871e-018 -5.597286e-002 9.984323e-001
      outer loop
         vertex 1.680000e+002 1.612236e+002 2.563136e+001
         vertex 1.830000e+002 1.608876e+002 2.562198e+001
         vertex 1.830000e+002 1.612236e+002 2.563136e+001
      endloop
   endfacet
   facet normal -8.673617e-017 1.000000e+000 0.000000e+000
      outer loop
         vertex 1.830000e+002 1.590000e+002 2.761882e+001
         vertex 1.680000e+002 1.590000e+002 2.761882e+001
         vertex 1.830000e+002 1.590000e+002 3.538118e+001
      endloop
   endfacet
   facet normal -8.673617e-017 1.000000e+000 0.000000e+000
      outer loop
         vertex 1.830000e+002 1.590000e+002 3.538118e+001
         vertex 1.680000e+002 1.590000e+002 2.761882e+001
         vertex 1.680000e+002 1.590000e+002 3.538118e+001
      endloop
   endfacet
   facet normal 4.854871e-018 -5.597286e-002 -9.984323e-001
      outer loop
         vertex 1.680000e+002 1.612236e+002 3.736864e+001
         vertex 1.830000e+002 1.612236e+002 3.736864e+001
         vertex 1.680000e+002 1.608876e+002 3.737802e+001
      endloop
   endfacet
   facet normal -1.823960e-020 2.102907e-004 -9.999999e-001
      outer loop
         vertex 1.680000e+002 1.608876e+002 3.737802e+001
         vertex 1.830000e+002 1.612236e+002 3.736864e+001
         vertex 1.830000e+002 1.608876e+002 3.737802e+001
      endloop
   endfacet
   facet normal -9.718398e-018 1.120455e-001 -9.937031e-001
      outer loop
         vertex 1.680000e+002 1.608876e+002 3.737802e+001
         vertex 1.830000e+002 1.608876e+002 3.737802e+001
         vertex 1.680000e+002 1.605547e+002 3.733098e+001
      endloop
   endfacet
   facet normal -1.454544e-017 1.676976e-001 -9.858385e-001
      outer loop
         vertex 1.680000e+002 1.605547e+002 3.733098e+001
         vertex 1.830000e+002 1.608876e+002 3.737802e+001
         vertex 1.830000e+002 1.605547e+002 3.733098e+001
      endloop
   endfacet
   facet normal -2.401710e-017 2.768983e-001 -9.608992e-001
      outer loop
         vertex 1.680000e+002 1.605547e+002 3.733098e+001
         vertex 1.830000e+002 1.605547e+002 3.733098e+001
         vertex 1.680000e+002 1.602344e+002 3.722885e+001
      endloop
   endfacet
   facet normal -2.866170e-017 3.304469e-001 -9.438246e-001
      outer loop
         vertex 1.680000e+002 1.602344e+002 3.722885e+001
         vertex 1.830000e+002 1.605547e+002 3.733098e+001
         vertex 1.830000e+002 1.602344e+002 3.722885e+001
      endloop
   endfacet
   facet normal -3.763725e-017 4.339280e-001 -9.009476e-001
      outer loop
         vertex 1.680000e+002 1.602344e+002 3.722885e+001
         vertex 1.830000e+002 1.602344e+002 3.722885e+001
         vertex 1.680000e+002 1.599358e+002 3.707453e+001
      endloop
   endfacet
   facet normal -4.196820e-017 4.838604e-001 -8.751452e-001
      outer loop
         vertex 1.680000e+002 1.599358e+002 3.707453e+001
         vertex 1.830000e+002 1.602344e+002 3.722885e+001
         vertex 1.830000e+002 1.599358e+002 3.707453e+001
      endloop
   endfacet
   facet normal -5.019407e-017 5.786982e-001 -8.155419e-001
      outer loop
         vertex 1.680000e+002 1.599358e+002 3.707453e+001
         vertex 1.830000e+002 1.599358e+002 3.707453e+001
         vertex 1.680000e+002 1.596672e+002 3.687236e+001
      endloop
   endfacet
   facet normal -5.408898e-017 6.236035e-001 -7.817408e-001
      outer loop
         vertex 1.680000e+002 1.596672e+002 3.687236e+001
         vertex 1.830000e+002 1.599358e+002 3.707453e+001
         vertex 1.830000e+002 1.596672e+002 3.687236e+001
      endloop
   endfacet
   facet normal -6.133276e-017 7.071186e-001 -7.070950e-001
      outer loop
         vertex 1.680000e+002 1.596672e+002 3.687236e+001
         vertex 1.830000e+002 1.596672e+002 3.687236e+001
         vertex 1.680000e+002 1.594362e+002 3.662806e+001
      endloop
   endfacet
   facet normal -6.468162e-017 7.457283e-001 -6.662502e-001
      outer loop
         vertex 1.680000e+002 1.594362e+002 3.662806e+001
         vertex 1.830000e+002 1.596672e+002 3.687236e+001
         vertex 1.830000e+002 1.594362e+002 3.662806e+001
      endloop
   endfacet
   facet normal -7.073865e-017 8.155611e-001 -5.786709e-001
      outer loop
         vertex 1.680000e+002 1.594362e+002 3.662806e+001
         vertex 1.830000e+002 1.594362e+002 3.662806e+001
         vertex 1.680000e+002 1.592495e+002 3.634854e+001
      endloop
   endfacet
   facet normal -7.344684e-017 8.467844e-001 -5.319364e-001
      outer loop
         vertex 1.680000e+002 1.592495e+002 3.634854e+001
         vertex 1.830000e+002 1.594362e+002 3.662806e+001
         vertex 1.830000e+002 1.592495e+002 3.634854e+001
      endloop
   endfacet
   facet normal -7.814600e-017 9.009621e-001 -4.338979e-001
      outer loop
         vertex 1.680000e+002 1.592495e+002 3.634854e+001
         vertex 1.830000e+002 1.592495e+002 3.634854e+001
         vertex 1.680000e+002 1.591122e+002 3.604168e+001
      endloop
   endfacet
   facet normal -8.013699e-017 9.239166e-001 -3.825940e-001
      outer loop
         vertex 1.680000e+002 1.591122e+002 3.604168e+001
         vertex 1.830000e+002 1.592495e+002 3.634854e+001
         vertex 1.830000e+002 1.591122e+002 3.604168e+001
      endloop
   endfacet
   facet normal -8.334553e-017 9.609085e-001 -2.768662e-001
      outer loop
         vertex 1.680000e+002 1.591122e+002 3.604168e+001
         vertex 1.830000e+002 1.591122e+002 3.604168e+001
         vertex 1.680000e+002 1.590283e+002 3.571616e+001
      endloop
   endfacet
   facet normal -8.456307e-017 9.749458e-001 -2.224424e-001
      outer loop
         vertex 1.680000e+002 1.590283e+002 3.571616e+001
         vertex 1.830000e+002 1.591122e+002 3.604168e+001
         vertex 1.830000e+002 1.590283e+002 3.571616e+001
      endloop
   endfacet
   facet normal -8.619033e-017 9.937068e-001 -1.120123e-001
      outer loop
         vertex 1.680000e+002 1.590283e+002 3.571616e+001
         vertex 1.830000e+002 1.590283e+002 3.571616e+001
         vertex 1.680000e+002 1.590000e+002 3.538118e+001
      endloop
   endfacet
   facet normal -8.660003e-017 9.984304e-001 -5.600617e-002
      outer loop
         vertex 1.680000e+002 1.590000e+002 3.538118e+001
         vertex 1.830000e+002 1.590283e+002 3.571616e+001
         vertex 1.830000e+002 1.590000e+002 3.538118e+001
      endloop
   endfacet
   facet normal 9.697396e-018 -1.118034e-001 -9.937304e-001
      outer loop
         vertex 1.830000e+002 1.612236e+002 3.736864e+001
         vertex 1.680000e+002 1.612236e+002 3.736864e+001
         vertex 1.830000e+002 1.678882e+002 3.661882e+001
      endloop
   endfacet
   facet normal 9.697396e-018 -1.118034e-001 -9.937304e-001
      outer loop
         vertex 1.830000e+002 1.678882e+002 3.661882e+001
         vertex 1.680000e+002 1.612236e+002 3.736864e+001
         vertex 1.680000e+002 1.678882e+002 3.661882e+001
      endloop
   endfacet
   facet normal -8.660003e-017 9.984304e-001 -5.600617e-002
      outer loop
         vertex 1.680000e+002 1.690000e+002 3.761255e+001
         vertex 1.830000e+002 1.690000e+002 3.761255e+001
         vertex 1.830000e+002 1.689859e+002 3.744506e+001
      endloop
   endfacet
   facet normal -8.619033e-017 9.937068e-001 -1.120123e-001
      outer loop
         vertex 1.680000e+002 1.690000e+002 3.761255e+001
         vertex 1.830000e+002 1.689859e+002 3.744506e+001
         vertex 1.680000e+002 1.689859e+002 3.744506e+001
      endloop
   endfacet
   facet normal -8.456307e-017 9.749458e-001 -2.224424e-001
      outer loop
         vertex 1.680000e+002 1.689859e+002 3.744506e+001
         vertex 1.830000e+002 1.689859e+002 3.744506e+001
         vertex 1.830000e+002 1.689439e+002 3.728230e+001
      endloop
   endfacet
   facet normal -8.334551e-017 9.609085e-001 -2.768662e-001
      outer loop
         vertex 1.680000e+002 1.689859e+002 3.744506e+001
         vertex 1.830000e+002 1.689439e+002 3.728230e+001
         vertex 1.680000e+002 1.689439e+002 3.728230e+001
      endloop
   endfacet
   facet normal -8.013699e-017 9.239166e-001 -3.825940e-001
      outer loop
         vertex 1.680000e+002 1.689439e+002 3.728230e+001
         vertex 1.830000e+002 1.689439e+002 3.728230e+001
         vertex 1.830000e+002 1.688752e+002 3.712887e+001
      endloop
   endfacet
   facet normal -7.814600e-017 9.009621e-001 -4.338979e-001
      outer loop
         vertex 1.680000e+002 1.689439e+002 3.728230e+001
         vertex 1.830000e+002 1.688752e+002 3.712887e+001
         vertex 1.680000e+002 1.688752e+002 3.712887e+001
      endloop
   endfacet
   facet normal -7.344684e-017 8.467844e-001 -5.319364e-001
      outer loop
         vertex 1.680000e+002 1.688752e+002 3.712887e+001
         vertex 1.830000e+002 1.688752e+002 3.712887e+001
         vertex 1.830000e+002 1.687819e+002 3.698911e+001
      endloop
   endfacet
   facet normal -7.073865e-017 8.155611e-001 -5.786709e-001
      outer loop
         vertex 1.680000e+002 1.688752e+002 3.712887e+001
         vertex 1.830000e+002 1.687819e+002 3.698911e+001
         vertex 1.680000e+002 1.687819e+002 3.698911e+001
      endloop
   endfacet
   facet normal -6.468162e-017 7.457283e-001 -6.662502e-001
      outer loop
         vertex 1.680000e+002 1.687819e+002 3.698911e+001
         vertex 1.830000e+002 1.687819e+002 3.698911e+001
         vertex 1.830000e+002 1.686664e+002 3.686696e+001
      endloop
   endfacet
   facet normal -6.133276e-017 7.071186e-001 -7.070949e-001
      outer loop
         vertex 1.680000e+002 1.687819e+002 3.698911e+001
         vertex 1.830000e+002 1.686664e+002 3.686696e+001
         vertex 1.680000e+002 1.686664e+002 3.686696e+001
      endloop
   endfacet
   facet normal -5.408898e-017 6.236035e-001 -7.817408e-001
      outer loop
         vertex 1.680000e+002 1.686664e+002 3.686696e+001
         vertex 1.830000e+002 1.686664e+002 3.686696e+001
         vertex 1.830000e+002 1.685321e+002 3.676587e+001
      endloop
   endfacet
   facet normal -5.019406e-017 5.786982e-001 -8.155419e-001
      outer loop
         vertex 1.680000e+002 1.686664e+002 3.686696e+001
         vertex 1.830000e+002 1.685321e+002 3.676587e+001
         vertex 1.680000e+002 1.685321e+002 3.676587e+001
      endloop
   endfacet
   facet normal -4.196820e-017 4.838604e-001 -8.751452e-001
      outer loop
         vertex 1.680000e+002 1.685321e+002 3.676587e+001
         vertex 1.830000e+002 1.685321e+002 3.676587e+001
         vertex 1.830000e+002 1.683828e+002 3.668871e+001
      endloop
   endfacet
   facet normal -3.763725e-017 4.339280e-001 -9.009476e-001
      outer loop
         vertex 1.680000e+002 1.685321e+002 3.676587e+001
         vertex 1.830000e+002 1.683828e+002 3.668871e+001
         vertex 1.680000e+002 1.683828e+002 3.668871e+001
      endloop
   endfacet
   facet normal -2.866171e-017 3.304469e-001 -9.438246e-001
      outer loop
         vertex 1.680000e+002 1.683828e+002 3.668871e+001
         vertex 1.830000e+002 1.683828e+002 3.668871e+001
         vertex 1.830000e+002 1.682227e+002 3.663765e+001
      endloop
   endfacet
   facet normal -2.401710e-017 2.768983e-001 -9.608992e-001
      outer loop
         vertex 1.680000e+002 1.683828e+002 3.668871e+001
         vertex 1.830000e+002 1.682227e+002 3.663765e+001
         vertex 1.680000e+002 1.682227e+002 3.663765e+001
      endloop
   endfacet
   facet normal -1.454544e-017 1.676976e-001 -9.858385e-001
      outer loop
         vertex 1.680000e+002 1.682227e+002 3.663765e+001
         vertex 1.830000e+002 1.682227e+002 3.663765e+001
         vertex 1.830000e+002 1.680562e+002 3.661413e+001
      endloop
   endfacet
   facet normal -9.718399e-018 1.120455e-001 -9.937031e-001
      outer loop
         vertex 1.680000e+002 1.682227e+002 3.663765e+001
         vertex 1.830000e+002 1.680562e+002 3.661413e+001
         vertex 1.680000e+002 1.680562e+002 3.661413e+001
      endloop
   endfacet
   facet normal -1.823960e-020 2.102907e-004 -9.999999e-001
      outer loop
         vertex 1.680000e+002 1.680562e+002 3.661413e+001
         vertex 1.830000e+002 1.680562e+002 3.661413e+001
         vertex 1.830000e+002 1.678882e+002 3.661882e+001
      endloop
   endfacet
   facet normal 4.854871e-018 -5.597286e-002 -9.984323e-001
      outer loop
         vertex 1.680000e+002 1.680562e+002 3.661413e+001
         vertex 1.830000e+002 1.678882e+002 3.661882e+001
         vertex 1.680000e+002 1.678882e+002 3.661882e+001
      endloop
   endfacet
   facet normal -8.205217e-017 9.459972e-001 3.241749e-001
      outer loop
         vertex 1.680000e+002 1.694379e+002 2.750000e+000
         vertex 1.720000e+002 1.694379e+002 2.750000e+000
         vertex 1.720000e+002 1.695350e+002 2.439316e+000
      endloop
   endfacet
   facet normal -8.346007e-017 9.622290e-001 2.722412e-001
      outer loop
         vertex 1.680000e+002 1.694379e+002 2.750000e+000
         vertex 1.720000e+002 1.695350e+002 2.439316e+000
         vertex 1.680000e+002 1.695350e+002 2.439316e+000
      endloop
   endfacet
   facet normal -8.552651e-017 9.860535e-001 1.664286e-001
      outer loop
         vertex 1.680000e+002 1.695350e+002 2.439316e+000
         vertex 1.720000e+002 1.695350e+002 2.439316e+000
         vertex 1.720000e+002 1.695804e+002 2.116995e+000
      endloop
   endfacet
   facet normal -8.618506e-017 9.936461e-001 1.125497e-001
      outer loop
         vertex 1.680000e+002 1.695350e+002 2.439316e+000
         vertex 1.720000e+002 1.695804e+002 2.116995e+000
         vertex 1.680000e+002 1.695804e+002 2.116995e+000
      endloop
   endfacet
   facet normal -8.673537e-017 9.999909e-001 4.273843e-003
      outer loop
         vertex 1.680000e+002 1.695804e+002 2.116995e+000
         vertex 1.720000e+002 1.695804e+002 2.116995e+000
         vertex 1.720000e+002 1.695729e+002 1.791576e+000
      endloop
   endfacet
   facet normal -8.662715e-017 9.987431e-001 -5.012309e-002
      outer loop
         vertex 1.680000e+002 1.695804e+002 2.116995e+000
         vertex 1.720000e+002 1.695729e+002 1.791576e+000
         vertex 1.680000e+002 1.695729e+002 1.791576e+000
      endloop
   endfacet
   facet normal -8.564678e-017 9.874400e-001 -1.579941e-001
      outer loop
         vertex 1.680000e+002 1.695729e+002 1.791576e+000
         vertex 1.720000e+002 1.695729e+002 1.791576e+000
         vertex 1.720000e+002 1.695128e+002 1.471676e+000
      endloop
   endfacet
   facet normal -8.477463e-017 9.773849e-001 -2.114682e-001
      outer loop
         vertex 1.680000e+002 1.695729e+002 1.791576e+000
         vertex 1.720000e+002 1.695128e+002 1.471676e+000
         vertex 1.680000e+002 1.695128e+002 1.471676e+000
      endloop
   endfacet
   facet normal -8.228952e-017 9.487336e-001 -3.160770e-001
      outer loop
         vertex 1.680000e+002 1.695128e+002 1.471676e+000
         vertex 1.720000e+002 1.695128e+002 1.471676e+000
         vertex 1.720000e+002 1.694015e+002 1.165772e+000
      endloop
   endfacet
   facet normal -8.067655e-017 9.301373e-001 -3.672117e-001
      outer loop
         vertex 1.680000e+002 1.695128e+002 1.471676e+000
         vertex 1.720000e+002 1.694015e+002 1.165772e+000
         vertex 1.680000e+002 1.694015e+002 1.165772e+000
      endloop
   endfacet
   facet normal -7.675253e-017 8.848966e-001 -4.657876e-001
      outer loop
         vertex 1.680000e+002 1.694015e+002 1.165772e+000
         vertex 1.720000e+002 1.694015e+002 1.165772e+000
         vertex 1.720000e+002 1.692421e+002 8.819662e-001
      endloop
   endfacet
   facet normal -7.444149e-017 8.582519e-001 -5.132286e-001
      outer loop
         vertex 1.680000e+002 1.694015e+002 1.165772e+000
         vertex 1.720000e+002 1.692421e+002 8.819662e-001
         vertex 1.680000e+002 1.692421e+002 8.819662e-001
      endloop
   endfacet
   facet normal -6.918251e-017 7.976201e-001 -6.031601e-001
      outer loop
         vertex 1.680000e+002 1.692421e+002 8.819662e-001
         vertex 1.720000e+002 1.692421e+002 8.819662e-001
         vertex 1.720000e+002 1.690388e+002 6.277729e-001
      endloop
   endfacet
   facet normal -6.623459e-017 7.636328e-001 -6.456507e-001
      outer loop
         vertex 1.680000e+002 1.692421e+002 8.819662e-001
         vertex 1.720000e+002 1.690388e+002 6.277729e-001
         vertex 1.680000e+002 1.690388e+002 6.277729e-001
      endloop
   endfacet
   facet normal -5.977995e-017 6.892160e-001 -7.245560e-001
      outer loop
         vertex 1.680000e+002 1.690388e+002 6.277729e-001
         vertex 1.720000e+002 1.690388e+002 6.277729e-001
         vertex 1.720000e+002 1.687969e+002 4.099291e-001
      endloop
   endfacet
   facet normal -5.627324e-017 6.487863e-001 -7.609707e-001
      outer loop
         vertex 1.680000e+002 1.690388e+002 6.277729e-001
         vertex 1.720000e+002 1.687969e+002 4.099291e-001
         vertex 1.680000e+002 1.687969e+002 4.099291e-001
      endloop
   endfacet
   facet normal -4.879392e-017 5.625556e-001 -8.267595e-001
      outer loop
         vertex 1.680000e+002 1.687969e+002 4.099291e-001
         vertex 1.720000e+002 1.687969e+002 4.099291e-001
         vertex 1.720000e+002 1.685229e+002 2.342034e-001
      endloop
   endfacet
   facet normal -4.482130e-017 5.167544e-001 -8.561337e-001
      outer loop
         vertex 1.680000e+002 1.687969e+002 4.099291e-001
         vertex 1.720000e+002 1.685229e+002 2.342034e-001
         vertex 1.680000e+002 1.685229e+002 2.342034e-001
      endloop
   endfacet
   facet normal -3.651541e-017 4.209940e-001 -9.070634e-001
      outer loop
         vertex 1.680000e+002 1.685229e+002 2.342034e-001
         vertex 1.720000e+002 1.685229e+002 2.342034e-001
         vertex 1.720000e+002 1.682241e+002 1.052506e-001
      endloop
   endfacet
   facet normal -3.218212e-017 3.710347e-001 -9.286190e-001
      outer loop
         vertex 1.680000e+002 1.685229e+002 2.342034e-001
         vertex 1.720000e+002 1.682241e+002 1.052506e-001
         vertex 1.680000e+002 1.682241e+002 1.052506e-001
      endloop
   endfacet
   facet normal -2.326966e-017 2.682810e-001 -9.633407e-001
      outer loop
         vertex 1.680000e+002 1.682241e+002 1.052506e-001
         vertex 1.720000e+002 1.682241e+002 1.052506e-001
         vertex 1.720000e+002 1.679082e+002 2.648868e-002
      endloop
   endfacet
   facet normal -1.869049e-017 2.154866e-001 -9.765068e-001
      outer loop
         vertex 1.680000e+002 1.682241e+002 1.052506e-001
         vertex 1.720000e+002 1.679082e+002 2.648868e-002
         vertex 1.680000e+002 1.679082e+002 2.648868e-002
      endloop
   endfacet
   facet normal -9.407540e-018 1.084616e-001 -9.941006e-001
      outer loop
         vertex 1.680000e+002 1.679082e+002 2.648868e-002
         vertex 1.720000e+002 1.679082e+002 2.648868e-002
         vertex 1.720000e+002 1.675838e+002 0.000000e+000
      endloop
   endfacet
   facet normal -4.703770e-018 5.423078e-002 -9.985284e-001
      outer loop
         vertex 1.680000e+002 1.679082e+002 2.648868e-002
         vertex 1.720000e+002 1.675838e+002 0.000000e+000
         vertex 1.680000e+002 1.675838e+002 0.000000e+000
      endloop
   endfacet
   facet normal -8.665717e-017 9.990891e-001 4.267179e-002
      outer loop
         vertex 1.680000e+002 1.690000e+002 4.999999e+000
         vertex 1.720000e+002 1.690000e+002 4.999999e+000
         vertex 1.680000e+002 1.690492e+002 4.233308e+000
      endloop
   endfacet
   facet normal -8.641973e-017 9.963515e-001 8.534358e-002
      outer loop
         vertex 1.680000e+002 1.690492e+002 4.233308e+000
         vertex 1.720000e+002 1.690000e+002 4.999999e+000
         vertex 1.720000e+002 1.690492e+002 4.233308e+000
      endloop
   endfacet
   facet normal -8.547383e-017 9.854462e-001 1.699875e-001
      outer loop
         vertex 1.680000e+002 1.690492e+002 4.233308e+000
         vertex 1.720000e+002 1.690492e+002 4.233308e+000
         vertex 1.680000e+002 1.691959e+002 3.479187e+000
      endloop
   endfacet
   facet normal -8.476539e-017 9.772784e-001 2.119597e-001
      outer loop
         vertex 1.680000e+002 1.691959e+002 3.479187e+000
         vertex 1.720000e+002 1.690492e+002 4.233308e+000
         vertex 1.720000e+002 1.691959e+002 3.479187e+000
      endloop
   endfacet
   facet normal -8.288912e-017 9.556465e-001 2.945162e-001
      outer loop
         vertex 1.680000e+002 1.691959e+002 3.479187e+000
         vertex 1.720000e+002 1.691959e+002 3.479187e+000
         vertex 1.680000e+002 1.694379e+002 2.750000e+000
      endloop
   endfacet
   facet normal -8.172129e-017 9.421823e-001 3.351006e-001
      outer loop
         vertex 1.680000e+002 1.694379e+002 2.750000e+000
         vertex 1.720000e+002 1.691959e+002 3.479187e+000
         vertex 1.720000e+002 1.694379e+002 2.750000e+000
      endloop
   endfacet
   facet normal -8.673617e-017 1.000000e+000 0.000000e+000
      outer loop
         vertex 1.660000e+002 1.690000e+002 4.999999e+000
         vertex 1.660000e+002 1.690000e+002 6.999999e+000
         vertex 1.680000e+002 1.690000e+002 4.999999e+000
      endloop
   endfacet
   facet normal -8.673617e-017 1.000000e+000 0.000000e+000
      outer loop
         vertex 1.680000e+002 1.690000e+002 4.999999e+000
         vertex 1.660000e+002 1.690000e+002 6.999999e+000
         vertex 1.680000e+002 1.690000e+002 6.999999e+000
      endloop
   endfacet
   facet normal -8.673617e-017 1.000000e+000 0.000000e+000
      outer loop
         vertex 1.830000e+002 1.690000e+002 2.538745e+001
         vertex 1.830000e+002 1.690000e+002 1.900000e+001
         vertex 1.680000e+002 1.690000e+002 2.538745e+001
      endloop
   endfacet
   facet normal -8.673617e-017 1.000000e+000 0.000000e+000
      outer loop
         vertex 1.680000e+002 1.690000e+002 2.538745e+001
         vertex 1.830000e+002 1.690000e+002 1.900000e+001
         vertex 1.720000e+002 1.690000e+002 1.900000e+001
      endloop
   endfacet
   facet normal -8.673617e-017 1.000000e+000 0.000000e+000
      outer loop
         vertex 1.680000e+002 1.690000e+002 2.538745e+001
         vertex 1.720000e+002 1.690000e+002 1.900000e+001
         vertex 1.680000e+002 1.690000e+002 6.999999e+000
      endloop
   endfacet
   facet normal -8.673617e-017 1.000000e+000 0.000000e+000
      outer loop
         vertex 1.680000e+002 1.690000e+002 6.999999e+000
         vertex 1.720000e+002 1.690000e+002 1.900000e+001
         vertex 1.720000e+002 1.690000e+002 4.999999e+000
      endloop
   endfacet
   facet normal -8.673617e-017 1.000000e+000 0.000000e+000
      outer loop
         vertex 1.680000e+002 1.690000e+002 6.999999e+000
         vertex 1.720000e+002 1.690000e+002 4.999999e+000
         vertex 1.680000e+002 1.690000e+002 4.999999e+000
      endloop
   endfacet
endsolid