solid 식판구동부_중앙_우측_2.1
   facet normal -1.000000e+000 -2.864602e-016 -2.465190e-032
      outer loop
         vertex 1.500000e+001 3.298000e+002 4.500000e+001
         vertex 1.500000e+001 3.400000e+002 4.500000e+001
         vertex 1.500000e+001 3.298000e+002 2.520000e+001
      endloop
   endfacet
   facet normal -1.000000e+000 -2.864602e-016 -2.465190e-032
      outer loop
         vertex 1.500000e+001 3.298000e+002 2.520000e+001
         vertex 1.500000e+001 3.400000e+002 4.500000e+001
         vertex 1.500000e+001 3.400000e+002 1.200000e+001
      endloop
   endfacet
   facet normal -1.000000e+000 -2.864602e-016 -2.465190e-032
      outer loop
         vertex 1.500000e+001 3.298000e+002 2.520000e+001
         vertex 1.500000e+001 3.400000e+002 1.200000e+001
         vertex 1.500000e+001 3.200000e+002 2.520000e+001
      endloop
   endfacet
   facet normal -1.000000e+000 -2.864602e-016 -2.465190e-032
      outer loop
         vertex 1.500000e+001 3.200000e+002 2.520000e+001
         vertex 1.500000e+001 3.400000e+002 1.200000e+001
         vertex 1.500000e+001 3.200000e+002 1.200000e+001
      endloop
   endfacet
   facet normal 0.000000e+000 0.000000e+000 1.000000e+000
      outer loop
         vertex 0.000000e+000 3.298000e+002 4.500000e+001
         vertex 0.000000e+000 3.200000e+002 4.500000e+001
         vertex 1.500000e+001 3.298000e+002 4.500000e+001
      endloop
   endfacet
   facet normal 0.000000e+000 0.000000e+000 1.000000e+000
      outer loop
         vertex 1.500000e+001 3.298000e+002 4.500000e+001
         vertex 0.000000e+000 3.200000e+002 4.500000e+001
         vertex 1.978000e+002 3.200000e+002 4.500000e+001
      endloop
   endfacet
   facet normal 0.000000e+000 0.000000e+000 1.000000e+000
      outer loop
         vertex 1.500000e+001 3.298000e+002 4.500000e+001
         vertex 1.978000e+002 3.200000e+002 4.500000e+001
         vertex 1.500000e+001 3.400000e+002 4.500000e+001
      endloop
   endfacet
   facet normal 0.000000e+000 0.000000e+000 1.000000e+000
      outer loop
         vertex 1.500000e+001 3.400000e+002 4.500000e+001
         vertex 1.978000e+002 3.200000e+002 4.500000e+001
         vertex 1.978000e+002 3.400000e+002 4.500000e+001
      endloop
   endfacet
   facet normal 1.239088e-016 -1.000000e+000 0.000000e+000
      outer loop
         vertex 1.978000e+002 3.200000e+002 4.500000e+001
         vertex 0.000000e+000 3.200000e+002 4.500000e+001
         vertex 1.500000e+001 3.200000e+002 2.520000e+001
      endloop
   endfacet
   facet normal 1.239088e-016 -1.000000e+000 0.000000e+000
      outer loop
         vertex 1.500000e+001 3.200000e+002 2.520000e+001
         vertex 0.000000e+000 3.200000e+002 4.500000e+001
         vertex 0.000000e+000 3.200000e+002 2.520000e+001
      endloop
   endfacet
   facet normal 1.239088e-016 -1.000000e+000 0.000000e+000
      outer loop
         vertex 1.978000e+002 3.200000e+002 1.200000e+001
         vertex 1.978000e+002 3.200000e+002 2.480000e+001
         vertex 1.678000e+002 3.200000e+002 2.480000e+001
      endloop
   endfacet
   facet normal 1.239088e-016 -1.000000e+000 0.000000e+000
      outer loop
         vertex 1.978000e+002 3.200000e+002 3.520000e+001
         vertex 1.978000e+002 3.200000e+002 4.500000e+001
         vertex 1.678000e+002 3.200000e+002 3.520000e+001
      endloop
   endfacet
   facet normal 1.239088e-016 -1.000000e+000 0.000000e+000
      outer loop
         vertex 1.678000e+002 3.200000e+002 3.520000e+001
         vertex 1.978000e+002 3.200000e+002 4.500000e+001
         vertex 1.500000e+001 3.200000e+002 2.520000e+001
      endloop
   endfacet
   facet normal 1.239088e-016 -1.000000e+000 0.000000e+000
      outer loop
         vertex 1.678000e+002 3.200000e+002 3.520000e+001
         vertex 1.500000e+001 3.200000e+002 2.520000e+001
         vertex 1.678000e+002 3.200000e+002 2.480000e+001
      endloop
   endfacet
   facet normal 1.239088e-016 -1.000000e+000 0.000000e+000
      outer loop
         vertex 1.678000e+002 3.200000e+002 2.480000e+001
         vertex 1.500000e+001 3.200000e+002 2.520000e+001
         vertex 1.500000e+001 3.200000e+002 1.200000e+001
      endloop
   endfacet
   facet normal 1.239088e-016 -1.000000e+000 0.000000e+000
      outer loop
         vertex 1.678000e+002 3.200000e+002 2.480000e+001
         vertex 1.500000e+001 3.200000e+002 1.200000e+001
         vertex 1.978000e+002 3.200000e+002 1.200000e+001
      endloop
   endfacet
   facet normal -1.224647e-016 1.000000e+000 0.000000e+000
      outer loop
         vertex 1.978000e+002 3.400000e+002 4.500000e+001
         vertex 1.978000e+002 3.400000e+002 3.520000e+001
         vertex 1.678000e+002 3.400000e+002 3.520000e+001
      endloop
   endfacet
   facet normal -1.224647e-016 1.000000e+000 0.000000e+000
      outer loop
         vertex 1.978000e+002 3.400000e+002 2.480000e+001
         vertex 1.978000e+002 3.400000e+002 1.200000e+001
         vertex 1.678000e+002 3.400000e+002 2.480000e+001
      endloop
   endfacet
   facet normal -1.224647e-016 1.000000e+000 0.000000e+000
      outer loop
         vertex 1.678000e+002 3.400000e+002 2.480000e+001
         vertex 1.978000e+002 3.400000e+002 1.200000e+001
         vertex 1.500000e+001 3.400000e+002 1.200000e+001
      endloop
   endfacet
   facet normal -1.224647e-016 1.000000e+000 0.000000e+000
      outer loop
         vertex 1.678000e+002 3.400000e+002 2.480000e+001
         vertex 1.500000e+001 3.400000e+002 1.200000e+001
         vertex 1.678000e+002 3.400000e+002 3.520000e+001
      endloop
   endfacet
   facet normal -1.224647e-016 1.000000e+000 0.000000e+000
      outer loop
         vertex 1.678000e+002 3.400000e+002 3.520000e+001
         vertex 1.500000e+001 3.400000e+002 1.200000e+001
         vertex 1.500000e+001 3.400000e+002 4.500000e+001
      endloop
   endfacet
   facet normal -1.224647e-016 1.000000e+000 0.000000e+000
      outer loop
         vertex 1.678000e+002 3.400000e+002 3.520000e+001
         vertex 1.500000e+001 3.400000e+002 4.500000e+001
         vertex 1.978000e+002 3.400000e+002 4.500000e+001
      endloop
   endfacet
   facet normal 0.000000e+000 0.000000e+000 -1.000000e+000
      outer loop
         vertex 1.500000e+001 3.200000e+002 1.200000e+001
         vertex 1.500000e+001 3.400000e+002 1.200000e+001
         vertex 1.978000e+002 3.200000e+002 1.200000e+001
      endloop
   endfacet
   facet normal 0.000000e+000 0.000000e+000 -1.000000e+000
      outer loop
         vertex 1.978000e+002 3.200000e+002 1.200000e+001
         vertex 1.500000e+001 3.400000e+002 1.200000e+001
         vertex 1.978000e+002 3.400000e+002 1.200000e+001
      endloop
   endfacet
   facet normal 1.445026e-032 8.850629e-017 -1.000000e+000
      outer loop
         vertex 1.500000e+001 3.298000e+002 2.520000e+001
         vertex 1.500000e+001 3.200000e+002 2.520000e+001
         vertex 0.000000e+000 3.298000e+002 2.520000e+001
      endloop
   endfacet
   facet normal 1.445026e-032 8.850629e-017 -1.000000e+000
      outer loop
         vertex 0.000000e+000 3.298000e+002 2.520000e+001
         vertex 1.500000e+001 3.200000e+002 2.520000e+001
         vertex 0.000000e+000 3.200000e+002 2.520000e+001
      endloop
   endfacet
   facet normal 1.632681e-016 1.000000e+000 0.000000e+000
      outer loop
         vertex 1.500000e+001 3.298000e+002 4.500000e+001
         vertex 1.500000e+001 3.298000e+002 2.520000e+001
         vertex 0.000000e+000 3.298000e+002 4.500000e+001
      endloop
   endfacet
   facet normal 1.632681e-016 1.000000e+000 0.000000e+000
      outer loop
         vertex 0.000000e+000 3.298000e+002 4.500000e+001
         vertex 1.500000e+001 3.298000e+002 2.520000e+001
         vertex 0.000000e+000 3.298000e+002 2.520000e+001
      endloop
   endfacet
   facet normal -1.000000e+000 1.909734e-016 3.697785e-032
      outer loop
         vertex 0.000000e+000 3.298000e+002 4.500000e+001
         vertex 0.000000e+000 3.298000e+002 2.520000e+001
         vertex 0.000000e+000 3.200000e+002 4.500000e+001
      endloop
   endfacet
   facet normal -1.000000e+000 1.909734e-016 3.697785e-032
      outer loop
         vertex 0.000000e+000 3.200000e+002 4.500000e+001
         vertex 0.000000e+000 3.298000e+002 2.520000e+001
         vertex 0.000000e+000 3.200000e+002 2.520000e+001
      endloop
   endfacet
   facet normal 0.000000e+000 0.000000e+000 -1.000000e+000
      outer loop
         vertex 1.978000e+002 3.200000e+002 3.520000e+001
         vertex 1.678000e+002 3.200000e+002 3.520000e+001
         vertex 1.978000e+002 3.400000e+002 3.520000e+001
      endloop
   endfacet
   facet normal 0.000000e+000 0.000000e+000 -1.000000e+000
      outer loop
         vertex 1.978000e+002 3.400000e+002 3.520000e+001
         vertex 1.678000e+002 3.200000e+002 3.520000e+001
         vertex 1.678000e+002 3.400000e+002 3.520000e+001
      endloop
   endfacet
   facet normal 1.000000e+000 1.239088e-016 0.000000e+000
      outer loop
         vertex 1.978000e+002 3.200000e+002 4.500000e+001
         vertex 1.978000e+002 3.200000e+002 3.520000e+001
         vertex 1.978000e+002 3.400000e+002 4.500000e+001
      endloop
   endfacet
   facet normal 1.000000e+000 1.239088e-016 0.000000e+000
      outer loop
         vertex 1.978000e+002 3.400000e+002 4.500000e+001
         vertex 1.978000e+002 3.200000e+002 3.520000e+001
         vertex 1.978000e+002 3.400000e+002 3.520000e+001
      endloop
   endfacet
   facet normal 1.000000e+000 1.239088e-016 1.355253e-016
      outer loop
         vertex 1.978000e+002 3.200000e+002 2.480000e+001
         vertex 1.978000e+002 3.200000e+002 1.200000e+001
         vertex 1.978000e+002 3.400000e+002 2.480000e+001
      endloop
   endfacet
   facet normal 1.000000e+000 1.239088e-016 1.355253e-016
      outer loop
         vertex 1.978000e+002 3.400000e+002 2.480000e+001
         vertex 1.978000e+002 3.200000e+002 1.200000e+001
         vertex 1.978000e+002 3.400000e+002 1.200000e+001
      endloop
   endfacet
   facet normal 0.000000e+000 0.000000e+000 1.000000e+000
      outer loop
         vertex 1.678000e+002 3.200000e+002 2.480000e+001
         vertex 1.978000e+002 3.200000e+002 2.480000e+001
         vertex 1.678000e+002 3.400000e+002 2.480000e+001
      endloop
   endfacet
   facet normal 0.000000e+000 0.000000e+000 1.000000e+000
      outer loop
         vertex 1.678000e+002 3.400000e+002 2.480000e+001
         vertex 1.978000e+002 3.200000e+002 2.480000e+001
         vertex 1.978000e+002 3.400000e+002 2.480000e+001
      endloop
   endfacet
   facet normal 1.000000e+000 1.239088e-016 0.000000e+000
      outer loop
         vertex 1.678000e+002 3.200000e+002 3.520000e+001
         vertex 1.678000e+002 3.200000e+002 2.480000e+001
         vertex 1.678000e+002 3.400000e+002 3.520000e+001
      endloop
   endfacet
   facet normal 1.000000e+000 1.239088e-016 0.000000e+000
      outer loop
         vertex 1.678000e+002 3.400000e+002 3.520000e+001
         vertex 1.678000e+002 3.200000e+002 2.480000e+001
         vertex 1.678000e+002 3.400000e+002 2.480000e+001
      endloop
   endfacet
endsolid